<svg width="16" height="16" viewBox="0 0 16 16" fill="none" xmlns="http://www.w3.org/2000/svg">
<path d="M8 0C4.69158 0 2 2.59944 2 5.79457C2 9.75982 7.36941 15.5811 7.59802 15.8269C7.81275 16.0579 8.18764 16.0575 8.40198 15.8269C8.63059 15.5811 14 9.75982 14 5.79457C13.9999 2.59944 11.3084 0 8 0ZM8 8.70998C6.33545 8.70998 4.98128 7.40213 4.98128 5.79457C4.98128 4.18701 6.33549 2.87919 8 2.87919C9.66452 2.87919 11.0187 4.18704 11.0187 5.7946C11.0187 7.40217 9.66452 8.70998 8 8.70998Z" fill="#D13058"/>
</svg>
