<svg width="115" height="8" viewBox="0 0 115 8" fill="none" xmlns="http://www.w3.org/2000/svg">
<path d="M0.820312 7V0.120117H6.04004V0.881836H1.75293V3.08887H5.74707V3.84082H1.75293V6.23828H6.24023V7H0.820312Z" fill="black"/>
<path d="M13.9531 7L10.2715 1.14062L10.2959 1.61426L10.3203 2.42969V7H9.49023V0.120117H10.5742L14.2949 6.01855C14.2559 5.38053 14.2363 4.91829 14.2363 4.63184V0.120117H15.0762V7H13.9531Z" fill="black"/>
<path d="M18.3994 3.52832C18.3994 2.41178 18.6989 1.54753 19.2979 0.935547C19.8968 0.323568 20.7383 0.0175781 21.8223 0.0175781C22.584 0.0175781 23.2025 0.146159 23.6777 0.40332C24.153 0.660482 24.5192 1.07227 24.7764 1.63867L23.8877 1.90234C23.6924 1.51172 23.4222 1.22689 23.0771 1.04785C22.7354 0.868815 22.3089 0.779297 21.7979 0.779297C21.0036 0.779297 20.3965 1.02018 19.9766 1.50195C19.5566 1.98047 19.3467 2.65592 19.3467 3.52832C19.3467 4.39746 19.5697 5.08431 20.0156 5.58887C20.4616 6.09017 21.0785 6.34082 21.8662 6.34082C22.3154 6.34082 22.7337 6.27246 23.1211 6.13574C23.5117 5.99902 23.8275 5.81348 24.0684 5.5791V4.33887H22.0127V3.55762H24.9277V5.93066C24.5632 6.30176 24.1156 6.58984 23.585 6.79492C23.0576 6.99674 22.4847 7.09766 21.8662 7.09766C21.1468 7.09766 20.5267 6.95443 20.0059 6.66797C19.485 6.38151 19.0863 5.96973 18.8096 5.43262C18.5361 4.89225 18.3994 4.25749 18.3994 3.52832Z" fill="black"/>
<path d="M28.5 7V0.120117H29.4326V6.23828H32.9092V7H28.5Z" fill="black"/>
<path d="M36.1689 7V0.120117H37.1016V7H36.1689Z" fill="black"/>
<path d="M46.2402 5.10059C46.2402 5.73535 45.9912 6.22689 45.4932 6.5752C44.9984 6.9235 44.3001 7.09766 43.3984 7.09766C41.722 7.09766 40.7503 6.51497 40.4834 5.34961L41.3867 5.16895C41.4909 5.58236 41.7122 5.88672 42.0508 6.08203C42.3893 6.27409 42.8499 6.37012 43.4326 6.37012C44.0348 6.37012 44.4987 6.26758 44.8242 6.0625C45.153 5.85417 45.3174 5.5498 45.3174 5.14941C45.3174 4.9248 45.2653 4.74251 45.1611 4.60254C45.0602 4.46256 44.917 4.34701 44.7314 4.25586C44.5459 4.16471 44.3245 4.08822 44.0674 4.02637C43.8102 3.96452 43.5254 3.89779 43.2129 3.82617C42.6693 3.70573 42.2559 3.58529 41.9727 3.46484C41.6927 3.3444 41.4714 3.21094 41.3086 3.06445C41.1458 2.91471 41.0205 2.74056 40.9326 2.54199C40.848 2.34342 40.8057 2.11556 40.8057 1.8584C40.8057 1.26921 41.0303 0.815104 41.4795 0.496094C41.932 0.177083 42.5781 0.0175781 43.418 0.0175781C44.1992 0.0175781 44.7966 0.138021 45.21 0.378906C45.6234 0.616536 45.9131 1.02344 46.0791 1.59961L45.1611 1.76074C45.0602 1.39616 44.8682 1.13249 44.585 0.969727C44.3018 0.803711 43.9095 0.720703 43.4082 0.720703C42.8581 0.720703 42.4382 0.811849 42.1484 0.994141C41.8587 1.17643 41.7139 1.44824 41.7139 1.80957C41.7139 2.02116 41.7692 2.19694 41.8799 2.33691C41.9938 2.47363 42.1566 2.59082 42.3682 2.68848C42.5798 2.78288 43.0013 2.90007 43.6328 3.04004C43.8444 3.08887 44.0544 3.13932 44.2627 3.19141C44.4743 3.24023 44.6761 3.30046 44.8682 3.37207C45.0602 3.44043 45.2393 3.52181 45.4053 3.61621C45.5745 3.71061 45.721 3.82617 45.8447 3.96289C45.9684 4.09961 46.0645 4.26074 46.1328 4.44629C46.2044 4.63184 46.2402 4.84994 46.2402 5.10059Z" fill="black"/>
<path d="M54.1729 7V3.81152H50.4521V7H49.5195V0.120117H50.4521V3.03027H54.1729V0.120117H55.1055V7H54.1729Z" fill="black"/>
<path d="M68.9199 5.10059C68.9199 5.73535 68.6709 6.22689 68.1729 6.5752C67.6781 6.9235 66.9798 7.09766 66.0781 7.09766C64.4017 7.09766 63.43 6.51497 63.1631 5.34961L64.0664 5.16895C64.1706 5.58236 64.3919 5.88672 64.7305 6.08203C65.069 6.27409 65.5296 6.37012 66.1123 6.37012C66.7145 6.37012 67.1784 6.26758 67.5039 6.0625C67.8327 5.85417 67.9971 5.5498 67.9971 5.14941C67.9971 4.9248 67.945 4.74251 67.8408 4.60254C67.7399 4.46256 67.5967 4.34701 67.4111 4.25586C67.2256 4.16471 67.0042 4.08822 66.7471 4.02637C66.4899 3.96452 66.2051 3.89779 65.8926 3.82617C65.349 3.70573 64.9355 3.58529 64.6523 3.46484C64.3724 3.3444 64.151 3.21094 63.9883 3.06445C63.8255 2.91471 63.7002 2.74056 63.6123 2.54199C63.5277 2.34342 63.4854 2.11556 63.4854 1.8584C63.4854 1.26921 63.71 0.815104 64.1592 0.496094C64.6117 0.177083 65.2578 0.0175781 66.0977 0.0175781C66.8789 0.0175781 67.4762 0.138021 67.8896 0.378906C68.3031 0.616536 68.5928 1.02344 68.7588 1.59961L67.8408 1.76074C67.7399 1.39616 67.5479 1.13249 67.2646 0.969727C66.9814 0.803711 66.5892 0.720703 66.0879 0.720703C65.5378 0.720703 65.1178 0.811849 64.8281 0.994141C64.5384 1.17643 64.3936 1.44824 64.3936 1.80957C64.3936 2.02116 64.4489 2.19694 64.5596 2.33691C64.6735 2.47363 64.8363 2.59082 65.0479 2.68848C65.2594 2.78288 65.681 2.90007 66.3125 3.04004C66.5241 3.08887 66.734 3.13932 66.9424 3.19141C67.154 3.24023 67.3558 3.30046 67.5479 3.37207C67.7399 3.44043 67.9189 3.52181 68.085 3.61621C68.2542 3.71061 68.4007 3.82617 68.5244 3.96289C68.6481 4.09961 68.7441 4.26074 68.8125 4.44629C68.8841 4.63184 68.9199 4.84994 68.9199 5.10059Z" fill="black"/>
<path d="M75.2461 0.779297C74.4844 0.779297 73.8919 1.02507 73.4688 1.5166C73.0456 2.00488 72.834 2.67546 72.834 3.52832C72.834 4.37142 73.0537 5.05013 73.4932 5.56445C73.9359 6.07552 74.5332 6.33105 75.2852 6.33105C76.2487 6.33105 76.973 5.85417 77.458 4.90039L78.2197 5.28125C77.9365 5.8737 77.5378 6.32454 77.0234 6.63379C76.5124 6.94303 75.9183 7.09766 75.2412 7.09766C74.5479 7.09766 73.9473 6.95443 73.4395 6.66797C72.9349 6.37826 72.5492 5.96647 72.2822 5.43262C72.0186 4.89551 71.8867 4.26074 71.8867 3.52832C71.8867 2.43131 72.1829 1.57194 72.7754 0.950195C73.3678 0.328451 74.1881 0.0175781 75.2363 0.0175781C75.9688 0.0175781 76.5807 0.160807 77.0723 0.447266C77.5638 0.733724 77.9251 1.15853 78.1562 1.72168L77.2725 2.01465C77.113 1.61426 76.8558 1.30827 76.501 1.09668C76.1494 0.885091 75.7311 0.779297 75.2461 0.779297Z" fill="black"/>
<path d="M86.0791 7V3.81152H82.3584V7H81.4258V0.120117H82.3584V3.03027H86.0791V0.120117H87.0117V7H86.0791Z" fill="black"/>
<path d="M97.1318 3.52832C97.1318 4.24772 96.9935 4.8776 96.7168 5.41797C96.4434 5.95833 96.0495 6.37337 95.5352 6.66309C95.0208 6.9528 94.4137 7.09766 93.7139 7.09766C93.0075 7.09766 92.3971 6.95443 91.8828 6.66797C91.3717 6.38151 90.9811 5.9681 90.7109 5.42773C90.4408 4.88411 90.3057 4.25098 90.3057 3.52832C90.3057 2.42806 90.6068 1.56868 91.209 0.950195C91.8112 0.328451 92.6494 0.0175781 93.7236 0.0175781C94.4235 0.0175781 95.0306 0.157552 95.5449 0.4375C96.0592 0.714193 96.4515 1.11784 96.7217 1.64844C96.9951 2.17904 97.1318 2.80566 97.1318 3.52832ZM96.1797 3.52832C96.1797 2.6722 95.9648 2 95.5352 1.51172C95.1087 1.02344 94.5049 0.779297 93.7236 0.779297C92.9359 0.779297 92.3271 1.02018 91.8975 1.50195C91.4678 1.98372 91.2529 2.65918 91.2529 3.52832C91.2529 4.39095 91.4694 5.07617 91.9023 5.58398C92.3385 6.08854 92.9424 6.34082 93.7139 6.34082C94.5081 6.34082 95.1169 6.09668 95.54 5.6084C95.9665 5.11686 96.1797 4.4235 96.1797 3.52832Z" fill="black"/>
<path d="M106.915 3.52832C106.915 4.24772 106.777 4.8776 106.5 5.41797C106.227 5.95833 105.833 6.37337 105.318 6.66309C104.804 6.9528 104.197 7.09766 103.497 7.09766C102.791 7.09766 102.18 6.95443 101.666 6.66797C101.155 6.38151 100.764 5.9681 100.494 5.42773C100.224 4.88411 100.089 4.25098 100.089 3.52832C100.089 2.42806 100.39 1.56868 100.992 0.950195C101.594 0.328451 102.433 0.0175781 103.507 0.0175781C104.207 0.0175781 104.814 0.157552 105.328 0.4375C105.842 0.714193 106.235 1.11784 106.505 1.64844C106.778 2.17904 106.915 2.80566 106.915 3.52832ZM105.963 3.52832C105.963 2.6722 105.748 2 105.318 1.51172C104.892 1.02344 104.288 0.779297 103.507 0.779297C102.719 0.779297 102.11 1.02018 101.681 1.50195C101.251 1.98372 101.036 2.65918 101.036 3.52832C101.036 4.39095 101.253 5.07617 101.686 5.58398C102.122 6.08854 102.726 6.34082 103.497 6.34082C104.291 6.34082 104.9 6.09668 105.323 5.6084C105.75 5.11686 105.963 4.4235 105.963 3.52832Z" fill="black"/>
<path d="M110.219 7V0.120117H111.151V6.23828H114.628V7H110.219Z" fill="black"/>
</svg>
