<svg width="142" height="28" viewBox="0 0 142 28" fill="none" xmlns="http://www.w3.org/2000/svg">
<path d="M8.00781 2.35156L4.64844 1.84375V0.808594H14.7266V1.84375L11.7578 2.35156V18.5625C11.7578 20.3073 11.4909 21.8372 10.957 23.1523C10.4232 24.4544 9.60938 25.4896 8.51562 26.2578C7.4349 27.013 6.22396 27.3906 4.88281 27.3906C3.21615 27.3906 1.86849 27.1953 0.839844 26.8047V22.0391H2.12891L2.71484 24.7539C2.96224 25.0534 3.3138 25.2878 3.76953 25.457C4.22526 25.6263 4.72656 25.7109 5.27344 25.7109C7.09635 25.7109 8.00781 24.474 8.00781 22V2.35156Z" fill="#D13058"/>
<path d="M21.3086 13.875C21.3086 18.0807 22.0117 21.1276 23.418 23.0156C24.8242 24.9036 27.0247 25.8477 30.0195 25.8477C33.0013 25.8477 35.2018 24.9036 36.6211 23.0156C38.0404 21.1276 38.75 18.0807 38.75 13.875C38.75 9.69531 38.0404 6.6875 36.6211 4.85156C35.2148 3.0026 33.0143 2.07812 30.0195 2.07812C27.0117 2.07812 24.8047 3.0026 23.3984 4.85156C22.0052 6.6875 21.3086 9.69531 21.3086 13.875ZM17.2266 13.875C17.2266 4.96875 21.4909 0.515625 30.0195 0.515625C34.2383 0.515625 37.4284 1.64844 39.5898 3.91406C41.7513 6.16667 42.832 9.48698 42.832 13.875C42.832 18.3281 41.7383 21.694 39.5508 23.9727C37.3633 26.2513 34.1862 27.3906 30.0195 27.3906C25.8659 27.3906 22.6953 26.2578 20.5078 23.9922C18.3203 21.7135 17.2266 18.3411 17.2266 13.875Z" fill="#D13058"/>
<path d="M47.207 19.9492H48.4766L49.1602 23.4844C49.6419 24.0964 50.4688 24.6367 51.6406 25.1055C52.8255 25.5742 53.9909 25.8086 55.1367 25.8086C56.9596 25.8086 58.3789 25.3464 59.3945 24.4219C60.4232 23.4844 60.9375 22.1953 60.9375 20.5547C60.9375 19.6172 60.7357 18.8424 60.332 18.2305C59.9414 17.6185 59.4206 17.1042 58.7695 16.6875C58.1315 16.2578 57.4023 15.8997 56.582 15.6133C55.7617 15.3138 54.9154 15.0143 54.043 14.7148C53.1836 14.4154 52.3438 14.0833 51.5234 13.7188C50.7031 13.3542 49.9674 12.8919 49.3164 12.332C48.6784 11.7721 48.1576 11.082 47.7539 10.2617C47.3633 9.42839 47.168 8.40625 47.168 7.19531C47.168 5.11198 47.9492 3.47786 49.5117 2.29297C51.0742 1.10807 53.2422 0.515625 56.0156 0.515625C58.125 0.515625 60.4167 0.795573 62.8906 1.35547V6.80469H61.6211L60.9375 3.60156C59.6094 2.63802 57.9688 2.15625 56.0156 2.15625C54.2708 2.15625 52.9036 2.51432 51.9141 3.23047C50.9375 3.93359 50.4492 4.91016 50.4492 6.16016C50.4492 7.00651 50.6445 7.70964 51.0352 8.26953C51.4388 8.82943 51.9596 9.3112 52.5977 9.71484C53.2487 10.1055 53.9844 10.444 54.8047 10.7305C55.638 11.0169 56.4844 11.3164 57.3438 11.6289C58.2161 11.9284 59.0625 12.2734 59.8828 12.6641C60.7161 13.0417 61.4518 13.5299 62.0898 14.1289C62.7409 14.7148 63.2617 15.4375 63.6523 16.2969C64.056 17.1432 64.2578 18.1914 64.2578 19.4414C64.2578 21.9674 63.4831 23.9271 61.9336 25.3203C60.3841 26.7005 58.151 27.3906 55.2344 27.3906C53.8281 27.3906 52.4154 27.2669 50.9961 27.0195C49.5768 26.7721 48.3138 26.4336 47.207 26.0039V19.9492Z" fill="#D13058"/>
<path d="M67.9102 25.9648L71.2695 25.4375V2.35156L67.9102 1.84375V0.808594H87.5586V7.07812H86.2695L85.6445 2.83984C84.1862 2.65755 82.0768 2.56641 79.3164 2.56641H75.0391V12.8008H82.1094L82.7148 9.67578H83.9648V17.7227H82.7148L82.1094 14.5586H75.0391V25.2422H80.1953C83.5547 25.2422 85.7552 25.138 86.7969 24.9297L87.9102 20.0859H89.1992L88.8281 27H67.9102V25.9648Z" fill="#D13058"/>
<path d="M107.969 8.5625C107.969 6.41406 107.467 4.8776 106.465 3.95312C105.462 3.02865 103.776 2.56641 101.406 2.56641H99.4922V14.9688H101.523C103.724 14.9688 105.345 14.4674 106.387 13.4648C107.441 12.4622 107.969 10.8281 107.969 8.5625ZM99.4922 16.7266V25.4375L103.652 25.9648V27H92.6172V25.9648L95.7227 25.4375V2.35156L92.3633 1.84375V0.808594H102.246C108.652 0.808594 111.855 3.38021 111.855 8.52344C111.855 11.2057 111.042 13.2435 109.414 14.6367C107.799 16.0299 105.475 16.7266 102.441 16.7266H99.4922Z" fill="#D13058"/>
<path d="M114.629 27V25.9648L117.988 25.4375V2.35156L114.629 1.84375V0.808594H125.117V1.84375L121.758 2.35156V12.6445H134.082V2.35156L130.723 1.84375V0.808594H141.191V1.84375L137.832 2.35156V25.4375L141.191 25.9648V27H130.723V25.9648L134.082 25.4375V14.4023H121.758V25.4375L125.117 25.9648V27H114.629Z" fill="#D13058"/>
</svg>
