<svg width="55" height="72" viewBox="0 0 55 72" fill="none" xmlns="http://www.w3.org/2000/svg">
<path d="M12.8614 33.8781C13.5307 35.2935 14.1795 35.6474 15.6824 35.3676C16.6761 35.1824 17.6452 34.9561 18.6553 35.3059C19.7928 35.7173 20.2362 36.4826 19.9775 37.6553C19.8424 38.3465 19.5199 38.9871 19.0454 39.5068C17.4563 41.1526 17.1894 43.1523 17.5466 45.2672C18.0599 48.2996 19.1891 51.0275 21.7966 52.8997C21.9319 53.021 22.0858 53.1196 22.2524 53.1918C24.2316 53.7884 25.0365 55.4672 25.792 57.1418C26.0588 57.7805 26.4947 58.3339 27.0527 58.7423C27.5536 59.1085 28.0176 59.5159 28.4858 59.9232C28.6377 60.0549 28.8143 60.2236 28.7198 60.454C28.6254 60.6844 28.4159 60.6433 28.2435 60.635C25.2952 60.528 22.314 60.528 20.0309 58.1663C19.9899 58.121 19.9036 58.1252 19.7517 58.0799C19.957 58.7053 20.4251 59.0427 20.7618 59.4665C21.268 60.1198 21.8094 60.7447 22.3838 61.3386C22.5947 61.5826 22.7534 61.8673 22.8501 62.1751C22.9469 62.483 22.9796 62.8074 22.9464 63.1284C22.9464 63.6469 22.6713 63.8814 22.2031 63.6016C21.3203 63.0667 20.3635 62.6594 19.5587 62.0011C18.9643 61.5768 18.5486 60.9461 18.3925 60.2318C18.3538 59.9457 18.2209 59.6807 18.0147 59.4788C17.1155 58.6559 16.8814 57.6108 16.7829 56.4793C16.779 56.1171 16.7194 55.7577 16.6063 55.4137C16.4585 55.0598 16.286 54.6936 15.707 55.0022C15.0664 55.3561 14.5531 55.1174 14.2657 54.3192C14.1844 54.0335 14.0031 53.7868 13.7549 53.6243C13.5068 53.4618 13.2085 53.3945 12.9147 53.4346C12.3481 53.4346 11.7814 53.414 11.2147 53.3564C10.0527 53.2288 9.3587 52.6034 9.21498 51.4555C9.14107 50.8712 8.76329 50.6778 8.34856 50.4844C7.33781 50.0939 6.3554 49.6333 5.40846 49.1061C4.92716 48.8459 4.5501 48.4273 4.34083 47.9211C4.17658 47.4602 4.22996 47.0982 4.78841 46.983C4.9384 46.9457 5.08424 46.8933 5.22368 46.8266C5.90532 46.5345 5.93817 46.4151 5.41257 45.9337C4.88696 45.4523 4.73092 44.7899 4.55435 44.1439C4.37778 43.4979 4.22585 42.7367 3.9959 42.0537C3.85871 41.5347 3.54851 41.0783 3.1168 40.7602C2.68509 40.4421 2.15781 40.2815 1.62247 40.305C0.801215 40.305 0.723196 40.1322 1.09687 39.3834C1.34735 38.8732 1.65532 38.3918 1.86885 37.8651C2.1645 37.1451 1.99204 36.82 1.28576 36.5402C0.813534 36.3551 0.107254 36.3098 0.00870288 35.8078C-0.0898478 35.3059 0.673923 35.2153 1.01885 34.9026C1.62247 34.3513 1.80725 33.8164 1.38841 33.1169C1.00606 32.429 0.819966 31.6489 0.850491 30.8621C0.850491 29.9734 0.973678 29.097 0.476819 28.2329C0.156529 27.6775 0.386483 26.9657 0.563053 26.3361C0.706773 25.8136 0.883341 25.3034 1.0517 24.7891C1.1869 24.4807 1.24557 24.1441 1.22269 23.808C1.19981 23.472 1.09605 23.1465 0.920297 22.8593C0.563051 22.3162 0.714983 21.7196 0.96136 21.1518C1.46233 19.9833 2.3616 19.1192 3.19107 18.2017C3.6017 17.7614 4.01233 17.3335 4.42295 16.9056C5.03986 16.2805 5.44987 15.4804 5.59735 14.6138C6.06562 12.2505 7.38 10.1403 9.293 8.6806C11.4806 6.86653 13.3646 4.71348 14.8734 2.30305C16.208 0.184056 17.6862 -0.354949 20.15 0.208744C21.2056 0.43685 22.289 0.507557 23.3652 0.418584C25.48 0.295148 27.5947 0.336296 29.656 0.974051C31.0645 1.38551 32.1445 2.20842 32.6947 3.61559C32.863 4.02705 33.056 4.10934 33.5159 3.9571C34.6573 3.61278 35.8651 3.55205 37.035 3.78017C37.1633 3.78699 37.2877 3.82666 37.3964 3.89538C38.8582 5.12975 40.743 5.33959 42.4019 6.08432C42.6606 6.19953 42.9234 6.31062 43.178 6.43406C44.1101 6.88254 44.5824 7.54087 44.4099 8.66003C44.3114 9.38008 43.9664 10.2112 44.4099 10.8572C44.8534 11.5032 45.6911 11.4415 46.3358 11.7459C48.3889 12.7087 50.3476 13.7785 51.9162 15.449C52.9838 16.5888 53.0085 17.136 52.1215 18.4197C51.3331 19.5554 51.3002 20.1273 52.064 21.2382C52.5116 21.9007 52.7498 22.415 51.9449 23.061C51.1401 23.7069 51.3618 24.4846 52.3556 24.9372C53.4247 25.4653 54.3366 26.2655 55 27.2578C54.1254 27.2578 54.15 27.8791 54.1336 28.4922C54.1541 29.3737 54.3539 30.2417 54.7208 31.0432C54.9466 31.6274 54.9302 32.0307 54.1705 32.113C53.8911 32.165 53.6221 32.2623 53.3739 32.401C52.2816 32.9112 52.142 33.298 52.4007 34.4583C53.1193 37.6882 54.0186 40.9181 53.493 44.2591C52.836 48.4601 51.7848 52.5623 49.6002 56.2777C49.4221 56.5767 49.306 56.9086 49.2587 57.2536C49.2115 57.5986 49.234 57.9496 49.3251 58.2856C49.7129 59.999 50.2024 61.6876 50.7911 63.3424C51.0814 64.0908 51.2371 64.8848 51.251 65.6877C51.251 66.1609 51.0621 66.5106 50.5775 66.5847C50.093 66.6587 49.9041 66.3337 49.7563 65.9428C49.3785 64.9718 49.4401 63.9596 49.4114 62.9515C49.409 62.5411 49.2841 62.1408 49.0529 61.8021C48.8217 61.4633 48.4946 61.2016 48.1138 61.0506C47.2309 60.7996 46.7669 61.388 46.3604 62.0052C45.4118 63.437 44.8739 65.0664 44.1225 66.597C43.9172 67.0085 43.6913 67.4199 43.5147 67.8519C42.443 70.4935 40.201 71.4563 37.651 71.9665C36.8913 72.1146 36.6244 71.7649 36.9036 71.049C37.0925 70.5717 37.3143 70.1026 37.5114 69.6253C37.7783 68.9834 37.922 68.3457 37.4826 67.7038C37.3703 67.5401 37.3209 67.3411 37.3436 67.1438C37.3662 66.9464 37.4593 66.7639 37.6058 66.6299C38.2957 65.807 38.386 64.8648 38.2874 63.8567C38.23 63.293 38.2094 62.7211 38.1889 62.1533C38.1889 61.7624 38 61.6102 37.6017 61.6431C35.0804 61.8488 33.2285 60.9354 31.6763 58.6724C33.1098 59.2468 34.5874 59.7036 36.0947 60.0384C40.2461 60.9025 43.5271 59.3883 46.2618 56.3641C46.9476 55.6071 47.2145 54.599 47.5676 53.6609C47.9375 52.7537 48.3984 51.8866 48.9432 51.0728C50.3394 48.8592 51.3208 46.4933 51.2304 43.7983C51.1771 42.1525 51.563 40.5066 51.2304 38.8608C50.98 37.5071 50.6432 36.2522 49.5222 35.3223C48.9679 34.8615 48.8816 33.4955 49.4606 32.9811C50.1916 32.331 50.2819 31.5616 50.3271 30.6893C50.3437 29.7522 50.0554 28.8351 49.5058 28.0766C49.4319 27.9696 49.3456 27.875 49.2635 27.7721C49.0048 26.871 49.2225 25.9165 48.9761 25.0112C49.0054 24.3134 48.8675 23.6186 48.5739 22.9851C48.2802 22.3515 47.8395 21.7977 47.2884 21.3699C45.494 19.8722 44.8246 17.926 44.5043 15.77C44.0362 12.7417 42.3485 10.5239 39.9217 8.80815C38.1684 7.57379 36.1563 6.75088 34.3413 5.65229C31.6312 4.00647 28.7978 4.44673 25.9604 4.73475C23.0296 5.07886 20.2755 6.31861 18.0722 8.28561C15.7686 10.2524 13.9659 12.5689 13.3007 15.6095C12.8367 17.6668 13.1529 19.5554 14.5573 21.2053C14.975 21.6971 15.3552 22.2198 15.6947 22.7688C16.4092 23.9374 16.2531 24.6121 15.128 25.3898C14.4908 25.7817 13.9069 26.2547 13.3911 26.797C13.2341 26.9352 13.1278 27.1221 13.0891 27.3279C13.0504 27.5337 13.0815 27.7466 13.1775 27.9326C13.3349 28.2012 13.403 28.5129 13.372 28.8228C13.341 29.1327 13.2125 29.4247 13.0051 29.6566C12.4507 30.3574 12.1599 31.2313 12.1838 32.1253C12.1546 32.4358 12.2298 32.7472 12.3974 33.0099C12.4026 33.1807 12.4472 33.348 12.5277 33.4986C12.6082 33.6492 12.7224 33.7791 12.8614 33.8781Z" fill="#252525"/>
<path d="M12.8615 33.8781C12.7229 33.7774 12.6096 33.6458 12.5305 33.4937C12.4514 33.3416 12.4087 33.1732 12.4057 33.0017C14.5533 31.936 16.6926 30.8498 18.8566 29.8211C19.4603 29.5331 19.9078 29.2245 19.9859 28.5127C20.0434 27.9819 20.4581 27.5499 20.4704 26.9039C19.8216 27.4594 19.2385 27.9655 18.6513 28.4633C18.524 28.5662 18.3762 28.776 18.2037 28.6074C18.1257 28.5333 18.1504 28.3111 18.2037 28.1712C18.5265 27.0441 19.2015 26.0505 20.1296 25.3363C21.2896 24.3858 22.5887 23.6197 23.9813 23.0651C25.4924 22.4355 27.0199 22.6536 28.5434 23.0033C28.5679 23.0005 28.5927 23.0005 28.6173 23.0033C28.9597 23.3982 29.3969 23.6992 29.8876 23.8777C30.3783 24.0562 30.9064 24.1065 31.4219 24.0237C31.7627 23.9703 31.9269 24.4352 32.0214 24.7479C32.2677 25.5708 32.432 26.4472 32.9535 27.1837C33.0534 27.3235 33.1072 27.4911 33.1072 27.6631C33.1072 27.835 33.0534 28.0026 32.9535 28.1424C32.7564 28.4304 32.4813 28.1424 32.2308 28.1877C32.4525 30.4507 32.7605 32.7425 30.5636 34.3225C30.4774 33.9398 30.7402 33.6929 30.9004 33.409C32.4484 30.6523 31.8078 27.5705 29.1962 26.332C28.042 25.8056 26.7998 25.4999 25.5334 25.4309C23.8909 25.3404 22.5646 26.2538 21.5668 27.5911C21.4682 27.7268 21.3697 27.8832 21.4847 28.0025C21.6818 28.2206 21.8953 28.0025 21.9979 27.8873C22.8724 27.2007 23.9147 26.7617 25.0161 26.6159C25.6023 26.5135 26.203 26.53 26.7828 26.6643C27.3625 26.7985 27.9095 27.0479 28.3914 27.3977C28.5557 27.5047 28.802 27.6569 28.6789 27.8708C28.5557 28.0848 28.3257 27.8708 28.1368 27.805C27.3156 27.5746 26.4943 27.3401 25.6731 27.1919C25.3514 27.1511 25.0248 27.1791 24.7147 27.2742C24.4047 27.3692 24.1183 27.5291 23.8745 27.7433C23.7677 27.8256 23.6569 27.8955 23.7185 28.0519C23.7801 28.2082 23.9115 28.1959 24.0388 28.1712L25.476 27.8667C26.8392 27.5664 27.5291 28.0478 27.6318 29.4426C27.6687 29.994 27.9931 29.817 28.2723 29.8211C28.5516 29.8253 28.8842 29.743 28.9581 30.0186C29.032 30.2943 28.6624 30.3848 28.4448 30.4959C26.6052 31.4258 24.7081 31.8002 22.696 31.1008C22.4496 31.0185 22.195 30.9938 22.0554 30.7346C23.0327 31.0432 23.9361 30.6523 24.9586 30.5042C24.5564 30.0376 24.3349 29.4419 24.3344 28.8254C23.4762 29.492 22.6632 29.9816 22.0677 30.7469C21.6571 30.9238 21.2465 31.0843 20.8359 31.2818C20.4252 31.4793 20.5484 31.792 20.6511 32.1047C20.976 33.0646 21.5973 33.8961 22.425 34.4788C22.9081 34.8213 23.4255 35.1122 23.969 35.347C24.162 35.4375 24.5069 35.4704 24.3796 35.7872C24.2934 35.9806 24.0182 35.8983 23.817 35.8325C21.5955 35.1083 20.1871 33.6477 19.8216 31.3065C19.7272 30.7099 19.5136 30.8127 19.1235 30.9979C17.2429 31.899 15.3581 32.7836 13.4692 33.6724C13.2557 33.7588 13.0545 33.7958 12.8615 33.8781ZM25.5622 30.2326C25.5622 30.2326 25.5909 30.2326 25.6074 30.2038C25.5047 30.175 25.476 29.9857 25.4719 29.9117C25.4719 29.4632 25.7757 28.9077 24.9421 28.6979C24.7738 29.3315 24.8395 30.1174 25.5622 30.2326Z" fill="#D13058"/>
<path d="M49.0052 24.9825C49.2515 25.8877 49.0339 26.8422 49.2926 27.7433C48.882 28.2042 48.8573 28.8255 48.611 29.3603C48.2119 30.2007 47.593 30.9168 46.82 31.4327C46.047 31.9486 45.149 32.2448 44.2213 32.2899C44.1186 32.2743 44.018 32.2467 43.9216 32.2076C44.5663 31.9155 45.1288 31.681 45.6709 31.4094C46.9337 30.7861 47.9075 29.6983 48.3892 28.3729C48.5428 28.0152 48.6063 27.6252 48.574 27.2372C48.5206 26.7929 48.3974 26.365 47.7733 26.4349C47.3134 26.4843 47.03 26.1798 46.7713 25.8424C45.2643 23.8674 44.2665 23.6164 41.9506 24.4887C41.4291 24.6862 40.7967 24.5463 40.267 24.8549C40.194 24.8906 40.1098 24.8959 40.0329 24.8697C39.956 24.8435 39.8926 24.7879 39.8564 24.715C39.7414 24.4969 39.918 24.3859 40.0658 24.3036C40.551 23.9602 41.08 23.6834 41.6385 23.4807L42.9032 23.0404C41.5933 22.271 39.5443 23.1391 38.7723 24.715C38.1769 24.9619 37.9839 25.6573 37.409 26.0111C37.5443 24.7412 38.1189 23.5587 39.0332 22.6689C39.9475 21.7791 41.1438 21.238 42.4146 21.1395C42.8956 21.125 43.37 21.0233 43.8148 20.8391C43.9298 21.0695 44.168 21.0448 44.3569 21.0695C46.5742 21.3617 48.0155 22.6084 48.7957 24.678C48.8553 24.7862 48.9255 24.8882 49.0052 24.9825Z" fill="#D13058"/>
<path d="M29.1838 46.0202C30.2842 45.9626 31.2081 45.5388 32.1485 45.1973C33.5323 44.7077 34.8915 44.1687 36.2548 43.6543C36.5582 43.5091 36.8918 43.4385 37.228 43.4486C38.3634 43.542 39.502 43.3124 40.513 42.7862C41.7449 42.1978 43.0466 42.1525 44.3441 41.9633C45.3214 41.8316 46.348 41.8234 46.9557 40.7659C47.1898 40.3545 47.777 40.3833 48.2369 40.3792C48.4052 40.3792 48.5531 40.3997 48.5859 40.5931C48.6188 40.7865 48.5613 40.9387 48.3847 40.9552C48.011 40.9922 47.8961 41.2967 47.7072 41.5271C47.1856 42.216 46.4224 42.6808 45.5719 42.8273C43.9582 43.1367 42.369 43.563 40.8168 44.1028C38.234 44.8928 35.5197 45.1273 32.941 45.9461C31.9582 46.2566 30.9515 46.485 29.9311 46.6292C29.6803 46.6827 29.4194 46.6627 29.1796 46.5716C28.921 46.4646 28.4857 46.4275 28.5226 46.1395C28.5801 45.7774 28.999 46.0819 29.1838 46.0202Z" fill="#D13058"/>
<path d="M42.7346 35.0303C42.5918 35.3241 42.5317 35.6513 42.5606 35.9768C42.5896 36.3023 42.7065 36.6138 42.8988 36.8777C43.0099 37.0086 43.0709 37.1749 43.0709 37.3468C43.0709 37.5186 43.0099 37.6849 42.8988 37.8158C42.5092 38.2944 42.2377 38.8583 42.1063 39.4616C41.4082 41.7658 39.3058 42.2513 37.5894 40.5232C36.9735 39.8617 36.2847 39.2723 35.5363 38.7663C35.1253 38.4446 34.605 38.297 34.0867 38.3548C34.0317 38.3714 33.9738 38.3762 33.9167 38.3689C33.8597 38.3617 33.8048 38.3425 33.7557 38.3126C33.7065 38.2828 33.6642 38.2429 33.6314 38.1956C33.5986 38.1483 33.576 38.0946 33.5652 38.038C33.544 37.9755 33.5369 37.909 33.5445 37.8434C33.5522 37.7778 33.5743 37.7147 33.6093 37.6588C33.6443 37.6028 33.6913 37.5554 33.7469 37.5199C33.8025 37.4844 33.8653 37.4618 33.9307 37.4537C35.0666 37.2616 36.2336 37.4882 37.2157 38.0915C37.3089 38.1422 37.3789 38.2271 37.411 38.3283C37.4431 38.4295 37.435 38.5393 37.3882 38.6346C37.0679 39.2641 37.5032 39.2395 37.8727 39.1777C39.3305 38.9185 40.5254 38.2108 41.0838 36.8036C41.401 36.0313 41.9877 35.401 42.7346 35.0303Z" fill="#D13058"/>
<path d="M25.3691 46.304C25.1361 46.1829 24.9437 45.9959 24.816 45.7662C24.6882 45.5365 24.6307 45.2743 24.6505 45.012C24.6832 43.8713 25.0238 42.7608 25.636 41.7986C26.914 39.6725 28.4796 37.7339 30.2884 36.0382C30.5594 35.7831 30.9084 35.3428 31.2616 35.5938C31.6147 35.8448 31.3437 36.3139 31.1671 36.6307C30.5474 37.8716 29.8422 39.0677 29.0565 40.2104C27.7705 42.0116 26.6164 43.9037 25.6031 45.872L25.3691 46.304Z" fill="#040404"/>
<path d="M46.3317 26.1922C46.4467 26.76 45.88 27.4759 44.9643 27.5911C43.7912 27.7481 42.6051 27.7839 41.4247 27.6981C41.2713 27.7038 41.119 27.6688 40.9834 27.5965C40.8479 27.5243 40.7338 27.4173 40.6527 27.2866C41.3221 26.9821 42.0735 27.0315 42.7469 26.6448C42.5683 26.431 42.439 26.1805 42.368 25.911C42.297 25.6414 42.2862 25.3595 42.3363 25.0853C40.8498 25.6408 40.1066 27.192 38.5832 27.5212C38.584 27.4029 38.6155 27.2869 38.6745 27.1845C38.7335 27.082 38.8181 26.9967 38.9199 26.9369C40.3448 25.8795 41.6054 24.4682 43.5682 24.4682C44.4182 24.4682 45.3832 24.3612 45.8882 25.3404C46.0196 25.5667 46.2209 25.6285 46.3317 26.1922ZM42.71 25.287C42.71 26.0276 42.8455 26.2333 43.5312 26.5789C43.7078 25.8671 43.1699 25.612 42.71 25.287Z" fill="#D13058"/>
<path d="M49.8425 41.5352C49.5674 41.3582 49.6002 41.1237 49.5838 40.9385C49.4195 39.1117 48.3519 37.8732 46.9681 36.824C46.1362 36.2145 45.2697 35.654 44.3729 35.1453C44.0403 34.9519 43.7118 34.7338 43.8925 34.3223C44.0732 33.9109 44.4633 34.0384 44.7671 34.1578C47.2925 35.1576 49.206 36.824 50.2203 39.3997C50.362 39.7556 50.4018 40.1441 50.335 40.5214C50.2683 40.8987 50.0977 41.2498 49.8425 41.5352Z" fill="#040404"/>
<path d="M36.1972 36.5073C34.4725 36.4497 33.487 35.4498 33.7703 33.7217C33.9508 32.5059 33.9633 31.2708 33.8073 30.0516C33.7703 29.6771 33.5773 29.0805 34.0619 28.9653C34.5464 28.8501 34.7107 29.4591 34.8544 29.8499C35.265 31.0185 35.6469 32.1335 34.8996 33.3926C34.2918 34.413 35.1706 35.886 36.3039 36.0588C36.5133 36.0917 36.8008 35.9642 36.9034 36.2645C36.9609 36.4332 36.7063 36.5237 36.1972 36.5073Z" fill="#D13058"/>
<path d="M24.2561 33.7259C23.4579 33.7522 22.6619 33.6251 21.9114 33.3514C21.7595 33.2897 21.5254 33.2074 21.5788 32.9935C21.6322 32.7795 21.8704 32.8536 22.0346 32.8906C23.4903 33.2614 25.0229 33.1942 26.4406 32.6972C27.253 32.3755 28.0033 31.9146 28.658 31.3353C28.9414 31.1049 29.3356 30.6811 29.6353 31.0637C29.9351 31.4464 29.5368 31.8537 29.2001 32.1459C27.7793 33.3843 26.0834 33.7629 24.2561 33.7259Z" fill="#D13058"/>
<path d="M43.9212 44.683C41.6627 46.6251 36.2465 48.0775 34.8134 46.9748C38.0861 47.1311 41.0303 45.9955 43.9212 44.683Z" fill="#040404"/>
<path d="M47.3744 27.5293C47.3334 28.7061 46.9638 29.2368 45.966 29.5866C44.5967 30.1534 43.068 30.2002 41.6667 29.7182C41.4968 29.6819 41.3363 29.6109 41.195 29.5097C41.0537 29.4085 40.9347 29.2792 40.8455 29.1299C40.9969 29.0659 41.1595 29.033 41.3238 29.033C41.4882 29.033 41.6508 29.0659 41.8022 29.1299C43.0926 29.3964 44.4322 29.2865 45.6621 28.813C46.3684 28.5744 46.7872 27.9737 47.3744 27.5293Z" fill="#D13058"/>
<path d="M33.1503 35.3429C31.9184 36.5773 31.9964 37.6224 33.4623 38.795C33.5732 38.8855 33.873 38.8897 33.7251 39.1612C33.6389 39.3381 33.4706 39.3217 33.3145 39.297C32.0375 39.0666 31.1752 37.3632 31.7377 36.1905C31.8581 35.9213 32.0582 35.6955 32.3109 35.544C32.5635 35.3924 32.8565 35.3222 33.1503 35.3429Z" fill="#040404"/>
<path d="M36.3245 25.1553C36.4347 25.2677 36.5173 25.4043 36.5658 25.5543C36.6142 25.7043 36.6272 25.8635 36.6037 26.0193C36.1351 25.8734 35.6374 25.8482 35.1566 25.946C34.6757 26.0438 34.2272 26.2615 33.8525 26.5789C33.68 26.7065 33.4419 26.9204 33.253 26.653C33.2095 26.5952 33.1802 26.5279 33.1675 26.4567C33.1547 26.3854 33.1589 26.3122 33.1797 26.2428C33.2005 26.1735 33.2373 26.1101 33.2871 26.0577C33.337 26.0053 33.3984 25.9653 33.4665 25.9412C34.1659 25.5485 34.9421 25.3126 35.7414 25.2499C35.9385 25.217 36.1643 25.324 36.3245 25.1553Z" fill="#D13058"/>
<path d="M28.5229 45.115C28.5824 45.1139 28.6418 45.1209 28.6995 45.1355C28.9212 45.2261 29.3031 45.1849 29.2949 45.4812C29.2867 45.7774 28.9294 45.7404 28.72 45.7322C28.0671 45.6992 27.8002 46.1806 27.4553 46.5798C27.3731 46.6744 27.3198 46.8801 27.1103 46.7855C26.9009 46.6908 26.9379 46.4975 26.9707 46.3288C27.0557 45.9811 27.255 45.6722 27.5366 45.452C27.8182 45.2318 28.1657 45.113 28.5229 45.115Z" fill="#D13058"/>
<path d="M44.5166 19.8517C44.303 19.3909 43.6953 19.4403 43.1861 19.4773C43.0337 19.499 42.8828 19.5306 42.7344 19.5719C42.1596 19.7036 41.5888 19.8888 41.0057 19.9628C40.4408 20.0215 39.8954 20.2028 39.4075 20.4941C38.9196 20.7855 38.5009 21.1798 38.1806 21.6498C37.9547 21.9584 37.6427 22.2052 37.4086 22.4727C36.7705 23.2151 36.3901 24.1449 36.3245 25.1225C36.4348 25.2349 36.5174 25.3715 36.5658 25.5215C36.6143 25.6715 36.6273 25.8307 36.6038 25.9865C37.0798 26.5574 37.4649 27.1986 37.7453 27.8874C37.7534 27.9872 37.7833 28.0839 37.833 28.1707C37.8827 28.2574 37.9509 28.3321 38.0328 28.3894C38.2381 29.4798 38.468 30.5825 39.1209 31.5C39.7738 32.4176 40.5129 33.2034 40.8825 34.2773C41.0016 34.623 41.3917 34.6147 41.4081 34.3103C41.4369 33.8289 41.7654 33.8618 42.1678 33.7424C41.8844 33.475 41.6873 33.2857 41.4861 33.1047C41.1795 32.9084 40.9029 32.6687 40.6649 32.3929C40.2451 31.6222 39.6885 30.9348 39.0224 30.3644C38.948 30.3129 38.8881 30.2431 38.8486 30.1616C38.809 30.0802 38.7911 29.9899 38.7965 29.8995C38.8335 29.2946 38.5091 28.8173 38.234 28.3236C38.2089 28.2178 38.1584 28.1197 38.0868 28.0379C38.0152 27.9562 37.9248 27.8932 37.8233 27.8545C37.7953 27.6903 37.8105 27.5216 37.8674 27.365C37.9243 27.2084 38.0209 27.0694 38.1477 26.9617C38.9977 26.3609 39.4617 25.6862 38.7349 24.6863C38.1395 24.9332 37.9465 25.6286 37.3716 25.9824C37.5069 24.7125 38.0815 23.53 38.9958 22.6402C39.9101 21.7504 41.1064 21.2093 42.3772 21.1108C42.8582 21.0963 43.3327 20.9946 43.7774 20.8104C44.11 20.5265 44.7383 20.3167 44.5166 19.8517Z" fill="#040404"/>
</svg>
