<svg width="521" height="184" viewBox="0 0 521 184" fill="none" xmlns="http://www.w3.org/2000/svg">
<path d="M519.79 172.249C505.66 130.379 516.5 85.8993 512.7 42.8993C511.05 24.1393 503.31 1.89929 481 1.01929C471.81 0.669291 463.59 5.89929 459.27 13.8993C454.95 21.8993 454.64 31.1493 454.32 39.8993C453.44 63.4993 452.923 87.0793 452.77 110.639C452.7 121.459 453.2 132.379 452.62 143.179C452.35 148.269 451.8 156.649 447.11 159.809C440.56 164.199 434.92 154.229 433.67 149.189C431.15 138.979 432.54 127.379 432.57 116.959C432.62 94.0493 432.95 71.1293 432.71 48.2193C432.52 31.0993 428.24 8.61929 408.42 4.21929C386.17 -0.810709 378 24.0093 374.89 40.8993C370.89 62.5193 371.08 84.5093 369.89 106.379C369.478 117.123 368.255 127.82 366.23 138.379C365.35 142.589 364.51 147.039 362.73 150.969C361.68 153.279 359.18 158.569 356.19 159.059C347.05 160.569 349.36 117.059 349.39 112.059C349.57 88.8793 350.71 65.6193 348.53 42.4893C347.09 26.8293 342.86 1.89929 322 2.69929C312.18 3.08929 304.16 10.3493 300.64 19.1493C296.7 29.0093 297.64 40.2693 297.51 50.6793C297.27 74.0993 297.027 97.5226 296.78 120.949C296.68 130.599 297.61 141.129 294.73 150.469C292.89 156.469 287.26 163.839 281.73 156.619C278.99 153.029 278.34 147.899 277.8 143.549C277.03 137.499 276.56 131.399 276.03 125.329C275.023 113.689 274.24 102.023 273.68 90.3293C273.12 78.636 272.787 66.9693 272.68 55.3293C272.59 45.4593 273.12 35.5093 271.41 25.7393C269.89 17.0793 265.41 8.31929 257.65 3.73929C248.65 -1.62071 238.87 3.36929 234.5 12.0593C229.79 21.4193 227.57 32.6393 225.25 42.7893C222.756 53.7934 220.873 64.9271 219.61 76.1393C218.319 87.2521 217.691 98.4319 217.73 109.619C217.73 118.719 218.3 127.819 217.73 136.909C217.24 144.329 215.91 152.519 211.4 158.669C210.331 160.155 209.078 161.499 207.67 162.669C207.094 163.071 206.493 163.435 205.87 163.759C204.56 162.149 204.32 158.409 204.19 156.759C202.31 134.129 205.34 110.759 205.95 88.1393C206.26 76.6093 206.27 65.0593 205.5 53.5393C204.79 42.9693 204.15 31.4693 200.27 21.5393C196.65 12.2193 190.08 4.27929 180.27 1.12929C175.932 -0.260756 171.284 -0.369906 166.886 0.814932C162.487 1.99977 158.523 4.4283 155.47 7.80929C142.47 22.2593 145.67 47.0493 147.3 64.6793C149.39 87.2793 153.66 109.769 153.18 132.539C153 140.619 152.68 151.899 145 156.899C137.9 161.469 133 154.749 131.95 148.039C130.32 137.519 132.68 125.909 133.03 115.319C133.417 103.713 133.387 92.106 132.94 80.4993C132.493 68.8926 131.623 57.3193 130.33 45.7793C129.26 36.1893 128.77 25.9293 124.38 17.1493C120.38 9.05929 112.17 3.42929 102.89 5.14929C92.89 6.97929 86.56 15.7693 82.78 24.5093C74.29 44.1393 76.56 67.5093 76.34 88.3693L75.97 123.569C75.86 133.109 76.81 143.329 75.08 152.749C74.26 157.219 72.08 164.819 66.26 160.909C58.59 155.739 60.49 142.099 60.38 134.199C60.0467 110.893 59.2533 87.606 58 64.3393C57.42 53.5593 57.25 42.5793 55.63 31.8993C54.43 24.0393 51.76 15.7693 45.79 10.2093C42.3753 7.08638 38.0649 5.11636 33.4689 4.57797C28.873 4.03959 24.224 4.96012 20.18 7.20929C11 12.0493 6.25 21.7893 4.54 31.6093C0.52 54.6193 0 78.7893 0 102.099C0.0402946 124.788 1.42941 147.455 4.16 169.979C4.74 174.769 7.85 178.919 13.1 178.919C17.48 178.919 22.61 174.809 22.03 169.979C19.2487 147.085 17.8595 124.042 17.87 100.979C17.8767 89.286 18.2533 77.5926 19 65.8993C19.68 55.2493 19.87 43.8993 22.32 33.4993C23.32 29.0893 28.94 17.2793 34.49 24.2093C38.91 29.7293 38.59 39.2093 39.02 45.8093C40.4667 68.3293 41.4667 90.8693 42.02 113.429C42.31 124.769 41.9 136.239 42.72 147.549C43.46 157.669 46.23 167.659 54.41 174.269C61.57 180.059 71.41 181.839 79.69 177.179C86.6 173.279 90.48 165.709 92.09 158.179C94.09 148.659 93.58 138.719 93.69 129.059C93.81 117.319 93.9333 105.583 94.06 93.8493C94.18 82.7793 94.22 71.6993 94.43 60.6293C94.62 51.1693 95.02 41.3493 98.6 32.4493C99.77 29.5393 101.91 24.2993 105.14 22.9993C106.91 22.2793 107.84 23.8193 108.86 26.1593C112.55 34.5893 112.42 45.4293 113.26 54.4293C115.389 77.1945 115.891 100.083 114.76 122.919C113.86 141.089 110.43 166.829 131.95 174.919C141.15 178.379 151.18 175.269 158.37 168.999C165.84 162.489 169.02 152.789 170.22 143.249C172.98 121.409 169.01 98.9893 166.46 77.3193C165 66.0581 164.179 54.7233 164 43.3693C164 36.2793 163.46 26.6693 167.94 20.5693C172.42 14.4693 179.62 19.8093 182.31 24.9493C187 33.8993 187.12 45.7993 187.71 55.6393C189.05 78.3793 187.46 101.159 186.6 123.889C186.18 134.969 185.47 146.319 186.32 157.399C186.93 165.399 189.39 174.399 196.51 179.049C214.15 190.499 229.93 166.409 233.42 151.919C237.8 133.689 235.02 114.489 235.86 95.9193C236.878 74.0021 240.511 52.2849 246.68 31.2293C247.46 28.5393 248.27 25.8693 249.15 23.2293C249.15 23.1693 249.76 21.9193 250.25 20.8093C251.23 22.0473 252.071 23.3886 252.76 24.8093C255.76 32.5293 254.76 41.8093 254.76 49.8093C254.833 73.1426 255.807 96.476 257.68 119.809C259.13 137.809 257.6 165.319 276.52 175.009C285.52 179.619 295.82 177.639 302.97 170.649C310.12 163.659 312.86 153.869 313.91 144.239C315.03 133.989 314.58 123.499 314.69 113.239L315.06 78.0993C315.18 66.766 315.297 55.4326 315.41 44.0993C315.47 38.0993 313.73 23.4793 321.41 20.8193C332.08 17.1093 331.82 60.4693 331.92 65.1893C332.38 88.0493 331 110.909 331.8 133.759C332.35 149.489 333.35 176.199 354.95 176.879C375.27 177.509 381.95 152.759 384.62 137.089C388.21 115.749 388.02 94.0893 389.24 72.5793C389.682 62.1872 390.916 51.844 392.93 41.6393C394.03 36.4393 395.71 23.5493 402.12 21.6393C409.26 19.4893 412.89 30.6993 413.87 35.5393C415.65 44.2893 414.87 53.6893 414.87 62.5393C414.823 85.3993 414.773 108.256 414.72 131.109C414.72 149.459 417.55 174.109 439.81 178.109C459.38 181.659 468.59 163.109 470.26 146.769C471.26 136.649 470.61 126.289 470.66 116.129C470.713 104.716 470.85 93.3026 471.07 81.8893C471.29 70.1226 471.6 58.346 472 46.5593C472.25 39.1493 471.19 29.0593 475.07 22.2893C478.62 16.1193 486.07 19.4293 489.55 24.0693C494.96 31.3693 495 42.3193 495.43 50.9693C496.43 72.2093 494.69 93.4493 494.5 114.689C494.31 135.689 495.85 156.949 502.61 176.969C506.22 187.839 523.48 183.189 519.79 172.249Z" fill="#E9EDF2"/>
</svg>
