<svg width="309" height="221" viewBox="0 0 309 221" fill="none" xmlns="http://www.w3.org/2000/svg">
<path d="M292.366 14.6815C291.706 9.98158 287.916 6.68153 283.366 5.77162C277.366 4.56153 271.896 8.17152 267.636 12.0116C266.784 12.7787 265.941 13.5837 265.096 14.3911L265.096 14.3919C260.214 19.0566 255.251 23.799 247.766 21.7616C242.626 20.367 239.799 16.1798 236.962 11.9763C235.323 9.54859 233.681 7.11537 231.586 5.21156C223.986 -1.68847 215.276 0.481576 209.636 8.21156C208.559 9.6919 207.605 11.283 206.65 12.8767C205.069 15.5139 203.483 18.1586 201.326 20.3215C196.226 25.4415 182.966 25.8115 178.326 19.6915C176.922 17.8543 175.949 15.8619 174.983 13.8842C173.584 11.0177 172.199 8.18153 169.536 5.89161C165.582 2.55641 160.691 0.529916 155.536 0.0915616C143.806 -0.908438 136.536 6.42152 130.256 15.2915C126.096 21.1416 121.586 27.1516 113.786 27.5816C105.306 28.0515 100.676 22.4716 96.2964 16.1416C93.5764 12.2015 90.6064 8.14161 85.9664 6.35157C80.5564 4.30152 74.9664 6.05152 70.4364 9.23158C67.7862 11.0828 65.4771 13.5254 63.1624 15.9739L63.1615 15.975C59.6248 19.7163 56.0753 23.4714 51.2764 25.1516C45.834 27.057 42.0085 23.7239 38.1122 20.329C35.7514 18.272 33.3646 16.1924 30.5764 15.2416C15.9964 10.2915 3.99643 22.5916 0.126427 35.4716C-0.873573 38.8215 4.35643 40.2616 5.35643 36.9116C7.44643 29.9116 11.7064 22.9116 19.0564 20.5016C26.5511 18.0454 30.8902 21.5892 35.835 25.6277C36.7687 26.3904 37.7241 27.1707 38.7264 27.9315C49.3864 36.0216 59.6664 27.0816 67.1964 19.3215C72.1264 14.2316 79.5564 7.5016 86.6564 13.0216C89.16 14.9668 90.9332 17.6989 92.6967 20.4163C93.8071 22.1273 94.9137 23.8324 96.1964 25.3316C102.886 33.1416 114.586 35.5016 123.566 30.1616C128.003 27.5183 131.042 23.1806 134.062 18.8689C137.898 13.3936 141.705 7.96009 148.306 6.09156C150.967 5.38539 153.746 5.24476 156.464 5.67872C159.182 6.1128 161.778 7.11195 164.086 8.61158C167.577 10.9097 169.177 14.1395 170.829 17.4736C171.657 19.1448 172.498 20.8422 173.596 22.4616C179.046 30.5316 194.196 31.8215 202.016 26.7915C205.356 24.6416 207.716 21.2716 209.816 17.9916C210.317 17.2073 210.815 16.3449 211.329 15.4541C213.241 12.1426 215.379 8.44044 218.696 6.91163C225.155 3.94056 229.816 10.8915 233.353 16.1659C234.125 17.3181 234.844 18.3903 235.516 19.2616C239.266 24.1216 244.036 27.2616 250.086 27.6216C256.626 28.0515 261.856 24.9415 266.506 20.6216C267.34 19.8508 268.146 19.0393 268.953 18.2263L268.957 18.2227C270.83 16.3364 272.71 14.4425 274.966 13.0316C279.146 10.4116 286.236 9.65162 287.136 16.0916C287.616 19.5715 292.836 18.1016 292.366 14.6815Z" fill="#FFEDD1"/>
<path d="M286.182 43.0322C287.664 46.0867 289.196 49.2456 292.216 49.8815C295.636 50.5715 294.186 55.8015 290.786 55.1116C286.167 54.1792 284.235 50.4959 282.267 46.7461L282.266 46.7443C281.913 46.0703 281.558 45.3942 281.186 44.7316C276.196 35.8616 266.946 41.1715 261.466 46.6515C260.834 47.285 260.206 47.9316 259.576 48.5807C255.769 52.5005 251.879 56.5056 246.516 58.2216C243.545 59.1062 240.398 59.2273 237.367 58.5736C234.336 57.9198 231.519 56.5125 229.176 54.4816C228.155 53.616 227.202 52.745 226.278 51.9004C222.174 48.1493 218.641 44.9199 212.176 45.0015C209.227 44.9871 206.318 45.6939 203.704 47.0602C201.089 48.4266 198.849 50.4114 197.176 52.8416C196.255 54.2434 195.492 55.7138 194.743 57.1603C192.759 60.9866 190.862 64.6464 186.326 66.4315C184.306 67.2006 182.146 67.5298 179.988 67.397C177.831 67.2642 175.727 66.6725 173.816 65.6615C169.25 63.1928 167.824 59.0562 166.275 54.5613C166.073 53.9764 165.869 53.3856 165.656 52.7915C162.796 44.8115 154.506 43.7815 147.266 46.0916C142.986 47.4579 139.143 49.9315 136.126 53.2615C134.993 54.5181 134.075 55.926 133.157 57.3334L133.157 57.3345C132.293 58.6594 131.429 59.9839 130.386 61.1815C127.066 65.0115 122.296 66.9415 117.296 67.5916C112.05 68.2224 106.729 67.4526 101.876 65.3608C97.023 63.2689 92.8104 59.9293 89.6664 55.6815C89.2131 55.0606 88.8105 54.2582 88.3946 53.4291C87.7188 52.082 87.0078 50.6648 85.9864 49.8416C84.5159 48.6561 82.5369 48.9562 80.8 49.2195C80.5881 49.2516 80.3798 49.2832 80.1764 49.3115C77.3683 49.5708 74.6271 50.3187 72.0764 51.5215C69.2903 53.0526 68.1585 55.8014 67.0074 58.5969C65.9482 61.1696 64.8726 63.7819 62.4764 65.5215C60.6582 66.8486 58.5333 67.6932 56.3001 67.9766C54.067 68.2598 51.7985 67.9725 49.7064 67.1415C45.7712 65.4984 43.4964 62.0599 41.2516 58.6672L41.2491 58.6636C40.7626 57.9281 40.2768 57.194 39.7764 56.4816C32.7864 46.4816 16.7564 46.8915 10.6764 57.7615C8.99643 60.8115 4.28643 58.0215 5.99643 55.0215C11.3664 45.4115 23.7064 41.4415 33.9064 45.1615C39.0564 47.0215 42.2664 50.5916 45.2664 55.0215C45.3371 55.1274 45.4078 55.2341 45.4786 55.3414C45.5958 55.5189 45.7132 55.6979 45.8312 55.8778C48.0237 59.2197 50.4151 62.8648 54.9164 62.6715C59.7255 62.4708 61.0914 58.9868 62.5246 55.3314C62.7335 54.7986 62.9438 54.2621 63.1664 53.7316C65.4164 48.3815 70.1964 45.8316 75.6564 44.6315C79.7164 43.7416 85.0464 42.5816 88.6564 45.1016C90.4805 46.3815 91.5705 48.2922 92.6617 50.2051C93.3352 51.3857 94.0091 52.5673 94.8564 53.6016C96.9703 56.1434 99.5844 58.2232 102.536 59.7116C108.746 62.8815 117.206 63.7515 123.406 60.0515C125.764 58.6257 127.266 56.3632 128.762 54.1082C129.417 53.1209 130.072 52.135 130.796 51.2216C132.428 49.1248 134.335 47.2578 136.466 45.6715C141.21 42.0713 146.913 39.9557 152.856 39.5916C158.496 39.3015 164.536 41.0615 168.096 45.6915C169.53 47.5564 170.28 49.9194 171.026 52.2727C172.132 55.762 173.232 59.2299 176.546 61.0215C184.139 65.0269 187.592 58.837 190.727 53.2157C191.569 51.7074 192.387 50.24 193.256 49.0215C196.091 45.1099 200.109 42.2139 204.716 40.7615C209.546 39.1923 214.742 39.1503 219.596 40.6415C223.63 41.947 226.266 44.4613 229.019 47.0878L229.02 47.0889C230.274 48.2843 231.551 49.5031 232.996 50.6415C242.121 57.8303 249.434 50.97 256.715 44.1399C260.757 40.3479 264.79 36.5653 269.116 35.2015C274.236 33.6016 279.696 34.3215 283.416 38.3815C284.502 39.5685 285.333 41.2832 286.182 43.0322Z" fill="#FFEDD1"/>
<path d="M283.881 94.035C287.104 93.4889 290.079 91.9575 292.396 89.6516C294.886 87.2017 298.726 91.0216 296.216 93.4816C288.076 101.482 274.586 101.782 266.506 93.4816C265.39 92.3323 264.354 90.9938 263.315 89.651L263.314 89.6499C259.886 85.2207 256.423 80.7461 249.916 82.8716C245.358 84.3604 241.871 87.7683 238.406 91.1558C236.261 93.2522 234.124 95.3407 231.746 96.9617C223.146 102.822 214.526 100.742 207.746 93.4916C206.725 92.4006 205.746 91.2081 204.758 90.0042C202.35 87.0697 199.885 84.0673 196.616 82.3016C189.816 78.6116 182.776 83.2816 177.916 88.0116C176.858 89.0397 175.788 90.1345 174.699 91.2501L174.696 91.2534C167.912 98.1996 160.346 105.946 149.766 103.362C144.696 102.122 142.006 98.4617 139.596 94.1216C136.326 88.1716 131.326 84.0316 124.326 83.6716C117.231 83.3257 112.232 87.6433 107.184 92.0037C102.748 95.835 98.2744 99.6993 92.3064 100.462C87.4164 101.082 83.1464 99.2017 79.5864 96.2216C78.4723 95.2889 77.368 94.0958 76.2297 92.866C73.7305 90.1659 71.0674 87.2886 67.7764 86.6016C63.0798 85.5789 59.6458 89.5754 56.6514 93.0602C55.8396 94.005 55.06 94.9122 54.2964 95.6716C51.0864 98.8716 47.3864 101.382 42.7664 101.812C36.3964 102.392 31.3864 99.0717 26.8864 94.9816C26.1485 94.3157 25.4349 93.6201 24.7216 92.9248C23.0568 91.302 21.3935 89.6808 19.4264 88.4417C15.7764 86.1416 7.68644 84.8716 7.77644 91.5116C7.81644 95.0116 2.39644 95.0016 2.34644 91.5116C2.28644 86.4116 5.90644 82.3816 10.8464 81.2316C16.9664 79.8016 22.4964 83.6016 26.8464 87.4916L27.1526 87.7643C34.1676 94.0131 41.4305 100.483 49.9564 92.3217C51.0298 91.2885 52.0423 90.1564 53.0585 89.02C55.5832 86.197 58.1315 83.3477 61.6964 81.9216C69.1358 78.9487 73.8712 83.5469 78.6362 88.1738C80.667 90.1459 82.7032 92.1231 84.9564 93.5216C92.2806 98.0453 99.1399 92.0514 104.581 87.2965L105.016 86.9165C105.173 86.7802 105.328 86.6451 105.481 86.5118L105.666 86.3516C109.676 82.8816 113.926 79.6316 119.256 78.6316C129.876 76.5817 139.196 82.2916 144.256 91.3816C152.17 105.622 162.948 95.066 171.641 86.5507C173.955 84.2846 176.121 82.163 178.046 80.6917C186.866 73.9716 196.836 73.9916 204.706 81.8916C206.017 83.2134 207.223 84.6826 208.433 86.157C210.601 88.7987 212.782 91.4568 215.606 93.3117C222.226 97.6616 228.706 92.9617 233.706 88.3117C241.076 81.4016 251.176 72.1816 261.446 79.6516C263.667 81.2665 265.342 83.4529 267.013 85.6342C269.119 88.3831 271.218 91.1237 274.396 92.7017C277.344 94.1154 280.657 94.5813 283.881 94.035Z" fill="#FFEDD1"/>
<path d="M303.246 135.342C299.158 137.495 295.779 133.079 293.303 129.843C292.823 129.216 292.377 128.634 291.966 128.152C289.898 125.734 287.517 123.602 284.886 121.812C279.886 118.382 273.656 116.152 267.506 116.882C261.006 117.662 256.506 121.882 252.656 126.822L252.544 126.968L252.395 127.163L252.066 127.595C248.028 132.892 241.747 141.135 234.576 136.012C231.127 133.55 228.969 129.88 226.813 126.213C224.081 121.565 221.351 116.921 215.996 114.742C205.989 110.67 198.628 117.849 191.652 124.653C188.708 127.524 185.833 130.328 182.856 132.192C178.856 134.712 173.936 135.792 169.996 132.522C168.011 130.832 166.676 128.493 165.392 126.247L165.388 126.239C165.153 125.828 164.921 125.421 164.686 125.022C161.896 120.272 158.886 115.742 153.566 113.612C141.019 108.589 131.143 117.517 122.546 125.29L122.539 125.296C122.136 125.661 121.735 126.023 121.336 126.382C115.656 131.492 109.156 134.142 103.136 128.012C101.405 126.243 99.9359 124.245 98.4669 122.248C96.7718 119.943 95.0765 117.637 92.9764 115.682C83.2264 106.612 71.9764 112.282 63.6164 120.232C62.9446 120.872 62.2242 121.592 61.4614 122.354L61.4404 122.375L61.4375 122.378C55.9574 127.856 48.295 135.516 40.6864 131.712C37.355 130.048 35.5888 126.716 33.8027 123.346C32.2165 120.354 30.6145 117.331 27.8864 115.422C22.5664 111.682 15.1064 112.262 9.97643 116.052C4.18642 120.342 1.97642 127.632 2.58643 134.582C2.86643 138.042 8.29643 138.072 8.01643 134.582C7.36643 126.482 12.7164 115.252 22.7264 118.872C26.5603 120.259 28.4977 123.927 30.4315 127.589C31.6905 129.973 32.948 132.355 34.7264 134.102C44.2264 143.402 57.1864 134.392 64.5064 127.002C64.7228 126.783 64.9438 126.558 65.169 126.329C70.2107 121.205 77.4307 113.867 85.1364 116.902C89.1378 118.522 91.8466 122.261 94.3737 125.749C94.9665 126.567 95.5493 127.372 96.1364 128.132C102.906 136.822 112.076 140.312 121.636 133.132C123.771 131.526 125.699 129.635 127.626 127.745L127.627 127.744C130.358 125.064 133.088 122.386 136.406 120.522C143.166 116.732 151.776 116.352 156.866 122.902C158.206 124.622 159.302 126.518 160.397 128.412C162.148 131.44 163.895 134.463 166.626 136.752C168.639 138.4 171.056 139.48 173.627 139.879C176.198 140.278 178.829 139.982 181.246 139.022C186.947 136.983 191.235 132.639 195.397 128.422C195.748 128.067 196.097 127.713 196.446 127.362C201.766 122.002 209.946 115.482 217.056 121.782C219.752 124.169 221.661 127.383 223.57 130.595C226.377 135.32 229.183 140.042 234.486 142.132C243.869 145.83 249.158 139.319 254.49 132.757C258.642 127.646 262.82 122.504 268.976 122.132C277.976 121.602 285.056 128.132 290.266 134.622C294.266 139.622 299.726 143.292 305.986 139.992C309.076 138.402 306.336 133.722 303.246 135.342Z" fill="#FFEDD1"/>
<path d="M267.376 167.892C280.316 180.792 294.466 168.132 303.716 157.702C305.996 155.082 309.866 158.932 307.516 161.552C298.606 171.602 285.596 183.832 271.016 177.202C265.702 174.785 262.142 170.074 258.612 165.4C254.867 160.444 251.155 155.531 245.416 153.442C235.381 149.79 230.142 157.941 225.068 165.835C222.264 170.197 219.511 174.481 216.026 176.652C206.601 182.529 200.451 175.171 194.636 168.213C192.011 165.073 189.455 162.015 186.696 160.292C178.276 155.042 170.346 159.752 164.586 166.202C160.286 171.012 155.876 175.302 149.716 177.642C146.819 178.796 143.721 179.365 140.602 179.316C137.484 179.266 134.406 178.598 131.546 177.352C125.746 174.712 123.086 170.272 120.366 164.782C113.462 150.827 101.836 159.416 91.7255 166.887C87.9539 169.674 84.3929 172.305 81.3664 173.552C75.9764 175.792 69.5764 176.372 64.3664 173.202C61.0782 171.193 59.0186 168.017 56.9735 164.864C56.3006 163.827 55.6294 162.792 54.9164 161.802C47.3157 151.266 38.8371 159.241 30.7916 166.808C26.9393 170.432 23.1862 173.962 19.6764 175.322C7.02642 180.242 1.10642 169.022 0.206421 158.242C-0.0835789 154.752 5.33642 154.782 5.62642 158.242C5.93642 161.962 6.34642 166.862 9.43642 169.472C13.7764 173.142 19.3964 169.912 23.1164 167.032C25.3622 165.291 27.3355 163.249 29.3072 161.208C32.1731 158.241 35.0356 155.278 38.7264 153.252C43.6764 150.522 49.4164 150.012 54.2164 153.252C57.114 155.208 58.9293 158.063 60.7491 160.927C61.9438 162.806 63.1404 164.689 64.6464 166.322C72.6666 175.047 82.6844 167.357 91.5438 160.557C95.3767 157.615 98.9927 154.839 102.136 153.632C107.226 151.652 113.396 151.142 118.336 153.942C121.929 155.978 123.527 159.219 125.186 162.582C125.808 163.844 126.439 165.123 127.186 166.362C131.846 174.062 141.416 175.552 149.256 171.972C153.69 169.948 156.755 166.588 159.868 163.174C161.34 161.56 162.823 159.934 164.466 158.432C172.366 151.212 184.456 150.642 192.546 157.932C194.317 159.52 195.86 161.619 197.425 163.747C200.324 167.688 203.296 171.731 207.926 172.822C213.757 174.187 217.238 168.212 220.163 163.191L220.164 163.19C221.031 161.701 221.85 160.296 222.666 159.192C228.526 151.272 237.766 144.392 247.976 148.612C253.825 151.037 257.68 156.006 261.507 160.938C263.392 163.368 265.27 165.789 267.376 167.892Z" fill="#FFEDD1"/>
<path d="M270.136 213.402C281.556 217.891 294.936 209.851 297.556 198.302C298.336 194.891 303.566 196.341 302.876 199.841C300.246 211.451 289.296 219.761 277.496 220.121C271.306 220.271 265.876 217.942 261.016 214.271C259.396 213.045 257.806 211.633 256.193 210.201C251.337 205.889 246.28 201.399 239.606 201.271C234.543 201.171 231.685 204.98 228.799 208.826C227.103 211.088 225.396 213.362 223.226 214.861C219.578 217.534 215.082 218.788 210.576 218.391C204.306 217.601 201.446 212.961 198.996 207.672C196.296 201.831 192.226 197.761 185.716 196.451C179.006 195.111 173.136 197.451 168.566 202.451C167.57 203.539 166.625 204.669 165.684 205.793C162.637 209.433 159.632 213.023 155.086 215.001C152.444 216.129 149.596 216.692 146.723 216.654C143.851 216.617 141.018 215.979 138.406 214.782C134.247 212.838 131.439 209.47 128.601 206.064C127.802 205.106 127.001 204.145 126.166 203.211C120.756 197.141 112.676 194.521 104.996 198.141C101.39 199.838 98.964 202.88 96.5325 205.93C94.9932 207.861 93.4516 209.794 91.6064 211.391C82.0464 219.662 71.2264 214.912 63.7564 206.731L63.3882 206.331C58.6557 201.181 53.7891 195.884 46.1864 199.461C43.4248 200.767 41.0154 202.621 38.6107 204.471C36.5397 206.065 34.4723 207.656 32.1864 208.891C27.2021 211.54 21.4571 212.389 15.9197 211.296C10.3822 210.204 5.39072 207.235 1.78642 202.891C-0.433585 200.221 3.38642 196.361 5.61642 199.052C10.5164 204.971 18.4264 207.912 25.9464 205.662C29.8269 204.506 33.0257 202.044 36.225 199.581C38.5332 197.805 40.8416 196.028 43.4064 194.741C54.0475 189.408 60.5554 195.975 67.3562 202.839C68.2055 203.696 69.0593 204.558 69.9264 205.402C76.1664 211.402 83.8464 211.932 89.9264 205.402C90.9708 204.263 91.9442 203.062 92.9161 201.863C95.2665 198.962 97.6085 196.071 100.926 194.111C109.996 188.731 121.626 190.701 128.866 198.111C130.099 199.372 131.233 200.737 132.36 202.092C135.961 206.424 139.484 210.662 145.866 211.111C153.536 211.662 158.046 206.412 162.536 201.032C169.096 193.191 177.326 188.771 187.736 191.292C192.275 192.352 196.393 194.748 199.556 198.172C201.046 199.825 202.035 202.05 203.027 204.281C204.457 207.5 205.893 210.73 208.846 212.271C216.296 216.192 222.816 207.902 226.506 202.902C229.386 198.961 232.996 196.172 237.996 195.802C246.512 195.175 252.26 200.127 258.071 205.134C261.815 208.36 265.584 211.607 270.136 213.402Z" fill="#FFEDD1"/>
</svg>
