<svg width="60" height="60" viewBox="0 0 60 60" fill="none" xmlns="http://www.w3.org/2000/svg">
<path fill-rule="evenodd" clip-rule="evenodd" d="M55.7225 23.2324C55.7742 23.2416 55.8241 23.2589 55.8704 23.2837C56.3274 23.0814 56.7253 23.7046 56.2683 23.9204C55.171 24.4306 54.0659 24.9367 52.9581 25.4441C50.9552 26.3613 48.9433 27.2827 46.9526 28.2399C46.6622 29.9335 46.5058 31.6476 46.4848 33.366C46.515 33.3573 46.5471 33.3576 46.5772 33.367C46.6072 33.3763 46.6339 33.3943 46.6539 33.4187C46.6739 33.443 46.6864 33.4727 46.6898 33.5041C46.6931 33.5355 46.6873 33.5672 46.673 33.5953C46.6171 33.7026 46.5504 33.8039 46.474 33.8975C46.459 35.1337 46.4835 36.3725 46.508 37.6115V37.6117V37.612V37.6122V37.6125V37.6127V37.613V37.6133V37.6135V37.6138V37.614V37.6143V37.6145C46.5273 38.589 46.5466 39.5636 46.5466 40.5372C46.5493 40.9203 46.103 41.0417 45.818 40.9014C45.6728 41.0174 45.5223 41.128 45.369 41.236C45.2857 41.298 45.1943 41.3601 45.1002 41.4194C43.1838 42.6345 41.0338 43.4306 38.7902 43.7559C37.8761 43.8962 36.9567 44.0014 36.0372 44.0796C35.7092 44.1444 35.3785 44.2091 35.0478 44.2631C30.7462 45.005 25.8343 45.488 21.6052 44.1956C20.3174 43.8017 19.0081 43.2298 18.0859 42.2909C18.0443 42.2458 17.9964 42.1958 17.9447 42.1417L17.9446 42.1417L17.9446 42.1416L17.9445 42.1415L17.9445 42.1415L17.9445 42.1415L17.9445 42.1415C17.8228 42.0143 17.6802 41.8652 17.5482 41.7081C17.5011 41.7239 17.4513 41.7299 17.4019 41.7259C17.3524 41.7219 17.3042 41.7078 17.2603 41.6847C17.2163 41.6615 17.1775 41.6296 17.1461 41.591C17.1148 41.5524 17.0915 41.5078 17.0777 41.4599C16.0749 37.6908 15.3356 33.7599 15.9566 29.8856C15.6602 29.7772 15.3625 29.6695 15.0643 29.5616C13.5965 29.0303 12.116 28.4945 10.706 27.8487C9.11435 27.1256 7.53081 26.2569 6.52799 24.8809L6.16504 25.0104C5.96072 25.0832 5.8236 24.7784 6.01717 24.692C9.1998 23.2637 12.4657 22.0082 15.7305 20.7531C18.4477 19.7085 21.1642 18.6642 23.8313 17.5209C23.9711 17.2079 24.1109 16.8922 24.24 16.5712C24.2588 16.5307 24.3152 16.5469 24.3152 16.5901C24.2131 16.8787 24.1028 17.1674 23.9899 17.4534C26.3263 16.4471 28.6249 15.3679 30.8483 14.1403C30.9308 14.085 31.029 14.0579 31.1281 14.0631C31.2272 14.0684 31.3219 14.1057 31.3982 14.1694C31.4744 14.2332 31.528 14.32 31.551 14.4169C31.5741 14.5137 31.5652 14.6155 31.5259 14.7069C34.4994 15.6861 37.3782 16.9137 40.2572 18.1414L40.2573 18.1414C45.2474 20.2694 50.2379 22.3975 55.7225 23.2324ZM11.0149 23.3092C9.55121 23.8179 8.08992 24.3257 6.63822 24.8431C8.40349 26.9837 11.3824 27.8592 14.2574 28.7041C15.564 29.0881 16.8492 29.4658 17.9892 29.9531C22.272 31.7823 26.5467 34.1916 29.9853 37.1917C35.0855 33.3471 40.847 30.3389 46.7267 27.5438C46.7698 27.444 46.8128 27.3468 46.8612 27.2497C46.923 27.104 47.1462 27.2065 47.13 27.3441C48.8956 26.5085 50.669 25.6901 52.4375 24.8741C53.1869 24.5283 53.9354 24.1829 54.6821 23.8368C48.3168 22.7072 42.429 19.9941 36.6238 17.319C35.2325 16.6779 33.846 16.039 32.4588 15.4245C30.6761 17.7873 29.6279 20.5124 28.5931 23.203L28.593 23.2031L28.4717 23.5184C27.9893 24.7608 27.5321 26.0177 27.075 27.2743C26.9743 27.5512 26.8736 27.8282 26.7725 28.105C26.638 28.464 26.5035 28.8244 26.369 29.1848C26.2347 29.5447 26.1003 29.9047 25.966 30.2633C25.9282 30.3616 25.8939 30.4611 25.8598 30.5602C25.7336 30.9267 25.6089 31.2889 25.3127 31.5692C25.2885 31.5905 25.2591 31.6048 25.2274 31.6106C25.1958 31.6163 25.1632 31.6134 25.1331 31.602C25.103 31.5907 25.0765 31.5713 25.0566 31.5461C25.0366 31.5208 25.0238 31.4905 25.0196 31.4585C24.9941 31.0051 25.2111 30.533 25.4169 30.0853L25.4169 30.0853C25.4928 29.9203 25.5671 29.7586 25.6272 29.6023C25.9086 28.8721 26.1847 28.14 26.4553 27.4062C26.57 27.0997 26.6839 26.7925 26.7979 26.4851L26.7979 26.4851L26.7979 26.4851L26.7979 26.4851L26.7979 26.4851L26.7979 26.4851L26.7979 26.485L26.7979 26.485L26.7979 26.485L26.7979 26.485C27.2527 25.2583 27.7089 24.0277 28.227 22.8197C29.3401 20.2404 30.5445 17.6153 32.3862 15.3841L31.3108 14.9119C28.7704 16.3197 26.152 17.5808 23.4684 18.6891C22.6583 20.5021 21.6657 22.2483 20.6731 23.9946C19.9494 25.2679 19.2256 26.5413 18.5726 27.8406C18.4462 28.0861 18.0564 27.8729 18.1774 27.6301C18.9627 26.0269 19.8927 24.4892 20.8233 22.9506L20.8233 22.9506C21.6546 21.5763 22.4863 20.2012 23.2156 18.7781C20.8954 19.7467 18.5295 20.637 16.1475 21.4923C14.7952 23.1407 13.4751 24.8593 13.0181 26.9179C12.9939 27.0285 12.8057 26.9799 12.8326 26.872C13.3031 24.8593 14.5855 23.1893 15.9297 21.5705C15.0452 21.8889 14.158 22.1991 13.2708 22.5094C12.5288 23.4132 11.8862 24.3683 11.6174 25.4772C11.6012 25.5419 11.491 25.5149 11.5071 25.4475C11.7867 24.3575 12.4454 23.4213 13.1955 22.5499C12.4694 22.8038 11.7429 23.0562 11.0171 23.3085L11.0168 23.3086L11.0165 23.3087L11.0161 23.3088L11.0158 23.3089L11.0155 23.309L11.0152 23.3091L11.0149 23.3092ZM17.2471 38.9454C17.2686 39.029 17.2928 39.1235 17.3143 39.2152C17.3387 39.1869 17.3709 39.1667 17.4069 39.1571C17.4428 39.1474 17.4808 39.1489 17.516 39.1612C17.4216 39.0955 17.3318 39.0233 17.2471 38.9454ZM18.2768 41.012C18.3094 41.0753 18.3472 41.1358 18.3897 41.1928H18.3978C18.5785 41.4374 18.7849 41.6617 19.0135 41.8619C19.5185 42.2873 20.0839 42.6347 20.6911 42.8925L20.8874 42.9708C23.7865 43.258 26.6984 43.3958 29.6116 43.3835C31.2447 43.3839 32.8752 43.2567 34.4886 43.0031C35.3264 42.8262 36.1546 42.6065 36.9701 42.3448C36.376 42.3405 35.7826 42.3018 35.193 42.2288C35.1365 42.2234 35.1527 42.1614 35.193 42.1614C37.1691 42.0642 39.25 41.8322 41.1077 41.1469C42.0115 40.813 42.8857 40.4032 43.721 39.9221C43.9345 39.8035 44.1535 39.662 44.3777 39.5173L44.3778 39.5172C44.7606 39.27 45.1587 39.013 45.5707 38.8429V38.4759C44.2883 39.3528 42.6751 39.7818 41.105 39.9814C39.4409 40.1918 37.6879 40.3025 36.0883 39.7629C36.0399 39.7467 36.0587 39.6954 36.1071 39.6954C39.051 40.0623 43.065 39.6846 45.4174 37.8797C45.4569 37.8495 45.503 37.8292 45.5519 37.8203C45.5496 37.7386 45.5468 37.6561 45.5441 37.5735L45.5441 37.5731C45.5372 37.3667 45.5304 37.1604 45.5304 36.9678C44.1404 37.5317 42.4628 37.7151 40.9894 37.8015C39.0559 37.8685 37.1203 37.8342 35.1903 37.6989C35.1392 37.6962 35.1392 37.6315 35.1903 37.6315C35.8143 37.5998 36.4395 37.575 37.065 37.55C38.2534 37.5027 39.4428 37.4554 40.6265 37.3617C42.2922 37.2082 43.9349 36.8633 45.5223 36.3338C45.5062 35.7591 45.5062 35.1844 45.5223 34.6125C44.4146 35.1601 42.8553 35.3922 41.9412 35.5109C40.0541 35.7535 38.1234 35.6971 36.2218 35.6415L36.091 35.6377C36.0831 35.6395 36.0749 35.6395 36.067 35.6377C36.0592 35.6359 36.0518 35.6323 36.0455 35.6273C36.0392 35.6222 36.0341 35.6158 36.0306 35.6085C36.0271 35.6012 36.0252 35.5932 36.0252 35.5851C36.0252 35.577 36.0271 35.569 36.0306 35.5617C36.0341 35.5544 36.0392 35.5479 36.0455 35.5429C36.0518 35.5378 36.0592 35.5343 36.067 35.5325L36.07 35.5319C36.0732 35.5313 36.0765 35.5311 36.0798 35.5311L36.0832 35.5313L36.0865 35.5316L36.091 35.5325C38.0075 35.5053 39.9207 35.363 41.8202 35.1062C42.7269 34.9936 43.6191 34.7847 44.4818 34.483C44.8597 34.3271 45.2202 34.1318 45.5572 33.9002C45.5604 33.8497 45.5643 33.799 45.5682 33.7483C45.5775 33.6279 45.5868 33.5071 45.5868 33.3876C45.6018 33.1676 45.619 32.9476 45.6364 32.7254L45.6365 32.7252L45.6365 32.7248L45.6365 32.7243L45.6406 32.6726C44.1758 34.151 41.7567 34.0681 39.5994 33.9941H39.5993L39.5993 33.9941C39.0086 33.9739 38.4375 33.9543 37.9111 33.9676C37.9038 33.9655 37.8974 33.9611 37.8928 33.955C37.8882 33.949 37.8857 33.9415 37.8857 33.9339C37.8857 33.9263 37.8882 33.9189 37.8928 33.9128C37.8974 33.9067 37.9038 33.9023 37.9111 33.9002C38.6391 33.7757 39.3782 33.7357 40.1142 33.6958C40.4627 33.677 40.8105 33.6581 41.1561 33.6304C42.7053 33.5613 44.1978 33.0254 45.4389 32.0926C45.4779 32.0662 45.522 32.0482 45.5683 32.0399C45.6146 32.0315 45.6621 32.0329 45.7078 32.044C45.7436 31.6699 45.7867 31.2949 45.8368 30.9189V30.4522C44.5739 31.1457 43.0867 31.3001 41.6038 31.4541L41.5352 31.4612V31.4423C42.9655 31.2508 44.6001 30.892 45.8368 30.1203C45.8407 29.9566 45.8462 29.7928 45.8518 29.6291L45.8518 29.6287C45.8618 29.3339 45.8718 29.0392 45.8718 28.7444C40.3657 31.3884 34.9887 34.2644 30.2246 37.8905C30.1497 37.9547 30.0543 37.99 29.9558 37.99C29.8572 37.99 29.7619 37.9547 29.6869 37.8905C27.6328 36.1054 25.3929 34.5477 23.0059 33.2446C21.0164 32.1195 18.9382 30.9945 16.7659 30.1851L16.2282 29.9881C16.2067 30.3065 16.1959 30.6249 16.1959 30.9432C16.5371 31.1121 16.853 31.3282 17.1342 31.5853C17.7048 32.0063 18.304 32.3868 18.9274 32.7239C20.148 33.3849 21.4681 33.9137 22.9145 33.8786C22.9898 33.8759 22.9871 33.9838 22.9145 33.9838C21.5736 34.0564 20.2365 33.7843 19.0296 33.1933L18.9682 33.1654C18.1448 32.7906 16.8179 32.1867 16.2174 31.4262C16.2272 32.3469 16.2864 33.2664 16.3949 34.1808C19.0834 35.608 22.1671 35.8427 25.2105 35.9614C25.2401 35.9641 25.2535 36.0289 25.2105 36.0289C22.3365 36.501 19.0565 36.1206 16.4675 34.831C16.5158 35.1844 16.5696 35.5379 16.6315 35.8886C17.0285 36.0564 17.3866 36.2879 17.7458 36.5201L17.7458 36.5202L17.7458 36.5202C18.0797 36.736 18.4144 36.9525 18.7823 37.1189C19.5346 37.4764 20.3246 37.7479 21.1374 37.9283C22.7654 38.3069 24.4533 38.3482 26.0977 38.0497C26.1006 38.0485 26.1037 38.0481 26.1067 38.0484C26.1087 38.0486 26.1107 38.0492 26.1125 38.05L26.1153 38.0516C26.1178 38.0533 26.1199 38.0556 26.1213 38.0583C26.1228 38.0611 26.1235 38.0641 26.1235 38.0672C26.1235 38.0703 26.1228 38.0733 26.1213 38.0761C26.1199 38.0788 26.1178 38.0811 26.1153 38.0828C26.1135 38.084 26.1115 38.0849 26.1094 38.0855L26.1067 38.086C26.1037 38.0863 26.1006 38.0859 26.0977 38.0847C24.3385 38.6074 22.4735 38.6586 20.6884 38.2331C19.3764 37.904 17.6262 37.3617 16.6879 36.3688C16.7757 36.8527 16.8725 37.3347 16.9783 37.8149C17.0334 37.8113 17.0884 37.8234 17.1369 37.85C17.4407 38.0251 17.6906 38.2347 17.9374 38.4416L17.9374 38.4416L17.9374 38.4416C18.3523 38.7895 18.758 39.1297 19.3952 39.2853C20.2919 39.4692 21.2066 39.5489 22.1214 39.5228C22.3138 39.5252 22.5081 39.5258 22.7035 39.5264H22.7037H22.7038H22.704H22.7042H22.7044H22.7046H22.7048H22.7049H22.7051H22.7053H22.7055H22.7057C24.0136 39.5303 25.3697 39.5343 26.5386 40.0974C26.5709 40.1082 26.5575 40.1298 26.5386 40.1298C25.3462 39.7049 24.1116 39.8262 22.8747 39.9478H22.8747H22.8747H22.8747H22.8746H22.8746H22.8746H22.8746H22.8746H22.8745H22.8745H22.8745H22.8745C22.1872 40.0154 21.4993 40.083 20.8175 40.0569C19.898 40.0111 18.5726 39.8087 17.6719 39.2476C17.9026 39.4526 18.0866 39.6817 18.2696 39.9095L18.2696 39.9095C18.5537 40.2631 18.8353 40.6136 19.285 40.8663C19.9586 41.2404 20.6833 41.5131 21.4358 41.6757C22.8881 41.6725 24.3404 41.7061 25.7922 41.7397H25.7922H25.7923H25.7923H25.7924H25.7925H25.7925H25.7926H25.7927H25.7927H25.7928H25.7929H25.7929H25.793H25.7931L25.7933 41.7397C26.7975 41.7629 27.8015 41.7861 28.8051 41.7971C30.3111 41.8337 31.8179 41.7742 33.3164 41.6191C34.6881 41.4206 36.0458 41.1349 37.3814 40.7638C37.61 40.7072 37.7605 41.0093 37.5454 41.1146C35.0962 42.2882 31.8458 42.3367 29.1573 42.3178C28.3749 42.3124 27.5925 42.2855 26.8102 42.2423C24.8072 42.4797 22.7048 42.6119 20.7422 42.0912C19.8658 41.8731 19.0323 41.5083 18.2768 41.012ZM38.5087 42.2713C38.4957 42.2851 38.481 42.2971 38.4649 42.3071C37.9137 42.677 37.2981 42.9397 36.6502 43.0814L37.0481 43.0004C38.1719 42.7684 39.3629 42.504 40.5432 42.1749C40.4566 42.1252 40.3886 42.0484 40.3496 41.9563C39.7434 42.1014 39.1285 42.2066 38.5087 42.2713ZM45.1889 40.6397C45.3249 40.5998 45.4579 40.5502 45.5868 40.4913L45.5949 40.4886C45.5949 40.4239 45.5949 40.3591 45.5841 40.2998C45.4578 40.4158 45.326 40.5318 45.1889 40.6397ZM45.5599 40.0273C45.5688 40.0254 45.5779 40.0254 45.5868 40.0273L45.5895 40.0246V40.0243C45.5895 39.9084 45.5895 39.7925 45.5841 39.6657C45.0245 40.0363 44.4355 40.3602 43.8231 40.6343C43.5704 40.7611 43.3204 40.8825 43.0515 41.0012C43.3204 40.977 43.5731 40.9473 43.842 40.9014L44.0974 40.8609C44.6028 40.616 45.0914 40.3375 45.5599 40.0273ZM21.4923 43.2109C22.7893 43.6333 24.1344 43.8889 25.4955 43.9717C27.0785 44.0894 28.6679 44.093 30.2515 43.9825C30.2316 43.9652 30.2159 43.9436 30.2057 43.9192C30.1954 43.8949 30.1909 43.8686 30.1923 43.8422H29.9235C27.1015 43.8389 24.2835 43.6279 21.4923 43.2109ZM46.2805 28.5528V28.7282C46.2966 28.6581 46.3208 28.5906 46.3503 28.5205L46.2805 28.5528ZM19.8102 20.7637C19.8035 20.7734 19.795 20.7817 19.7851 20.7881C18.4385 21.6283 17.9075 22.9102 17.3754 24.1947C16.961 25.1951 16.5459 26.1972 15.7442 26.9934C15.6582 27.0797 15.4673 26.9907 15.5211 26.8747C15.6714 26.5472 15.8203 26.2023 15.9731 25.8483L15.9731 25.8483L15.9731 25.8482L15.9731 25.8482L15.9731 25.8482L15.9731 25.8482L15.9731 25.8482L15.9732 25.8481L15.9732 25.8481L15.9732 25.8481L15.9732 25.8481L15.9732 25.8481L15.9732 25.848C16.81 23.9096 17.7628 21.7023 19.6883 20.637C19.6982 20.6306 19.7092 20.6262 19.7208 20.6241C19.7324 20.6221 19.7442 20.6223 19.7557 20.6248C19.7672 20.6273 19.7781 20.632 19.7877 20.6388C19.7974 20.6455 19.8056 20.654 19.812 20.664C19.8183 20.6739 19.8227 20.685 19.8248 20.6966C19.8268 20.7082 19.8266 20.7201 19.8241 20.7316C19.8216 20.7431 19.8169 20.754 19.8102 20.7637ZM22.2397 29.5106C23.0326 28.0298 23.6392 26.4388 24.2472 24.8439C25.3751 21.8852 26.5082 18.9132 28.8454 16.6062C28.8804 16.5739 28.8266 16.5253 28.7917 16.5577C26.1856 18.8678 24.9549 21.8991 23.7244 24.9301C23.1269 26.4018 22.5295 27.8735 21.7746 29.2624C21.6241 29.5457 22.0838 29.7912 22.2397 29.5106ZM30.9959 27.0453C30.0792 29.1704 29.1119 31.4126 27.6383 33.2014C27.477 33.3984 27.1571 33.2284 27.2754 32.9964C27.6096 32.3497 27.9862 31.7219 28.3631 31.0934L28.3631 31.0933C28.741 30.4632 29.1193 29.8325 29.4558 29.1814C30.1817 27.7731 30.8511 26.3459 31.5044 24.9079C31.7049 24.4708 31.9034 24.0334 32.1019 23.5963L32.1021 23.5958L32.1021 23.5957L32.1021 23.5957L32.1021 23.5956C33.0293 21.553 33.9541 19.5157 35.0613 17.5424C35.1393 17.394 35.3678 17.5235 35.2925 17.6638C34.1756 19.7529 33.2363 21.91 32.297 24.0674L32.297 24.0674L32.2969 24.0675L32.2969 24.0675L32.2968 24.0679L32.2966 24.0683L32.2964 24.0687L32.2962 24.0691L32.2961 24.0695L32.2959 24.0699L32.2957 24.0703L32.2955 24.0707L32.2953 24.0711L32.2952 24.0715C32.0232 24.6962 31.7512 25.3208 31.4748 25.9439C31.3154 26.3048 31.1568 26.6723 30.9968 27.0434L30.9965 27.0439L30.9963 27.0444L30.9961 27.0449L30.996 27.0452L30.9959 27.0453ZM32.682 31.5745C34.7764 27.5654 36.86 23.5508 38.8656 19.5066C38.9032 19.4283 38.7769 19.3555 38.7312 19.4364C37.913 20.9441 37.0782 22.4449 36.2429 23.9464L36.2429 23.9465L36.2428 23.9466L36.2427 23.9467L36.2427 23.9469L36.2426 23.947L36.2426 23.9471L36.2425 23.9472L36.2424 23.9474L36.242 23.948C34.879 26.3984 33.5147 28.851 32.2196 31.3398C32.0717 31.6096 32.5341 31.8605 32.682 31.5745ZM36.661 31.5638C36.5453 31.6798 36.3061 31.5611 36.3733 31.41C36.5935 30.9113 36.8937 30.4412 37.1932 29.9721L37.1932 29.9721L37.1933 29.972C37.4058 29.6393 37.6179 29.3071 37.8009 28.9656C38.309 28.0105 38.8064 27.0555 39.2715 26.0815C39.4465 25.7122 39.6194 25.3423 39.7921 24.9727C40.4688 23.5249 41.144 22.0804 41.9385 20.6856C41.9735 20.6262 42.0676 20.6775 42.038 20.7368C41.3309 22.102 40.7417 23.5082 40.1527 24.9139L40.1527 24.914L40.1526 24.9141L40.1526 24.9143L40.1525 24.9145L40.1524 24.9146L40.1523 24.9148L40.1522 24.915L40.1522 24.9152L40.1521 24.9154L40.152 24.9156C39.888 25.5457 39.624 26.1757 39.3495 26.8019C39.2546 27.021 39.1594 27.2482 39.0621 27.4802L39.0612 27.4823L39.0608 27.4833L39.0606 27.4838L39.0605 27.484L39.0604 27.4841C38.4636 28.908 37.7905 30.5137 36.661 31.5638ZM43.4845 26.6184C43.8409 26.2665 44.0565 25.7775 44.2638 25.3072C44.3458 25.1212 44.4265 24.9381 44.5141 24.7676C44.8599 24.0858 45.2714 23.4397 45.7428 22.8385C45.8315 22.7279 45.6272 22.5849 45.5304 22.6901C45.0745 23.2087 44.6627 23.7647 44.2991 24.3521C44.2155 24.4846 44.1236 24.6222 44.0292 24.7636L44.029 24.7639C43.6735 25.296 43.2825 25.8815 43.1699 26.4484C43.1647 26.487 43.1714 26.5263 43.189 26.561C43.2067 26.5957 43.2344 26.6241 43.2686 26.6426C43.3027 26.6611 43.3417 26.6686 43.3803 26.6643C43.4188 26.66 43.4552 26.644 43.4845 26.6184ZM48.8964 23.1893C48.9663 24.0553 48.5523 25.5527 47.4769 25.8036C47.4497 25.812 47.4206 25.8121 47.3933 25.804C47.366 25.796 47.3417 25.78 47.3233 25.7581C47.305 25.7363 47.2935 25.7095 47.2902 25.6811C47.2869 25.6528 47.292 25.6241 47.3048 25.5986C47.4251 25.3964 47.6026 25.2365 47.7811 25.0757L47.7811 25.0757C47.9575 24.9168 48.1349 24.757 48.2592 24.5545C48.5063 24.1381 48.6578 23.6718 48.7028 23.1893C48.7028 23.1635 48.713 23.1388 48.7312 23.1206C48.7493 23.1024 48.7739 23.0922 48.7996 23.0922C48.8253 23.0922 48.8499 23.1024 48.8681 23.1206C48.8862 23.1388 48.8964 23.1635 48.8964 23.1893ZM38.5832 38.7646C37.5174 38.6631 36.415 38.7283 35.3279 38.7925L35.3278 38.7925L35.3277 38.7925L35.3276 38.7925L35.3275 38.7925L35.3274 38.7925C34.912 38.817 34.4988 38.8415 34.0907 38.8564C33.5344 38.8767 32.9841 38.899 32.4365 38.9211L32.4356 38.9212C31.5308 38.9578 30.6332 38.9941 29.7273 39.0209C26.7735 39.12 23.8165 39.0461 20.8713 38.7997C20.7476 38.7997 20.753 38.9616 20.8713 38.9751C23.8134 39.2754 26.7701 39.4087 29.7273 39.3744C31.1808 39.3744 32.6353 39.3384 34.0907 39.2665C34.4883 39.2499 34.891 39.2411 35.2957 39.2321C36.4099 39.2076 37.5394 39.1827 38.6182 38.9967C38.7768 38.9778 38.7204 38.7808 38.5832 38.7646ZM7.02806 29.2786C6.43659 29.3005 5.84897 29.1744 5.31816 28.9116C4.9347 28.8357 4.58532 28.6391 4.32072 28.3505C3.84485 27.8325 3.82334 27.1148 3.91475 26.4835C3.92728 26.3915 3.97313 26.3074 4.04355 26.2471C4.11397 26.1869 4.20403 26.1548 4.29652 26.157C4.5941 26.1317 4.89359 26.1408 5.18911 26.184C5.33088 26.108 5.47829 26.043 5.63003 25.9897C5.75101 25.9466 5.83435 26.13 5.71606 26.1813L5.64347 26.2137C5.71053 26.2158 5.7772 26.2248 5.84242 26.2407C6.15737 26.331 6.42937 26.5321 6.60865 26.8072C6.91546 27.0854 7.14493 27.4388 7.27455 27.8328C7.40417 28.2268 7.42948 28.6479 7.34799 29.0546C7.32917 29.1895 7.16248 29.2786 7.02806 29.2786ZM5.61927 26.961C5.44721 26.9394 5.33967 27.0797 5.28052 27.2092C5.22962 27.3201 5.18158 27.431 5.13297 27.5432L5.13295 27.5432C5.0763 27.674 5.01887 27.8066 4.95521 27.9431C5.25319 28.1646 5.62528 28.2614 5.99298 28.2129C6.07363 27.8055 6.10589 27.1715 5.72412 26.9961C5.69079 26.98 5.65556 26.9682 5.61927 26.961ZM4.33956 33.0207C4.55358 31.8534 4.84812 30.6861 5.13958 29.5311L5.13962 29.5309C5.18498 29.3512 5.23027 29.1717 5.27516 28.9926C5.29936 28.9036 5.15956 28.8685 5.12729 28.9548C5.03113 29.2318 4.93256 29.508 4.83405 29.784C4.40098 30.9975 3.9688 32.2084 3.7454 33.4766C3.56526 34.4937 3.20769 36.5577 4.17556 37.3455C4.19936 37.3678 4.22889 37.3829 4.26082 37.3893C4.29274 37.3956 4.3258 37.3929 4.35626 37.3814C4.38673 37.3699 4.41338 37.3501 4.43323 37.3242C4.45308 37.2983 4.46533 37.2674 4.46861 37.2349C4.48697 36.9139 4.39731 36.5859 4.30724 36.2564C4.23908 36.0071 4.17068 35.7569 4.14867 35.5082C4.10061 34.6742 4.16482 33.8375 4.33956 33.0207ZM5.6838 29.3919C5.29239 30.6416 5.17769 31.962 5.34774 33.2608C5.4357 33.9148 5.62883 34.5378 5.82138 35.1589C5.98783 35.6958 6.15385 36.2314 6.25108 36.7843C6.25257 36.8162 6.2441 36.8478 6.22687 36.8747C6.20963 36.9016 6.18448 36.9224 6.15492 36.9342C6.12535 36.9461 6.09283 36.9484 6.06188 36.9409C6.03094 36.9334 6.00309 36.9164 5.98223 36.8922C5.27784 35.8913 5.11115 34.4263 5.06276 33.2608C4.99131 31.9447 5.18988 30.6278 5.64617 29.3919C5.65423 29.3622 5.6838 29.3703 5.6838 29.3919ZM6.17853 29.7642C6.13282 29.6833 6.00915 29.7642 6.04679 29.8344C6.67046 31.1543 7.03555 32.5823 7.1222 34.0405C7.15179 34.4295 7.13799 34.845 7.12402 35.2658C7.09864 36.0299 7.07269 36.8115 7.30502 37.4831C7.31799 37.5165 7.34071 37.5452 7.37021 37.5655C7.39972 37.5857 7.43462 37.5965 7.47036 37.5965C7.5061 37.5965 7.541 37.5857 7.57051 37.5655C7.60001 37.5452 7.62273 37.5165 7.6357 37.4831C7.9818 36.4795 7.77271 35.1569 7.59914 34.0591C7.57721 33.9203 7.55584 33.7852 7.53623 33.6547C7.3312 32.2838 6.87059 30.964 6.17853 29.7642ZM6.98774 29.8182C6.96624 29.775 7.02001 29.7454 7.04958 29.775C7.87278 30.7004 8.45796 31.8137 8.7541 33.018C8.76447 33.0599 8.77501 33.1023 8.78567 33.1453C9.06827 34.2836 9.44006 35.7812 9.02295 36.868C8.9665 37.0164 8.69227 37.0514 8.65194 36.868C8.5355 36.3001 8.51643 35.7223 8.49726 35.1413C8.47526 34.4747 8.45312 33.804 8.28361 33.1394C7.98787 31.9766 7.68676 30.8434 6.98774 29.8182Z" fill="black"/>
</svg>
