<svg width="60" height="60" viewBox="0 0 60 60" fill="none" xmlns="http://www.w3.org/2000/svg">
<path fill-rule="evenodd" clip-rule="evenodd" d="M13.6612 10.177C14.0677 10.2176 14.4278 10.3814 14.7897 10.5461C15.1061 10.69 15.4239 10.8346 15.7754 10.8982C15.5147 11.6353 15.0381 11.9959 14.2152 12.2763C14.2008 12.2806 14.1873 12.2875 14.1756 12.2968C14.1639 12.3062 14.1542 12.3177 14.147 12.3307C14.1398 12.3437 14.1353 12.358 14.1337 12.3727C14.1322 12.3875 14.1336 12.4024 14.1378 12.4166C14.1421 12.4308 14.1492 12.444 14.1587 12.4555C14.1682 12.467 14.1799 12.4766 14.1931 12.4837C14.2063 12.4907 14.2209 12.4952 14.2358 12.4967C14.2508 12.4983 14.266 12.4969 14.2804 12.4927C15.2988 12.1962 15.8732 11.7555 16.199 10.802C16.2398 10.6858 16.1339 10.5977 16.0198 10.5857C15.5757 10.5377 15.2061 10.3434 14.8364 10.1491L14.8364 10.1491C14.6194 10.035 14.4025 9.92093 14.1704 9.83647C15.4439 8.84434 16.8012 7.96106 18.2276 7.19628C18.2597 7.18181 18.2886 7.16126 18.3127 7.13582C18.3367 7.11037 18.3554 7.08052 18.3677 7.04797C18.38 7.01541 18.3856 6.9808 18.3843 6.9461C18.383 6.9114 18.3748 6.87729 18.36 6.84572C18.3453 6.81415 18.3244 6.78574 18.2986 6.76212C18.2727 6.73849 18.2423 6.7201 18.2092 6.70801C18.1761 6.69592 18.1409 6.69036 18.1057 6.69165C18.0704 6.69294 18.0357 6.70104 18.0036 6.71551C17.499 6.84284 16.9725 6.86196 16.4597 6.7716C16.9156 6.38603 17.2758 5.94276 17.6424 5.49162C17.931 5.13648 18.2235 4.77647 18.5698 4.43589C18.8142 4.19952 18.4273 3.83894 18.1828 4.07932C17.8502 4.40359 17.5696 4.75265 17.2914 5.09875L17.2914 5.09875C16.803 5.70623 16.3221 6.30457 15.5799 6.74356C15.5292 6.77288 15.4898 6.81798 15.4681 6.87173C15.4463 6.92548 15.4434 6.98483 15.4597 7.0404C15.4761 7.09598 15.5108 7.14462 15.5583 7.17865C15.6059 7.21268 15.6636 7.23016 15.7224 7.22833C15.9842 7.22833 16.2342 7.2581 16.4843 7.28789L16.4843 7.28789L16.4843 7.28789L16.4843 7.28789C16.6234 7.30446 16.7625 7.32104 16.9038 7.33249C15.6716 8.02006 14.5236 8.84406 13.482 9.7884C13.315 9.93663 13.4453 10.153 13.6612 10.177ZM47.3411 34.5515C48.0254 35.1445 49.052 34.207 48.3717 33.602L47.4837 32.7487C47.2189 32.4802 46.9582 32.2038 46.6975 31.9234C46.8492 31.7732 46.9344 31.5701 46.9344 31.3585C46.9344 31.1468 46.8492 30.9437 46.6975 30.7936C46.5317 30.6369 46.371 30.4751 46.2094 30.3123L46.0865 30.1886C46.0669 30.1233 46.0351 30.0622 45.9928 30.0083C45.4673 29.3673 44.9174 28.7423 44.3634 28.1253C43.9181 27.5414 43.4921 26.9449 43.0713 26.3555L43.0711 26.3553C42.8221 26.0066 42.5749 25.6604 42.3266 25.3209C42.2112 25.1619 42.096 25.0025 41.9806 24.843C40.7559 23.1497 39.5191 21.4396 37.9965 19.9604C37.1907 19.185 36.3377 18.4585 35.4424 17.7849C35.4373 17.6505 35.3855 17.5218 35.2957 17.4203C35.1146 17.2081 34.923 17.0048 34.7213 16.8113C33.2467 14.8082 31.5766 12.7449 29.1569 11.9797L28.7211 11.579C29.0795 11.2024 28.5174 10.6936 28.11 11.0021L27.9715 10.8699C27.9935 10.8286 28.0001 10.781 27.9903 10.7354C27.9804 10.6898 27.9547 10.649 27.9175 10.6201C27.8804 10.5911 27.8341 10.5758 27.7867 10.5768C27.7393 10.5778 27.6937 10.595 27.6579 10.6255C27.6368 10.6489 27.6136 10.6704 27.5886 10.6896C27.5534 10.6876 27.518 10.6876 27.4827 10.6896C27.4625 10.65 27.4337 10.6153 27.3983 10.5877C27.363 10.5602 27.322 10.5406 27.2781 10.5303C27.2343 10.52 27.1887 10.5193 27.1445 10.5281C27.1004 10.5369 27.0587 10.5551 27.0224 10.5815C25.4478 11.7704 24.0743 13.197 22.953 14.8082C22.9433 14.8193 22.9335 14.8292 22.9241 14.8388C22.9097 14.8534 22.896 14.8674 22.8837 14.8843C21.5156 16.3508 20.4477 18.1529 19.4302 19.8699C19.3359 20.0291 19.242 20.1876 19.1483 20.345C19.1483 19.6318 19.1727 18.9147 19.2135 18.2016C19.2135 18.0713 19.2241 17.941 19.2346 17.8123L19.2346 17.8123L19.2346 17.812L19.2346 17.812L19.2347 17.812C19.2387 17.7626 19.2427 17.7135 19.2461 17.6647C19.3056 17.6221 19.3549 17.5671 19.3904 17.5036C19.4259 17.4401 19.4467 17.3697 19.4514 17.2974C19.4561 17.2251 19.4445 17.1527 19.4174 17.0853C19.3904 17.0179 19.3486 16.9572 19.295 16.9075C19.295 16.7296 19.3081 16.5517 19.3213 16.3739C19.3301 16.2553 19.3389 16.1367 19.3438 16.0181C19.3489 15.8972 19.3567 15.7745 19.3646 15.6509V15.6508C19.4009 15.0821 19.4384 14.4934 19.2176 13.9668C19.1971 13.916 19.1609 13.8728 19.1142 13.8433C19.0674 13.8138 19.0123 13.7996 18.9568 13.8026C18.2238 13.6389 17.4136 14.1349 16.815 14.5013L16.7653 14.5317C16.3579 14.7921 15.9262 15.0606 15.4984 15.313C15.4224 15.3578 15.3449 15.3996 15.2677 15.4411L15.2677 15.4411L15.2677 15.4411L15.2676 15.4411C15.2207 15.4664 15.1739 15.4916 15.1277 15.5173C15.0903 15.4557 15.0334 15.4079 14.9657 15.3811C14.8981 15.3544 14.8233 15.3501 14.753 15.3691C14.0874 15.5492 13.9911 16.6576 13.9325 17.3325C13.9233 17.4383 13.9151 17.5334 13.9057 17.6126C13.7565 19.0769 13.7252 20.5505 13.812 22.0196C13.8738 23.5076 14.0412 24.9896 14.313 26.4547L14.343 26.6148C14.4231 27.0444 14.5072 27.495 14.6267 27.933C14.0971 28.8304 13.588 29.7359 13.1114 30.6573C13.0655 30.6448 13.0164 30.6504 12.9746 30.6728C12.9328 30.6952 12.9015 30.7328 12.8873 30.7775C12.8731 30.8577 12.8598 30.9378 12.8466 31.0179C12.8333 31.0981 12.8201 31.1782 12.8058 31.2583C12.1202 32.6272 11.5309 34.0408 11.042 35.489C10.7813 36.2903 11.7956 36.715 12.3863 36.3744C12.3523 38.1802 12.4145 39.9914 12.4763 41.7897C12.4886 42.15 12.501 42.5097 12.5125 42.8687C12.5818 44.928 12.6429 46.9913 12.6755 49.0506C12.6755 49.2044 12.6727 49.3689 12.6697 49.54C12.6557 50.354 12.6391 51.3194 12.9118 52.0113C13.0747 52.44 13.2621 52.8446 13.8324 52.7444C13.9364 52.7216 14.0327 52.6727 14.112 52.6025C14.1912 52.5323 14.2506 52.4432 14.2845 52.3438C14.7665 51.0798 14.6579 49.5266 14.5586 48.105C14.532 47.7243 14.506 47.3531 14.4923 46.9993C14.4276 45.1869 14.3389 43.3746 14.25 41.5583L14.2479 41.5146C14.1379 39.1829 14.0238 36.8432 13.7835 34.5275C13.9929 34.1674 14.1806 33.7955 14.3456 33.4137C14.4515 33.1734 14.5574 32.921 14.6633 32.6687L14.6633 32.6686L14.6633 32.6686L14.6634 32.6686L14.6634 32.6685C15.9186 32.7147 17.194 32.6541 18.4572 32.5939H18.4573H18.4573H18.4574L18.4576 32.5939L18.4577 32.5939L18.4579 32.5939C19.1663 32.5602 19.8708 32.5267 20.5659 32.5123C22.0748 32.4819 23.5836 32.4324 25.0925 32.383C26.1703 32.3476 27.2481 32.3123 28.3259 32.2839C30.4571 32.2275 32.5883 32.2113 34.7176 32.1951H34.7178H34.7179C37.8794 32.1711 41.0369 32.1471 44.1841 31.9915C44.3447 34.163 44.7328 36.3148 45.1197 38.4601L45.1197 38.4602L45.1198 38.4607L45.12 38.462L45.1201 38.462C45.3119 39.526 45.5035 40.5884 45.6669 41.6508C46.2114 45.0996 46.5352 48.5786 46.6364 52.0674C46.5692 51.9892 46.4847 51.9273 46.3894 51.8863C46.294 51.8453 46.1904 51.8264 46.0865 51.831C42.628 51.831 39.1615 52.0233 35.7071 52.3077C35.6418 51.8524 35.5229 51.406 35.3527 50.9776C35.1349 50.0561 34.9986 49.1178 34.9454 48.1732C34.8239 46.7584 34.8028 45.3436 34.7816 43.9249L34.7816 43.9246L34.7816 43.9243L34.7816 43.924C34.7758 43.5352 34.77 43.1461 34.7621 42.7566C34.7568 42.6407 34.7057 42.5315 34.6197 42.4522C34.5337 42.3729 34.4197 42.3297 34.3018 42.3319C33.3688 42.3579 32.4422 42.4586 31.5159 42.5594L31.5157 42.5594L31.5156 42.5594L31.5156 42.5594L31.5155 42.5595C31.1557 42.5986 30.796 42.6377 30.436 42.6724C30.2743 42.6883 30.0994 42.7086 29.9155 42.7299C28.8907 42.8488 27.5882 42.9999 26.7454 42.5923C26.5458 42.4962 26.3014 42.7486 26.4929 42.8928L26.6802 43.017C26.5984 43.0186 26.5194 43.047 26.4559 43.0978C26.3925 43.1487 26.3481 43.2189 26.3299 43.2974C26.1147 44.776 26.2089 46.2715 26.3026 47.7579L26.3026 47.7579C26.3206 48.0436 26.3386 48.329 26.3544 48.6139C26.384 49.1067 26.4199 49.5982 26.4559 50.0892L26.4559 50.0893L26.4559 50.0894L26.4559 50.0895C26.4842 50.4766 26.5125 50.8633 26.5377 51.2501C26.5547 51.4996 26.5588 51.7554 26.5629 52.0121C26.5696 52.4315 26.5763 52.8531 26.6395 53.2532C24.6027 53.4856 22.566 53.71 20.4926 53.8502C18.6001 53.9791 16.8035 53.8187 14.961 53.6543C14.3406 53.5989 13.715 53.543 13.0788 53.4976C12.9647 53.4976 12.9525 53.6218 13.0258 53.6739C14.831 54.9466 17.5446 54.9753 19.7423 54.9986H19.7424L19.8734 55C22.5547 54.9654 25.2311 54.762 27.886 54.3911C33.9272 53.6482 40.0067 53.2469 46.0946 53.1891C46.2304 53.1963 46.365 53.1616 46.4797 53.0897C46.5944 53.0179 46.6834 52.9126 46.7341 52.7885C47.0071 53.2292 47.891 53.1371 47.8951 52.5121C47.9001 48.9933 47.6126 45.4801 47.0356 42.0074C46.5345 38.8023 45.9724 35.5611 44.9174 32.4762C45.44 32.9659 45.9942 33.4263 46.5473 33.8859L46.5475 33.8861L46.5478 33.8863L46.548 33.8865C46.8138 34.1073 47.0794 34.3279 47.3411 34.5515ZM34.0085 48.4015C34.0814 49.3527 34.2285 50.297 34.4484 51.226C34.5101 51.6452 34.6675 52.0451 34.9087 52.3959L34.5014 52.4319C34.3925 51.8765 34.2496 51.3279 34.0737 50.7893C33.999 50.5062 33.9229 50.2236 33.8469 49.9409L33.8469 49.9408C33.6948 49.3755 33.5427 48.8102 33.4015 48.2413C33.008 46.6003 32.7371 44.9332 32.5909 43.2534C32.9983 43.2293 33.4056 43.2053 33.813 43.2013C33.813 44.924 33.8537 46.6668 34.0085 48.4015ZM33.4586 52.3358C32.0055 49.5439 31.7481 46.5693 31.487 43.5531L31.4666 43.3175L32.3913 43.2534C32.1813 44.7578 32.2365 46.2865 32.5542 47.7725C32.721 48.7504 32.9413 49.7187 33.2141 50.6731C33.3525 51.2914 33.5266 51.9013 33.7356 52.5L33.4993 52.5241C33.5031 52.4589 33.489 52.3938 33.4586 52.3358ZM31.1448 43.3455C30.5541 46.3783 31.2874 49.8719 32.7213 52.5962L30.933 52.7805C30.8787 52.468 30.7884 52.1571 30.6995 51.8509C30.6482 51.6742 30.5974 51.4991 30.5541 51.3262C30.3461 50.4122 30.1964 49.4862 30.1061 48.5538C30.0358 47.9059 30.0194 47.2463 30.003 46.5855V46.5855C29.9765 45.5218 29.95 44.4552 29.6987 43.4296C30.1794 43.4096 30.6641 43.3776 31.1448 43.3455ZM27.8208 53.1291C27.8461 52.502 27.8243 51.874 27.7556 51.2501C27.7108 50.3687 27.6334 49.4913 27.5316 48.6139C27.4568 47.9678 27.3942 47.3196 27.3315 46.6713C27.2201 45.5184 27.1086 44.3649 26.9287 43.2213C26.9255 43.1921 26.9172 43.1637 26.9043 43.1372C27.1971 43.2708 27.5089 43.36 27.829 43.4016C28.0218 43.8639 28.1466 44.3509 28.1997 44.8479C28.3441 45.7607 28.4338 46.6811 28.4685 47.6043C28.5948 49.2389 28.6111 50.8815 28.6111 52.5201C28.6111 52.6189 28.651 52.7137 28.722 52.7835C28.7931 52.8534 28.8894 52.8927 28.9899 52.8927C29.0904 52.8927 29.1867 52.8534 29.2578 52.7835C29.3288 52.7137 29.3688 52.6189 29.3688 52.5201C29.3688 50.7453 29.3688 48.9624 29.1936 47.1916C29.1129 46.3002 28.9562 45.417 28.7251 44.5514C28.6461 44.1228 28.4307 43.73 28.11 43.4296C28.5631 43.4576 29.0175 43.4576 29.4706 43.4296C29.0941 45.044 29.2291 46.8157 29.3546 48.4634C29.3649 48.5986 29.3752 48.7329 29.385 48.8663C29.4522 49.7602 29.5706 50.6497 29.7394 51.5305C29.806 51.9855 29.9151 52.4334 30.0653 52.8686C29.4299 52.9367 28.7985 53.0089 28.163 53.085L27.8208 53.1291ZM16.7042 15.5093C17.3376 15.2588 17.9576 14.9766 18.5617 14.6639C18.5469 14.8363 18.5475 15.0109 18.548 15.1864V15.1864V15.1865C18.5485 15.3496 18.549 15.5136 18.5373 15.6775V16.9035C17.8019 17.1643 17.0949 17.4972 16.4272 17.8971C16.2066 18.013 15.9949 18.1333 15.7863 18.2519L15.7863 18.2519L15.7863 18.2519L15.7863 18.2519C15.548 18.3873 15.3137 18.5205 15.0748 18.6423C14.9321 18.7271 14.7959 18.8222 14.6674 18.9267C14.6674 18.6891 14.6898 18.4515 14.7119 18.2166L14.7204 18.1254C14.7582 17.6147 14.8331 17.1073 14.9444 16.607C14.9843 16.471 15.0319 16.3372 15.087 16.2064C15.166 16.1859 15.2435 16.1605 15.3192 16.1303C15.7795 15.934 16.2398 15.7256 16.7042 15.5093ZM14.9892 26.3705C14.8019 24.9923 14.7204 23.5981 14.6552 22.2079C14.6186 21.3345 14.6063 20.4571 14.6308 19.5838C14.7468 19.5949 14.8638 19.5798 14.973 19.5397C15.4292 19.3474 15.8732 19.139 16.3213 18.9267C17.0382 18.5822 17.7592 18.2617 18.5006 17.9652C18.5006 19.0509 18.5251 20.1366 18.6228 21.2184C17.9792 22.3201 17.356 23.4299 16.7368 24.5436C16.1787 25.413 15.6288 26.2784 15.1074 27.1558C15.09 27.0127 15.0668 26.8707 15.0441 26.7311L15.0441 26.7311C15.0241 26.6088 15.0045 26.4884 14.9892 26.3705ZM28.6925 30.9338C26.1059 31.038 23.5151 31.1461 20.9529 31.3705C20.3683 31.4224 19.7724 31.4647 19.171 31.5074L19.1709 31.5074H19.1709H19.1709L19.1708 31.5074H19.1708C17.8695 31.5998 16.5426 31.694 15.25 31.8913C15.7803 31.165 16.2029 30.3307 16.6001 29.5465C16.7704 29.2103 16.936 28.8834 17.1034 28.578C17.7534 27.3892 18.3868 26.1915 19.0208 24.9928C19.5191 24.0506 20.0178 23.1077 20.5252 22.1679C21.4213 20.5172 22.3664 18.8826 23.4173 17.3121C24.6466 15.7072 25.9873 14.1879 27.4298 12.7649C28.0357 13.4027 28.7104 13.9736 29.4421 14.4676C29.8336 15.0179 30.2594 15.5437 30.7171 16.0421C31.6677 17.0972 32.7576 18.0255 33.8478 18.954C34.5748 19.5732 35.3021 20.1926 35.9882 20.8498C37.4593 22.2608 38.6016 23.9476 39.7425 25.6324C40.6457 26.966 41.548 28.2984 42.6117 29.4915C42.6591 29.9383 42.8487 30.3589 43.1535 30.6934C38.6002 30.5339 33.9882 30.7201 29.4392 30.9037H29.4391H29.4391H29.4391L28.6925 30.9338ZM27.4093 17.2641C27.393 17.4323 27.3645 17.5966 27.336 17.7568C30.1295 19.2436 32.4971 21.3985 34.2202 24.0228C34.2676 24.0993 34.2944 24.1863 34.2981 24.2758C34.3019 24.3652 34.2826 24.4541 34.2418 24.5342C34.2011 24.6143 34.1404 24.6829 34.0654 24.7336C33.9904 24.7843 33.9035 24.8154 33.8129 24.8241C33.8378 24.9018 33.8433 24.9844 33.8289 25.0647C33.8146 25.145 33.7809 25.2207 33.7305 25.2855C33.6802 25.3503 33.6148 25.4022 33.5398 25.437C33.4648 25.4717 33.3825 25.4882 33.2996 25.4851C32.3669 25.6011 31.4093 25.6372 30.4482 25.6734C29.5836 25.7059 28.7161 25.7386 27.8615 25.8297C26.3125 26.0269 24.7509 26.1126 23.1892 26.0861C23.1061 26.2969 23.0052 26.5006 22.8877 26.695C22.7126 26.9955 22.1301 26.9635 22.073 26.5949C21.8526 25.211 23.0105 23.6512 23.8823 22.4768C23.9772 22.349 24.0686 22.2257 24.1546 22.1078C24.2698 21.9481 24.3862 21.7881 24.5031 21.6276C25.5063 20.2495 26.5388 18.8312 27.0386 17.22C27.0957 17.0357 27.4256 17.0958 27.4093 17.2641ZM31.7969 24.0947C31.8132 24.1189 31.8294 24.1429 31.8454 24.167V24.171C32.2135 24.1548 32.5823 24.1629 32.9493 24.1951C32.5008 23.5153 31.9938 22.8746 31.434 22.28V23.2255C31.434 23.2364 31.4317 23.2472 31.4274 23.2571C31.4231 23.2671 31.4167 23.2762 31.4087 23.2837C31.4007 23.2911 31.3912 23.297 31.3809 23.3007C31.3705 23.3045 31.3595 23.3062 31.3484 23.3057C31.438 23.49 31.5317 23.6702 31.6376 23.8465C31.6877 23.9327 31.7426 24.0142 31.7968 24.0946L31.7968 24.0946L31.7969 24.0947ZM31.2629 23.1254V22.0957C30.9615 21.7672 30.6397 21.4508 30.3138 21.1303L30.3138 21.1303L30.3138 21.1303L30.3137 21.1302C30.517 21.4793 30.698 21.8406 30.8555 22.2119C30.9128 22.3379 30.9681 22.4646 31.0232 22.5911C31.1013 22.7703 31.1793 22.9492 31.2629 23.1254ZM23.3643 25.6253C24.8023 25.2928 26.2362 24.9803 27.7026 24.7399C28.11 24.6798 28.5173 24.6077 28.9002 24.5156C28.8432 24.4977 28.7933 24.4627 28.7577 24.4154C27.5763 22.7688 27.3482 20.7897 27.1283 18.8706C27.116 18.8025 27.2953 18.7825 27.2953 18.8706C27.67 20.7536 28.11 22.5444 29.2098 24.179C29.2268 24.2023 29.2386 24.2287 29.2446 24.2567C29.2505 24.2847 29.2504 24.3136 29.2442 24.3415C29.2381 24.3695 29.226 24.3958 29.2089 24.4189C29.1917 24.442 29.1699 24.4613 29.1447 24.4755C29.772 24.3714 30.4074 24.2712 31.0429 24.2071C30.8163 23.7707 30.6203 23.3196 30.4563 22.8569C30.37 22.6456 30.2879 22.4322 30.2057 22.2185C29.9154 21.464 29.624 20.7069 29.1447 20.0325C29.1375 20.0103 29.1375 19.9865 29.1447 19.9643L28.9702 19.7896L28.9702 19.7896C28.3982 19.2171 27.8165 18.635 27.2953 18.0132C27.0546 18.9328 26.6756 19.8119 26.171 20.6214C26.1832 21.9355 26.7291 22.9892 27.4419 24.1911C27.4674 24.2405 27.4742 24.2973 27.4609 24.3511C27.4476 24.405 27.4151 24.4524 27.3694 24.4848C27.3236 24.5172 27.2676 24.5325 27.2115 24.5278C27.1553 24.5232 27.1027 24.499 27.0631 24.4595C26.2553 23.5626 25.8115 22.4045 25.8166 21.2063C25.6862 21.4187 25.5477 21.631 25.4092 21.8433L25.0426 22.4042C25.1864 23.1292 25.3935 23.8542 25.6006 24.5791L25.6659 24.808C25.7229 25.0444 25.3155 25.1486 25.2585 24.9082C25.0612 24.1887 24.9249 23.4544 24.8512 22.7127C24.4895 23.2482 24.1564 23.8018 23.8532 24.3714C23.6643 24.7791 23.501 25.1979 23.3643 25.6253ZM16.9527 40.501C17.0839 41.5172 17.4474 42.4911 18.0159 43.3495C18.8075 44.6168 20.445 44.745 21.9229 44.8606H21.9229C22.2624 44.8872 22.5936 44.9131 22.9041 44.952C23.4947 45.0322 23.9102 44.5754 23.6536 44.0586C22.8513 42.4781 23.1408 40.7996 23.4308 39.1183C23.6134 38.0593 23.7963 36.9992 23.7066 35.9618C23.698 35.8576 23.6631 35.7572 23.6049 35.6698C23.5468 35.5823 23.4673 35.5106 23.3737 35.4612C23.2801 35.4118 23.1754 35.3862 23.0691 35.3869C22.9629 35.3876 22.8585 35.4144 22.7656 35.465C22.0573 35.8571 21.2681 36.0867 20.4569 36.1367C19.6457 36.1866 18.8335 36.0556 18.081 35.7534C17.417 35.477 16.8345 36.3063 17.3641 36.6509C17.3157 37.0367 17.251 37.418 17.1867 37.7976C17.0345 38.695 16.884 39.5832 16.9527 40.501ZM18.1747 36.9794C19.5859 37.4091 21.1015 37.3711 22.4886 36.8712C22.4598 37.6856 22.3306 38.489 22.2023 39.287C21.967 40.75 21.7347 42.1944 22.1301 43.654L21.8784 43.6244L21.8782 43.6244C21.4194 43.5707 20.9586 43.5168 20.5007 43.4457C20.2377 43.4314 19.9809 43.3617 19.7476 43.2415C19.5142 43.1212 19.3099 42.9531 19.1483 42.7485C18.0805 41.2888 18.1199 39.6712 18.1598 38.0303C18.1683 37.6806 18.1769 37.3299 18.1747 36.9794ZM36.6522 43.037C36.1348 43.0891 35.976 42.5402 36.1348 42.2077C36.5585 41.3272 36.612 40.3426 36.6648 39.3729C36.6881 38.944 36.7113 38.518 36.7662 38.1052C36.7756 38.0358 36.7847 37.9637 36.794 37.8896C36.8742 37.2528 36.9733 36.4658 37.4221 35.9778L36.7785 36.118C36.6672 36.1504 36.5474 36.1381 36.4454 36.0836C36.3434 36.0291 36.2676 35.937 36.2346 35.8276C36.2017 35.7181 36.2143 35.6003 36.2697 35.5C36.3251 35.3997 36.4187 35.3251 36.53 35.2927C38.4405 34.7358 40.9823 34.4354 42.1066 36.3384C42.9631 37.7586 43.035 39.4902 43.1029 41.1232C43.1183 41.4941 43.1335 41.8598 43.1576 42.2157C43.1512 42.3684 43.0839 42.5125 42.9703 42.6167C42.8567 42.7209 42.7059 42.777 42.5506 42.7726C40.5811 42.7585 38.6122 42.8467 36.6522 43.037ZM41.296 37.1116C40.6687 35.7374 39.1859 35.6813 37.7887 35.9097C37.3967 36.9605 37.4536 38.0823 37.5109 39.2087C37.5553 40.0838 37.5999 40.9616 37.4343 41.8111C38.9231 41.6667 40.4196 41.6132 41.9152 41.6508C41.9075 41.4333 41.9022 41.2123 41.8969 40.9891C41.8654 39.6748 41.8323 38.2863 41.296 37.1116Z" fill="#252525"/>
</svg>
