<svg width="276" height="265" viewBox="0 0 276 265" fill="none" xmlns="http://www.w3.org/2000/svg">
<path d="M271.591 40.4067C268.396 39.6594 265.189 38.9618 262.006 38.1791C258.945 37.4223 255.884 36.597 252.823 35.7765C250.749 35.2184 248.717 34.438 246.609 34.0691C241.559 33.1847 236.511 32.3074 231.651 30.6284C226.999 29.0203 222.37 27.3461 217.76 25.6505C216.333 25.1279 214.965 24.4445 213.576 23.8273C212.956 23.5506 212.514 23.5908 212.398 24.3878C212.208 25.7239 212.022 27.0599 211.779 28.3842C211.624 29.2308 211.417 30.0672 211.16 30.8885C210.091 34.2961 208.895 37.6683 207.932 41.1066C206.488 46.2453 205.21 51.4312 203.837 56.5887C203.598 57.4168 203.313 58.2308 202.983 59.0268C202.38 60.5592 201.805 62.101 201.113 63.5979C200.039 65.8917 199.602 68.5639 197.219 70.0939C196.694 70.4321 196.842 70.9783 197.409 71.1793C197.886 71.361 198.4 71.4188 198.905 71.3472C202.286 70.6709 205.646 70.6378 209.008 71.4631C210.185 71.754 211.391 71.8935 212.573 72.156C214.939 72.6809 217.35 73.083 219.636 73.835C222.082 74.6366 224.406 75.8119 226.808 76.7649C227.58 77.0747 228.425 77.2047 229.235 77.4152C229.283 77.2875 229.327 77.1598 229.372 77.0321C229.108 76.8287 228.779 76.6727 228.597 76.4125C228.416 76.1524 228.254 75.7031 228.362 75.5399C228.965 74.6366 229.523 73.6221 230.347 72.9671C232.073 71.5955 233.942 70.4013 235.788 69.1835C236.125 68.9635 236.636 69.0108 237.064 68.947C237.064 69.5003 237.149 70.0703 237.041 70.6023C236.968 70.9689 236.631 71.281 236.556 71.3969C237.064 71.8698 237.636 72.1583 237.709 72.5391C238.079 74.4309 238.364 76.3227 238.58 78.2429C238.675 79.0753 238.816 80.0803 238.451 80.7566C238.008 81.6404 237.372 82.4121 236.591 83.0141C235.809 83.6161 234.902 84.0327 233.937 84.2328C233.574 84.3432 233.22 84.484 232.88 84.6537C233.587 85.978 235.47 86.8695 237.019 86.6945C237.672 86.6212 238.522 86.8009 238.938 86.458C240.295 85.3457 241.543 84.1074 242.668 82.7596C244.081 81.0285 244.811 78.9381 245.187 76.7294C245.296 76.0933 245.479 75.4714 245.635 74.8116C247.721 77.2284 248.022 79.56 246.609 82.2961C245.197 85.0321 242.814 85.7817 240.033 86.1577C240.33 86.4604 240.612 86.7016 240.897 86.704C242.581 86.7324 244.208 86.4084 245.493 85.2568C247.243 83.6889 248.667 81.9059 248.637 79.3448C248.637 79.1084 248.943 78.8719 249.107 78.6354C249.315 78.7797 249.602 78.8719 249.72 79.08C250.44 80.3286 250.742 81.6481 250.344 83.1001L249.477 82.5964C249.637 82.8754 249.821 83.1474 249.948 83.4382C250.075 83.7291 250.271 84.0294 250.224 84.2896C249.55 87.8533 248.575 91.2491 244.964 93.025L242.967 91.5045C242.967 92.5024 243.073 93.252 242.95 93.9591C242.447 96.8559 241.969 99.7622 241.302 102.621C240.723 105.102 239.89 107.521 239.183 109.971C238.962 110.744 238.493 110.957 237.771 110.732C236.687 110.394 235.588 110.101 234.521 109.713C230.085 108.07 225.659 106.414 221.209 104.835C220.552 104.598 220.392 104.267 220.366 103.652C220.227 99.9987 219.907 96.3475 219.937 92.6987C219.975 88.0779 220.293 83.4595 220.503 78.5716C222.151 78.6945 223.874 78.7324 225.558 78.9712C226.897 79.1628 228.204 79.5908 229.523 79.9313C230.215 80.1087 230.561 80.5414 230.54 81.3029C230.507 82.5869 230.54 83.871 230.54 85.2213C229.866 85.3513 229.193 85.4034 228.583 85.6304C228.308 85.7344 228.159 86.1837 227.952 86.4746C228.246 86.5928 228.549 86.6846 228.859 86.7489C229.384 86.8128 229.916 86.8104 230.53 86.8388L232.737 85.5642C231.225 85.3277 231.305 84.3487 231.437 83.2893C231.559 82.5506 231.578 81.7983 231.491 81.0546C231.395 80.4492 231.157 79.6002 230.714 79.3614C229.49 78.704 228.162 78.0537 226.81 77.8692C224.613 77.5689 222.367 77.6328 220.142 77.5571C219.405 77.5287 219.189 77.9023 219.304 78.6047C219.437 79.296 219.507 79.9981 219.511 80.7022C219.438 83.5612 219.255 86.4178 219.226 89.2768C219.189 93.4057 219.295 97.5346 219.226 101.663C219.212 102.586 219.742 103.733 218.607 104.463C218.504 104.53 218.544 104.83 218.527 105.024C218.464 105.733 218.492 106.443 218.334 107.126C217.47 110.832 216.563 114.528 215.666 118.226C215.04 120.813 214.489 123.429 213.754 125.976C212.422 130.648 210.946 135.281 209.603 139.954C208.598 143.461 207.746 147.013 206.759 150.527C205.45 155.192 204.075 159.841 202.728 164.495C202.283 164.45 202.05 164.443 201.822 164.405C198.212 163.775 194.601 163.144 190.991 162.514C188.917 162.147 186.831 161.83 184.775 161.378C180.198 160.373 175.637 159.281 171.065 158.259C169.998 158.023 168.894 157.959 167.82 157.744C164.606 157.103 161.409 156.379 158.188 155.776C155.671 155.303 153.133 154.963 150.604 154.563C149.486 154.386 148.374 154.13 147.247 154.036C144.565 153.799 141.874 153.648 139.185 153.473C138.097 153.402 137.007 153.331 135.917 153.341C135.759 153.361 135.609 153.418 135.477 153.507C135.346 153.597 135.237 153.717 135.161 153.856C134.885 154.58 134.739 155.351 134.53 156.1C133.985 158.133 132.698 159.885 130.926 161.009C129.153 162.133 127.025 162.546 124.963 162.166C122.275 161.693 119.6 161.14 116.925 160.596C113.447 159.879 110.054 158.798 106.801 157.37C105.087 156.623 103.474 155.701 102.348 154.4C103.996 152.768 105.659 151.283 107.147 149.647C110.335 146.142 111.759 141.997 111.564 137.22C111.482 134.566 111.554 131.91 111.781 129.265C112.035 125.914 112.534 122.58 112.805 119.229C113.061 116.051 113.108 112.844 113.337 109.673C113.65 105.329 114.102 100.994 114.396 96.6478C114.624 93.4189 115.193 90.2234 116.094 87.1155C116.256 86.5526 116.993 85.5713 115.986 85.3182C115.067 85.0818 115.096 86.2523 114.987 86.8648C114.5 89.6434 114.046 92.4267 113.69 95.2242C113.351 97.9059 113.13 100.602 112.901 103.295C112.68 105.882 112.534 108.474 112.317 111.061C112.209 112.359 111.809 112.629 110.559 112.468C109.417 112.324 108.512 111.822 108.131 110.704C107.698 109.434 106.897 108.19 107.542 106.76C107.976 105.797 108.484 104.868 108.894 103.896C109.226 103.111 108.894 102.356 108.157 102.198C107.773 102.115 107.144 102.713 106.789 103.144C106.553 103.437 106.511 103.967 106.509 104.39C106.495 105.951 106.257 107.429 105.162 108.63C104.272 109.609 103.441 110.664 102.433 111.503C100.253 113.326 98.3527 113.36 96.4008 111.752C94.9881 110.586 94.456 108.954 94.1852 107.221C94.1703 107.07 94.1867 106.917 94.2333 106.773C94.2799 106.628 94.3557 106.495 94.456 106.381C95.4425 105.435 95.5061 104.373 94.9269 103.208C94.5196 102.387 94.7903 101.947 95.6756 102.073C96.4314 102.177 97.1519 102.527 97.9054 102.65C102.438 103.387 105.327 101.037 108.084 97.6292C108.157 97.537 108.112 97.3501 108.145 96.8914C107.634 97.2839 107.316 97.518 107.006 97.7616C105.842 98.6839 104.738 99.7007 103.502 100.512C101.986 101.505 100.14 101.945 98.4516 101.548C94.7927 100.687 93.0174 98.2251 92.4829 94.529C92.4382 94.2263 92.3722 93.8361 92.5135 93.6067C93.4551 92.1491 93.8706 90.4114 93.6908 88.6833C93.606 87.8414 93.3988 87.2763 92.5583 87.1935C91.7742 87.1131 91.1455 87.4063 91.1291 88.3475C91.0914 89.6434 91.1291 90.9487 91.0019 92.2281C90.936 93.126 90.696 94.0024 90.2956 94.808C90.006 95.333 89.2713 95.6239 88.711 95.9904C85.2804 98.2157 80.8869 97.9886 79.6178 93.0865C79.5119 92.6774 79.7332 92.0318 80.0299 91.6984C80.8822 90.7359 81.8899 89.913 82.7658 88.9694C83.8513 87.787 83.7076 85.5571 82.5186 84.4764C82.1736 84.1544 81.8044 83.8595 81.4143 83.5943C80.6067 83.0599 79.5307 83.3342 79.2953 84.2588C78.7825 86.264 78.3894 88.2982 78.118 90.3504C78.0003 91.3531 77.6707 91.7197 76.7406 91.8521C74.5751 92.2089 72.357 91.6886 70.5729 90.4052C68.7889 89.1218 67.5844 87.1802 67.2237 85.0061C66.92 83.32 67.5533 81.4589 67.8453 79.6735C67.9701 78.9192 68.4009 78.5905 69.1944 79.1131C69.5973 79.3534 70.0521 79.4922 70.52 79.5175C71.2264 79.5695 71.4618 79.1793 71.1534 78.5361C70.7884 77.7486 70.3152 77.5453 69.3592 77.7723C68.4033 77.9993 66.4231 75.644 66.2701 74.5657C66.1539 74.003 65.9965 73.4497 65.7992 72.9103C65.6618 72.4557 65.6186 71.9777 65.6721 71.5057C65.8298 69.9898 65.6956 68.3369 66.2678 66.989C67.485 64.1205 70.1197 62.9026 72.9875 62.1625C73.7739 61.9615 74.5462 61.5429 75.342 61.5264C78.7584 61.4578 82.2572 60.9872 85.3322 63.158C85.5677 63.3212 86.0386 63.1439 86.3847 63.1249C86.2458 62.8388 86.1728 62.4794 85.9538 62.2784C84.374 60.8193 83.7524 58.8518 83.3945 56.8725C82.9024 54.1601 84.5105 51.9656 85.7231 49.7593C86.483 48.4591 87.4117 47.2663 88.4849 46.2122C89.5845 45.0842 90.7476 43.871 92.1297 43.2184C93.5118 42.5657 95.1412 42.5089 96.681 42.3505C97.6824 42.2404 98.6956 42.3312 99.6618 42.6177C100.997 43.0596 102.275 43.6572 103.471 44.3984C104.665 45.1338 105.654 46.0537 105.826 47.6949C105.918 48.5249 106.551 49.388 107.154 50.0383C107.244 50.1485 107.369 50.2253 107.508 50.2566C107.646 50.2879 107.791 50.2719 107.92 50.2112C108.049 50.1505 108.154 50.0485 108.218 49.9213C108.283 49.7941 108.304 49.6489 108.277 49.5086C108.119 48.454 107.879 47.2408 107.227 46.4841C106.617 45.7747 106.709 45.2733 106.89 44.6088C106.994 44.2352 107.222 43.8994 107.302 43.5187C107.721 41.5465 109.518 39.8037 111.524 39.6074C114.151 39.3496 116.741 39.5483 119.176 40.6928C121.295 41.6884 123.414 42.6745 125.488 43.7788C126.004 44.0555 126.287 44.7744 126.774 45.4176C126.554 45.4747 126.331 45.5166 126.105 45.5429C122.574 45.3656 119.254 47.9692 118.585 51.4312C118.437 52.1997 118.408 53.1527 117.94 53.6659C116.315 55.4489 115.821 57.6671 115.244 59.8639C115.049 60.6065 114.745 60.8713 113.921 60.7176C110.954 60.1572 108.237 60.9423 105.788 62.5976C104.065 63.7634 102.374 65.0711 101.63 67.1119C101.515 67.4919 101.477 67.8911 101.517 68.2862C101.558 68.6813 101.676 69.0643 101.866 69.4128C102.128 69.8141 102.499 70.1319 102.935 70.3288C103.37 70.5257 103.853 70.5935 104.326 70.5243C104.113 70.0757 103.774 69.6993 103.351 69.4412C102.377 68.9328 102.433 68.3369 102.824 67.4075C104.253 64.0117 109.822 61.0227 113.615 61.7747C114.479 61.9473 115.027 62.2476 115.027 63.2928C115.027 64.5911 115.178 65.8941 116.245 66.8707C116.779 67.3579 117.302 67.5447 117.893 66.9724C118.889 65.9981 118.966 64.8299 117.959 63.8769C116.273 62.2854 115.675 60.5095 116.692 58.3221C116.805 58.0856 116.789 57.764 116.927 57.5323C117.274 56.9127 117.667 56.3215 118.041 55.7161C118.451 56.1513 118.496 56.506 118.66 56.7921C119.367 58.0005 119.932 59.3319 120.848 60.3392C122.211 61.8527 124.271 61.1953 124.876 59.2515C125.543 57.109 123.911 53.0156 120.834 52.973C119.289 52.9517 119.237 52.6703 119.579 51.1238C120.08 48.8536 123.518 46.0324 126.383 46.704C128.761 47.2621 131.231 47.7729 132.425 50.3694C132.51 50.5515 132.849 50.6059 133.068 50.7312C133.178 50.4664 133.43 50.1637 133.374 49.9414C133.023 48.558 132.251 47.4253 130.784 47.1959C128.794 46.8838 128.13 45.349 127.459 43.8403C127.16 43.1687 128.775 40.811 129.503 40.6148C130.772 40.2719 130.897 40.0307 130.384 38.8601C130.958 38.548 131.521 38.198 132.119 37.9142C133.896 37.1007 135.728 36.571 137.633 37.4413C140.581 38.8034 143.39 40.3192 145.045 43.3721C145.587 44.3747 146.491 45.1929 147.298 46.0277C147.473 46.2051 147.943 46.0939 148.344 46.1199C148.33 45.9399 148.299 45.7616 148.25 45.5879C147.091 43.1025 145.168 41.258 143.114 39.553C142.361 38.9263 141.29 38.6757 140.569 38.0254C139.109 36.7058 137.287 36.2518 135.54 36.2494C132.649 36.2494 130.205 37.647 128.42 39.9574C127.65 40.9506 127.153 42.1566 126.64 43.0765C124.092 41.9627 121.655 40.8394 119.174 39.8249C116.65 38.7939 114.069 38.3659 111.295 38.8459C109.136 39.2219 107.745 40.3239 106.803 42.1873C106.377 43.0316 105.97 43.8876 105.706 44.4268C103.377 43.5329 101.218 42.516 98.9508 41.8894C96.528 41.2178 93.8297 41.4164 91.7483 42.5562C89.608 43.7386 87.8257 45.7652 86.2576 47.7209C84.9178 49.3975 84.0302 51.4596 83.0696 53.4152C81.9535 55.6854 82.0689 57.9627 83.4157 60.1477C83.5043 60.3054 83.5582 60.4804 83.5734 60.6609C81.4285 60.6609 79.38 60.6136 77.334 60.6798C76.1685 60.7176 74.9418 60.7413 73.8634 61.122C71.7561 61.8645 69.5853 62.4533 67.7275 63.8698C66.0629 65.1374 65.0363 66.7076 64.8221 68.7247C64.6761 70.1033 64.6008 71.5624 64.9186 72.8985C65.2969 74.4454 65.9415 75.9139 66.8234 77.2378C67.2943 77.9591 67.3438 78.3516 67.0589 79.0753C65.5284 83.0079 65.9475 86.6922 68.6246 90.0265C70.7908 92.7247 73.7787 93.1645 76.9219 92.8193C78.0874 92.6892 78.4594 92.9966 78.8173 94.0324C80.3383 98.4096 84.8684 99.6794 88.6757 97.3289C89.5916 96.7637 90.3945 96.0141 91.0725 95.4867C91.9296 97.0144 92.6995 98.5845 93.6625 100.022C94.1169 100.699 94.2912 101.072 93.6743 101.704C93.3753 102.009 93.2787 102.546 93.161 102.995C92.5229 105.426 93.2034 107.753 93.8815 110.032C94.4748 112.026 97.5734 114.168 99.311 113.849C101.43 113.459 103.314 112.582 104.604 110.699C105.03 110.075 105.609 109.552 106.316 108.76C107.062 111.919 108.286 114.235 111.917 113.329C111.962 113.591 111.987 113.857 111.99 114.123C111.75 117.204 111.504 120.284 111.253 123.365C110.996 126.491 110.721 129.615 110.478 132.741C110.382 133.957 110.231 135.186 110.314 136.395C110.478 138.76 110.391 141.051 109.591 143.342C108.268 147.126 105.878 150.056 102.763 152.425C101.338 153.509 101.053 153.395 100.022 151.953C99.8213 151.658 99.584 151.391 99.3157 151.158C99.1004 151.026 98.8672 150.927 98.6235 150.862C98.5199 151.137 98.2797 151.449 98.3409 151.681C98.4794 152.104 98.6601 152.513 98.8801 152.901C97.1001 153.61 95.3484 154.178 93.6814 154.972C91.9202 155.814 90.272 156.888 88.5415 157.81C88.1057 158.053 87.6045 158.151 87.1099 158.089C84.9202 157.652 82.7329 157.181 80.5761 156.609C76.225 155.452 71.9351 154.119 67.3461 154.112C63.7508 154.112 60.1578 153.731 56.5624 153.525C55.7172 153.478 54.8601 153.525 54.029 153.388C51.6745 153.014 49.3506 152.477 46.9913 152.187C44.6321 151.896 42.2517 151.832 39.8807 151.65C39.7018 151.636 39.5417 151.461 39.358 151.413C38.5457 151.177 37.6934 151.846 37.538 152.671C37.2967 153.963 37.2507 155.284 37.4014 156.59C37.5968 158.368 37.3567 160.203 37.1871 162.003C37.1405 162.264 37.0426 162.513 36.8991 162.736C36.7556 162.959 36.5694 163.151 36.3513 163.301C34.2063 164.654 31.9978 165.902 29.8364 167.227C28.8757 167.813 27.9739 168.496 27.0463 169.135L27.2393 169.438L36.4384 164.375C36.5302 166.115 36.6739 167.423 36.6315 168.728C36.6197 169.168 36.276 169.688 35.9251 170.015C34.4889 171.396 33.0102 172.732 31.5222 174.056C30.246 175.191 28.9652 176.326 27.6302 177.395C26.719 178.126 25.6854 178.703 24.7647 179.424C24.494 179.637 24.4233 180.11 24.2632 180.462C24.6823 180.436 25.205 180.557 25.5041 180.356C26.3083 179.798 27.0752 179.189 27.7997 178.53C29.1465 177.374 30.5145 176.234 31.8024 175.014C33.354 173.54 34.7879 171.939 36.3584 170.49C37.1777 169.733 37.9453 168.738 39.0849 168.853C39.4569 168.355 39.7912 167.962 40.0573 167.529C40.2033 167.293 40.3846 166.936 40.3069 166.723C40.0267 165.968 39.6405 165.252 39.2968 164.519L40.0267 163.869L38.0795 163.958C38.395 160.411 38.7058 156.949 39.0213 153.48L39.5511 153.513L38.9366 163.195L39.4381 163.28C40.1256 161.847 39.9796 160.206 40.2009 158.673C40.4364 157.018 40.5706 155.363 40.7519 153.66L41.6231 153.757C46.1272 154.298 50.5867 155.28 55.1662 155.057C56.3223 155.001 57.5207 154.944 58.6462 155.133C61.4504 155.606 64.2146 156.342 67.0283 156.753C71.0427 157.337 75.0854 157.723 79.1163 158.203C80.8963 158.413 82.6787 158.619 84.4493 158.886C84.932 158.959 85.5112 159.122 85.8102 159.47C86.2246 159.943 86.5495 160.059 87.1075 159.815C87.3983 159.696 87.7178 159.665 88.0258 159.728C89.4385 160.026 90.8395 160.39 92.2522 160.686C95.3907 161.341 98.5317 161.972 101.67 162.603C103.554 162.982 105.437 163.301 107.3 163.715C110.427 164.408 113.532 165.2 116.666 165.843C117.495 166.016 117.822 166.337 117.843 167.134C117.862 168.553 117.949 169.953 117.94 171.36C117.905 175.853 117.841 180.323 117.78 184.801C117.716 189.436 117.867 194.078 116.913 198.664C116.605 200.156 116.541 201.707 116.461 203.237C116.313 206.058 116.24 208.887 116.132 211.712C116.108 212.301 116.106 212.895 116.037 213.481C115.953 214.243 115.635 214.848 114.761 214.9C113.476 214.99 112.185 215.186 110.909 215.115C109.275 215.023 107.658 214.678 106.026 214.503C104.006 214.283 101.979 214.115 99.9538 213.942C96.8764 213.678 93.7967 213.469 90.7264 213.162C86.8745 212.782 83.0287 212.359 79.1893 211.892C76.7524 211.597 74.3296 211.183 71.8903 210.809C70.8779 210.651 69.8749 210.428 68.8671 210.234C68.8342 210.097 68.8036 209.963 68.7706 209.828L71.264 207.021C69.9267 206.862 69.3121 207.439 68.8036 208.22C68.295 209 67.6569 209.844 66.595 209.707C63.6896 209.329 60.7864 208.901 57.9022 208.392C54.7942 207.844 51.6886 207.253 48.6113 206.553C44.8841 205.704 41.1922 204.701 37.472 203.812C36.6809 203.623 35.8404 203.632 35.021 203.552L34.8891 204.129C35.4048 204.282 35.9157 204.448 36.4337 204.587C39.3769 205.373 42.3012 206.243 45.2678 206.914C48.7996 207.716 52.3643 208.383 55.9244 209.054C58.2247 209.487 60.5439 209.818 62.8537 210.199C63.8567 210.367 64.8574 210.547 65.8604 210.722C65.9075 210.89 65.9522 211.057 65.9993 211.225L59.4538 216.723L59.0582 216.291C59.6246 215.818 60.1646 215.314 60.6758 214.782C60.8806 214.545 60.8618 214.124 60.9465 213.786C60.6051 213.831 60.1484 213.749 59.9435 213.94C59.0778 214.736 58.2601 215.583 57.4948 216.477C55.9008 218.369 54.5517 220.498 52.7505 222.153C49.579 225.064 46.1579 227.703 42.8168 230.43C40.6977 232.161 38.5057 233.811 36.396 235.556C35.8459 236.062 35.3773 236.649 35.0069 237.299C34.5124 238.087 34.8138 239.245 35.393 239.676C35.7438 238.853 35.9251 237.822 36.5185 237.169C37.7263 235.845 39.139 234.698 40.5211 233.544C40.7331 233.369 41.244 233.572 41.616 233.568C41.9291 233.568 42.3223 233.613 42.5366 233.452C42.952 233.152 43.3015 232.77 43.5632 232.328C44.6557 230.342 46.5016 229.105 48.1192 227.651C50.4454 225.56 52.8588 223.569 55.2133 221.503C57.3677 219.623 59.4656 217.676 61.6458 215.827C63.3105 214.408 65.0316 213.056 66.8069 211.786C67.3928 211.375 68.103 211.181 68.8153 211.239C71.483 211.618 74.1177 212.237 76.7854 212.604C81.5415 213.261 86.3211 213.765 91.0796 214.413C92.0661 214.548 93.1987 214.635 93.5919 215.974C93.9372 217.084 94.3388 218.175 94.795 219.244C95.532 221.091 96.3702 222.9 97.0271 224.773C97.6652 226.589 98.1808 228.455 98.6564 230.321C99.4499 233.433 100.321 236.535 100.886 239.69C101.607 243.729 102.671 247.73 102.57 251.894C102.518 254.127 102.624 256.364 102.669 258.599C102.687 259.582 102.68 260.568 102.779 261.545C102.815 261.869 103.144 262.162 103.34 262.467C103.625 260.987 103.766 259.482 103.761 257.974C103.745 255.74 103.723 253.498 103.526 251.275C103.311 248.934 102.911 246.612 102.532 244.289C102.266 242.648 101.913 241.021 101.574 239.392C101.289 238.035 101.027 236.665 100.651 235.332C100.274 233.998 99.723 232.714 99.3298 231.385C98.4704 228.462 97.7311 225.501 96.8081 222.597C96.0782 220.299 95.1364 218.069 94.3265 215.796C94.1805 215.39 94.2158 214.917 94.164 214.448C96.3278 214.661 98.3292 214.841 100.328 215.059C103.314 215.383 106.309 215.647 109.275 216.097C111.456 216.428 113.584 216.806 115.781 215.423C115.849 216.787 115.91 217.996 115.969 219.206L116.4 219.282C116.57 218.892 116.847 218.516 116.892 218.114C117.062 216.591 117.168 215.059 117.281 213.529C117.66 208.425 118.022 203.322 118.406 198.221C118.613 195.474 118.974 192.735 119.049 189.985C119.178 185.272 119.162 180.554 119.162 175.837C119.162 173.363 119.037 170.89 119.035 168.416C119.004 167.415 119.11 166.415 119.35 165.443C119.543 164.753 119.508 164.363 118.842 164.169C116.902 163.606 114.98 162.913 113 162.568C109.068 161.88 105.096 161.442 101.155 160.806C97.4863 160.215 93.8344 159.506 90.1802 158.829C90.0107 158.799 89.8741 158.576 89.6952 158.418L97.6628 154.253C98.428 154.372 99.1226 154.4 99.7654 154.599C100.531 154.824 101.267 155.142 101.957 155.545C103.356 156.394 104.623 157.505 106.09 158.193C107.971 159.049 109.914 159.764 111.901 160.331C114.02 160.967 116.19 161.459 118.352 161.958C120.104 162.36 121.912 162.551 123.631 163.055C128.575 164.507 134.462 161.551 135.507 156.434C135.662 155.677 135.846 154.568 137.101 154.577C138.186 154.577 139.277 154.506 140.357 154.589C142.695 154.764 145.031 154.975 147.36 155.249C150.027 155.566 152.69 155.94 155.348 156.339C158.242 156.777 161.133 157.226 164.008 157.758C165.576 158.054 167.095 158.616 168.661 158.94C171.138 159.446 173.648 159.796 176.12 160.314C177.987 160.704 179.802 161.341 181.67 161.714C184.198 162.218 186.767 162.525 189.301 163.008C193.871 163.88 198.431 164.807 202.99 165.744C203.682 165.888 203.931 165.675 203.988 165.018C204.017 164.313 204.113 163.612 204.273 162.925C205.89 157.183 207.569 151.458 209.175 145.712C210.442 141.181 211.602 136.619 212.874 132.091C213.434 130.09 214.247 128.158 214.783 126.153C215.563 123.232 216.165 120.265 216.902 117.33C217.722 114.057 218.631 110.808 219.452 107.538C219.824 106.06 219.848 105.97 221.287 106.438C222.961 106.982 224.606 107.62 226.273 108.188C229.57 109.302 232.885 110.378 236.181 111.499C236.918 111.752 238.065 112.021 238.204 112.506C238.392 113.215 237.763 114.107 237.596 114.944C237.507 115.393 237.655 115.89 237.695 116.363C238.068 116.01 238.417 115.633 238.741 115.235C238.887 115.034 238.807 114.681 238.917 114.438C239.113 114.015 239.376 113.622 239.612 113.215C239.74 113.704 239.799 114.209 239.786 114.715C239.812 115.36 239.854 116.006 239.906 116.649C239.941 117.072 240.007 117.496 240.059 117.916C240.137 117.829 240.262 117.758 240.295 117.661C240.664 116.055 241.05 114.454 241.347 112.835C241.399 112.548 241.112 112.139 240.876 111.889C240.683 111.713 240.459 111.576 240.215 111.484C241.392 106.677 242.637 102.063 243.61 97.3951C243.871 96.1441 244.907 94.8128 243.824 93.3632C244.926 93.8195 245.943 93.9094 246.828 93.1456C248.611 91.6227 250.056 89.8657 250.57 87.4891C250.718 86.7962 250.906 86.1128 251.055 85.4223C251.217 84.6679 251.582 84.3865 252.397 84.5875C253.953 84.973 255.535 85.2567 257.106 85.5878C259.931 86.1766 260.037 86.2358 261.313 83.6747C262.985 80.312 264.537 76.8784 265.968 73.4046C266.757 71.4915 267.174 69.427 267.788 67.4406C269.038 63.3945 270.39 59.3768 271.555 55.3047C272.335 52.5568 272.789 49.7167 273.51 46.9476C273.87 45.5618 274.501 44.247 275.012 42.9015V41.7191C274.127 40.5864 272.784 40.6857 271.591 40.4067ZM116.899 65.9579L116.059 63.5293C117.304 63.9242 117.448 64.26 116.897 65.9579H116.899ZM120.024 53.8125L120.238 54.1176C122.345 53.9307 123.447 55.1793 124.269 56.7992C124.582 57.4188 123.73 59.6204 123.045 59.9112C122.032 60.3393 121.314 59.7646 120.925 58.9511C120.327 57.6505 119.827 56.3067 119.428 54.931C119.346 54.6473 119.809 54.1932 120.021 53.8125H120.024ZM79.1116 90.7312C79.1116 89.615 78.7561 88.5107 79.4577 87.3874C79.8133 86.8151 79.8486 86.0466 80.0605 85.3797C80.1617 85.0628 80.2724 84.6254 80.5055 84.5166C80.7386 84.4078 81.153 84.6372 81.3861 84.8382C82.9236 86.1743 82.893 87.4063 81.372 88.8985C80.7198 89.5393 80.1382 90.2535 79.526 90.9345L79.1116 90.7312ZM91.826 91.6156C91.9296 90.4758 92.034 89.336 92.1391 88.1961C93.2363 89.1208 93.1375 90.5609 92.238 91.6582L91.826 91.6156ZM67.4685 155.731C69.006 155.133 74.0871 155.807 75.0736 156.871L67.4685 155.731ZM237.789 85.3277C236.808 85.5476 235.79 85.9236 235.042 85.3868C236.32 84.2446 237.596 83.1663 238.795 82.0052C239.673 81.1539 239.579 79.9904 239.482 78.8908C239.261 76.3983 239.011 73.913 238.755 71.4182C242.494 71.3236 244.243 72.1631 244.344 75.9561C244.441 79.6215 240.674 84.6821 237.789 85.3277ZM272.024 47.9006C271.044 51.6251 270.251 55.4016 269.199 59.1025C268.257 62.451 267.03 65.7238 265.959 69.0345C265.622 70.0773 265.488 71.1888 265.085 72.2056C263.882 75.3058 262.601 78.3777 261.344 81.4589C261.005 82.2866 260.623 83.0977 260.294 83.9301C260.018 84.623 259.543 84.7247 258.881 84.5875C256.924 84.1902 254.963 83.8213 252.995 83.4572C252.079 83.2869 251.566 82.9393 251.601 81.8255C251.679 79.5104 250.289 78.0135 248.524 76.746C247.398 75.9372 246.355 75.0079 245.291 74.114C245.17 73.9608 245.089 73.7795 245.055 73.5866C244.26 71.0516 241.995 70.3824 239.715 70.4935C238.63 70.5456 238.371 70.2429 238.239 69.2922C237.94 67.1403 237.851 67.0528 235.96 68.1311C233.791 69.3679 231.722 70.7868 229.617 72.1276C228.44 72.8772 227.262 73.6363 226.085 74.3623C225.972 74.4366 225.846 74.4875 225.713 74.5123C225.581 74.5371 225.445 74.5351 225.313 74.5065C223.027 73.5969 220.751 72.6612 218.485 71.6996C218.028 71.508 217.63 71.1817 217.185 70.957C216.686 70.7064 216.184 70.4841 215.772 71.1722C215.702 71.2952 215.287 71.2621 215.04 71.2313C211.44 70.7584 207.847 70.2263 204.238 69.8385C202.976 69.7013 201.673 69.926 200.39 69.9757C200.181 69.9691 199.973 69.9486 199.766 69.9142C200.294 68.6372 200.753 67.4099 201.301 66.2251C203.913 60.5828 205.82 54.6946 207.423 48.6999C208.892 43.2089 210.326 37.7061 211.828 32.2222C212.417 30.0797 213.152 27.9657 213.872 25.6908L215.386 26.2583C217.55 27.067 219.7 27.9136 221.885 28.6703C226.986 30.4045 232.098 32.1103 237.222 33.7877C238.22 34.1117 239.289 34.2204 240.33 34.4049C243.447 34.9653 246.602 35.3674 249.675 36.1123C252.519 36.8028 255.265 37.9024 258.081 38.7348C259.46 39.1415 260.906 39.3307 262.319 39.6428C264.793 40.1938 267.275 40.7141 269.731 41.3455C270.997 41.6694 272.21 42.2063 273.653 42.7218C273.124 44.4007 272.49 46.1294 272.024 47.9006Z" fill="#104597"/>
<path d="M146.152 57.161C146.469 56.3995 146.858 55.6617 147.108 54.8837C147.23 54.5172 147.133 54.075 147.138 53.6682C146.744 53.8325 146.367 54.0377 146.015 54.2807C145.794 54.4651 145.711 54.8199 145.565 55.0965C145.174 55.8462 144.859 56.662 144.372 57.336C143.091 59.0717 141.631 60.6774 140.418 62.4557C138.681 65.0025 136.145 66.5585 133.68 68.1902C132.952 68.6632 131.909 68.7294 130.991 68.8595C130.221 68.9682 129.931 68.5331 130.134 67.7575C130.301 67.1119 130.525 66.4521 130.522 65.7994C130.522 65.3691 130.157 64.941 129.955 64.513C129.618 64.7826 129.157 64.986 128.975 65.3407C128.756 65.7687 128.761 66.3197 128.683 66.821C128.585 67.4595 128.62 68.15 128.387 68.7341C127.025 72.1168 125.142 75.2634 122.807 78.0584C121.488 79.6451 120.13 81.4282 117.862 81.842C117.205 81.9602 116.515 81.9106 115.842 81.9366C115.979 81.3028 116.16 80.6762 116.245 80.0448C116.381 78.983 116.565 77.9165 116.515 76.8453C116.485 76.2115 115.91 75.8355 115.197 76.1358C114.239 76.5449 113.549 78.0158 113.817 79.4654C114.288 78.7678 114.629 78.2405 114.994 77.7391C115.162 77.5565 115.348 77.3924 115.55 77.2496C115.658 77.4317 115.891 77.6516 115.851 77.7959C115.557 78.8624 115.211 79.9242 114.844 81.0924L113.73 79.8438L113.29 80.0803C113.525 80.8228 113.925 81.563 113.932 82.3055C113.94 83.048 113.549 83.8284 113.254 84.8665C114.507 83.7693 115.609 83.1805 117.055 83.0504C120.702 82.7193 122.689 79.9573 124.603 77.3088C126.086 75.2538 127.28 72.9836 128.589 70.8033C128.982 70.1482 129.409 69.8716 130.28 69.9803C131.208 70.0939 132.354 70.0607 133.105 69.6043C135.137 68.3818 137.181 67.0811 138.911 65.4731C140.953 63.5813 142.679 61.33 144.562 59.197C144.689 59.348 144.808 59.5058 144.918 59.67C146.331 62.004 148.014 62.6709 150.463 61.5831C151.795 60.9919 152.963 60.0271 154.199 59.2183C154.454 59.031 154.698 58.8305 154.932 58.6177C154.997 58.8541 155.073 58.9818 155.049 59.0741C154.107 62.6614 154.527 66.2487 155.092 69.8266C155.772 74.1518 157.093 78.2168 159.787 81.7616C162.047 84.7388 164.646 87.2006 168.39 88.111C168.92 88.2387 169.506 88.2079 169.998 88.416C170.269 88.5295 170.601 89.0167 170.558 89.2815C169.852 93.8597 170.523 98.2984 171.762 102.694C171.859 102.974 171.872 103.277 171.799 103.565C171.59 104.132 171.258 104.652 171.011 105.206C169.864 107.776 168.783 110.38 167.575 112.92C165.824 116.604 164.044 120.274 162.143 123.885C161.512 125.086 160.509 126.089 159.676 127.182L159.4 126.988L159.949 125.628C158.583 125.666 157.974 126.498 158.565 127.607C158.937 128.317 158.8 128.764 158.414 129.317C155.843 133.101 153.104 136.719 149.434 139.509C147.917 140.661 146.418 141.874 144.769 142.806C142.561 144.054 140.06 144.839 137.96 146.22C134.914 148.216 132.074 150.553 130.937 154.284C130.821 154.66 131.085 155.152 131.172 155.592C131.495 155.322 131.926 155.119 132.114 154.776C132.585 153.925 132.839 152.934 133.381 152.139C135.759 148.647 139.203 146.53 142.949 144.809C144.678 144.014 146.481 143.269 148 142.158C150.679 140.193 153.21 138.01 155.282 135.366C156.488 133.827 157.66 132.261 158.833 130.693C159.539 129.747 160.283 129.038 161.642 129.591C162.082 129.775 162.564 129.829 163.033 129.749C163.503 129.67 163.94 129.458 164.295 129.14C163.307 128.986 162.398 128.884 161.508 128.695C160.655 128.513 160.67 128.019 161.147 127.406C161.67 126.735 162.183 126.051 162.676 125.354C163.066 124.803 163.417 124.223 163.808 123.62C163.949 123.793 164.027 123.843 164.044 123.906C164.813 128.295 167.356 130.674 171.237 130.795C172.592 130.795 173.926 130.462 175.124 129.825C177.302 128.734 179.091 126.992 180.243 124.838C180.418 124.572 180.616 124.321 180.834 124.088C181.321 124.611 181.693 125.063 182.117 125.455C183.812 127.035 185.912 127.621 187.977 126.775C191.186 125.465 193.541 123.204 194.118 119.496C194.268 118.87 194.651 118.326 195.189 117.976C198.28 116.029 201.464 114.128 203.776 111.281C205.125 109.572 206.103 107.597 206.646 105.485C207.157 103.522 206.625 101.453 205.676 99.4949C204.412 96.8937 202.719 94.9097 199.936 93.9827C199.734 93.9054 199.536 93.8178 199.342 93.7202C202.909 88.9907 203.475 84.0412 200.91 79.2124C198.297 74.2866 193.708 72.3286 188.104 72.889C189.282 69.9307 189.924 67.0693 189.517 63.962C189.008 59.9821 187.633 56.5319 184.41 54.0111C182.614 52.6064 180.478 51.8828 178.288 52.1619C176.471 52.3842 174.726 53.2236 172.951 53.7935C172.715 53.8669 172.501 53.9709 172.202 54.0915C172.437 52.8453 172.673 51.7409 172.852 50.6271C173.6 45.9378 169.902 43.0812 166.05 42.5633C163.978 42.2866 161.736 42.6035 159.674 43.093C156.681 43.8024 154.152 45.4578 152.532 48.1985C152.318 48.5603 152.45 49.2769 152.669 49.6954C152.831 49.9981 153.404 50.0832 153.622 50.1849C153.444 49.4518 153.036 48.7495 153.225 48.2931C153.46 47.7067 154.136 47.2432 154.71 46.8624C159.066 43.9751 163.577 42.2984 168.8 44.6869C170.73 45.5713 171.602 46.9641 171.832 48.9221C172.164 51.774 170.94 54.1246 169.377 56.3546C169.169 56.6525 169.247 57.1515 169.193 57.5559C169.581 57.4164 170.076 57.3833 170.337 57.1184C171.622 55.7923 173.177 54.7606 174.895 54.0939C179.927 52.1429 184.813 53.8929 187.139 58.9109C187.436 59.547 187.916 60.1358 188.05 60.8027C188.309 62.1807 188.487 63.5728 188.582 64.9718C188.882 68.5977 187.73 71.6909 185.126 74.2511C184.855 74.5183 184.806 75.0102 184.655 75.4004C185.067 75.4006 185.478 75.3658 185.884 75.2963C186.174 75.223 186.404 74.9416 186.692 74.8234C187.577 74.4805 188.457 74.0099 189.378 73.8893C191.86 73.5677 194.052 74.516 196.19 75.6747C197.847 76.5982 199.192 77.9982 200.051 79.6948C201.337 82.1376 202.01 84.7861 201.195 87.638C200.36 90.568 198.949 92.9446 196.001 94.1648C195.679 94.2972 195.53 94.8293 195.295 95.1745C195.676 95.2407 196.07 95.411 196.435 95.3543C197.197 95.2478 197.944 94.9002 198.702 94.8813C200.586 94.8411 201.822 96.1039 203.117 97.2721C206.083 99.9537 206.592 105.549 204.475 108.297C203.435 109.654 202.413 111.073 201.151 112.198C199.689 113.501 197.958 114.497 196.366 115.656C194.895 116.727 193.503 117.261 192.284 115.133C192.256 115.406 192.305 115.681 192.425 115.928C193.131 117.06 193.032 117.306 191.737 117.673C191.08 117.86 190.459 118.181 189.795 118.321C189.526 118.378 189.025 118.2 188.912 117.98C188.577 117.259 188.284 116.519 188.034 115.765L187.69 115.713C187.636 116.512 187.44 117.332 187.565 118.103C187.706 118.99 188.552 119.134 189.324 119.17C189.874 119.187 190.424 119.173 190.972 119.127C191.648 119.078 192.324 118.995 193.129 118.912C193.099 119.319 193.037 119.723 192.943 120.12C192.174 122.384 190.589 124.277 188.5 125.425C186.746 126.411 184.919 126.037 183.275 124.914C181.924 123.992 181.036 122.835 181.495 121.057C181.657 120.538 181.781 120.007 181.865 119.47C181.895 119.175 181.716 118.855 181.629 118.548C181.404 118.646 181.166 118.714 180.923 118.751C180.294 118.788 179.662 118.756 179.039 118.654C178.536 118.543 178.081 118.21 177.606 117.973L177.424 118.224C178.079 119.021 178.74 119.813 179.383 120.619C179.986 121.378 180.346 122.159 180.054 123.221C179.489 125.259 177.98 126.467 176.475 127.73C175.063 128.913 173.664 129.702 171.649 129.707C168.218 129.707 166.014 127.364 165.19 124.339C164.705 122.561 165.171 121.005 165.842 119.432C166.243 118.498 166.683 117.578 167.071 116.637C167.99 114.417 168.821 112.158 169.814 109.973C170.657 108.126 170.85 105.911 172.71 104.617C176.913 108.344 180.245 108.753 182.345 105.785C177.062 107.282 176.047 106.951 173.466 102.936L174.243 102.226C173.96 102.094 173.69 101.936 173.436 101.753C173.153 101.517 172.781 101.231 172.708 100.907C172.261 98.9132 171.63 96.915 171.552 94.8979C171.448 92.2233 170.794 89.2224 173.843 87.4347C174.154 87.2502 174.241 86.685 174.432 86.2948C173.94 86.2074 173.436 86.0134 172.96 86.0584C172.628 86.0962 172.355 86.5195 172.018 86.6898C171.521 86.9404 170.959 87.3566 170.478 87.2904C168.249 86.9854 166.127 86.3232 164.357 84.8382C162.116 82.9869 160.273 80.6971 158.941 78.108C156.998 74.3186 155.924 70.1404 155.798 65.8799C155.69 62.5479 155.633 59.1852 157.168 56.0543C157.3 55.7823 157.044 55.3165 156.968 54.9405C156.641 55.1249 156.229 55.2384 156.001 55.508C155.377 56.2529 154.922 57.1633 154.232 57.8302C152.699 59.3082 151.025 60.6135 148.77 60.7625C146.648 60.9139 145.349 59.0835 146.152 57.161Z" fill="#104597"/>
<path d="M240.043 118.023L240.064 117.959C240.064 117.959 240.064 117.94 240.064 117.931C240.05 117.961 240.047 118.002 240.043 118.023Z" fill="#104597"/>
<path d="M239.047 122.542C238.783 123.098 238.536 123.415 238.481 123.762C238.215 125.507 238.029 127.264 237.761 129.01C237.236 132.424 236.673 135.837 236.129 139.249C235.858 140.952 235.635 142.664 235.308 144.357C235.119 145.345 234.66 146.287 234.516 147.28C234.182 149.566 234.046 151.882 233.688 154.166C232.962 158.895 232.187 163.625 231.361 168.354C230.655 172.375 229.812 176.376 229.056 180.391C228.807 181.704 228.682 183.04 228.416 184.347C228.126 185.766 226.888 186.625 225.922 186.05C224.957 185.475 224.618 186.017 224.147 186.677L224.936 187.202C224.401 187.403 224.015 187.637 223.608 187.689C219.888 188.162 216.168 188.651 212.441 189.051C209.921 189.323 207.39 189.505 204.859 189.64C202.048 189.791 199.208 190.056 196.42 189.895C191.351 189.604 186.296 188.928 181.234 188.611C177.142 188.356 173.033 188.375 168.929 188.318C167.255 188.297 165.574 188.49 163.902 188.417C162.019 188.334 160.135 188.017 158.251 187.88C156.73 187.769 156.198 188.488 156.641 190.009C156.9 190.907 157.418 191.751 157.555 192.66C157.99 195.53 158.449 198.408 158.623 201.303C158.859 205.257 158.911 209.225 158.92 213.188C158.932 216.671 158.779 220.155 158.696 223.636H159.855C159.855 221.592 159.855 219.677 159.855 217.764C159.855 217.099 159.749 216.432 159.751 215.768C159.751 211.958 159.881 208.146 159.782 204.339C159.702 201.208 159.379 198.082 159.137 194.953C159.106 194.544 158.819 194.152 158.805 193.747C158.769 192.624 158.805 191.498 158.861 190.378C158.861 190.25 159.292 190.061 159.532 190.044C161.866 189.89 164.208 189.808 166.539 189.609C167.465 189.526 168.145 189.682 168.623 190.505C168.656 190.562 168.811 190.548 168.941 190.574C168.884 190.198 168.837 189.864 168.783 189.5C169.725 189.436 170.573 189.323 171.425 189.332C174.234 189.361 177.045 189.365 179.849 189.512C182.503 189.649 185.147 189.933 187.791 190.188C190.828 190.482 193.87 191.134 196.896 191.061C203.694 190.884 210.486 190.411 217.27 189.923C220.413 189.687 223.483 189.112 226.452 187.814C228.411 186.953 229.452 185.802 229.694 183.692C229.913 181.801 230.377 179.909 230.697 178.017C231.404 173.874 232.065 169.726 232.772 165.583C233.412 161.832 234.116 158.091 234.74 154.339C235.315 150.893 235.79 147.433 236.365 143.988C236.977 140.313 237.702 136.657 238.284 132.98C238.788 129.804 239.19 126.612 239.581 123.422C239.798 121.627 239.908 119.82 240.052 118.023C239.572 119.595 238.387 121.019 239.047 122.542Z" fill="#104597"/>
<path d="M92.796 194.395C92.3745 194.587 91.8095 194.665 91.5552 194.989C90.465 196.365 90.4109 198.063 90.4297 199.718C90.4596 200.076 90.5651 200.423 90.7393 200.736C90.9135 201.049 91.1523 201.321 91.4398 201.534C92.7668 202.348 94.1726 203.024 95.6355 203.552C98.0984 204.441 100.425 204.389 102.935 203.124C106.078 201.542 107.592 197.24 107.114 194.346C106.907 193.08 106.193 191.896 105.647 190.702C105.562 190.519 105.138 190.496 104.872 190.396C104.83 190.676 104.83 190.961 104.872 191.241C105.164 192.217 105.579 193.158 105.802 194.149C105.972 194.934 105.906 195.772 105.946 196.585L105.463 196.701C105.249 191.458 102.167 188.14 98.0772 185.466C100.764 185.806 102.045 187.935 103.9 189.533L104.825 189.143C103.697 187.961 102.796 186.726 101.618 185.88C100.441 185.033 98.9389 184.565 97.6157 183.886C97.1491 183.685 96.7397 183.371 96.4243 182.971C96.2383 182.683 96.3254 182.155 96.4243 181.763C96.4902 181.481 96.8952 181.261 96.9211 180.987C97.1566 179.095 98.2655 177.676 99.537 176.409C100.276 175.671 101.293 175.744 102.174 176.203C102.786 176.525 103.311 177.028 103.848 177.485C104.524 178.057 105.169 178.667 105.826 179.254L106.327 179.017C106.16 178.26 106.231 177.296 105.786 176.783C103.754 174.439 99.8548 173.931 97.1707 175.6C96.5598 176.022 96.0721 176.6 95.758 177.274C95.3499 178.166 95.0412 179.1 94.8374 180.06C94.6567 180.7 94.6054 181.37 94.6867 182.03C95.1576 184.66 96.8599 186.383 98.9907 187.795C102.186 189.923 104.116 192.894 104.383 196.743C104.618 200.071 103.601 201.237 100.538 202.391C98.0725 203.313 95.8922 202.026 93.7095 201.092C93.46 200.986 93.3187 200.539 93.2057 200.22C93.055 199.803 93.0362 199.335 92.8666 198.931C92.4122 197.838 92.1603 196.803 92.8266 195.663C93.0032 195.351 92.8125 194.823 92.796 194.395Z" fill="#104597"/>
<path d="M171.138 68.5615C170.263 68.7729 169.422 69.1073 168.64 69.5547C168.404 69.6801 168.206 70.3635 168.338 70.5787C169.101 71.832 170.573 72.0827 171.771 71.1675C172.295 70.7588 172.743 70.26 173.094 69.6943C173.605 68.8784 174.217 68.5332 175.157 68.8193C175.419 68.9027 175.694 68.9411 175.969 68.9328C178.498 68.7862 179.939 70.3044 181.008 72.312C182.077 74.3197 181.964 76.4031 181.337 78.4935C180.711 80.584 179.798 82.419 177.478 83.1214C176.822 83.32 176.238 83.7693 175.621 84.1028C175.649 84.2328 175.675 84.3605 175.703 84.4906C176.007 84.5733 176.344 84.7814 176.607 84.7105C177.362 84.5369 178.093 84.2708 178.783 83.9183C181.041 82.6555 183.165 83.1096 185.114 84.4858C185.816 85.01 186.315 85.7621 186.527 86.6141C186.998 88.9056 186.202 91.0504 185.211 93.0723C184.269 94.9996 183.158 96.8559 182.15 98.7477C182.032 98.97 182.15 99.3105 182.15 99.5967C182.463 99.5801 182.856 99.6771 183.073 99.5186C183.567 99.145 183.909 98.5515 184.422 98.2204C185.519 97.511 186.623 96.6951 187.843 96.3404C189.38 95.8911 189.901 96.5414 189.491 98.114C188.728 101.146 186.981 103.837 184.525 105.762C184.031 106.194 183.559 106.653 183.113 107.136C183.219 107.296 183.327 107.457 183.435 107.608C184.125 107.266 184.909 107.036 185.488 106.559C187.643 104.778 189.119 102.444 190.355 99.9798C190.719 99.1517 190.895 98.2525 190.869 97.3478C190.869 95.7303 189.126 94.8837 187.301 95.6215C186.428 95.9739 185.639 96.5319 184.664 97.0806C184.692 96.8121 184.745 96.5469 184.822 96.2884C185.634 94.4368 186.654 92.6537 187.24 90.7359C188.479 86.7608 187.184 82.5302 181.964 82.2937C181.592 82.2463 181.225 82.1672 180.867 82.0572C181.385 80.7708 181.886 79.6381 182.3 78.4746C183.621 74.7785 182.154 70.5645 179.409 68.8193C178.06 67.9609 176.614 67.9136 175.122 67.8734C174.592 67.8592 173.801 67.8734 174.288 66.989C175.204 65.3336 174.888 63.5577 174.872 61.8196C174.858 60.1643 173.975 58.9275 172.666 57.9958C171.75 57.3431 171.048 57.5701 170.803 58.6083C172.23 58.7218 172.543 58.8968 173.188 60.1051C174.253 62.0915 174.168 64.1371 173.593 66.2701C173.229 67.6322 172.463 68.2825 171.138 68.5615ZM170.123 70.8837C169.951 70.9736 169.605 70.7229 169.337 70.6283C169.478 70.4202 169.572 70.1105 169.772 70.0206C170.424 69.725 171.114 69.5098 171.788 69.2639L172.023 69.6706C171.411 70.1079 170.777 70.5129 170.123 70.8837Z" fill="#104597"/>
<path d="M36.1512 188.446C35.0987 188.278 34.7385 188.488 34.4041 189.391C34.2656 189.797 34.0671 190.18 33.8155 190.527C32.8054 191.829 31.7294 193.083 30.7546 194.412C30.5498 194.693 30.6746 195.221 30.6463 195.637C31.0184 195.517 31.3793 195.364 31.7247 195.18C31.9436 195.043 32.0661 194.755 32.2356 194.537C32.6626 193.985 33.0903 193.434 33.5188 192.882L33.8014 193.073C33.5447 193.84 33.1609 194.587 33.0526 195.372C32.5817 198.796 31.348 201.993 29.9918 205.108C29.2995 206.685 29.0099 208.787 26.9309 209.511C26.7284 209.579 26.6954 210.128 26.5707 210.443C26.3069 211.064 26.1233 211.76 25.7183 212.278C25.1388 213.074 24.437 213.773 23.6393 214.349C21.7886 215.574 19.9686 217.142 17.906 217.679C14.7157 218.511 11.2734 219.06 8.25254 216.496C8.48799 216.045 8.74228 215.569 8.97302 215.077C9.4557 214.061 9.99253 213.063 10.3857 212.003C10.9532 210.452 11.4005 208.856 11.9232 207.288C12.0433 206.933 12.3235 206.633 12.4342 206.281C13.1617 203.871 13.8916 201.461 14.598 199.047C14.8334 198.233 14.9817 197.391 15.1701 196.564L14.8122 196.512C14.2895 198.002 13.7668 199.491 13.2441 200.979C11.9892 204.526 10.7978 208.123 9.44628 211.644C8.83175 213.247 7.85698 214.718 7.13179 216.279C6.9552 216.662 7.07058 217.21 7.13179 217.672C7.1883 218.076 7.42375 218.459 7.46613 218.854C7.46639 219.239 7.42374 219.623 7.33899 219.999C7.67334 219.868 7.95051 219.623 8.12069 219.306C8.53979 218.558 8.93535 218.471 9.88186 218.717C12.858 219.485 15.9024 219.663 18.8737 218.504C21.4637 217.49 23.6817 215.938 25.7466 213.678C26.0527 215.096 26.3164 216.333 26.5777 217.558C26.8014 213.484 29.0947 210.379 31.3197 207.198L29.2124 209.203C32.3062 202.53 33.9968 195.407 36.1512 188.446Z" fill="#104597"/>
<path d="M83.2296 176.142C83.6487 176.203 84.0961 176.302 84.4916 176.21C84.6824 176.165 84.9625 175.553 84.8896 175.484C84.6146 175.177 84.2661 174.945 83.8771 174.81C80.2323 173.763 76.5075 174.02 72.6555 174.025C72.8368 174.581 73.0746 174.971 73.0723 175.352C73.0456 180.464 72.9977 185.577 72.9286 190.69C72.9004 192.537 72.7332 194.381 72.6932 196.23C72.6932 196.576 72.9875 197.202 73.1829 197.219C73.6114 197.252 74.0706 196.982 74.5014 196.814C74.6098 196.772 74.6615 196.59 74.7534 196.448C75.7423 197.926 84.567 199.021 85.7042 197.902C84.4116 197.571 83.1143 197.162 81.7816 196.911C79.4836 196.481 77.1738 196.07 74.8499 195.812C74.0376 195.722 73.9387 195.389 73.9717 194.786C74.1082 192.229 74.2424 189.673 74.4426 187.121C74.4614 186.885 74.9017 186.45 75.1254 186.464C78.0144 186.651 80.974 186.31 83.7429 187.509C83.8133 187.536 83.8891 187.546 83.9641 187.538C84.0391 187.53 84.111 187.504 84.1738 187.462C84.4243 187.187 84.6601 186.899 84.8801 186.599C84.4964 186.313 84.1338 185.825 83.7217 185.776C80.6232 185.402 77.5129 185.116 74.1624 184.778C74.1624 184.511 74.1483 184.09 74.1624 183.666C74.2354 181.819 74.3978 179.97 74.3696 178.123C74.3531 176.974 74.0729 175.827 73.9269 174.798C75.2408 175.446 76.8913 175.271 78.4971 175.439C80.1028 175.607 81.6544 175.912 83.2296 176.142Z" fill="#104597"/>
<path d="M57.7821 177.57C57.0757 177.762 56.699 179.055 55.8631 177.97C55.4888 177.485 55.1568 176.958 54.8295 176.442C52.5732 172.877 50.0364 169.498 47.2433 166.34C47.024 166.069 46.7349 165.863 46.4074 165.746C46.172 165.682 45.8541 165.888 45.5739 165.983C45.6775 166.248 45.7246 166.692 45.8965 166.746C46.236 166.829 46.5863 166.859 46.9348 166.834C47.1232 167.354 47.1867 167.865 47.4575 168.22C48.4535 169.527 49.6001 170.726 50.5419 172.072C52.2913 174.574 53.9442 177.144 55.6206 179.696C55.7337 179.903 55.7874 180.138 55.776 180.375C55.776 183.153 55.8796 185.939 55.7219 188.708C55.55 191.725 55.112 194.729 54.8554 197.741C54.8248 198.089 55.2156 198.472 55.4111 198.839C55.7336 198.505 56.1904 198.224 56.3529 197.824C56.5153 197.425 56.2893 196.904 56.3364 196.448C56.5412 194.417 56.8379 192.395 56.9957 190.361C57.1369 188.564 57.1393 186.757 57.2005 184.953C57.2499 183.513 56.8685 182.006 57.9328 180.753C57.4618 180.23 56.6849 179.741 57.669 179.145C60.5133 177.423 62.5617 174.888 64.6102 172.356C65.147 171.694 65.552 170.92 66.0229 170.199L65.6344 169.858L60.3932 174.075L60.558 174.292L61.8554 173.42L61.9849 173.595L58.2294 178.088L57.7821 177.57Z" fill="#104597"/>
<path d="M156.662 260.048C157.036 257.411 157.232 254.746 157.474 252.091C157.576 251.003 157.571 249.903 157.71 248.82C157.901 247.226 158.244 245.651 158.393 244.055C158.746 240.305 159.021 236.547 159.334 232.79C159.351 232.598 159.297 232.399 159.304 232.205C159.377 230.236 159.393 228.261 159.556 226.294C159.645 225.236 159.791 224.262 158.708 223.626C158.268 236.632 156.7 249.544 155.433 262.531C155.923 261.748 156.535 260.933 156.662 260.048Z" fill="#104597"/>
<path d="M11.2545 259.414C8.77758 260.897 6.50783 260.694 4.12035 259.698C2.34269 258.956 1.10187 257.48 0.993559 255.607C0.86877 253.401 1.28081 251.166 1.42443 248.941C1.5351 247.264 1.59161 245.585 1.67401 243.906L1.4574 243.857C1.33312 244.114 1.23453 244.384 1.16308 244.661C1.01475 245.583 0.88996 246.51 0.779298 247.439C0.494402 249.804 -0.0730354 252.181 0.00701806 254.534C0.16477 259.133 2.59698 261.628 7.37664 261.704C8.51858 261.72 9.67936 260.947 10.8189 260.497C15.3255 258.714 18.9232 255.744 21.8286 251.854C21.3503 251.937 20.8988 252.134 20.5125 252.429C17.5882 254.976 14.6097 257.404 11.2545 259.414Z" fill="#104597"/>
<path d="M125.992 110.966C126.729 112.575 127.365 114.23 128.22 115.762C129.776 118.55 131.841 120.877 135.177 121.369C136.76 121.579 138.367 121.528 139.933 121.215C141.81 120.882 143.636 120.305 145.365 119.499C147.296 118.553 148.165 116.812 148.002 115.197C147.52 115.812 147.086 116.41 146.604 116.966C145.101 118.704 142.954 119.186 140.896 119.735C139.493 120.078 138.055 120.259 136.611 120.274C134.094 120.352 132.163 119.011 130.765 117.108C129.456 115.325 128.474 113.296 127.388 111.354C127.038 110.721 126.748 110.243 125.992 110.966Z" fill="#104597"/>
<path d="M139.898 102.432C138.881 103.163 137.843 103.851 136.602 104.719C138.984 105.518 140.279 103.792 142.107 102.505C141.749 104.757 141.447 106.658 141.146 108.557L141.69 108.729C141.982 108.195 142.427 107.691 142.54 107.121C142.989 104.856 143.343 102.572 143.703 100.29C143.736 100.067 143.63 99.6936 143.467 99.6085C143.346 99.5752 143.218 99.5721 143.095 99.5993C142.972 99.6264 142.858 99.6832 142.761 99.7646C142.329 100.219 141.923 100.696 141.544 101.195C141.414 100.533 141.268 100.164 141.282 99.8024C141.358 98.0761 141.494 96.3522 141.57 94.6236C141.612 93.6091 141.57 92.5899 141.57 91.573L141.311 91.547L141.942 90.795L141.645 90.445C141.41 90.7123 141.068 90.944 140.99 91.2491C140.794 92.0019 140.674 92.7728 140.633 93.55C140.534 95.8485 140.397 98.1518 140.475 100.448C140.515 101.257 140.593 101.921 139.898 102.432Z" fill="#104597"/>
<path d="M37.5097 182.647C38.6634 182.378 38.6375 181.465 38.687 180.576C38.7083 180.3 38.7702 180.029 38.8706 179.772C39.3933 178.353 39.9937 176.934 40.4482 175.498C40.8249 174.292 41.0368 173.034 41.324 171.8L40.8249 171.623C40.6287 172.044 40.4348 172.465 40.2433 172.888C39.9278 173.583 39.7724 174.661 39.2615 174.898C38.0842 175.435 38.1572 176.317 38.0466 177.277C37.9453 178.164 37.837 179.102 37.4674 179.895C36.7808 181.391 35.9778 182.831 35.0657 184.201C33.6389 186.315 32.0543 188.318 30.5922 190.408C30.3826 190.706 30.4792 191.222 30.4344 191.638C30.8206 191.472 31.3621 191.416 31.5646 191.125C33.387 188.493 35.1458 185.821 36.9352 183.167C36.9941 183.08 37.1707 183.07 37.2955 183.023C37.359 182.886 37.4132 182.668 37.5097 182.647Z" fill="#104597"/>
<path d="M40.1774 169.137C39.9537 169.487 39.7724 170.109 39.5087 170.145C38.4327 170.289 38.4068 171.048 38.2585 171.831C38.1803 172.375 37.9997 172.9 37.7263 173.377C36.1582 175.818 34.5784 178.251 32.9231 180.63C31.76 182.304 30.4533 183.877 29.2572 185.527C29.1206 185.714 29.276 186.114 29.2948 186.417C29.568 186.367 29.9682 186.417 30.093 186.251C31.5057 184.392 32.9467 182.536 34.277 180.609C35.4542 178.897 36.2218 176.771 37.7099 175.432C39.1979 174.094 39.3203 172.093 40.6036 170.719C41.1498 170.13 41.3452 169.208 41.7502 168.328C40.7331 167.844 40.5141 168.608 40.1774 169.137Z" fill="#104597"/>
<path d="M66.807 117.027C67.5981 114.842 67.2308 112.946 67.0801 111.04C66.927 109.091 66.9317 107.128 66.8823 105.17C66.8352 103.293 66.7952 101.415 66.7787 99.5376C66.7622 97.6599 66.7787 95.7539 66.7787 93.5783C65.3895 95.2999 65.5308 112.255 66.807 117.027Z" fill="#104597"/>
<path d="M37.3001 183.018C37.2928 183.025 37.2865 183.033 37.2813 183.042H37.3331L37.3001 183.018Z" fill="#104597"/>
<path d="M37.5214 183.224C37.3801 185.116 37.286 187.008 37.0505 188.9C36.6738 192.087 36.1676 195.261 35.8238 198.451C35.7084 199.527 35.9203 200.641 35.9886 201.899C36.9516 201.445 37.3119 201.012 37.0717 200.198C36.9887 199.858 36.9728 199.504 37.0246 199.158C37.4437 195.502 37.8793 191.848 38.3008 188.192C38.3549 187.72 38.3526 187.247 38.3737 186.774C38.4161 185.901 38.4632 185.028 38.4891 184.156C38.5009 183.796 38.5904 183.243 38.4138 183.122C38.1477 182.945 37.7074 183.035 37.326 183.03C37.4155 183.104 37.5261 183.167 37.5214 183.224Z" fill="#104597"/>
<path d="M242.439 16.4114C243.617 11.0647 244.773 5.71561 245.929 0.409087C244.86 -0.300342 244.493 -0.0898782 244.33 1.1398C244.095 2.96303 243.843 4.79099 243.482 6.59294C242.932 9.32897 242.253 12.0319 241.691 14.7703C241.587 15.2787 241.768 15.8463 241.818 16.3878L242.439 16.4114Z" fill="#104597"/>
<path d="M226.598 6.65207C226.975 9.37865 227.21 12.1241 227.611 14.8483C227.71 15.5412 228.166 16.1821 228.461 16.8466L228.797 16.7118C228.82 16.5647 228.829 16.4159 228.826 16.2672C228.517 13.5075 228.261 10.7407 227.865 7.99053C227.578 5.99704 227.116 4.02955 226.688 2.05971C226.641 1.85161 226.273 1.71209 226.054 1.54182C225.898 1.77801 225.769 2.03104 225.668 2.29618C225.624 2.46172 225.739 2.67454 225.784 2.86609C226.059 4.12887 226.422 5.37747 226.598 6.65207Z" fill="#104597"/>
<path d="M25.2074 226.804C24.3849 232.712 23.5623 238.618 22.7398 244.524L22.9753 244.845C23.272 244.516 23.7476 244.228 23.8276 243.852C24.0631 242.712 24.1784 241.539 24.3174 240.376C24.6376 237.732 24.9554 235.088 25.2592 232.44C25.3934 231.241 25.5135 230.039 25.5794 228.836C25.5851 228.164 25.5568 227.492 25.4946 226.823L25.2074 226.804Z" fill="#104597"/>
<path d="M18.2498 182.796L18.5018 182.853C18.8102 181.034 19.2411 179.225 19.3847 177.393C19.493 175.995 19.8415 174.936 21.054 174.113C22.9918 172.8 24.8378 171.353 26.7049 169.953C26.7355 169.932 26.6908 169.809 26.6601 169.551C26.2976 169.646 25.9138 169.655 25.6289 169.832C23.6346 171.067 21.6262 172.289 19.7002 173.616C19.0174 174.089 18.1674 174.68 18.8078 175.829C18.9538 176.092 18.8314 176.518 18.8078 176.865C18.6289 178.847 18.4382 180.819 18.2498 182.796Z" fill="#104597"/>
<path d="M52.0347 112.326C52.1759 113.676 52.6351 114.996 52.9953 116.318C53.0636 116.566 53.3414 116.758 53.5227 116.973C53.6543 116.688 53.7667 116.394 53.8594 116.093C53.8924 115.961 53.7911 115.795 53.7511 115.644C53.2802 113.906 52.6445 112.191 52.4138 110.423C51.9947 107.211 51.8251 103.967 51.5332 100.727C51.4726 100.492 51.3757 100.268 51.2459 100.063L50.881 100.174C51.0434 101.228 51.2695 102.278 51.3519 103.338C51.5991 106.343 51.7192 109.347 52.0347 112.326Z" fill="#104597"/>
<path d="M226.956 90.7147C226.586 89.7073 226.372 88.8701 225.965 88.1418C225.798 87.8415 225.216 87.6688 224.814 87.6499C224.578 87.6499 224.211 88.0094 224.107 88.2837C223.836 89.1042 224.686 90.963 225.426 91.3342C226.869 92.0578 227.575 91.9585 228.515 90.6059C229.134 89.7144 229.523 88.6597 230.012 87.6783C228.713 88.5178 228.647 90.6272 226.956 90.7147Z" fill="#104597"/>
<path d="M130.88 92.2257C131.116 92.4622 131.457 92.8453 131.627 92.7885C132.472 92.5047 133.275 92.098 134.092 91.7338L133.783 91.4288C133.576 91.1639 133.202 90.9014 133.197 90.6342C133.176 89.6387 132.514 89.2863 131.756 89.2603C131.503 89.2781 131.256 89.3508 131.034 89.4732C130.811 89.5957 130.617 89.765 130.466 89.9697C130.103 90.5112 129.696 91.2491 130.628 91.7764C130.758 91.845 130.758 92.1146 130.88 92.2257Z" fill="#104597"/>
<path d="M155.855 94.7323C156.262 94.6496 156.665 94.5313 157.067 94.4273C156.952 94.0797 156.919 93.6658 156.705 93.401C155.855 92.3558 154.31 92.9067 153.698 94.2097C153.94 94.8145 154.214 95.4058 154.52 95.9809C154.705 96.2507 154.964 96.4609 155.266 96.5863C155.398 96.6431 155.824 96.4019 155.815 96.3498C155.745 96.075 155.644 95.8092 155.513 95.5576C155.419 95.3212 155.327 95.0989 155.146 94.6519C155.378 94.706 155.616 94.733 155.855 94.7323Z" fill="#104597"/>
<path d="M25.5652 225.362L25.8736 225.381C26.1279 223.844 26.3807 222.307 26.6318 220.769C25.584 222.174 25.5487 223.761 25.5652 225.362Z" fill="#104597"/>
<path d="M30.4862 120.366C30.471 119.071 30.0446 117.814 29.2689 116.779L28.9204 116.907C29.2736 118.116 29.626 119.324 29.9776 120.532L30.4862 120.366Z" fill="#104597"/>
<path d="M121.394 101.46C121.189 101.477 121.012 101.841 120.822 102.047C121.069 102.248 121.337 102.642 121.554 102.616C122.088 102.548 122.599 102.285 123.12 102.101C123.096 101.924 123.07 101.744 123.047 101.567C122.5 101.485 121.947 101.45 121.394 101.46Z" fill="#104597"/>
<path d="M16.5027 191.189L16.0318 191.082C15.7744 192.381 15.5186 193.68 15.2643 194.977C16.717 194.005 15.8129 192.409 16.5027 191.189Z" fill="#104597"/>
<path d="M167.677 58.8825C167.545 59.0434 167.778 59.5092 167.87 59.9585L169.706 58.6319C168.856 57.861 168.197 58.2393 167.677 58.8825Z" fill="#104597"/>
<path d="M102.558 262.699C102.692 263.645 102.793 264.324 102.883 265L103.262 264.938C103.405 264.222 104.126 263.435 102.558 262.699Z" fill="#104597"/>
<path d="M150.816 102.985C150.345 102.678 150.126 102.446 149.874 102.394C149.523 102.344 149.167 102.355 148.819 102.425C148.75 102.577 148.727 102.747 148.753 102.912C149.042 103.06 149.355 103.155 149.676 103.193C149.949 103.215 150.237 103.104 150.816 102.985Z" fill="#104597"/>
<path d="M232.779 43.9373C232.098 44.9376 231.498 45.997 230.912 47.0588C228.955 50.6059 226.996 54.1341 225.082 57.7002C224.512 58.762 224.081 59.8971 223.587 61.0109L223.116 61.0369C222.953 60.221 222.822 59.3981 222.629 58.5917C221.743 54.9334 220.905 51.2609 219.921 47.6263C219.328 45.4413 218.485 43.3272 217.802 41.1658C217.76 41.0116 217.751 40.8506 217.773 40.6925C217.795 40.5344 217.849 40.3825 217.931 40.2459C218.438 39.5365 218.11 39.2669 217.439 39.1037C217.22 39.0493 216.945 39.0375 216.801 38.898C216.019 38.1294 215.53 38.6118 215.153 39.2929C214.891 39.7768 214.688 40.2905 214.548 40.8229C213.764 43.6488 213.102 46.5125 212.212 49.3029C211.115 52.7413 209.808 56.1111 208.662 59.5352C208.49 60.0508 208.478 60.8737 208.777 61.2213C209.076 61.5689 209.846 61.4578 210.413 61.524C210.686 61.537 210.959 61.5322 211.23 61.5098C211.812 61.4956 212.532 61.6115 212.525 60.7318C212.525 59.8923 211.984 59.6062 210.901 59.9798C211.021 59.0339 210.988 58.2441 211.235 57.5559C211.883 55.7493 212.693 54.0088 213.368 52.2045C214.268 49.8232 215.096 47.4135 215.958 45.0203C216.18 44.415 216.45 43.838 216.778 43.0458C217.034 43.4383 217.211 43.6038 217.265 43.8049C218.473 48.2766 219.692 52.7437 220.858 57.2272C221.362 59.1616 221.715 61.1362 222.231 63.0682C222.311 63.3685 222.888 63.5412 223.234 63.7776C223.705 62.9169 225.228 62.8696 224.974 61.4531C224.955 61.2568 224.997 61.0595 225.094 60.8879C226.989 57.232 228.861 53.5571 230.806 49.9414C231.79 48.1087 232.944 46.3706 233.956 44.5545C234.1 44.2967 233.878 43.8451 233.824 43.4714C233.471 43.6015 232.967 43.6606 232.779 43.9373Z" fill="#104597"/>
<path d="M258.238 53.9165C257.445 51.4099 256.159 49.2769 253.141 49.0002C252.558 48.9105 251.993 48.7344 251.462 48.4776C251.337 48.4265 251.224 48.3511 251.129 48.2557C251.033 48.1603 250.958 48.0468 250.906 47.9219C250.435 46.2665 249.044 46.1885 247.803 46.2476C246.722 46.2996 245.512 46.5905 245.281 48.085C245.237 48.3806 244.869 48.636 244.629 48.889C243.346 50.2559 242.013 51.5518 241.366 53.4199C240.363 56.3049 240.292 59.242 240.372 62.2523C240.443 64.8796 241.314 67.0622 243.275 68.6868C244.509 69.7131 245.952 70.6756 247.462 71.1296C249.039 71.6026 250.791 71.3496 252.39 70.6567C254.038 69.9331 255.846 69.3655 256.649 67.5683C257.84 64.9009 259.392 62.3114 258.973 59.1687L259.324 59.1285C258.975 57.3809 258.761 55.5979 258.238 53.9165ZM257.659 62.7087C257.174 64.3972 256.35 66.1518 255.201 67.4501C252.592 70.3918 247.728 70.4557 244.66 68.0389C242.776 66.5538 242.041 64.7093 241.806 62.3635C241.493 59.2893 241.968 56.3357 242.748 53.4199C242.934 52.7105 243.69 52.1737 244.179 51.5612C244.65 50.9961 245.185 50.4876 245.554 49.8704C246.329 48.5793 247.464 48.6289 248.644 48.96C250.056 49.3573 251.455 49.9059 252.882 50.3032C253.378 50.4474 253.934 50.3883 254.462 50.4238C256.048 51.8426 257.36 53.5122 257.887 55.8296C258.402 58.1042 258.323 60.4736 257.659 62.7087Z" fill="#104597"/>
<path d="M213.029 40.0756C213.109 39.8273 213.293 39.2598 213.467 38.7159C213.174 38.6039 212.872 38.5207 212.563 38.4676C212.259 38.4674 211.955 38.4975 211.656 38.5574C211.786 38.8601 211.845 39.2385 212.064 39.4513C212.359 39.6983 212.683 39.908 213.029 40.0756Z" fill="#104597"/>
</svg>
