<svg width="24" height="18" viewBox="0 0 24 18" fill="none" xmlns="http://www.w3.org/2000/svg">
<path fill-rule="evenodd" clip-rule="evenodd" d="M2.143 0H21.857C22.4373 0 22.9397 0.20031 23.3639 0.600722C23.7877 1.00163 24 1.48299 24 2.04553C24 2.71883 23.781 3.36231 23.3442 3.97576C22.9066 4.58921 22.3621 5.11356 21.7103 5.54808C19.5434 6.98374 17.9081 8.0676 16.7978 8.80399C16.1876 9.20844 15.7337 9.50961 15.4425 9.70306C15.3993 9.73205 15.3319 9.77785 15.2422 9.83924C15.1457 9.90516 15.0236 9.98918 14.8732 10.093C14.583 10.2934 14.342 10.4553 14.15 10.579C13.9577 10.7024 13.7257 10.8409 13.4534 10.9944C13.1809 11.1479 12.9243 11.2629 12.6833 11.3396C12.4422 11.4162 12.2189 11.4546 12.0137 11.4546H12.0003H11.987C11.7817 11.4546 11.5585 11.4162 11.3174 11.3396C11.0764 11.2629 10.8195 11.1477 10.5473 10.9944C10.2747 10.8409 10.0425 10.7027 9.85073 10.579C9.65875 10.4553 9.4177 10.2933 9.12755 10.093C8.97687 9.98918 8.85473 9.9052 8.75822 9.83903L8.74872 9.83255C8.66385 9.77462 8.59961 9.73078 8.55822 9.70306C8.18436 9.45209 7.73154 9.14967 7.20649 8.80046C6.59049 8.39036 5.87366 7.91512 5.04939 7.36988C3.52245 6.3601 2.60723 5.75276 2.30374 5.54808C1.75015 5.19018 1.22774 4.69814 0.736804 4.07171C0.245863 3.44503 0.000283779 2.86336 0.000283779 2.32653C0.000283779 1.66192 0.18534 1.10774 0.556062 0.664608C0.926479 0.221689 1.45524 0 2.143 0ZM0 5.80393C0.392814 6.22165 0.844015 6.59249 1.35282 6.91628C3.24935 8.14651 4.79416 9.15938 5.99312 9.95837L0 15.6791V5.80393ZM23.2613 17.4942C22.8639 17.83 22.3964 18 21.8569 18H2.14293C1.60349 18 1.13573 17.83 0.738388 17.4942L7.53927 11.0017C7.70938 11.1183 7.86672 11.2273 8.0086 11.3265C8.51771 11.6844 8.93048 11.9637 9.24756 12.1638C9.56434 12.3643 9.98622 12.5687 10.5131 12.7775C11.0401 12.9865 11.531 13.0906 11.9865 13.0906H11.9998H12.0132C12.4686 13.0906 12.9595 12.9864 13.4865 12.7775C14.0131 12.5687 14.435 12.3643 14.7521 12.1638C15.0692 11.9637 15.4822 11.6844 15.9911 11.3265C16.1404 11.2234 16.2986 11.115 16.4617 11.0035L23.2613 17.4942ZM22.6607 6.91628C20.8365 8.09485 19.2861 9.10946 18.0092 9.96066L24 15.6793V5.80393C23.6159 6.21324 23.1695 6.58383 22.6607 6.91628Z" fill="#BBBBBB"/>
</svg>
