<svg width="21" height="22" viewBox="0 0 21 22" fill="none" xmlns="http://www.w3.org/2000/svg">
<path d="M20.5292 17.4009L17.2861 13.9953C16.6401 13.3198 15.5704 13.3403 14.9019 14.0424L13.268 15.7576C13.1648 15.6979 13.0579 15.6355 12.9456 15.5693C11.9138 14.969 10.5016 14.1463 9.01561 12.5848C7.52518 11.0201 6.74087 9.535 6.16741 8.45093C6.1069 8.33608 6.04892 8.22534 5.99167 8.12019L7.08825 6.97049L7.62738 6.40372C8.29688 5.70056 8.31534 4.57766 7.67088 3.90015L4.42775 0.494138C3.78329 -0.182415 2.71307 -0.161891 2.04357 0.541269L1.12955 1.5065L1.15453 1.53253C0.848041 1.94315 0.591934 2.41674 0.401346 2.92745C0.225661 3.41358 0.11628 3.87748 0.066265 4.34232C-0.361968 8.06995 1.26035 11.4767 5.6631 16.0997C11.749 22.4894 16.6535 22.0067 16.8651 21.9831C17.3259 21.9253 17.7675 21.8097 18.2163 21.6267C18.6985 21.4289 19.1493 21.1604 19.5401 20.8393L19.5601 20.8579L20.486 19.9058C21.1541 19.2028 21.1734 18.0795 20.5292 17.4009Z" fill="#BBBBBB"/>
</svg>
