<svg width="275" height="243" viewBox="0 0 275 243" fill="none" xmlns="http://www.w3.org/2000/svg">
<path d="M109.887 154.898C108.737 152.819 107.422 150.828 106.091 148.849C105.571 148.069 105.799 147.541 106.421 147.11C109.157 145.205 111.876 143.261 114.686 141.463C118.106 139.276 119.298 137.261 118.319 133.335C116.996 128.057 115.261 122.859 113.714 117.625C113.635 117.305 113.575 116.981 113.532 116.654L113.854 116.517L116.707 119.578C116.979 119.164 117.028 118.883 116.912 118.751C115.009 116.554 113.093 114.372 111.164 112.206C111.051 112.113 110.918 112.047 110.775 112.016C109.064 111.429 108.164 110.186 107.484 108.547C107.209 107.893 106.511 107.277 105.793 106.735C104.37 105.659 103.334 104.058 102.215 102.63C102.072 102.448 102.341 101.9 102.478 101.545C102.919 100.413 103.494 99.3255 103.818 98.1614C104.722 94.9263 105.568 91.6746 106.356 88.4062C107.589 83.2887 108.783 78.1633 109.937 73.0301C110.813 69.1861 111.365 65.2599 112.452 61.4833C113.538 57.7068 115.095 54.153 116.424 50.4878C116.655 49.8545 116.774 49.183 116.947 48.5321L116.456 48.3503C116.278 48.6778 116.117 49.0145 115.974 49.359C115.443 50.825 114.908 52.2911 114.42 53.7572C113.27 57.2171 111.944 60.633 111.065 64.1633C109.943 68.6465 109.26 73.2529 108.267 77.7596C107.39 81.7913 106.351 85.7907 105.346 89.796C104.762 92.2092 104.07 94.6018 103.477 97.0149C102.884 99.4281 101.14 101.199 100.346 103.48C100.293 103.642 100.054 103.727 99.9282 103.87C99.4623 104.344 99.0409 104.861 98.6694 105.413C97.837 106.861 95.7488 107.395 94.379 106.483C90.0286 103.66 86.4216 99.825 83.8648 95.3026C80.5849 89.4383 77.4102 83.4597 74.8692 77.2494C71.3645 68.6964 68.4994 59.8853 65.3831 51.1769C65.1231 50.4497 65.091 49.6492 64.8369 48.9162C64.6809 48.5751 64.4318 48.2853 64.1184 48.0806C64.025 48.0131 63.5343 48.233 63.5343 48.3122C63.5672 48.6276 63.6449 48.9366 63.765 49.23C64.0776 50.1418 64.4047 51.0479 64.7201 51.9598C64.9946 52.7514 65.2575 53.5431 65.5963 54.5342C65.2494 54.5035 64.905 54.4496 64.5653 54.3729C61.6651 53.3379 58.3561 56.1703 58.47 59.2109C58.5956 62.6181 61.1949 66.2891 64.7405 67.6232C66.2943 68.2097 67.6787 67.9604 68.6045 67.0515C64.2703 67.6056 61.7002 65.2306 59.8777 61.7736C58.9752 60.0642 59.3637 58.2082 60.0821 56.531C60.6225 55.2702 61.9017 54.93 63.178 55.0649C64.504 55.2027 65.8066 55.6073 66.3907 56.9942C67.0683 58.6069 67.6582 60.2606 68.2716 61.8997C69.8399 66.1014 71.4463 70.2856 72.9446 74.5079C73.7915 76.9005 74.7437 79.3137 75.1146 81.8001C75.4651 84.1458 75.0795 86.6176 75.0883 89.0308C75.1117 94.5432 75.173 100.053 75.2343 105.565C75.2753 105.934 75.3526 106.299 75.4651 106.653L84.7848 105.826L77.2612 115.707C77.3459 115.807 77.2233 115.722 77.1824 115.608C76.2361 112.793 75.3774 109.946 74.3377 107.166C73.2045 104.143 73.6221 104.169 70.6957 105.506C67.3954 107.016 64.2061 108.793 61.0576 110.588C56.6241 113.107 52.2364 115.697 47.8944 118.355C44.3751 120.504 40.8382 122.648 37.5057 125.067C33.1803 128.201 28.9659 131.517 24.8565 134.925C21.5329 137.687 18.4312 140.713 15.236 143.624C13.9247 144.818 12.6075 146.02 11.3078 147.216C11.816 147.058 12.4235 147.022 12.8119 146.712C13.6881 146.02 14.4036 145.152 15.2419 144.416C17.0906 142.794 19.0036 141.214 20.8495 139.569C22.7771 137.857 24.6083 136.05 26.5125 134.335C32.6254 128.788 39.5443 124.386 46.5655 120.132C51.4488 117.17 56.3146 114.186 61.2066 111.242C62.1529 110.67 63.178 110.227 64.1652 109.723L64.4572 110.069C64.1506 110.761 63.8994 111.485 63.5285 112.142C60.675 117.229 57.8245 122.328 54.9039 127.365C54.2234 128.538 54.3198 129.509 55.231 130.218C56.8286 131.447 58.4758 132.708 60.2924 133.526C62.6581 134.587 65.2108 135.229 67.6816 136.048C68.5344 136.341 68.771 136.693 68.3563 137.663C66.7821 141.375 65.3101 145.134 63.8498 148.893C62.959 151.192 62.6815 153.461 64.6909 155.4C65.8591 156.546 66.9836 157.801 68.3125 158.751C69.6413 159.701 71.1542 160.29 72.5912 161.041C72.6525 160.935 72.7109 160.827 72.7693 160.719C71.5018 159.856 70.17 159.071 68.9725 158.109C67.5077 156.995 66.1442 155.753 64.8983 154.397C63.0057 152.221 64.3404 149.919 65.1319 147.8C66.5776 143.944 68.2424 140.176 69.8925 136.174C68.2132 135.514 66.6535 134.86 65.0676 134.279C62.2609 133.256 59.2819 132.696 56.8023 130.831C55.158 129.591 54.9331 128.84 55.9466 127.072C58.8672 121.964 61.9075 116.915 64.5887 111.684C65.4367 109.971 66.7764 108.551 68.4351 107.609C68.5634 107.993 68.6678 108.385 68.7476 108.782C69.6063 115.751 70.4328 122.727 71.3119 129.694C72.5882 139.807 74.0836 149.875 76.8144 159.722C77.1327 160.874 77.1503 162.108 77.3343 163.299C77.5182 164.489 76.5691 166.161 78.558 166.762C78.6602 166.794 78.6777 167.116 78.7332 167.301C80.8098 174.262 82.8572 181.232 84.9892 188.175C85.3806 189.456 85.1265 190.166 83.9319 190.729C82.8104 191.254 82.8133 192.195 83.231 193.558C84.0721 192.564 84.6913 191.831 85.3689 191.022C85.8537 192.538 82.7637 199.452 81.1895 200.657L80.655 199.253L80.1877 199.429C80.4447 200.115 80.7047 200.801 81.1223 201.915C81.8583 201.035 82.3753 200.534 82.7228 199.948C83.7421 198.235 84.3905 196.156 85.769 194.846C86.8818 193.787 86.5576 192.729 86.9577 191.705C88.0296 188.964 89.1073 186.081 90.8626 183.789C94.5075 179.009 98.5788 174.552 102.507 169.99C103.585 168.738 104.782 167.591 105.901 166.378C107.639 164.489 109.382 162.607 111.053 160.663C111.392 160.267 111.669 159.525 111.535 159.074C111.137 157.626 110.585 156.226 109.887 154.898ZM84.7702 105.093C82.606 105.017 80.4243 105.325 78.2513 105.468C76.4464 105.589 76.0317 105.295 76.0258 103.504C76.0112 98.094 76.0725 92.6871 76.0784 87.2773C76.0784 86.1045 75.9586 84.9316 75.9265 83.7588C75.9324 83.2992 75.9617 82.8402 76.0141 82.3836L76.4172 82.2604C76.8348 83.0316 77.308 83.7793 77.6614 84.5798C79.6766 89.1803 81.6947 93.7603 84.6387 97.8916C87.2517 101.534 90.4449 104.719 94.0899 107.318C94.6477 107.72 95.5502 107.72 96.2862 107.773C96.7827 107.808 97.2938 107.609 97.8516 107.503C96.7856 110.271 95.8072 112.892 94.7645 115.502C94.233 116.848 92.9245 116.995 91.9812 115.64C90.8094 113.913 89.75 112.112 88.8094 110.248C88.1931 109.075 87.8105 107.755 87.314 106.483C88.7743 105.779 90.1645 107.494 91.7446 105.964C89.1949 105.63 86.9869 105.172 84.7614 105.093H84.7702ZM81.8145 110.808C83.1317 109.342 84.4839 107.934 86.0435 106.26C86.9811 108.351 87.8222 110.116 88.5611 111.925C88.9612 112.907 89.1949 113.96 89.5016 114.983C87.7988 116.047 87.6791 118.053 86.8438 119.622C86.0698 121.088 85.4974 121.302 84.4898 119.962C83.3624 118.461 82.4453 116.801 81.4407 115.203C80.4593 113.649 80.5791 112.162 81.8057 110.808H81.8145ZM77.9768 159.282L77.5884 159.32C77.386 158.803 77.2143 158.274 77.0743 157.737C75.614 150.33 73.9288 142.959 72.7518 135.505C71.5135 127.665 70.7541 119.751 69.7874 111.866C69.7582 111.626 69.8429 111.3 69.7144 111.151C68.5111 109.732 69.9188 108.512 70.1145 107.233C70.1846 106.764 71.6069 106.386 72.451 106.219C72.743 106.163 73.3564 106.841 73.5053 107.286C74.3377 109.779 75.0182 112.321 75.871 114.804C76.1835 115.719 76.8231 116.52 77.3167 117.376L78.9114 115.267C79.2035 114.886 79.478 114.502 79.9219 113.907C80.2578 114.555 80.4856 115.059 80.7689 115.528C81.6918 117.065 82.6731 118.566 83.5523 120.126C83.8648 120.683 84.2006 121.404 84.1101 121.988C82.9973 129.207 81.8116 136.414 80.6375 143.627C79.8586 148.377 79.0798 153.127 78.301 157.877C78.2396 158.349 78.0965 158.816 77.9768 159.282ZM91.4116 173.036C91.3036 165.469 91.2569 157.901 91.1196 150.336C90.9599 142.091 90.7487 133.846 90.4858 125.603C90.3904 123.693 90.1265 121.796 89.6972 119.933C88.4209 121.079 90.1295 123.158 87.9273 124.249C88.4939 126.187 89.2679 128.318 89.7089 130.518C90.0214 132.074 89.9134 133.722 89.9426 135.332C90.0983 143.826 90.2453 152.319 90.3836 160.812C90.4771 166.09 90.5442 171.345 90.699 176.608C90.8042 180.34 89.4665 183.607 87.6762 186.747C87.276 187.448 86.8 188.096 86.1107 189.116C85.6171 187.322 85.2637 185.891 84.8286 184.486C83.3683 179.742 81.8379 175.013 80.4038 170.257C79.6985 168.023 79.1222 165.751 78.6777 163.451C78.4558 162.196 78.6077 160.812 78.8267 159.543C80.0329 152.485 81.3676 145.448 82.5476 138.384C83.3566 133.526 83.9816 128.641 84.6972 123.768C84.7731 123.249 84.8957 122.739 84.9892 122.225L85.3397 122.563C85.9238 122.202 86.8292 121.976 87.0628 121.46C87.9945 119.364 88.7305 117.176 89.5337 115.009L91.0436 116.065C91.7417 116.549 92.3842 117.173 93.1523 117.484C94.3001 117.95 95.115 117.387 95.5414 116.25C96.6863 113.206 97.7552 110.127 99.0199 107.134C99.5339 105.92 100.48 104.894 101.426 103.498C102.84 105.187 104.078 106.591 105.223 108.075C105.474 108.403 105.486 109.019 105.416 109.474C104.148 117.619 102.863 125.762 101.561 133.901C100.787 138.631 100.121 143.381 99.2681 148.072C97.8837 155.696 96.3475 163.287 93.8679 170.65C93.2838 172.383 92.6149 174.089 91.987 175.807L91.6044 175.784C91.5343 174.863 91.4116 173.951 91.4116 173.036ZM108.538 162.61C104.449 167.231 100.302 171.799 96.2278 176.432C94.858 177.989 93.6313 179.657 92.3375 181.29L91.7242 181.106C91.803 180.17 91.7242 179.176 91.9929 178.305C92.9391 175.373 94.1862 172.561 95.0098 169.615C96.4001 164.648 97.5625 159.616 98.8067 154.608C99.236 152.849 99.6595 151.089 99.9603 149.33C101.033 142.985 102.076 136.632 103.088 130.271C104.146 123.624 105.156 116.968 106.19 110.333C106.219 110.151 106.286 109.975 106.412 109.515C109.484 112.593 112.393 115.379 113.494 119.589C114.569 123.694 115.913 127.714 117.134 131.775C117.274 132.242 117.335 132.734 117.507 133.186C118.909 136.907 116.485 138.986 114.044 140.853C111.286 142.961 108.337 144.829 105.413 146.718C104.452 147.336 104.087 147.753 104.858 148.84C106.318 150.893 107.691 153.036 108.997 155.203C111.187 158.857 111.272 159.525 108.526 162.61H108.538Z" fill="#104597"/>
<path d="M171.39 162.46C171.705 159.646 171.729 156.806 171.46 153.986C171.291 152.476 171.609 151.347 172.135 150.075C172.622 148.902 172.891 147.618 173.256 146.383L172.748 146.234C172.249 147.577 171.822 148.958 171.232 150.262C170.412 152.072 169.973 152.163 168.484 150.799C166.466 148.955 165.336 146.559 164.538 144.023L170.695 136.772C172.29 142.05 173.937 147.034 176.781 151.995C177.366 151.116 177.804 150.529 178.163 149.878C179.249 147.926 180.207 145.899 181.376 143.999C183.984 139.78 186.449 135.47 189.711 131.684C190.803 130.418 191.247 128.459 192.509 127.503C194.469 126.037 192.319 124.278 193.277 122.909C193.35 122.8 193.3 122.615 193.341 122.478C194.001 120.082 194.486 117.619 195.386 115.311C197.722 109.221 200.243 103.202 202.687 97.1527C205.273 90.7907 208.869 84.8919 213.336 79.686C213.943 78.9706 215.173 78.5132 216.148 78.4428C217.971 78.3196 218.646 79.6772 217.676 81.2019C216.884 82.4452 216.04 83.6561 215.217 84.8818L215.465 85.0694C216.534 83.7519 217.605 82.4334 218.678 81.114L219.18 81.2078C219.18 82.4364 219.385 83.706 219.145 84.8876C218.269 89.1773 215.851 92.5669 212.428 95.1677C211.499 95.8743 210.071 96.1382 208.87 96.15C208.479 96.15 208.079 94.6839 207.673 93.9157C207.655 93.8805 207.556 93.8834 207.457 93.8599C207.429 94.402 207.429 94.9452 207.457 95.4873C207.588 96.7481 208.435 97.4254 209.557 97.1351C210.95 96.7847 212.279 96.2136 213.494 95.4433C215.83 93.9186 217.29 91.5377 218.59 89.1451C220.083 86.4123 220.673 83.4978 219.56 80.4103C219.392 79.9231 219.413 79.3903 219.618 78.9178C220.132 77.9473 220.821 77.0706 221.417 76.1411C221.639 75.7392 221.84 75.3262 222.019 74.9037C219.224 74.8715 219.75 77.2494 218.906 78.4751C215.059 76.6278 212.822 77.4048 210.894 81.1931C210.677 81.5735 210.424 81.9327 210.141 82.2663C206.662 86.7554 204.075 91.7606 201.84 96.9534C200.246 100.663 198.835 104.451 197.31 108.189C195.266 113.235 193.052 118.22 192.328 123.715C192.211 124.595 191.919 126.084 190.447 126.061C189.479 126.013 188.524 125.816 187.617 125.474C184.375 124.348 181.168 123.105 177.92 121.991C176.086 121.363 174.182 120.944 172.333 120.358C167.491 118.827 162.78 116.772 157.619 116.508C156.343 116.443 156.08 115.842 156.068 114.769C156.048 112.379 155.943 109.99 155.934 107.6C155.908 101.442 155.724 95.2996 155.972 89.1627C156.212 83.1958 156.769 77.2348 157.432 71.3001C157.958 66.6615 158.805 62.0522 159.652 57.4546C160.131 54.8567 160.257 54.8831 162.64 55.4578C162.783 55.4901 162.932 55.4842 163.072 55.5223L175.695 58.9676C176.679 59.2344 177.655 59.554 178.654 59.7387C182.509 60.4864 186.414 61.0289 190.225 61.9642C195.123 63.1693 199.968 64.6031 204.799 66.0692C207.41 66.8667 209.939 67.937 212.504 68.8811L212.796 68.4384C212.238 68.0865 211.721 67.632 211.119 67.4004C209.314 66.7055 207.454 66.1601 205.658 65.4476C198.8 62.7207 191.639 61.2136 184.425 59.8062C181.335 59.1992 178.251 58.5453 175.201 57.7537C169.903 56.3844 164.643 54.8655 159.351 53.4757C157.485 52.986 155.554 52.6987 153.679 52.3028C153.427 52.2298 153.182 52.1315 152.949 52.0096V51.5522C154.497 51.3909 156.051 51.259 157.59 51.0567C158.63 50.9274 159.657 50.7036 160.657 50.3881C161.144 50.2269 161.518 49.7167 161.942 49.3619C161.48 48.9866 161.066 48.4647 160.543 48.2565C158.376 47.3915 156.162 46.6203 153.977 45.8169C157.727 45.3243 161.507 45.3595 165.163 43.4888C161.033 39.4249 156.027 37.3577 151.541 34.4227C156.918 35.3199 162.146 37.261 167.654 35.5369C162.091 31.4055 155.917 28.3385 150.186 24.5736C150.259 24.4241 150.332 24.2804 150.402 24.1192H151.769C150.513 23.175 149.167 23.5914 147.841 23.6764L147.654 24.1221L165.125 34.5106C163.157 35.7744 161.349 35.6512 159.535 35.2026C157.199 34.6162 154.909 33.892 152.552 33.4756C151.226 33.2439 149.754 33.0768 148.171 33.9066C153.533 36.9091 158.945 39.2314 163.674 43.1839C161.872 43.5651 160.356 43.7703 158.907 44.2101C156.03 45.0692 153.168 44.7966 150.268 44.4476C149.392 44.3421 148.463 44.606 147.555 44.6998C147.555 44.8464 147.555 44.993 147.555 45.1426L160.736 49.0482C160.706 49.2036 160.677 49.356 160.651 49.5085C158.198 49.9513 155.744 50.3881 153.288 50.8192C153.003 50.8786 152.705 50.8371 152.447 50.7019C151.331 49.9307 150.508 50.6638 149.234 51.1945C149.985 51.6548 150.402 52.0741 150.919 52.2061C153.293 52.8883 155.679 53.5275 158.078 54.1237C158.954 54.3377 159.29 54.6427 159.074 55.6308C158.49 58.2463 157.888 60.8676 157.575 63.5212C156.851 69.6786 156.162 75.8361 155.712 82.0112C155.297 87.6995 155.128 93.4113 155.02 99.1173C154.938 103.222 155.09 107.31 155.183 111.406C155.23 113.382 155.382 115.358 155.475 116.915C158.98 117.669 162.193 118.32 165.406 119.091C165.676 119.2 165.917 119.371 166.109 119.591C166.301 119.811 166.438 120.074 166.51 120.358C166.825 122.724 166.98 125.111 167.205 127.489C167.532 130.969 167.876 134.449 168.192 137.933C168.214 138.214 168.139 138.493 167.979 138.725C167.26 139.645 166.518 140.554 165.747 141.425C164.234 143.12 162.687 144.785 161.159 146.471C160.443 147.26 159.745 148.063 159.039 148.861C159.005 147.945 159.147 147.031 159.456 146.169C160.254 143.565 161.001 140.944 161.878 138.367C163.098 134.772 163.46 130.843 165.89 127.694C166.013 127.536 165.844 127.052 165.674 126.814C165.551 126.775 165.42 126.766 165.293 126.788C165.165 126.81 165.045 126.862 164.941 126.94C164.468 127.609 163.904 128.286 163.685 129.048C162.447 133.356 161.349 137.704 160.099 142.011C159.36 144.559 158.419 147.052 157.605 149.579C157.45 150.172 157.334 150.775 157.257 151.383L157.803 151.632L163.551 144.864C164.068 145.627 164.427 146.248 164.883 146.817C166.358 148.729 166.635 150.679 165.423 152.878C164.836 154.002 164.398 155.199 164.121 156.438C162.19 164.24 160.344 172.063 158.405 179.862C156.831 186.196 155.157 192.506 153.557 198.833C153.434 199.311 153.539 199.845 153.539 200.355C153.89 199.974 154.125 199.5 154.217 198.989C155.417 193.916 156.553 188.826 157.824 183.771C159.722 176.21 161.677 168.662 163.688 161.126C164.445 158.308 165.353 155.526 166.355 152.787C167.076 150.82 167.231 150.855 168.983 151.884C169.381 152.116 169.819 152.274 170.207 152.453C169.787 153.417 169.407 154.288 169.039 155.159L169.331 155.274L170.596 153.57C170.727 155.168 170.987 156.382 170.888 157.569C170.467 163.261 169.973 168.943 169.459 174.626C169.065 178.997 168.601 183.36 168.169 187.729C168.461 186.583 168.843 185.451 168.978 184.29C169.827 177.009 170.689 169.744 171.39 162.46ZM190.605 127.606C190.817 127.512 191.036 127.434 191.259 127.371L176.562 149.814C175.724 148.028 174.682 146.119 173.934 144.099C173.145 142.02 172.693 139.818 171.98 137.707C171.539 136.399 172.088 135.822 173.195 135.391C177.389 133.749 181.6 132.165 185.739 130.388C187.436 129.658 188.981 128.541 190.605 127.606ZM167.348 122.302C167.302 121.819 167.317 121.332 167.392 120.853C167.526 119.994 168.008 119.733 168.852 120.026C175.277 122.249 181.703 124.457 188.128 126.65C188.594 126.78 189.067 126.883 189.545 126.961C189.594 127.087 189.647 127.213 189.699 127.339C189.039 127.785 188.435 128.374 187.71 128.65C184.676 129.823 181.577 130.784 178.557 132.001C175.736 133.142 173.008 134.496 170.236 135.772C169.766 135.989 169.331 136.282 168.607 136.696C168.534 135.335 168.51 134.189 168.402 133.054C168.058 129.477 167.687 125.891 167.348 122.302Z" fill="#104597"/>
<path d="M137.817 143.088C137.984 143.727 138.124 144.26 138.367 145.181C138.673 143.785 138.895 142.774 139.102 141.838C138.001 141.68 136.766 142.44 135.574 141.226C134.316 139.947 135.186 138.956 135.866 137.833L135.256 137.496L134.432 139.173L133.872 138.983C133.197 136.816 132.286 134.69 131.9 132.473C131.339 129.248 132.207 128.14 135.279 127.307C135.691 129.037 135.983 130.808 136.553 132.485C137.145 134.189 137.877 135.841 138.743 137.423C139.535 138.889 139.955 140.748 141.883 141.454C141.976 141.135 142.038 141.032 142.02 140.95C141.989 140.812 141.927 140.683 141.839 140.572C138.632 136.867 136.718 132.212 136.389 127.316C136.243 125.389 137.102 124.51 139.31 124.401C139.602 130.145 142.409 135.168 144.009 140.563L143.261 141.1C143.261 141.22 143.285 141.34 143.294 141.46C143.927 141.507 144.622 141.753 145.18 141.566C146.571 141.111 147.856 140.66 148.723 142.369C148.723 142.39 148.884 142.337 148.971 142.319C148.586 140.818 148.612 140.891 150.183 140.284C151.822 139.651 153.466 138.927 153.688 136.813C153.893 134.898 155.043 134.086 156.991 134.397C155.823 139.352 154.506 144.281 153.562 149.283C152.619 154.285 152.067 159.361 151.343 164.407L151.898 164.483C151.962 163.979 152.035 163.472 152.093 162.964C152.607 158.622 152.97 154.256 153.682 149.946C154.207 146.775 154.988 143.653 156.019 140.61C156.942 137.889 156.988 134.587 160.108 132.884C159.252 132.693 158.355 132.42 157.622 132.646C156.349 133.03 155.169 133.725 153.732 134.391C153.361 132.837 153.089 131.368 152.654 129.952C152.219 128.535 151.755 127.019 151.022 125.726C150.338 124.512 150.472 122.794 148.948 122.052C149.295 123.518 149.912 124.858 150.379 126.251C151.201 128.691 151.962 131.151 152.663 133.631C152.8 134.121 152.727 135.007 152.412 135.232C151.016 136.229 149.491 137.053 147.838 138.05C147.152 134.388 146.497 130.893 145.843 127.398L145.239 127.515L147.245 139.944L145.134 140.627C144.666 139.481 144.143 138.343 143.735 137.168C142.59 133.844 141.477 130.521 140.396 127.198C140.16 126.454 139.865 125.504 141.299 125.562C140.315 123.841 140.642 123.316 142.508 122.999C143.881 122.734 145.235 122.38 146.562 121.938C146.854 121.844 147.041 121.41 147.277 121.135C147.193 121.006 147.105 120.88 147.02 120.753C144.745 121.378 142.476 122.02 140.195 122.618C139.707 122.744 139.076 122.912 138.679 122.706C135.414 121.091 132.254 119.229 128.93 117.766C125.241 116.141 121.406 114.848 117.633 113.417C118.048 113.857 118.401 114.441 118.909 114.66C124.166 116.939 129.459 119.126 134.722 121.404C135.834 121.885 136.851 122.595 137.87 123.164C136.813 124.225 135.931 125.105 134.637 126.389C132.592 126.77 131.007 128.717 129.903 130.954C128.854 133.077 128.185 135.402 127.461 137.672C127.026 139.041 126.877 140.604 127.943 141.68C129.181 142.917 130.752 142.363 132.181 141.75C132.446 141.636 132.68 141.431 132.952 141.34C133.445 141.179 134.359 140.877 134.412 140.971C134.818 141.824 136.007 142.355 135.472 143.63C134.573 145.788 133.67 147.952 132.937 150.169C131.071 155.807 129.336 161.487 127.476 167.128C125.89 171.94 124.155 176.704 122.566 181.513C120.229 188.588 117.703 195.617 115.738 202.798C114.065 208.855 112.796 215.017 111.941 221.244C111.333 225.747 111.722 230.389 111.716 234.969C111.716 235.494 112.025 236.016 112.3 236.863C112.592 236.312 112.738 236.177 112.715 236.077C111.684 231.128 111.941 226.09 112.61 221.202C113.507 214.874 114.827 208.614 116.561 202.463C118.562 195.23 121.12 188.154 123.468 181.021C125.084 176.118 126.769 171.242 128.387 166.342C129.832 161.944 131.188 157.528 132.66 153.148C133.556 150.471 134.564 147.829 135.58 145.199C135.969 144.219 136.535 143.307 137.817 143.088ZM148.51 138.455C149.774 137.613 151.138 136.912 152.689 136.036C152.689 137.851 149.769 140.238 148.571 139.757C148.39 139.683 148.311 138.587 148.51 138.455ZM133.197 140.117C131.923 140.599 130.617 140.991 129.289 141.29C129.023 141.346 128.349 140.704 128.299 140.314C127.881 137.088 129.389 134.388 130.583 131.643C131.526 134.253 132.438 136.739 133.311 139.241C133.401 139.502 133.328 140.07 133.197 140.117Z" fill="#104597"/>
<path d="M203.873 157.81C201.995 150.963 199.632 144.252 197.524 137.467C197.208 136.446 197.199 135.332 197.007 133.98L198.847 135.01C198.324 133.837 198.081 133.007 197.597 132.347C197.322 131.972 196.645 131.899 196.136 131.687C196.002 132.171 195.681 132.69 195.768 133.13C196.192 135.276 196.645 137.42 197.229 139.528C197.719 141.311 198.397 143.047 198.981 144.806C199.898 147.685 200.666 150.617 201.7 153.45C203.394 158.077 204.443 162.794 204.308 167.741C204.291 168.439 204.153 169.134 204.095 169.647C203.137 169.647 202.427 169.6 201.729 169.647C199.121 169.846 196.516 170.087 193.911 170.292C191.644 170.47 189.378 170.634 187.112 170.785C185.926 170.864 185.792 171.509 186.127 172.476C186.656 173.989 187.135 175.517 187.678 177.024C189.066 180.865 190.491 184.689 191.843 188.542C191.945 188.835 191.682 189.45 191.399 189.656C189.565 190.996 187.57 192.133 185.832 193.582C182.328 196.514 179.001 199.651 175.508 202.589C172.912 204.771 170.14 206.741 167.494 208.867C164.766 211.06 162.105 213.339 159.401 215.561C158.817 216.039 158.18 216.441 157.21 217.144C157.529 216.365 157.654 215.972 157.844 215.605C159.632 212.201 161.542 208.861 163.201 205.392C165.108 201.417 166.837 197.355 168.574 193.3C170.82 188.066 172.955 182.78 175.228 177.555C177.088 173.268 179.165 169.072 180.981 164.765C182.798 160.458 184.442 156.177 186.051 151.837C188.032 146.498 189.901 141.12 191.802 135.751C192.246 134.496 192.62 133.215 193.026 131.94L192.305 131.705C186.069 152.262 177.389 171.822 168.425 191.582C168.326 190.093 168.247 188.905 168.168 187.718C168.125 188.5 168.113 189.28 168.031 190.063C167.874 191.562 167.973 193.171 167.447 194.532C164.162 202.979 160.018 211.064 155.081 218.657C154.81 219.08 154.888 219.728 154.789 220.367C156.466 219.039 157.85 217.954 159.217 216.848C163.755 213.183 168.332 209.562 172.815 205.826C176.507 202.748 180.029 199.458 183.741 196.403C186.336 194.286 189.035 192.301 191.828 190.456C192.786 189.817 192.997 189.198 192.681 188.307C191.498 184.906 190.269 181.522 189.045 178.135C188.516 176.669 187.848 175.25 187.439 173.752C186.922 171.84 187.147 171.526 189.159 171.406C193.668 171.136 198.187 170.981 202.696 170.732C204.881 170.609 205.348 170.268 205.19 168.063C204.939 164.627 204.776 161.103 203.873 157.81Z" fill="#104597"/>
<path d="M216.998 138.83H216.984C214.647 137.736 212.261 136.687 209.939 135.543C207.249 134.218 204.594 132.822 201.937 131.438C199.962 130.403 198.02 129.298 196.025 128.304C195.669 128.125 194.749 128.248 194.726 128.356C194.596 128.95 194.613 129.566 194.775 130.151C194.854 130.4 195.47 130.476 196.043 130.711C195.903 130.031 195.833 129.679 195.695 129.004C196.242 129.188 196.776 129.406 197.296 129.655C199.001 130.649 200.634 131.79 202.395 132.67C206.186 134.568 210.015 136.388 213.882 138.129C214.831 138.56 215.95 138.613 216.992 138.836L216.998 138.83Z" fill="#104597"/>
<path d="M217.729 139.786C219.385 140.692 221.084 141.522 222.767 142.378C228.704 145.41 234.51 148.632 239.446 153.242C240.942 154.64 242.335 155.839 242.51 158.173C243.059 165.565 243.816 172.94 244.534 180.317C244.607 181.073 244.966 181.801 245.191 182.539L245.723 182.413C244.014 173.843 243.912 165.114 242.659 156.487L242.992 156.282L246.73 159.449L246.976 159.126C245.845 157.997 244.66 156.916 243.605 155.716C243.091 155.13 242.583 154.367 242.487 153.629C241.903 149.049 241.61 144.419 240.848 139.865C239.388 130.978 237.82 122.099 236.038 113.271C234.578 106.105 232.781 99.0146 231.09 91.9013C230.398 89.0014 230.372 89.7081 233.062 88.4091C233.698 88.1012 234.47 88.0866 235.168 87.8931C235.866 87.6995 236.593 87.4298 237.305 87.1952C237.262 87.0369 237.218 86.8785 237.177 86.7231L230.588 87.9634C229.63 84.5798 228.66 81.1492 227.691 77.7186L228.027 77.5544L229.487 78.4076C229.487 77.9267 229.595 77.5632 229.467 77.3286C229.078 76.6219 228.506 76.0062 228.167 75.2761C226.771 72.2853 225.433 69.2652 224.078 66.2539C222.91 63.6414 221.882 60.9438 220.532 58.4251C218.698 55.0033 216.648 51.6812 214.618 48.3796C214.005 47.3768 214.11 46.6819 215.044 46.0632C215.602 45.6967 216.184 45.3654 216.756 45.0194L216.554 44.5591C215.868 44.7936 215.185 45.0311 214.51 45.2628C213.304 45.6674 213.032 46.5236 213.613 47.5469C215.1 50.1653 216.73 52.7045 218.187 55.3405C219.618 57.9296 221.043 60.5392 222.226 63.2573C223.938 67.1746 225.439 71.1887 227.01 75.1617C227.057 75.282 227.083 75.4139 227.142 75.6133L226.228 75.1617C227.066 77.9355 227.881 80.5187 228.622 83.1254C228.982 84.2784 229.224 85.4652 229.344 86.6674C229.391 87.3184 228.961 88.0074 228.693 88.8431L226.412 89.5585L226.563 90.0922C227.247 89.9661 227.942 89.8752 228.608 89.711C229.484 89.4911 229.946 89.7872 230.159 90.705C231.371 95.9828 232.697 101.205 233.847 106.48C235.2 112.673 236.453 118.889 237.676 125.111C238.567 129.647 239.443 134.2 240.133 138.76C240.763 142.944 241.134 147.172 241.622 151.368C241.716 152.189 241.815 153.01 241.914 153.831L241.54 153.986C239.89 152.579 238.246 151.163 236.59 149.764C235.772 149.075 235.001 148.298 234.09 147.764C231.073 146.005 228.035 144.275 224.942 142.657C222.337 141.296 219.642 140.106 216.987 138.845C217.232 139.158 217.404 139.61 217.729 139.786Z" fill="#104597"/>
<path d="M61.7352 36.0031C63.3322 36.9834 64.7432 38.2402 65.903 39.7152C67.6144 41.8175 69.7319 41.9641 71.9808 40.3808C72.7523 39.8729 73.4671 39.2831 74.1128 38.6215C75.1467 37.4956 76.0696 36.2758 76.7414 35.4519C78.3127 35.9064 79.6124 36.6247 80.8653 36.5485C82.2438 36.4723 83.6399 35.7861 84.9104 35.1411C85.5996 34.7892 85.7866 34.6925 86.2188 35.4343C86.7157 36.3211 87.3734 37.1067 88.1581 37.7507C92.539 41.1431 97.4048 41.8557 102.653 40.1609C102.904 40.1356 103.157 40.1544 103.401 40.2166C103.401 40.803 103.401 41.3337 103.401 41.8645C103.369 44.6177 103.462 47.3153 105.238 49.6727C106.751 51.6783 109.52 52.7779 111.903 52.1914C112.779 51.9657 113.071 51.4467 113.071 50.6139C112.399 50.9247 111.917 51.2531 111.386 51.3792C109.341 51.8718 107.861 50.7459 106.497 49.4909C104.73 47.8665 104.353 45.5619 104.084 43.3804C103.845 41.4012 104.099 39.5393 106.193 38.1377C109.21 36.1233 111.129 33.2205 111.015 29.3237C110.992 28.5056 110.927 27.8166 109.917 27.7961C108.976 27.7785 108.007 27.7668 107.682 29.1537C108.157 29.0914 108.627 28.9983 109.09 28.8751C110.258 28.4617 110.609 29.0129 110.527 30.0773C110.495 30.5112 110.413 30.9569 110.346 31.3733C109.978 33.7776 108.237 35.2437 106.634 36.7889C106.006 37.3959 105.288 37.9119 104.613 38.4661L104.099 38.1729C104.683 35.9249 105.267 33.677 105.851 31.429L105.439 31.3205C104.955 33.0035 104.335 34.6631 104.008 36.3784C103.459 39.2695 102.238 40.372 99.2565 40.1902C97.7552 40.1022 96.2628 39.8589 94.7645 39.724C92.5157 39.5246 90.5676 38.6274 88.7919 37.2669C86.1633 35.2642 85.9793 33.9389 88.1523 31.4876C91.7096 27.4794 93.3568 22.6502 94.2856 17.4984C94.4008 16.8191 94.4008 16.1252 94.2856 15.4459C94.2388 15.1527 93.7715 14.7012 93.5525 14.7334C92.9092 14.8542 92.2873 15.0696 91.7067 15.3726C91.622 15.4137 91.7388 15.8857 91.7738 16.2874L93.2867 15.3785C95.2202 18.1699 90.2609 29.7459 86.2597 32.3116C85.9034 26.8871 88.3187 22.3423 90.3486 17.6685C89.9053 18.0903 89.5386 18.5864 89.265 19.1345C88.3888 21.0932 87.3695 23.0167 86.7971 25.0663C86.1328 27.4977 85.6967 29.9862 85.4945 32.4992C85.401 33.5841 85.1586 34.2995 84.262 34.7159C83.3059 35.1931 82.2999 35.5618 81.2625 35.8155C79.4809 36.1996 76.9604 34.8009 77.7344 32.9097C77.3518 32.4142 76.8582 32.0741 76.8582 31.7369C76.8232 30.1916 76.8991 28.6405 76.9867 27.0953C77.0496 26.4513 77.1471 25.8111 77.2788 25.1777L76.8553 25.1308C76.2157 27.4178 75.4592 29.7606 76.1456 32.1298C76.6625 33.889 76.3792 35.3229 75.1321 36.4928C73.6638 37.8699 72.1024 39.1435 70.4591 40.3046C70.0298 40.5978 69.1799 40.3046 68.5228 40.284C68.5724 39.6478 68.5228 38.988 68.6892 38.384C69.0105 37.1848 69.4457 36.0148 69.8341 34.8303L69.5421 34.7452L67.6291 39.9146C65.7394 39.0643 65.1173 37.3607 64.7727 35.877C64.3521 34.0796 64.4806 32.1004 64.6734 30.2327C64.8661 28.3649 65.4298 26.4883 65.8416 24.6176C64.1593 28.4089 63.3387 32.3379 64.0893 36.9326C62.8217 35.9885 61.7528 35.3932 60.9321 34.5458C56.2094 29.6345 54.7199 23.8729 56.6066 17.2814C56.3438 17.6392 55.9816 17.9646 55.8502 18.3663C54.6527 22.0462 54.79 25.7231 56.4051 29.2152C57.6318 31.8366 59.1593 34.4462 61.7352 36.0031Z" fill="#104597"/>
<path d="M257.887 194.86C254.826 194.033 251.909 192.67 248.929 191.535C245.95 190.4 242.939 189.272 239.957 188.102C235.933 186.521 231.882 184.997 227.924 183.255C226.102 182.454 223.836 182.586 222.475 180.742C222.369 180.601 222.039 180.607 221.809 180.587C220.801 180.493 219.747 180.587 218.792 180.293C217.594 179.947 216.496 179.255 215.313 178.827C214.925 178.692 214.399 178.959 213.935 179.041C214.227 179.455 214.46 180.1 214.86 180.241C216.233 180.698 217.629 181.082 219.043 181.39C220.237 181.683 221.35 181.537 221.087 183.621C220.713 186.468 221.175 189.412 221.087 192.312C220.839 201.419 220.561 210.524 220.185 219.628C219.939 225.571 219.513 231.512 219.145 237.449C219.031 239.27 218.853 241.088 218.692 242.903L219.329 243C219.46 242.579 219.558 242.149 219.621 241.713C219.989 237.388 220.462 233.069 220.661 228.735C220.988 221.525 221.122 214.306 221.365 207.093C221.543 201.815 221.776 196.561 221.963 191.295C222.054 188.761 222.101 186.222 222.162 183.686C222.188 182.619 222.661 182.296 223.666 182.692C225.459 183.399 227.267 184.061 229.06 184.765C233.441 186.48 237.793 188.234 242.177 189.925C244.665 190.884 247.346 191.456 249.66 192.72C254.375 195.351 259.68 196.737 265.075 196.746C265.504 196.746 265.936 196.403 266.366 196.218C265.93 196.027 265.507 195.722 265.057 195.67C262.662 195.388 260.18 195.482 257.887 194.86Z" fill="#104597"/>
<path d="M41.142 155.03C37.5613 157.303 33.8959 159.455 30.1925 161.522C27.1697 163.211 24.0592 164.747 20.9488 166.266C20.0726 166.703 19.8185 167.128 20.2362 168.078C20.7143 169.252 21.1248 170.452 21.4657 171.673C22.7975 175.998 24.0943 180.332 25.4349 184.656C26.6323 188.562 27.9524 192.43 29.0155 196.385C30.0173 200.094 30.7358 203.877 31.6237 207.615C31.796 208.339 32.1873 209.014 32.4794 209.709L32.9321 209.556C32.9672 209.253 32.9672 208.947 32.9321 208.644C32.5378 207.09 32.1143 205.545 31.6996 203.997C30.5635 199.775 29.5033 195.532 28.2708 191.339C26.0803 183.911 23.8246 176.5 21.5037 169.107C21.162 168.02 21.4394 167.524 22.3332 167.023C25.1574 165.436 27.9758 163.838 30.7533 162.173C35.4467 159.358 40.0993 156.484 44.9534 153.532C44.9619 154.004 44.9326 154.475 44.8657 154.942C43.8172 159.634 42.7658 164.325 41.6793 169.016C40.5578 173.846 39.3925 178.663 38.2593 183.489C37.0472 188.644 35.8352 193.799 34.6669 198.965C34.5472 199.493 34.7341 200.088 34.7779 200.651L35.1956 200.672C35.4008 200.15 35.5686 199.614 35.6979 199.068C35.9345 197.725 36.0075 196.35 36.3171 195.027C37.9176 188.283 39.5911 181.54 41.1974 174.769C42.1058 170.928 42.8272 167.037 43.826 163.22C44.8979 159.115 45.152 154.769 47.1964 150.776C46.4982 150.892 45.837 151.171 45.2659 151.591C43.8611 152.696 42.6373 154.08 41.142 155.03Z" fill="#104597"/>
<path d="M273.658 172.778C273.144 167.345 272.587 161.929 272.037 156.482C271.602 152.212 271.284 147.923 270.671 143.677C269.651 136.64 268.454 129.626 267.294 122.607C265.801 113.568 264.286 104.531 262.75 95.4961C262.189 92.1945 261.617 88.89 260.919 85.6148C260.627 84.2924 260.007 83.0463 259.534 81.7678L258.839 81.9614C259.131 83.4744 259.365 85.0049 259.747 86.4944C260.259 88.5 261.035 90.444 261.441 92.4672C262.361 97.0531 263.135 101.668 263.947 106.275C264.8 111.119 265.662 115.951 266.447 120.812C267.052 124.554 267.525 128.315 268.092 132.063C268.676 135.948 269.4 139.818 269.902 143.715C270.46 148.014 270.834 152.336 271.29 156.649C271.728 160.754 272.224 164.859 272.598 168.964C273.016 173.567 273.328 178.182 273.688 182.795C273.848 184.847 274.009 186.9 274.178 189.09L272.697 188.609C272.619 188.785 272.543 188.961 272.464 189.14L274.412 189.999C274.619 189.412 275.046 188.785 274.996 188.207C274.59 183.064 274.132 177.921 273.658 172.778Z" fill="#104597"/>
<path d="M240.819 44.5942C240.527 36.5924 237.051 29.5465 234.101 22.1399C235.892 22.1781 236.946 23.1398 237.802 24.1924C240.116 27.0904 241.897 30.3801 243.059 33.9066C243.707 35.8418 244.598 37.692 245.296 39.6125C245.825 41.0786 246.482 42.5447 246.628 44.0606C247.046 48.3591 247.212 52.681 247.504 56.9913C247.887 62.4832 248.337 67.9721 248.693 73.464C248.877 76.3287 248.947 79.1993 248.985 82.0698C248.985 82.5184 248.693 83.2661 248.36 83.3805C246.447 84.0373 244.478 84.5358 242.536 85.1046C241.368 85.4418 240.241 85.8083 239.093 86.1602C239.163 86.4182 239.236 86.6733 239.306 86.9284L249.078 84.2601C249.222 86.9225 249.35 89.362 249.479 91.7986L249.855 91.8485C249.954 91.406 250.012 90.9556 250.031 90.5026C249.946 88.6554 249.738 86.8082 249.738 84.9609C249.738 84.524 250.302 83.7881 250.714 83.7089C252.361 83.3629 254.049 83.2163 255.723 82.9964C255.761 82.8146 255.796 82.6357 255.831 82.4569C255.247 82.3982 254.663 82.2311 254.096 82.3044C252.896 82.4686 251.716 82.7765 250.518 82.9817C249.782 83.1107 249.502 82.7559 249.464 81.9965C249.286 78.3489 249.032 74.7043 248.848 71.0567C248.532 64.7702 248.328 58.4779 247.925 52.1973C247.606 47.2595 247.606 42.2661 245.296 37.6392C243.48 33.9946 242.025 30.1652 240.241 26.4971C239.259 24.4769 237.863 22.6062 235.734 21.6943C234.364 21.1078 233.085 20.5214 232.066 19.4101C231.999 19.3398 231.692 19.4922 231.774 19.4746C236.061 27.45 239.385 35.66 240.819 44.5942Z" fill="#104597"/>
<path d="M152.012 208.269C151.495 207.562 150.843 206.923 150.464 206.155C149.088 203.416 147.797 200.634 146.477 197.866C145.017 194.843 143.624 191.799 142.128 188.8C141.252 187.017 141.605 185.469 142.838 184.108C144.693 182.056 146.611 180.05 148.536 178.056C149.12 177.443 149.255 177.03 148.326 176.69C145.277 175.573 142.248 174.397 139.181 173.33C135.677 172.11 135.291 171.389 136.538 167.987C137.359 165.747 138.145 163.495 138.991 161.264C141.05 155.847 143.129 150.44 145.23 145.043C145.399 144.609 145.957 144.345 146.27 143.953C146.535 143.632 146.734 143.261 146.854 142.862C146.892 142.721 146.48 142.275 146.363 142.313C145.956 142.422 145.578 142.617 145.253 142.885C145.067 143.109 144.936 143.373 144.871 143.656C142.73 149.301 140.574 154.939 138.46 160.592C137.368 163.525 136.296 166.439 135.306 169.389C134.873 170.679 134.745 172.116 136.182 172.89C137.411 173.544 138.781 173.945 140.095 174.432C142.578 175.353 145.061 176.253 147.537 177.156C145.437 179.686 143.463 181.944 141.632 184.313C140.677 185.554 140.352 187.02 141.094 188.58C141.576 189.588 141.886 190.682 142.376 191.685C144.751 196.54 147.201 201.361 149.538 206.231C150.519 208.284 151.603 210.371 152.058 212.564C152.523 214.813 152.274 217.215 152.35 219.546C152.392 219.775 152.463 219.998 152.564 220.209L152.888 220.173V213.262L154.412 215.488C153.612 213.01 152.932 210.893 152.242 208.776C152.191 208.596 152.114 208.425 152.012 208.269Z" fill="#104597"/>
<path d="M96.9346 15.3843C99.0053 11.7456 101.9 9.26791 106.158 8.59352C109.531 8.05694 111.707 9.69307 111.821 13.1119C111.845 14.3258 111.704 15.5373 111.4 16.7126C111.266 17.2609 110.732 17.8151 110.232 18.1523C108.909 19.0495 107.463 19.7708 106.143 20.6827C105.62 21.0463 105.326 21.7383 104.928 22.2778L105.206 22.5065C106.698 20.8821 108.36 19.5362 110.802 18.8472C109.695 22.0549 108.267 24.5179 105.194 25.8286C104.955 24.949 104.756 24.213 104.47 23.1662C103.783 24.5209 103.927 25.5119 104.791 26.0984C105.188 26.3593 106.149 26.0778 106.675 25.7524C108.582 24.5795 110.039 22.9668 110.685 20.7677C111.027 19.5949 111.561 18.6361 112.75 18.1083C114.385 17.3811 117.172 17.8532 118.384 19.2606C119.323 20.3088 120.147 21.4561 120.84 22.6824C122.586 25.8676 123.261 29.534 122.765 33.1355C122.397 35.9679 121.228 38.4456 120.016 40.935C119.032 43.0676 117.519 44.9104 115.621 46.2861C113.687 47.6495 111.719 48.8986 109.114 48.1979C109.747 48.5996 110.404 48.9485 111.047 48.928C114.698 48.8107 117.154 46.5823 119.131 43.8554C120.3 42.2339 121.12 40.3368 121.958 38.4866C124.19 33.5753 124.295 28.5174 122.268 23.5709C121.477 21.7368 120.352 20.0672 118.95 18.6478C117.177 16.8006 114.774 16.5572 112.431 17.2316C112.431 15.399 112.507 13.7981 112.414 12.2088C112.247 9.39106 110.273 7.7432 107.498 7.70215C102.656 7.63471 99.493 10.4906 96.5928 13.8156C96.2132 14.2496 96.257 15.0559 96.073 15.8359C96.5636 15.7538 96.6279 15.7626 96.6571 15.7333C96.7661 15.6312 96.8596 15.5136 96.9346 15.3843Z" fill="#104597"/>
<path d="M174.88 87.1747C176.27 82.8703 177.509 78.5161 178.8 74.1824C179.55 71.6901 180.31 69.1978 181.028 66.7025C181.107 66.4298 181.028 65.9402 180.856 65.8229C180.683 65.7056 180.085 65.7613 179.98 65.9372C179.637 66.4537 179.39 67.0278 179.249 67.632C179.095 68.3914 179.235 69.2212 179.024 69.9543C177.304 75.9387 175.596 81.9291 173.744 87.8725C172.792 90.9337 171.516 93.8951 170.49 96.9328C170.264 97.6601 170.287 98.4425 170.555 99.1554C170.651 99.39 171.895 99.4486 172.409 99.173C174.746 97.9679 177.003 96.6513 179.246 95.2938C179.655 95.0475 179.831 94.4141 180.123 93.9831C177.29 95.8421 174.413 97.1733 171.495 98.4253L171.174 98.0998C171.261 97.5485 171.382 97.0031 171.536 96.4666C172.646 93.3615 173.87 90.3091 174.88 87.1747Z" fill="#104597"/>
<path d="M160.108 26.6496C162.736 27.6406 165.224 28.9718 167.792 30.1124C170.228 31.1944 172.649 32.3291 175.152 33.2322C177.146 33.9535 179.241 34.3552 181.308 34.9123C183.408 35.4811 185.473 36.2025 187.599 36.613C189.644 37.0059 191.744 37.0117 193.797 37.3225C195.689 37.6157 197.547 38.123 199.437 38.4367C199.924 38.5159 200.471 38.2315 200.99 38.1142L201.043 37.5806C200.425 37.3476 199.79 37.1604 199.145 37.0205C193.771 36.2582 188.338 35.8008 183.032 34.7041C178.837 33.8245 174.734 32.3789 170.712 30.8572C166.457 29.2445 162.397 27.1128 158.154 25.4767C156.209 24.7261 154.033 24.5707 151.953 24.169C152.481 24.4343 153.027 24.6635 153.586 24.8551C155.753 25.4679 158.002 25.855 160.108 26.6496Z" fill="#104597"/>
<path d="M151.947 24.169L151.833 24.1162H151.769L151.796 24.1368L151.947 24.169Z" fill="#104597"/>
<path d="M222.305 48.0864C223.205 49.6932 223.876 51.429 224.674 53.0945C224.966 53.722 225.348 54.3143 225.69 54.9212L226.444 54.6837C226.128 50.2503 226.102 45.773 225.424 41.3953C224.49 35.3404 223.088 29.3735 221.838 23.3568C221.528 21.8907 221.791 21.0814 223.155 20.3572C223.447 20.2047 223.739 20.0464 224.274 19.7708C222.387 19.3603 220.842 20.8029 221.154 22.3335C221.49 24.0019 221.774 25.6849 222.209 27.3181C223.938 33.8245 224.89 40.4599 225.562 47.1393C225.728 48.8106 225.547 50.5171 225.527 52.209L225.007 52.2354C224.154 50.4995 223.38 48.7168 222.431 47.0396C221.534 45.4592 219.916 44.8464 218.243 44.4506C217.997 44.3919 217.658 44.6646 217.387 44.7848C217.671 45.0631 218.036 45.2421 218.429 45.295C219.242 45.4417 220.011 45.7684 220.681 46.2513C221.352 46.7342 221.906 47.3611 222.305 48.0864Z" fill="#104597"/>
<path d="M56.6183 17.1758V17.1995C56.6183 17.2144 56.6183 17.2292 56.6183 17.244L56.639 17.2173C56.631 17.2041 56.6241 17.1902 56.6183 17.1758Z" fill="#104597"/>
<path d="M64.6237 10.3498C65.9234 10.0185 66.747 10.2648 67.521 11.4904C68.9813 13.8156 70.6957 15.9795 73.6309 16.5513C74.3946 16.6464 75.1629 16.7002 75.9324 16.7125C74.288 12.8714 71.5105 10.9274 68.2219 9.54054C67.8364 9.37928 67.3457 9.24733 67.1384 8.93066C66.0314 7.22709 66.9164 4.23924 68.7476 3.25405C69.4865 2.85821 70.2401 2.43598 69.7698 1.38041C66.9807 2.8758 65.9175 5.27722 66.2943 8.30611C66.4199 9.31184 66.1103 9.59625 65.2078 9.70767C62.8129 10.0009 60.7568 11.1239 58.9811 12.675C57.658 13.8478 56.3525 15.1292 56.6154 17.1758C57.9881 13.364 60.824 11.3116 64.6237 10.3498ZM74.2793 15.7098C70.7161 15.6218 69.4953 12.8069 67.6582 10.5316C69.4632 10.0654 73.444 13.3054 74.2793 15.7098Z" fill="#104597"/>
<path d="M98.2693 71.6989C98.1378 71.3822 98.0473 71.0509 97.9158 70.7371C96.3241 66.9752 95.6991 62.9582 95.1734 58.9676C94.7002 55.4138 94.7587 51.7868 94.5893 48.1509C94.5454 48.189 94.1366 48.3708 94.1074 48.6025C93.9292 49.9923 93.6401 51.4085 93.7598 52.7837C94.0519 56.1703 94.4345 59.5598 94.9981 62.9083C95.3924 65.2394 96.1255 67.5177 96.7505 69.8047C97.0163 70.7606 97.4223 71.6725 97.8925 72.9568L93.0355 72.3146C93.3655 72.5551 93.7072 72.9597 94.1278 73.0799C95.0123 73.323 95.9147 73.4946 96.8265 73.593C98.7132 73.8276 99.0053 73.4582 98.2693 71.6989Z" fill="#104597"/>
<path d="M4.9408 180.156L4.99046 180.208L4.96417 180.12L4.93788 180.038C4.93788 180.076 4.93788 180.112 4.93788 180.15L4.9408 180.156Z" fill="#104597"/>
<path d="M12.7856 200.801C15.3645 206.832 17.9931 212.846 20.607 218.863C20.7823 219.267 21.0159 219.648 21.2204 220.036L21.5679 219.915C21.5555 219.624 21.5074 219.336 21.4248 219.056C20.4513 216.779 19.4641 214.507 18.4633 212.239C16.4335 207.665 14.2722 203.149 12.3855 198.514C10.0227 192.711 7.88774 186.817 5.6301 180.971C5.46274 180.68 5.24631 180.421 4.99049 180.205C5.8287 182.844 6.54134 185.56 7.54311 188.149C9.18742 192.409 10.9924 196.602 12.7856 200.801Z" fill="#104597"/>
<path d="M1.93551 157.27C0.682566 158.601 -0.768983 159.98 0.475202 162.129C0.562821 162.281 0.495646 162.516 0.527773 162.715C0.924978 165.061 1.16155 167.454 1.76904 169.752C2.69195 173.221 3.87188 176.625 4.94667 180.056C4.93709 179.662 4.89311 179.269 4.81524 178.883C3.77258 174.925 2.47875 171.016 1.73983 167.002C1.28129 164.463 -0.181938 161.874 2.03189 159.065C3.05995 157.754 3.87773 156.115 5.08102 154.851C6.95314 152.878 8.95084 151.022 10.8025 149.031C11.1764 148.629 11.153 147.858 11.3107 147.251C11.0694 147.7 10.7868 148.125 10.4666 148.521C7.61612 151.429 4.73055 154.306 1.93551 157.27Z" fill="#104597"/>
<path d="M205.512 46.8285C203.648 46.506 201.773 46.2656 199.904 45.9987C193.023 45.0223 185.984 44.9696 179.375 42.401C178.525 42.0726 177.748 42.2984 177.69 43.5123C181.615 44.1368 185.368 44.7848 189.136 45.3214C193.225 45.9078 197.313 46.3565 201.402 46.9341C202.328 47.0631 203.502 46.8197 203.99 48.0717C204.034 48.1832 204.349 48.2741 204.51 48.2389C205.202 48.0835 205.883 47.8782 206.919 47.5938C206.309 47.2566 205.935 46.9136 205.512 46.8285Z" fill="#104597"/>
<path d="M54.1358 51.9129C57.2024 52.2354 59.8602 51.13 61.9806 48.8869C62.7458 48.0747 63.3241 47.0895 63.99 46.1835L63.7446 45.9694C63.5986 46.0632 63.3796 46.1189 63.3153 46.2626C62.1324 48.6582 60.015 49.8398 57.6668 50.784C54.3023 52.1357 51.3057 50.4292 50.8413 46.8315C50.4008 43.2974 50.5399 39.7148 51.2531 36.2259C51.6124 34.4109 52.0008 32.6018 52.3776 30.7927L52.0183 30.6138C51.6823 31.2903 51.3896 31.9876 51.1422 32.7015C51.0151 33.3212 50.9457 33.9514 50.9348 34.5839C50.5931 38.3957 49.6731 42.1488 50.1082 46.0368C50.4792 49.3912 51.7993 51.6695 54.1358 51.9129Z" fill="#104597"/>
<path d="M238.167 44.6412C237.784 43.2337 237.367 41.8351 236.952 40.4394C235.614 35.9591 234.248 31.4876 232.948 26.9956C232.364 24.9959 231.061 23.1603 231.531 20.7765L229.91 20.4159L229.583 20.6827C233.944 28.8633 235.495 37.9823 238.313 46.6878C238.416 46.0031 238.366 45.3041 238.167 44.6412Z" fill="#104597"/>
<path d="M225.439 21.6972C226.654 21.1694 226.899 21.8849 227.11 22.8701C228.689 30.1027 230.289 37.3304 231.911 44.5532C232.221 45.9401 232.565 47.3182 232.895 48.6992L233.479 48.5644L227.174 19.7444L224.773 21.2105C225.156 21.4978 225.354 21.7265 225.439 21.6972Z" fill="#104597"/>
<path d="M69.8311 1.3423L69.7464 1.3599C69.7476 1.37061 69.7476 1.38143 69.7464 1.39215H69.7669L69.8311 1.3423Z" fill="#104597"/>
<path d="M80.5002 1.63847C82.9419 2.93154 84.8373 5.27725 86.8497 7.30336C88.0734 8.52606 89.0606 9.98333 90.1529 11.338L90.4654 11.1239C90.1441 10.4319 89.966 9.61095 89.4782 9.07143C87.5272 6.93391 85.9355 4.4973 83.4851 2.77028C81.7327 1.54171 80.1089 0.339537 77.9359 0.187066C75.1438 -0.000590763 72.3254 -0.437503 69.8311 1.3423C70.5525 1.1869 71.2915 1.04911 71.9924 0.858525C74.9277 0.0756447 78.0031 0.313148 80.5002 1.63847Z" fill="#104597"/>
<path d="M113.874 62.1607C114.727 63.0022 115.609 63.1693 116.584 62.8175C117.504 62.5061 118.402 62.1359 119.274 61.7091C120.325 61.1429 121.186 60.2795 121.752 59.2261C122.318 58.1726 122.564 56.9755 122.458 55.7833C122.23 53.1443 118.79 51.2531 116.488 52.8511C117.364 53.0241 117.948 53.1443 118.547 53.2616C121.222 53.763 122.207 55.578 121.176 58.129C120.078 60.8822 117.54 62.3131 113.874 62.1607Z" fill="#104597"/>
<path d="M194.069 71.5786C192.76 70.9306 191.379 71.3763 190.876 72.7515C190.637 73.5422 190.519 74.3647 190.526 75.191C190.47 76.531 191.11 77.1644 192.445 77.179C194.101 77.1937 196.101 75.6074 196.478 73.9331C196.91 71.9862 195.31 72.0683 194.191 71.649C194.149 71.6283 194.108 71.6048 194.069 71.5786ZM195.622 73.6106C195.836 74.5372 193.75 76.2495 192.623 76.2495C191.717 76.2495 191.437 75.7452 191.455 74.9682C191.455 73.8188 192.772 72.8219 194.697 72.8248C194.819 72.9421 195.529 73.206 195.622 73.6106Z" fill="#104597"/>
<path d="M151.474 197.502V170.975H150.843C151.241 179.786 150.297 188.618 151.474 197.502Z" fill="#104597"/>
<path d="M90.2141 85.3626C89.0926 84.483 88.3304 83.1459 87.4162 82.0317C87.6645 84.8964 89.7673 87.3624 92.2849 87.5178C92.8982 87.5463 93.5032 87.3666 94.0022 87.0076C95.6377 85.7203 96.1313 83.8086 96.5723 81.8881C96.0673 82.5932 95.6236 83.3407 95.2464 84.1223C93.8941 86.7378 92.5156 87.1688 90.2141 85.3626Z" fill="#104597"/>
<path d="M171.91 71.5816C173.586 71.5992 175.415 70.2211 175.593 68.8723C175.608 68.5999 175.564 68.3273 175.463 68.0739C175.362 67.8205 175.207 67.5926 175.009 67.4062C174.576 67.0779 173.788 66.8726 173.306 67.0456C172.57 67.2885 171.938 67.7742 171.513 68.4237C171.127 69.1216 171.08 70.0628 171.098 70.8926C171.11 71.1682 171.729 71.4438 171.91 71.5816ZM173.697 68.063L175.45 68.324L172.853 70.8691L172.269 70.3618L173.697 68.063Z" fill="#104597"/>
<path d="M175.639 110.814C173.986 109.679 172.815 107.837 171.361 106.236C171.548 108.43 172.847 109.963 174.489 111.3C177.059 113.394 180.26 112.148 180.859 108.512C179.395 110.368 177.935 112.388 175.639 110.814Z" fill="#104597"/>
<path d="M101.821 55.3552C102.487 56.1439 103.366 56.786 104.49 56.1556C105.615 55.5252 105.991 52.4611 105.121 51.0009C104.937 50.6901 104.338 50.6286 103.932 50.4526C104.788 51.9187 105.08 53.6076 104.33 54.8127C104.146 55.1059 103.161 55.3053 103.018 55.1382C102.588 54.6444 102.318 54.0307 102.244 53.3789C102.174 52.555 102.387 51.7076 102.487 50.781C101.029 52.0184 100.717 54.0445 101.821 55.3552Z" fill="#104597"/>
<path d="M204.127 52.3967C200.263 51.4877 196.388 50.6169 192.518 49.7372C192.842 50.7517 202.976 53.2558 204.539 53.0799C204.387 52.813 204.297 52.4377 204.127 52.3967Z" fill="#104597"/>
<path d="M201.712 39.4483C201.624 39.6506 201.539 39.853 201.455 40.0553L212.994 44.6617C209.621 41.9993 205.696 40.6534 201.712 39.4483Z" fill="#104597"/>
<path d="M83.5873 54.4403C83.6749 55.0268 83.6574 55.6337 83.8794 56.141C84.078 56.5867 84.5102 57.1379 84.9191 57.2141C85.328 57.2904 85.9852 56.8769 86.1545 56.5046C86.6517 55.4159 87.0268 54.2751 87.2731 53.1033C87.3432 52.7661 86.8701 52.0301 86.5255 51.9304C85.2784 51.605 83.6633 53.0857 83.5873 54.4403ZM86.2772 54.8098C86.0728 55.2936 85.6055 55.6894 85.1937 56.0354C85.1499 56.0735 84.4781 55.6367 84.446 55.3757C84.3788 54.7893 84.3409 54.068 84.6417 53.6487C85.0214 53.1209 85.7486 52.8423 86.3269 52.4553L86.7357 52.7485C86.5926 53.4463 86.5459 54.1764 86.2772 54.8098Z" fill="#104597"/>
<path d="M67.2026 21.9171C66.3994 22.3012 66.1103 22.9228 66.6185 23.7497C67.5939 23.6969 68.0233 21.6708 69.136 22.9873C69.7406 23.7057 70.0122 24.8229 70.1436 25.8022C70.4357 27.7843 70.5087 29.7928 70.6606 31.6313C71.2973 29.8221 70.8125 24.0576 69.7552 22.4859C69.1302 21.5359 68.1722 21.4509 67.2026 21.9171Z" fill="#104597"/>
<path d="M184.106 49.9542L191.604 50.5816C190.094 49.0716 185.327 48.7227 184.106 49.9542Z" fill="#104597"/>
<path d="M270.522 189.028C269.353 191.104 269.108 193.72 267.017 195.291C266.966 195.384 266.936 195.487 266.93 195.592C266.925 195.698 266.943 195.804 266.985 195.901C267.183 196.004 267.569 196.074 267.686 195.957C268.217 195.47 268.854 194.989 269.146 194.362C270.089 192.142 270.898 189.864 271.754 187.618L271.439 187.413C271.126 187.949 270.828 188.489 270.522 189.028Z" fill="#104597"/>
<path d="M108.261 109.198L113.275 111.978L113.649 111.283L108.544 108.644C108.448 108.834 108.351 109.016 108.261 109.198Z" fill="#104597"/>
<path d="M78.0615 22.1663C77.7344 22.439 77.676 23.046 77.4978 23.4946L77.9008 23.6676L79.145 22.3364C79.4371 22.9551 79.6503 23.4418 79.8752 23.9286L80.2753 23.7849C80.0183 23.1222 79.8547 22.3921 79.4488 21.8409C79.3174 21.6767 78.4032 21.8819 78.0615 22.1663Z" fill="#104597"/>
<path d="M114.385 112.098C115.361 112.684 116.068 113.998 117.51 113.356C116.622 112.541 115.743 111.714 114.385 112.098Z" fill="#104597"/>
<path d="M117.51 113.356L117.534 113.376V113.359V113.373L117.627 113.409L117.56 113.335L117.51 113.356Z" fill="#104597"/>
<path d="M167.932 200.736C168.037 199.29 168.143 197.843 168.25 196.397H168.008C167.827 197.839 167.647 199.283 167.468 200.727L167.932 200.736Z" fill="#104597"/>
</svg>
