<svg width="275" height="258" viewBox="0 0 275 258" fill="none" xmlns="http://www.w3.org/2000/svg">
<path d="M274.998 227.299C274.386 219.793 271.796 212.844 268.378 206.262C262.289 194.535 255.421 183.237 247.425 172.706C242.74 166.455 238.537 159.859 234.852 152.973C234.487 152.222 234.272 151.407 234.216 150.574C233.79 146.477 233.522 142.36 233.018 138.271C231.821 128.494 230.421 118.736 229.297 108.951C228.212 99.4869 227.359 89.9922 226.449 80.5206C226.402 80.0602 226.689 79.2516 227.014 79.1277C230.503 77.8432 231.875 74.8098 232.945 71.7223C234.441 67.4121 234.623 62.8853 234.262 58.3662C234.169 56.9783 233.832 55.6176 233.266 54.3462C232.104 51.8235 230.27 50.864 228.228 53.1081C227.189 54.2379 226.243 55.4489 225.313 56.6715C224.792 57.4476 224.311 58.2495 223.871 59.0742C221.813 42.7815 219.608 27.0265 218.871 10.9968C222.534 11.7436 225.999 12.2079 229.313 13.1906C232.704 14.1966 235.762 13.7981 238.844 12.3123C239.37 12.1156 239.949 12.1156 240.475 12.3123C242.355 12.9778 244.169 13.86 246.072 14.4287C246.847 14.6647 247.812 14.3359 248.692 14.2623C248.654 14.0998 248.619 13.9335 248.58 13.771C242.13 12.765 232.805 7.34827 229.607 2.70536L232.014 2.49643L232.065 1.85803L226.204 0.47289C226.158 0.47289 226.096 0.542533 226.034 0.554141C224.952 0.755334 223.867 1.12677 222.782 1.1229C217.356 1.10742 211.939 1.03004 206.53 0.890752C205.046 0.852061 203.573 0.465151 202.085 0.318126C201.564 0.290463 201.042 0.376276 200.558 0.569617C199.907 0.797894 199.298 1.3976 198.666 1.40534C193.973 1.47499 189.275 1.32409 184.585 1.48272C182.461 1.54463 180.388 2.036 178.837 0.0395508C178.771 -0.0494385 178.492 0.0395508 178.186 0.0395508V1.711C173.783 2.09791 169.508 2.60863 165.217 2.84851C159.039 3.19286 152.834 3.15417 146.667 3.62233C139.218 4.2027 131.796 5.11967 124.373 5.97474C120.858 6.36165 117.354 6.93041 113.866 7.52238C112.986 7.67328 112.176 8.2343 111.331 8.6096C112.009 10.0799 113.269 9.60009 114.339 9.40276C115.947 9.11258 116.839 9.59235 117.141 11.2831C117.277 12.0376 117.815 12.7186 118.172 13.4305L118.757 13.21V10.2269C124.055 13.504 128.982 16.8043 134.156 19.683C141.819 23.939 149.66 27.8777 157.411 31.917C167.772 37.2951 178.264 42.3946 189.329 46.1979C190.829 46.7163 192.43 46.9988 193.957 47.3934L194.131 46.7163C192.581 46.8672 193.054 42.0966 190.151 45.5556C164.923 35.5927 140.892 23.2541 118.215 8.14531C121.459 7.55334 124.652 7.25928 127.838 6.91107C134.606 6.1682 141.357 5.22414 148.14 4.68247C156.28 4.02859 164.465 3.75775 172.628 3.22382C180.229 2.72857 180.326 2.62798 183.624 9.60783C186.81 16.3517 189.915 23.1497 192.756 30.0289C193.945 32.923 194.36 36.1305 195.213 39.543C194.321 39.338 194.05 39.3457 193.849 39.218C189.143 36.1653 184.105 33.515 179.841 29.9361C173.698 24.7592 168.14 18.8898 162.276 13.3725C159.663 10.904 156.966 8.53996 154.183 6.2804C153.737 5.92058 152.632 6.35005 151.857 6.41195C152.245 7.10452 152.435 8.04471 153.02 8.43549C154.822 9.64652 156.931 10.4397 158.617 11.7745C161.262 13.8292 163.743 16.0852 166.039 18.5222C174.394 27.6819 184.226 35.3807 195.128 41.2996C195.72 41.5813 196.328 41.8293 196.949 42.0425L197.476 41.6323C195.244 31.2361 190.306 21.8032 186.263 12.0221C186.784 12.3313 187.25 12.7234 187.643 13.1829C192.507 17.8722 197.259 22.6892 202.302 27.1813C204.647 29.2783 207.534 30.8569 210.294 32.4974C211.092 32.9733 212.255 32.8379 213.255 32.981C213.329 32.7528 213.402 32.5284 213.48 32.3039C207.007 28.9843 200.825 25.3396 195.767 19.977C190.709 14.6144 185.407 9.6233 181.329 2.95298C182.798 2.79822 183.938 2.56607 185.077 2.56607C190.23 2.56607 195.379 2.60347 200.527 2.67827C201.172 2.66581 201.804 2.86867 202.321 3.25477C206.162 6.67118 210.992 7.99828 215.678 9.59235C217.143 10.0876 217.724 10.8343 217.825 12.3201C218.123 16.6883 218.414 21.0642 218.914 25.4131C220.464 38.9549 222.139 52.4542 223.735 65.9806C224.069 68.7895 224.294 71.6178 224.549 74.4384C224.588 74.8795 224.716 75.5643 224.491 75.7384C223.224 76.725 224.146 77.4486 224.635 78.3036C224.995 78.8957 225.233 79.5533 225.336 80.2382C226.549 91.3115 227.712 102.393 228.914 113.466C229.367 117.625 229.898 121.777 230.379 125.936C231.102 132.256 231.827 138.576 232.553 144.899C233.053 149.387 232.266 154.057 235.898 157.93C238.049 160.224 239.204 163.424 241.053 166.055C243.983 170.21 247.336 174.075 250.111 178.328C254.963 185.756 259.603 193.328 264.169 200.935C269.254 209.404 273.029 218.377 273.878 228.363C273.973 228.74 274.127 229.101 274.335 229.431L274.866 229.369C274.964 228.683 275.008 227.991 274.998 227.299ZM217.212 8.79532C212.639 7.10065 207.724 6.18754 203.906 2.76726C203.949 2.59315 203.992 2.41905 204.03 2.24107H216.274C216.79 4.40002 217.263 6.39261 217.736 8.38132L217.212 8.79532ZM218.53 6.18368C218.701 4.91848 218.976 3.67263 219.236 2.21398C223.08 2.34553 226.914 2.00505 230.057 5.30926C231.937 7.27476 234.452 8.63668 236.673 10.281C237.061 10.5674 237.421 10.9001 237.979 11.3644C235.731 12.7186 233.437 12.8192 231.266 12.4864C227.902 11.968 224.596 11.082 221.278 10.2849C218.565 9.61943 218.158 8.9849 218.53 6.18754V6.18368ZM226.026 76.9494C225.639 71.5985 223.859 66.2978 225.03 60.8927C225.6 58.2694 226.658 55.7545 228.906 53.9515C230.429 52.7289 231.673 53.05 232.231 54.9382C232.568 55.9779 232.827 57.0409 233.007 58.1186C233.193 59.4534 233.208 60.8269 233.297 62.1579C233.359 66.2707 232.755 70.283 230.836 73.9238C230.104 75.3128 228.658 76.3575 227.429 77.437C227.232 77.6072 226.042 77.1622 226.026 76.9494Z" fill="#783545"/>
<path d="M185.011 158.243C182.298 156.393 179.238 155.108 176.016 154.466C171.295 153.53 166.837 154.935 162.303 155.627C159.264 156.099 156.264 156.846 153.245 157.457C148.524 158.413 143.819 159.504 139.063 160.262C135.784 160.785 132.431 160.908 129.106 161.036C128.265 161.075 127.393 160.518 126.536 160.231L126.571 159.612C127.858 159.144 129.195 158.788 130.424 158.196C136.792 155.14 141.807 150.485 145.702 144.654C149.477 139.025 150.535 132.502 151.152 125.943C151.325 123.513 151.154 121.071 150.644 118.689C149.582 113.206 146.706 108.525 143.516 104.044C140.733 100.133 137.722 96.3062 132.978 94.7586C129.102 93.4779 125.059 92.6692 121.059 91.791C119.776 91.5085 118.277 91.3073 117.083 91.6942C114.04 92.6847 111.118 94.0157 108.145 95.2345C107.529 95.4821 106.916 95.7413 106.04 96.1011C106.061 95.6683 106.105 95.2369 106.172 94.8089C107.637 88.7537 109.459 82.7798 109.773 76.4848C109.839 75.2351 109.494 74.8134 108.451 74.6741C106.73 74.4458 105.009 74.1634 103.281 74.0782C98.1374 73.819 92.9902 73.6913 87.8508 73.4166C86.4167 73.3392 84.9982 72.9137 83.068 72.5499C84.9749 67.5201 86.7462 62.796 88.533 58.0911C91.7383 49.6449 96.184 41.8061 100.517 33.917C103.956 27.6542 107.411 21.4005 110.881 15.1558C111.318 14.3665 111.755 13.5746 112.191 12.7801L111.482 12.2965C110.843 13.1825 110.091 14.0105 109.587 14.9662C108.269 17.4734 107.172 20.0966 105.796 22.569C101.192 30.8411 96.3351 38.9739 91.9127 47.3312C89.2733 52.3262 87.1105 57.592 85.0253 62.8501C83.7463 66.0692 83.006 69.5011 82.0564 72.844C81.8044 73.7262 81.7696 74.5193 83.0951 74.5541C87.4555 74.6779 91.8197 74.8018 96.1801 75.0068C99.525 75.1616 102.866 75.4518 106.207 75.6568C107.657 75.7458 108.23 76.2062 108.246 77.9048C108.296 83.2906 106.009 88.1734 105.257 93.3812C105.025 95.0139 104.847 96.6506 104.564 98.9333C111.668 93.8106 118.749 92.0192 127.098 94.0892C135.544 96.1785 140.586 101.549 144.64 108.575C143.826 108.37 143.191 107.716 142.458 107.588C139.675 107.101 136.873 106.675 134.059 106.428C131.106 106.18 128.133 106.11 125.168 106.083C121.439 106.052 117.699 105.956 113.99 106.238C109.292 106.594 104.61 107.298 100.459 109.798C98.1103 111.214 95.839 112.765 93.5329 114.255L93.5794 114.209L93.5212 114.236C93.5194 114.243 93.5194 114.251 93.5212 114.259C90.5885 116.52 88.0931 119.296 86.1571 122.45C83.8858 126.094 81.5758 129.774 79.882 133.697C78.4983 136.905 77.665 140.418 78.2929 144.078C78.8316 147.216 80.1068 147.835 82.7269 146.067C83.3268 145.687 83.9494 145.345 84.5912 145.041C90.6328 142.017 97.0262 139.75 103.626 138.294C114.808 135.744 126.055 134.08 137.524 133.945C140.753 133.906 143.981 133.945 147.214 133.945C146.64 133.434 145.877 132.912 145.133 132.939C137.598 133.202 130.055 133.384 122.54 133.952C117.92 134.344 113.33 135.037 108.8 136.026C103.637 137.098 98.494 138.348 93.467 139.93C89.3585 141.211 85.4129 143.026 81.4285 144.697C79.8781 145.339 79.2425 144.743 79.4246 143.343C79.8122 140.205 79.9479 136.909 81.0603 134.011C82.6451 129.722 84.9377 125.728 87.8431 122.194C90.5562 118.948 93.0678 115.659 97.2615 114.232C97.432 114.174 97.6491 114.046 97.7072 113.899C98.3273 111.906 99.9668 111.5 101.723 110.804C105.498 109.302 109.265 108.095 113.37 108.095C114.009 108.036 114.642 107.922 115.261 107.755C116.676 107.519 118.102 107.062 119.525 107.101C123.614 107.217 127.71 107.399 131.78 107.809C135.73 108.181 139.656 108.775 143.54 109.589C144.327 109.747 145.065 110.094 145.689 110.599C146.312 111.104 146.804 111.754 147.121 112.491C149.787 118.07 150.454 123.676 149.446 129.766C148.477 135.57 146.943 141.072 143.28 145.769C139.683 150.381 135.567 154.447 130.148 156.916C128.765 157.542 127.214 158.223 125.776 158.158C124.695 158.107 124.021 157.751 123.594 159.024C123.11 160.475 124.125 160.808 125.079 161.249C129.342 163.218 133.765 162.971 138.144 161.825C143.571 160.406 148.997 159.167 154.601 158.606C159.566 158.107 164.496 156.958 169.365 155.782C174.101 154.621 178.391 155.813 182.341 158.061C187.88 161.214 193.31 164.638 197.546 169.529C201.988 174.636 203.976 180.587 202.875 187.42C202.511 189.695 202.298 191.997 202.034 194.287C201.317 200.478 200.941 206.746 199.814 212.859C198.62 219.359 196.713 225.727 195.162 232.166C195.077 232.529 195.395 232.99 195.527 233.404C195.891 233.121 196.488 232.897 196.577 232.545C197.585 228.575 198.655 224.613 199.43 220.597C200.511 214.983 201.41 209.33 202.279 203.677C202.837 200.021 203.209 196.326 203.647 192.666C203.79 191.455 203.763 190.217 203.988 189.025C205.538 180.9 203.387 173.936 197.705 167.935C193.969 164.046 189.438 161.214 185.011 158.243Z" fill="#783545"/>
<path d="M89.8538 107.945C87.5394 106.774 84.9316 106.307 82.354 106.602C77.5944 107.148 72.8735 107.871 68.6721 110.336C66.9047 111.373 65.3931 112.831 63.7265 114.042C59.5754 117.053 55.7421 120.357 53.1685 124.876C52.9295 125.263 52.6708 125.637 52.3934 125.998L52.0058 125.561C58.2072 110.812 70.6682 105.027 85.726 102.571C84.831 101.769 83.8129 101.116 82.7105 100.636C80.5827 99.8352 78.4083 99.131 76.2107 98.5429C73.4162 97.8 70.548 96.8908 67.6837 98.1134C63.9047 99.7307 60.1257 101.391 56.494 103.306C52.6257 105.321 49.5027 108.515 47.5795 112.425C46.7462 114.097 45.9633 115.795 45.1222 117.455C44.9029 117.777 44.6423 118.068 44.347 118.322C44.5486 114.708 46.002 111.624 47.6648 108.649C49.0097 106.235 50.5562 103.925 51.7926 101.456C52.2926 100.462 52.9011 98.9762 51.4864 98.1482C50.0717 97.3202 48.3547 96.6354 46.8043 97.9819C43.6377 100.748 40.3859 103.631 39.103 107.709C37.6262 112.398 36.7774 117.289 35.7193 122.098C35.1224 124.764 34.5953 127.445 34.0372 130.119C33.567 129.668 33.2396 129.089 33.0953 128.455C32.2465 125.746 31.4946 123.019 30.4791 120.384C30.2078 119.687 29.0838 118.836 28.421 118.887C27.4985 118.964 26.0528 119.66 25.8474 120.384C24.5568 124.934 24.0916 129.519 25.2273 134.282C26.2781 138.928 27.07 143.628 27.5993 148.361C28.6148 156.173 29.1109 164.023 30.231 171.785C31.3163 179.275 32.4984 186.778 34.8821 194.017C35.0604 194.566 35.5371 195.019 35.8743 195.518C36.0022 194.914 36.3433 194.264 36.227 193.707C35.1418 188.495 33.948 183.307 32.8511 178.095C32.4636 176.207 32.1922 174.288 31.9287 172.377C31.1845 166.96 30.4287 161.563 29.7659 156.146C29.3163 152.513 29.0489 148.86 28.6381 145.22C28.4404 143.459 28.1032 141.737 27.8047 139.803H30.1923C25.4986 133.74 25.6536 127.267 27.8668 120.457C28.8522 121.376 29.643 122.482 30.1923 123.711C31.076 125.986 31.8228 128.312 32.4287 130.676C33.0395 133.019 33.471 135.406 33.7193 137.814C33.8162 138.809 33.8976 139.625 34.8821 139.513C35.3472 139.459 36.1108 138.379 36.0449 137.845C35.4325 132.649 35.9945 127.549 37.134 122.504C38.2735 117.459 39.5254 112.549 40.8393 107.6C41.8471 103.785 45.44 101.979 47.8159 99.2161C48.1725 98.7982 49.533 99.0265 50.312 99.2973C50.5678 99.3863 50.6105 100.593 50.4554 101.232C50.2049 101.962 49.8455 102.651 49.3895 103.275C46.3431 108.13 43.3587 113.013 42.254 118.751C41.8471 120.891 41.2657 123.007 40.9479 125.147C40.851 125.812 41.3665 126.567 41.599 127.283C42.0331 126.679 42.506 126.095 42.8897 125.46C43.0796 125.143 43.0564 124.706 43.2191 124.365C44.8315 121.084 46.4478 117.807 48.095 114.545C48.7209 113.209 49.437 111.916 50.2384 110.676C53.2693 106.308 57.8661 103.94 62.4203 101.611C64.0947 100.756 66.2962 100.814 67.8233 99.8158C68.4561 99.3895 69.1715 99.1003 69.9232 98.967C70.6749 98.8337 71.4463 98.8593 72.1875 99.042C74.9743 99.6224 77.7223 100.416 80.4742 101.147C81.0503 101.358 81.6111 101.609 82.1524 101.897C81.2299 102.226 80.7106 102.424 80.1835 102.598C76.6448 103.758 72.9511 104.606 69.5945 106.161C59.025 111.059 51.1686 118.314 49.8275 130.68C49.7655 131.244 50.1609 131.864 50.343 132.456C50.7306 132.038 51.2694 131.682 51.5058 131.198C53.5561 126.83 55.7925 122.551 59.3932 119.254C62.1045 116.784 64.9721 114.49 67.9783 112.387C69.7361 111.211 71.6569 110.298 73.6797 109.678C75.4743 109.086 77.4316 108.989 79.3153 108.653C80.8656 108.37 82.416 107.879 84.0051 107.798C87.2298 107.643 89.9739 108.773 91.815 111.547C92.1057 111.988 92.2026 113.133 92.0592 113.199C89.9119 114.147 87.7686 115.431 85.5051 115.733C78.7533 116.639 72.8697 119.037 68.8116 124.663C66.2303 128.238 64.0443 132.103 61.7381 135.884C59.6451 139.312 61.0056 145.792 64.2536 148.18C65.9357 149.414 68.2263 149.066 69.1101 147.382C68.3891 147.479 67.6721 147.769 67.0365 147.63C64.9357 147.212 61.9164 143.792 62.2846 141.563C62.7628 138.523 63.6874 135.57 65.0287 132.8C66.1062 130.645 68.1295 128.966 69.7302 127.066C69.8528 126.936 69.9268 126.768 69.9395 126.59C69.8271 124.818 70.3271 123.68 72.4317 123.839C72.8619 123.87 73.3464 123.417 73.7766 123.143C75.0169 122.349 76.1835 121.432 77.4781 120.751C80.6408 119.088 83.6795 116.917 87.5903 117.695C87.85 117.749 88.3654 117.567 88.4313 117.382C89.2724 114.894 91.7646 115.192 93.5436 114.286C94.0242 112.108 92.2452 109.125 89.8538 107.945Z" fill="#783545"/>
<path d="M102.459 152.695C102.039 152.128 101.501 151.66 100.882 151.321C94.932 148.764 88.7694 147.665 82.2773 148.462C77.8084 149.007 73.4364 150.783 68.8124 149.669C68.7155 149.646 68.5489 149.894 68.2466 150.176C70.0333 151.615 71.9558 151.499 73.917 151.135C81.723 149.692 89.4632 148.296 97.3196 151.302C101.389 152.85 102.412 153.565 102.819 157.879C103.068 160.506 101.68 161.892 99.1529 161.133C92.7422 159.199 86.5911 160.081 80.3936 162.162C74.8549 164.02 70.3473 167.304 66.2466 171.301C63.204 174.273 61.2273 177.96 59.3359 181.682C58.5937 183.052 58.1226 184.552 57.9483 186.101C57.7041 189.289 57.7429 192.5 57.7855 195.704C57.7855 196.953 57.3166 197.433 56.1422 197.53C54.3399 197.677 52.5492 198.041 50.7469 198.064C45.9912 198.13 41.2355 198.064 36.4798 198.044C35.6387 198.044 34.6116 196.884 34.0496 198.404C33.724 199.29 33.2744 200.261 33.3675 201.147C33.5651 203.043 34.1426 204.904 34.4566 206.792C35.9372 215.27 37.4255 223.747 38.8441 232.236C40.2222 240.55 42.1896 248.756 44.7316 256.793C44.8788 257.257 45.406 257.601 45.7548 258L46.1734 257.613C46.0183 256.932 45.8788 256.243 45.7083 255.566C43.9874 248.776 41.9487 242.052 40.6076 235.188C38.6697 225.279 37.2589 215.266 35.6038 205.303C35.3868 203.983 35.0263 202.641 37.6077 202.981L35.3752 199.956C38.0883 199.813 40.5146 199.658 42.9564 199.569C46.8323 199.414 50.7082 199.387 54.5414 199.139C57.615 198.942 57.4135 198.88 58.1576 201.813C60.1266 209.605 61.956 217.456 64.4521 225.082C66.7039 231.961 69.731 238.585 72.4984 245.29C73.0604 246.656 73.9984 247.867 74.7619 249.159L75.3045 248.807C74.8239 247.646 74.3549 246.458 73.855 245.294C71.5566 239.927 68.9403 234.669 67.0218 229.171C64.673 222.451 62.7195 215.571 60.9676 208.665C60.0762 205.148 58.2545 201.581 59.894 197.758C59.9289 197.569 59.9197 197.374 59.8669 197.189C59.6537 195.336 59.2351 193.475 59.2971 191.633C59.3475 190.244 60.0142 188.875 60.5297 187.068C60.4521 186.395 60.0568 185.273 60.2622 184.278C60.5374 182.943 61.3242 181.721 61.8126 180.409C64.4211 173.286 70.045 168.991 76.2968 165.494C80.6165 163.091 85.6085 162.175 90.5019 162.886C92.6104 163.165 94.7654 163.579 96.8545 163.47C98.7614 163.37 100.978 163.122 102.451 162.085C104.68 160.51 104.436 155.001 102.459 152.695Z" fill="#783545"/>
<path d="M4.26329 109.458C1.86808 113.578 0.627836 118.07 0.112361 122.786C-0.244208 126.079 0.201504 129.201 2.05024 132.01C2.77113 133.101 3.32536 134.451 5.53841 134.749C1.57739 130.416 0.705351 125.777 1.75956 120.732C2.76338 115.915 3.82146 111.09 8.34833 107.894C6.69339 106.676 5.68957 107.032 4.26329 109.458Z" fill="#783545"/>
<path d="M120.455 47.5054C122.703 49.4631 126.125 48.1128 126.656 45.1608C127.171 42.2938 124.389 39.276 121.23 39.2567C117.47 39.2335 116.191 41.1525 117.982 44.3754C118.623 45.551 119.459 46.6094 120.455 47.5054ZM119.68 43.6364C119.866 42.5337 120.784 40.959 121.691 40.6998C123.389 40.2123 125.567 42.7117 125.59 44.6771C125.613 46.0235 124.288 47.2887 122.823 47.3119C121.199 47.339 119.354 45.4742 119.664 43.6402L119.68 43.6364Z" fill="#783545"/>
<path d="M16.2084 108.119C14.5014 111.428 12.9911 114.835 11.6854 118.321C11.135 119.768 11.1466 121.463 11.0924 123.049C11.0536 124.21 11.8094 124.725 12.6931 124.597C12.6931 122.871 12.4799 121.463 12.7434 120.151C13.0841 118.317 13.6544 116.532 14.441 114.839C15.8905 111.833 16.7161 108.332 20.398 106.935C18.84 105.65 17.3672 105.91 16.2084 108.119Z" fill="#783545"/>
<path d="M108.691 168.689C110.102 166.972 111.722 165.041 111.017 162.499C109.645 164.7 108.629 167.161 106.881 168.879C105.133 170.597 102.711 171.463 100.126 172.984C104.261 173.332 106.664 171.166 108.691 168.689Z" fill="#783545"/>
<path d="M106.637 173.58C107.839 175.197 109.478 175.127 110.808 174.458C114.412 172.663 116.916 169.815 117.85 165.765C114.842 169.363 112.916 174.45 106.637 173.58Z" fill="#783545"/>
<path d="M103.005 105.02C104.691 104.366 106.47 103.944 108.362 103.368H97.6917C99.4047 105.078 100.936 105.824 103.005 105.02Z" fill="#783545"/>
<path d="M112.85 141.552C112.73 141.579 112.583 142.414 112.753 142.681C112.888 142.833 113.058 142.949 113.25 143.016C113.441 143.084 113.646 143.102 113.846 143.068C115.943 142.264 118.005 141.37 120.66 140.263C117.583 139.923 115.261 141.064 112.85 141.552Z" fill="#783545"/>
<path d="M114.684 144.84C114.757 145.138 114.835 145.44 114.908 145.742L120.513 144.31C120.451 144.04 120.389 143.769 120.331 143.502L114.684 144.84Z" fill="#783545"/>
<path d="M121.517 102.099H127.598C125.191 101.174 122.745 101.216 121.517 102.099Z" fill="#783545"/>
<path d="M125.927 140.933L131.59 139.915C130.66 139.463 129.61 139.318 128.592 139.501C127.574 139.684 126.641 140.185 125.927 140.933Z" fill="#783545"/>
</svg>
