<svg width="276" height="256" viewBox="0 0 276 256" fill="none" xmlns="http://www.w3.org/2000/svg">
<path d="M267.456 232.158C266.435 232.351 265.481 232.968 264.46 233.094C260.648 233.568 256.82 233.921 252.994 234.292C252.308 234.332 251.62 234.282 250.947 234.141C246.401 233.34 241.871 232.489 237.319 231.71C236.518 231.569 235.669 231.665 234.86 231.624C231.469 231.459 228.116 231.214 225.052 229.449C223.198 228.381 221.179 227.596 219.276 226.583C217.711 225.757 216.14 224.895 215.7 222.871C215.593 222.389 214.545 221.621 214.325 221.737C212.642 222.615 211.132 221.599 209.704 221.236C207.746 220.74 205.953 219.584 204.102 218.683C201.161 217.257 200.925 216.756 201.533 213.49C201.59 213.174 201.687 212.865 201.72 212.546C202.041 209.553 202.099 206.64 199.349 204.561C199.128 204.396 198.977 204.155 198.925 203.884C198.788 202.449 198.579 201.004 198.62 199.569C198.757 194.85 199.019 190.136 199.17 185.419C199.319 181.031 199.387 176.636 199.506 172.247C199.525 171.523 199.638 170.804 199.673 170.08C199.819 167.255 199.948 164.425 200.086 161.6C200.278 157.872 200.465 154.141 200.694 150.415C200.837 148.092 200.919 145.751 201.263 143.455C201.634 140.977 202.303 138.554 202.801 136.098C203.584 132.213 204.289 128.308 205.114 124.432C205.9 120.726 206.83 117.05 207.589 113.338C207.707 112.768 207.512 111.791 207.113 111.521C205.875 110.679 204.532 110.002 203.12 109.505C202.674 109.351 201.568 109.899 201.398 110.359C200.465 112.881 199.698 115.464 198.939 118.047C198.463 119.671 198.1 121.329 197.696 122.975C196.186 129.107 194.651 135.233 193.185 141.376C192.739 143.246 192.563 145.181 192.085 147.045C191.956 147.568 191.26 148.009 190.743 148.326C190.635 148.389 189.975 147.775 189.763 147.362C188.388 144.73 187.013 142.092 185.715 139.416C183.44 134.71 180.181 130.704 176.724 126.871C172.499 122.19 168.043 117.716 163.824 113.03C160.185 108.988 156.673 104.825 153.229 100.626C150.963 97.8724 148.864 94.9758 146.763 92.0902C146.64 91.8606 146.573 91.6047 146.569 91.344C146.566 91.0833 146.624 90.8256 146.741 90.5924C148.941 87.4452 151.342 84.4275 153.466 81.2308C155.281 78.4995 157.066 75.724 157.894 72.453C159.048 67.8803 159.582 63.1728 159.481 58.4575C159.426 55.4645 159.374 52.5101 158.57 49.6191C158.417 48.9971 158.136 48.4139 157.745 47.9064C155.163 44.8364 152.632 41.7471 149.004 39.7289C146.254 38.2035 146.342 38.0162 147.233 34.9875C147.405 34.4671 147.651 33.9739 147.962 33.5227C148.102 33.3024 148.41 33.1895 148.817 32.9087C148.817 33.5888 148.685 34.0899 148.848 34.4644C149.095 35.0343 149.521 35.9402 149.909 35.9595C151.364 36.0338 151.417 36.9947 151.543 37.997C151.562 38.4995 151.629 38.9991 151.741 39.4893C151.868 39.8693 152.2 40.1804 152.442 40.5218C152.676 40.1942 153.103 39.872 153.114 39.5389C153.155 38.1622 153.094 36.7855 153.02 35.4225C152.921 33.5943 152.341 33.2033 150.644 33.7457C150.176 31.923 149.205 31.3916 148.017 32.347C147.635 32.6526 147.384 33.1179 147.063 33.5034C146.854 33.754 146.625 33.988 146.254 34.3955C146.27 34.1248 146.255 33.8531 146.207 33.586C146.004 33.0766 145.762 32.5838 145.536 32.0827C145.143 32.4296 144.711 32.749 144.364 33.129C143.902 33.6191 143.487 34.156 143.052 34.6709L142.75 34.4946C142.83 34.1119 143.003 33.7182 142.967 33.3465C142.881 32.8918 142.747 32.4478 142.566 32.0221C142.178 32.3663 141.606 32.6389 141.443 33.0656C141.168 33.7788 141.223 34.6048 141.025 35.3509C140.957 35.6125 140.558 35.7832 140.31 35.998C140.159 35.7089 139.878 35.4198 139.884 35.1334C139.898 34.5827 140.159 34.0569 140.159 33.5172C140.159 33.1592 139.988 32.6278 139.727 32.4874C139.466 32.347 138.74 32.4324 138.627 32.6416C138.239 33.3713 138.027 34.1973 137.673 35.205C137.378 35.205 136.699 35.172 136.022 35.205C132.818 35.3895 130.087 36.9755 127.281 38.2833C125.936 38.9083 124.553 39.66 124.358 41.4607C124.327 41.7361 123.873 41.9784 123.618 42.2344C120.21 45.6184 116.78 48.9803 113.405 52.3972C111.249 54.5779 109.194 56.8577 107.063 59.0632C105.962 60.1921 104.84 59.9636 104.392 58.5125C104.084 57.5103 103.751 56.4502 103.776 55.4232C103.891 50.9049 103.938 46.3673 104.375 41.8737C104.922 36.2973 106.493 30.8701 109.01 25.8655C109.222 25.4116 109.534 25.0117 109.922 24.6955C110.31 24.3794 110.765 24.1553 111.252 24.04C112.165 23.7729 112.999 23.285 113.68 22.6192C115.894 20.3752 116.896 17.531 117.171 14.4471C117.242 13.6376 116.896 12.7951 116.662 11.6029C115.185 13.5991 114.736 15.9202 112.261 16.2837L115.336 9.40017C113.105 6.49258 110.006 5.48484 107.186 4.04756C106.061 3.4721 105.324 3.89062 104.673 4.90387C103.179 7.22774 101.578 9.52132 100.043 11.8479C98.6353 13.9846 97.073 16.0579 96.6439 18.6791C96.5284 19.384 96.3166 20.2045 96.5642 20.7992C96.7732 21.3031 97.5818 21.5564 97.9394 21.7932C97.128 22.7046 96.2726 23.649 95.4392 24.6099C95.1612 24.8888 94.9382 25.2176 94.7819 25.5791C93.4617 29.5137 92.1854 33.4649 90.8707 37.3995C90.1308 39.6022 89.1214 41.7581 88.6236 44.0076C87.7379 48.0276 87.0889 52.0999 86.448 56.1666C85.4431 62.4599 84.983 68.8283 85.0728 75.2009C85.1938 83.0894 86.9458 90.5621 91.11 97.3299C92.1387 99.0013 92.9583 101.163 95.7198 101.011C94.3666 107.922 92.7603 114.61 91.8169 121.386C90.8735 128.163 90.5984 135.057 90.0263 141.899C89.8297 141.775 89.6503 141.625 89.4927 141.453C87.5729 138.896 85.6623 136.331 83.7608 133.757C83.329 133.171 83.0622 132.436 82.5533 131.937C78.5843 128.011 75.3147 123.434 72.8855 118.404C70.6851 113.908 68.0144 109.717 65.3712 105.499C65.0962 105.081 64.3205 104.577 64.0125 104.701C63.5614 104.88 63.2121 105.554 63.0168 106.077C62.7253 106.881 62.7418 107.807 62.3897 108.578C60.7119 112.339 58.7041 115.973 57.3014 119.828C55.5961 124.509 54.3914 129.371 52.9502 134.146C52.4001 135.988 51.8252 137.827 51.2036 139.652C49.0473 145.985 46.7561 152.268 44.7345 158.651C43.6344 162.131 42.9715 165.755 42.1134 169.312C41.588 171.493 40.8316 173.649 40.5979 175.857C40.3046 179.017 39.1884 182.044 37.3606 184.637C36.2604 186.21 36.4062 186.62 38.3287 186.862C38.3287 187.077 38.3425 187.3 38.3287 187.52C37.9024 193.459 37.4871 199.401 37.0415 205.337C36.8462 207.906 37.2395 210.588 35.5783 212.893C35.273 213.317 35.1822 213.909 35.0447 214.44C34.5441 216.368 34.7256 216.626 36.8105 216.643C37.0085 219.763 37.2175 222.901 37.3606 226.043C37.3606 226.161 36.728 226.489 36.4969 226.409C35.9468 226.219 35.4765 225.798 34.9374 225.55C32.3492 224.374 30.4377 224.928 30.2864 227.91C30.1967 229.411 30.2909 230.917 30.5669 232.395C30.9327 234.226 31.5543 236.013 32.1319 237.8C33.3009 241.429 34.6624 244.978 36.8545 248.142C37.1295 248.538 37.5228 249.059 37.9162 249.114C38.3865 249.177 38.9861 248.885 39.3821 248.563C39.5142 248.456 39.2859 247.701 39.0438 247.379C38.3122 246.402 37.3936 245.551 36.7252 244.54C34.1755 240.743 33.1276 236.346 31.9532 232.021C31.6149 230.773 31.6231 229.391 31.7221 228.092C31.7579 227.615 32.4785 226.872 32.9626 226.809C34.7531 226.572 37.3303 228.893 37.5531 230.732C37.6341 231.692 37.7839 232.644 38.0014 233.582C38.1726 234.124 38.4999 234.602 38.9421 234.959C39.0989 235.088 39.8965 234.821 39.9652 234.601C40.1047 234.054 40.1132 233.482 39.99 232.932C39.8244 232.277 39.6178 231.633 39.3711 231.005L39.88 230.666C40.7051 231.459 41.5028 232.282 42.3554 233.034C42.6717 233.309 43.1805 233.607 43.5161 233.543C43.7664 233.497 44.0662 232.863 44.0662 232.489C44.0477 231.759 43.9621 231.033 43.8104 230.319C43.4638 228.246 43.0595 226.189 42.7625 224.102C42.702 223.672 42.9137 222.863 43.153 222.797C43.7073 222.66 44.2932 222.744 44.7868 223.031C45.9044 223.746 46.937 224.587 47.8646 225.536C49.6139 227.445 51.2229 229.482 52.8896 231.464C53.4012 232.073 53.5223 233.441 54.6252 232.874C54.9965 232.681 54.7462 231.263 54.7627 230.396C54.7627 230.272 54.6389 230.154 54.5922 230.024C54.1026 228.648 53.492 227.288 53.1564 225.87C52.4853 223.086 52.1993 220.363 53.5195 217.557C54.881 214.666 57.3014 212.799 59.3312 210.55C60.2499 209.534 60.8495 209.707 61.1988 211.062C61.5646 212.477 61.7489 213.947 62.1147 215.36C62.4474 216.425 62.8423 217.469 63.2974 218.488C63.445 218.792 63.6161 219.085 63.809 219.363C63.9767 219.036 64.326 218.686 64.2848 218.389C64.106 217.078 63.8145 215.784 63.5587 214.484C63.2369 212.863 62.9123 211.238 62.5245 209.305C63.2974 209.545 63.6934 209.58 63.9492 209.765C65.4152 210.913 67.0793 211.91 68.2482 213.317C71.438 217.098 74.1477 221.259 76.3153 225.707C77.0497 227.235 77.652 228.829 78.4249 230.336C78.6229 230.721 79.25 230.886 79.6709 231.162C79.8386 230.795 80.1467 230.426 80.1494 230.06C80.1494 228.876 80.0312 227.692 79.9734 226.508C79.8799 224.598 79.6654 222.681 79.7451 220.779C79.8331 218.694 81.0048 217.607 82.8861 216.949C85.4853 216.037 88.2578 217.356 90.0043 219.829C91.6654 222.234 93.1535 224.754 94.4573 227.37C96.3029 231.018 97.9532 234.813 99.7355 238.521C100.599 240.308 102.068 241 104.095 241C105.744 241.022 107.381 241.284 108.955 241.779C111.705 242.605 114.406 243.651 117.116 244.634C122.3 246.517 127.449 248.489 132.667 250.284C136.077 251.454 139.543 252.487 143.055 253.332C145.619 253.94 148.325 253.943 150.897 254.524C154.943 255.444 158.961 256.102 163.098 255.284C163.281 255.263 163.465 255.263 163.648 255.284C165.471 255.339 167.298 255.4 169.124 255.447C170.447 255.482 171.407 254.979 171.874 253.654C172.342 252.33 172.892 251.104 173.393 249.827C173.943 248.425 174.32 246.933 175.043 245.636C175.849 244.207 176.886 244.144 178.291 245.039C179.832 246.022 181.435 246.908 182.937 247.944C185.035 249.389 187.062 250.948 189.134 252.426C189.638 252.731 190.165 252.998 190.71 253.225C190.822 252.587 190.898 251.943 190.938 251.297C190.938 251.022 190.663 250.73 190.55 250.43C189.981 248.836 189.367 247.252 188.9 245.631C188.76 245.138 189.021 244.529 189.101 243.979C189.684 244.111 190.382 244.078 190.833 244.397C192.759 245.774 194.629 247.236 196.513 248.676C197.091 249.117 197.63 249.618 198.227 250.028C198.606 250.287 199.087 250.617 199.475 250.565C199.723 250.529 200.069 249.854 200.058 249.463C200.003 247.572 200.884 246.159 202.083 244.807C203.07 243.706 204.055 243.334 205.345 244.042C207.63 245.295 210.021 246.437 212.075 248.021C216.132 251.154 220.643 253.445 225.167 255.747C225.446 255.858 225.734 255.943 226.028 256C226.644 255.174 226.537 254.59 225.684 254.161C225.112 253.885 224.546 253.577 223.968 253.304C222.521 252.624 220.989 252.087 219.636 251.256C214.85 248.315 210.128 245.265 205.37 242.274C203.827 241.305 202.894 241.407 201.775 242.803C200.716 244.108 199.833 245.556 198.79 246.878C198.499 247.247 197.822 247.676 197.489 247.566C196.833 247.303 196.258 246.872 195.82 246.316C195.71 246.187 196.133 245.471 196.436 245.141C197.734 243.725 198.669 242.153 198.884 240.201C199.005 239.1 199.142 238.02 199.33 236.938C199.563 235.614 200.058 235.347 201.31 235.837C202.154 236.17 202.96 236.58 203.818 236.911C206.112 237.811 208.436 238.637 210.714 239.582C213.035 240.542 215.224 242.06 217.631 242.533C221.941 243.398 226.113 244.695 230.349 245.785C233.463 246.586 236.733 246.856 239.954 247.134C242.82 247.382 245.713 247.313 248.596 247.393C249.74 247.423 250.892 247.572 252.02 247.459C252.408 247.418 252.727 246.735 253.079 246.358C252.628 246.082 252.18 245.565 251.723 245.554C250.408 245.526 249.091 245.763 247.773 245.779C246.219 245.801 244.654 245.57 243.098 245.68C236.741 246.126 230.72 244.769 224.865 242.459C224.119 242.164 223.247 242.208 222.45 242.027C220.318 241.539 218.156 241.14 216.085 240.465C214.135 239.829 212.292 238.877 210.397 238.078C207.493 236.853 204.58 235.65 201.678 234.416C200.504 233.918 200.091 233.13 200.122 231.729C200.201 228.306 201.401 224.975 200.881 221.514C200.829 221.175 200.999 220.798 201.087 220.445C201.497 218.793 201.728 218.636 203.326 219.344C205.576 220.355 207.784 221.461 210.01 222.53C211.366 223.18 212.9 223.606 214.042 224.523C217.208 227.07 220.725 228.97 224.301 230.823C226.776 232.112 229.398 232.75 232.148 233.045C236.681 233.549 241.277 233.827 245.708 234.807C249.649 235.68 253.483 236.286 257.488 235.633C259.474 235.314 261.482 235.113 263.489 234.934C264.023 234.887 264.59 235.124 265.14 235.231C265.008 235.837 265.06 236.589 264.713 237.026C262.414 239.919 260.061 242.77 257.653 245.578C256.979 246.366 256.06 246.939 255.263 247.619C254.958 247.854 254.681 248.124 254.438 248.423C254.402 248.472 254.757 248.973 254.916 248.973C255.329 248.954 255.851 248.888 256.126 248.629C257.719 247.115 259.339 245.617 260.783 243.965C262.708 241.762 264.433 239.4 266.328 237.175C267.12 236.244 268.253 235.586 268.982 234.62C269.395 234.069 269.301 233.152 269.436 232.401C268.787 232.302 268.085 232.04 267.456 232.158ZM199.569 155.515C199.186 164.942 198.801 174.368 198.414 183.792C198.174 189.555 197.946 195.318 197.657 201.075C197.575 202.711 197.016 202.953 195.528 202.221C193.229 201.089 192.69 199.933 193.529 197.54C193.697 197.061 194.354 196.752 194.877 196.29C193.79 195.464 193.991 194.208 194.117 192.925C194.588 188.192 195.055 183.456 195.462 178.715C195.669 176.317 195.762 173.91 195.878 171.504C195.968 169.653 196.208 167.869 197.69 166.449C195.407 166.388 195.636 168.599 194.665 169.739C193.512 169.417 192.904 168.896 193.372 167.577C193.922 166.049 194.326 164.474 194.844 162.764L195.944 163.794C196.653 163.307 194.998 160.983 197.566 162.142C196.84 159.113 198.447 156.77 198.92 154.157L199.566 154.251C199.572 154.664 199.588 155.091 199.569 155.515ZM189.942 202.025C189.667 202.625 189.145 203.127 188.729 203.65C188.418 203.138 188.153 202.598 187.937 202.039C187.703 201.362 187.595 200.648 187.618 199.933C187.67 199.28 188.044 198.652 188.328 197.873C186.482 198.424 186.364 198.377 186.532 196.675C186.977 192.215 187.514 187.763 187.967 183.302C188.116 181.848 188.099 180.378 188.209 178.919C188.341 177.148 188.484 175.378 188.738 173.621C188.773 173.36 189.395 172.977 189.714 173.004C189.938 173.043 190.151 173.126 190.343 173.248C190.535 173.37 190.7 173.528 190.831 173.715C191.031 174.012 190.935 174.51 190.976 174.918C191.65 181.562 191.309 188.178 190.484 194.786C190.245 196.689 190.182 198.616 190.047 200.53C190.014 201.034 190.148 201.604 189.953 202.025H189.942ZM183.341 226.905C183.341 226.679 183.814 226.467 184.07 226.247C184.271 226.522 184.659 226.797 184.642 227.073C184.549 228.45 184.367 229.826 184.194 231.203L183.385 231.164C183.377 229.741 183.316 228.32 183.358 226.905H183.341ZM183.303 202.4C183.286 202.124 183.402 201.574 183.501 201.574C184.386 201.474 185.31 201.337 186.163 201.505C186.51 201.571 186.713 202.367 186.785 202.485C186.82 204.203 186.537 204.434 185.365 204.027C184.518 203.705 183.396 203.683 183.319 202.383L183.303 202.4ZM184.868 239.166C185.247 239.196 185.594 239.642 185.954 239.904C185.902 240.047 185.852 240.193 185.8 240.336L183.844 240.201C183.809 240.055 183.77 239.906 183.734 239.758C184.103 239.554 184.496 239.138 184.868 239.166ZM185.255 234.4C185.104 233.948 185.222 233.406 185.222 232.902H185.184C185.291 231.445 185.321 229.975 185.55 228.54C185.629 228.05 186.213 227.643 186.567 227.197C187.043 227.67 187.943 228.147 187.926 228.617C187.903 230.666 187.735 232.711 187.423 234.736C187.36 235.162 186.598 235.487 186.158 235.859C185.836 235.374 185.418 234.926 185.244 234.4H185.255ZM185.316 222.874C185.242 223.548 185.385 224.598 184.32 224.507C183.256 224.416 183.649 223.425 183.641 222.739V222.188H183.971C183.971 218.576 183.943 214.963 184.007 211.351C184.007 210.954 184.538 210.566 184.832 210.172C185.346 210.668 186.207 211.106 186.301 211.673C186.477 212.725 186.221 213.851 186.119 214.944C185.847 217.59 185.596 220.233 185.305 222.874H185.316ZM185.525 208.917C184.108 208.865 184.425 207.645 184.408 206.714C184.408 206.491 184.373 206.164 184.499 206.059C184.983 205.66 185.528 205.335 186.05 204.982L186.908 206.764C186.518 207.719 186.925 208.969 185.514 208.917H185.525ZM192.233 180.907C192.39 178.09 192.126 175.251 192.099 172.421C192.099 172.079 192.374 171.732 192.503 171.388C192.778 171.683 193.306 171.958 193.328 172.277C193.455 173.734 193.455 175.204 193.479 176.683C193.496 177.737 193.479 178.792 193.479 179.844L193.807 179.866C193.348 185.988 192.89 192.107 192.431 198.223C192.445 198.452 192.396 198.682 192.291 198.886C191.987 199.236 191.663 199.566 191.32 199.878C191.185 199.451 190.91 199.013 190.941 198.6C191.359 192.68 191.906 186.793 192.233 180.907ZM194.8 159.119C194.093 158.458 193.62 157.803 194.8 157.087V159.119ZM197.627 153.72L196.873 153.524L199.899 141.932L200.397 142.059C199.299 145.892 199.107 149.956 197.627 153.709V153.72ZM203.447 111.273C204.272 111.549 205.565 112.127 205.647 112.724C205.854 114.239 205.548 115.838 205.32 117.386C205.29 117.592 204.495 117.846 204.088 117.804C203.334 117.727 203.054 117.895 202.913 118.691C201.513 126.623 200.127 134.561 198.595 142.469C198.004 145.52 197.063 148.505 196.266 151.514C196.131 151.935 195.974 152.349 195.795 152.753L195.223 152.632C195.512 150.672 195.71 148.692 196.109 146.753C197.525 139.892 198.999 133.039 200.468 126.188C201.095 123.223 201.78 120.277 202.471 117.331C202.545 117.018 202.693 116.729 202.902 116.485C204.22 114.99 204.025 113.558 202.077 112.474C202.572 112.003 203.166 111.169 203.447 111.262V111.273ZM194.219 146.305C194.769 143.705 195.407 141.131 195.968 138.535C197.517 131.376 199.03 124.217 200.592 117.072C200.815 116.056 201.225 115.078 201.549 114.084L201.967 114.137L194.585 149.044L194.013 148.981C194.076 148.089 194.04 147.175 194.219 146.305ZM192.569 151.36C192.759 152.849 194.26 153.821 193.028 155.215C191.78 154.361 191.59 153.238 192.585 151.36H192.569ZM190.118 155.063C190.245 156.966 190.099 156.952 191.972 157.428C192.13 157.504 192.27 157.61 192.386 157.741C192.501 157.872 192.589 158.025 192.643 158.191C193.571 160.751 193.56 163.557 192.613 166.11C192.451 166.572 191.807 166.886 191.342 167.211C191.271 167.258 190.765 166.917 190.776 166.779C190.808 166.071 190.928 165.37 191.133 164.692C191.24 164.381 191.683 164.185 191.98 163.94L191.824 163.618C191.158 163.701 190.501 163.84 189.86 164.034C189.557 164.149 189.145 164.629 189.183 164.885C189.362 166.069 188.848 167.536 190.426 168.235C190.586 168.326 190.725 168.449 190.834 168.596C190.943 168.744 191.02 168.913 191.059 169.092C191.125 169.461 190.938 169.876 190.858 170.273C190.536 170.13 190.203 169.998 189.898 169.835C189.761 169.753 189.681 169.56 189.475 169.285C189.01 169.634 188.605 169.978 188.163 170.254C187.846 170.493 187.474 170.651 187.082 170.714C186.427 170.733 184.417 168.142 184.554 167.451C184.791 166.25 185.165 165.075 185.379 163.871C185.459 163.423 185.272 162.924 185.209 162.448C184.788 162.775 184.166 163.021 183.996 163.447C183.679 164.24 183.696 165.157 183.446 165.983C183.195 166.809 182.739 168.186 182.51 168.164C181.502 168.019 180.541 167.642 179.702 167.062C179.262 166.762 179.006 165.961 178.946 165.375C178.803 163.924 178.789 162.459 178.778 161C178.762 158.926 180.225 157.624 181.581 156.489C183.245 155.113 185.198 154.05 187.082 152.927C187.58 152.629 188.597 152.315 188.771 152.522C189.4 153.243 190.077 154.171 190.135 155.063H190.118ZM111.705 55.9023C114.351 53.1159 116.956 50.2771 119.77 47.6724C121.695 45.891 123.928 44.4454 126.063 42.9008C127.053 42.1849 127.097 41.3974 126.319 40.2382C127.507 39.5581 128.579 38.7431 129.784 38.3109C131.866 37.5164 134.009 36.8948 136.193 36.4523C137.862 36.1412 138.008 36.5156 137.645 38.1567C137.374 39.3168 137.185 40.4944 137.078 41.681C137.048 42.0362 137.455 42.6998 137.73 42.7383C138.077 42.7879 138.729 42.4217 138.83 42.094C139.284 40.7614 139.568 39.3682 139.944 38.008C140.059 37.7504 140.209 37.5103 140.39 37.2948C140.575 37.5481 140.742 37.814 140.891 38.0906C141.1 38.5449 141.265 39.0212 141.441 39.4866C141.93 39.2663 142.406 39.0102 142.912 38.8368C143.286 38.7073 143.79 38.5008 144.078 38.644C147.846 40.5191 151.626 42.3694 154.118 46.0259C155.286 47.744 157.11 49.0546 157.311 51.3454C157.421 52.579 157.674 53.8042 157.704 55.0377C157.85 60.7125 157.704 66.3817 156.367 71.9326C155.943 73.5696 155.295 75.1401 154.442 76.5996C151.873 81.1455 149.329 85.7932 145.506 89.3864C142.293 92.4151 138.841 95.3558 134.49 96.6746C132.447 97.2942 130.315 97.9302 128.057 97.3217C126.382 96.8729 124.619 96.771 122.927 96.3607C121.021 95.9119 119.352 95.0667 118.612 93.0346C118.528 92.8231 118.371 92.649 118.169 92.5445C115.419 91.267 114.406 88.5081 112.962 86.1842C112.489 85.4215 112.814 84.1329 112.855 83.0866C113.012 79.0749 114.294 75.4046 116.244 71.85C116.992 72.5246 117.679 73.1083 118.329 73.7333C121.112 76.4096 124.726 76.6271 128.211 76.7042C131 76.7703 133.36 75.2587 135.233 73.1248C135.915 72.3539 136.834 71.7068 136.306 70.1346C135.733 70.3687 134.966 70.4348 134.642 70.8505C132.185 73.9811 128.723 73.9426 125.356 73.6342C123.406 73.458 121.486 72.5741 119.635 71.8114C118.051 71.1617 117.509 69.1269 118.351 67.6043C118.879 66.6461 119.547 65.7622 120.034 64.7848C120.309 64.2534 120.309 63.5953 120.435 62.9951C119.926 62.8864 119.411 62.8046 118.892 62.75C115.204 62.5518 111.513 62.3838 107.825 62.1773C107.489 62.158 107.164 61.9405 106.474 61.6762C108.358 59.6084 109.992 57.7168 111.705 55.9023ZM124.198 108.591C125.548 109.442 126.948 110.243 128.343 110.987C129.944 111.843 129.993 112.421 128.442 113.465C126.811 114.566 125.169 115.64 123.491 116.662C121.932 117.611 120.32 118.471 118.736 119.379C117.91 119.85 117.374 119.547 117.528 118.696C117.943 116.375 118.169 113.927 119.11 111.813C120.666 108.319 122.718 105.042 124.578 101.683C124.77 101.333 125.194 101.08 125.304 100.717C125.457 100.207 125.489 99.6686 125.397 99.1444C125.367 98.9765 124.701 98.7314 124.479 98.8388C124.051 99.042 123.701 99.3794 123.483 99.7997C122.545 101.815 121.687 103.864 120.785 105.896C120.652 106.121 120.494 106.331 120.314 106.521L119.971 106.397C120.27 105.216 120.581 104.04 120.859 102.853C120.939 102.523 121.062 101.956 120.919 101.859C119.25 100.714 120.51 99.3812 120.713 98.1835C120.875 97.2226 121.794 97.6493 122.44 97.7622C124.69 98.1587 126.94 98.8884 129.185 98.8636C131.338 98.8443 132.76 99.1389 133.418 101.422C133.654 102.248 134.405 102.947 134.966 103.671C135.527 104.395 135.324 104.894 134.526 105.108C132.103 105.755 129.674 106.394 127.226 106.934C126.508 107.091 125.705 106.818 124.957 106.904C124.49 106.959 124.055 107.311 123.604 107.529C123.807 107.903 123.906 108.407 124.206 108.597L124.198 108.591ZM118.928 99.194C118.771 99.6098 118.411 99.9512 118.142 100.323C117.866 99.8631 117.341 99.3867 117.369 98.9462C117.435 97.9274 117.767 96.9224 118.031 95.7495C119.088 96.1019 119.594 96.5562 119.247 97.6025C119.085 98.1174 119.132 98.7011 118.936 99.1995L118.928 99.194ZM118.964 104.976C118.781 105.934 118.597 106.892 118.414 107.848L117.864 107.743C118.062 106.787 118.259 105.832 118.455 104.877L118.964 104.976ZM116.543 101.815C116.572 101.943 116.57 102.076 116.539 102.204C116.508 102.331 116.448 102.45 116.365 102.55C115.353 103.693 114.305 104.803 113.268 105.926L112.825 105.684C113.028 104.015 113.196 102.341 113.438 100.678C113.785 98.3267 114.164 95.9799 114.577 93.6376C114.64 93.2769 114.926 92.952 115.111 92.6134C115.449 92.8034 115.936 92.9163 116.09 93.2054C116.365 93.7753 116.64 94.4554 116.609 95.0694C116.483 97.3244 115.52 99.5519 116.552 101.821L116.543 101.815ZM114.159 115.307L113.507 115.227L114.926 107.093L115.386 107.162C115.556 109.952 114.593 112.587 114.181 115.299L114.159 115.307ZM111.637 105.739C111.227 109.043 110.949 112.347 110.605 115.629C110.553 116.116 110.446 116.598 110.363 117.083L109.852 117.287C109.577 116.852 109.123 116.444 109.051 115.976C108.358 111.414 106.9 107.093 105.08 102.875C104.455 101.424 104.529 101.446 106.081 100.989C107.919 100.497 109.717 99.8666 111.461 99.1031C112.789 98.4809 112.729 97.6108 111.56 96.7435C110.275 95.788 108.93 94.8959 107.739 93.8359C106.799 93.0099 106.023 91.9663 105.242 90.9696C105.066 90.7438 105.005 90.1766 105.162 89.9866C106.664 88.151 108.203 86.3457 109.78 84.5707C110.019 84.2954 110.459 84.2017 110.908 83.9705C111.03 84.2617 111.116 84.5669 111.164 84.8791C111.164 86.655 111.898 88.095 112.861 89.5599C113.375 90.3418 113.512 91.5616 113.411 92.5363C112.885 96.9472 112.187 101.333 111.637 105.739ZM112.753 112.121C112.597 113.435 112.443 114.75 112.289 116.064L111.738 116.001C111.896 114.686 112.052 113.372 112.206 112.058L112.753 112.121ZM122.68 74.7163L129.163 75.1376C126.657 76.2362 124.699 75.0412 122.68 74.7163ZM108.221 63.788C111.092 63.9367 113.961 64.1074 116.832 64.2369C117.817 64.2837 118.1 64.7628 117.638 65.5585C116.962 66.7287 116.065 67.786 115.46 68.9892C114.91 70.0906 114.58 71.3379 114.195 72.5328C113.268 75.3964 112.368 78.2682 111.444 81.1317C111.406 81.2501 111.287 81.3382 111.067 81.6135C110.759 81.1565 110.399 80.8068 110.261 80.3855C109.406 77.7368 108.518 75.0908 107.803 72.4007C107.195 70.16 106.725 67.8842 106.394 65.586C106.205 64.0909 106.73 63.7082 108.221 63.788ZM112.256 14.0507C111.606 15.342 110.22 15.6559 108.586 16.1956C110.198 13.5 111.584 11.1816 113.169 8.54386C114.258 10.8842 113.045 12.4675 112.256 14.0507ZM97.8376 19.5134C98.3877 17.8256 98.7673 16.0248 99.6364 14.5105C101.254 11.6965 103.179 9.05599 104.97 6.34114C105.019 6.26405 105.049 6.17319 105.104 6.10435C105.929 5.06357 107.75 5.23428 110.03 6.56417C111.406 7.37367 111.777 8.17766 111.15 9.49103C110.697 10.4929 110.114 11.4306 109.417 12.2802C109.09 12.6602 108.317 12.6547 107.739 12.8309C107.698 12.2967 107.448 11.6469 107.665 11.2532C108.094 10.4657 108.779 9.82144 109.524 8.91557C108.974 7.83073 108.306 7.72335 107.577 8.9431C106.904 10.0328 106.327 11.1789 105.852 12.3683C105.165 14.1691 107.296 17.2418 109.299 17.3382C111.727 17.4566 114.25 17.6934 115.861 15.0969C115.512 18.1257 114.566 20.769 112.011 22.5559C111.736 22.7514 111.164 22.666 110.776 22.5559C107.624 21.6528 104.549 20.3532 101.149 20.992C100.361 21.1477 99.5524 21.1719 98.7563 21.0636C97.9724 20.9342 97.5736 20.3146 97.8376 19.5134ZM99.3284 23.1369C101.62 21.9942 104.078 21.8868 106.529 22.5476C108.243 23.0102 108.468 23.7041 107.613 25.1937C107.425 25.506 107.259 25.8307 107.115 26.1656C106.378 27.9884 104.895 28.6024 103.052 27.8176C101.21 27.0329 99.3284 26.2124 97.0235 25.2267C97.9779 24.3401 98.55 23.5251 99.3284 23.1369ZM91.7234 137.075C91.9544 132.092 92.1827 127.097 92.6833 122.138C92.9803 119.192 93.767 116.295 94.3886 113.388C95.3237 109.007 96.2616 104.626 97.2958 100.268C97.5708 99.1307 98.2447 98.0954 98.6353 96.9775C98.7618 96.6113 98.5665 96.1295 98.517 95.6999C98.0604 95.9037 97.348 95.9945 97.1968 96.3332C96.7939 97.3558 96.4774 98.4103 96.2506 99.4859C96.0333 100.356 95.5492 100.562 94.8754 100.037C94.3426 99.6187 93.8786 99.1198 93.5002 98.558C89.2424 92.0847 87.1741 84.9066 86.6515 77.2219C86.2803 71.1355 86.5504 65.0269 87.4574 58.9971C88.2083 53.7381 88.6153 48.4213 90.1226 43.3028C91.0247 40.2327 92.202 37.2453 93.2636 34.2165C93.9787 32.1845 94.6746 30.147 95.4392 28.1343C96.0526 26.5153 96.5972 26.2895 98.1594 26.909C100.154 27.6993 102.123 28.5611 104.136 29.2962C104.601 29.4669 105.201 29.2659 105.913 29.2301C105.583 30.3315 105.245 31.5292 104.86 32.7132C103.218 37.6824 102.347 42.8741 102.277 48.1074C102.247 51.1362 102.277 54.1649 102.376 57.1771C102.425 58.8292 102.777 60.3904 104.714 61.1062C103.988 61.9873 103.517 62.8133 104.656 63.5843C104.769 63.6614 104.769 63.9175 104.805 64.0937C105.5 67.5354 106.092 71.002 106.925 74.4107C107.544 76.9328 108.496 79.3668 109.255 81.8669C109.351 82.1835 109.291 82.825 109.12 82.8994C107.071 83.797 106.755 86.1043 105.316 87.4893C104.631 88.1446 104.133 89.0037 103.435 89.6397C102.667 90.3336 102.637 90.8457 103.407 91.5451C105.657 93.5826 107.869 95.6752 110.187 97.8118C108.98 98.9627 107.197 99.2491 105.531 99.7392C104.706 99.9925 103.809 100.042 102.984 100.306C102.233 100.546 101.804 101.017 102.434 101.846C105.247 105.505 106.433 109.83 107.42 114.222C107.594 115.076 107.69 115.944 107.709 116.816C107.748 117.768 108.133 118.449 109.084 118.597C110.036 118.746 110.231 119.253 110.206 120.12C110.121 123.372 110.088 126.626 110.047 129.878C110.004 130.288 110.042 130.702 110.16 131.098C110.3 131.42 110.666 131.814 110.966 131.844C111.224 131.871 111.697 131.48 111.791 131.186C112.159 129.96 112.423 128.708 112.715 127.455C112.883 126.742 113.02 126.02 113.199 125.313C113.6 123.738 114.437 122.747 116.018 121.932C120.694 119.525 125.174 116.783 129.726 114.161C130.078 113.945 130.404 113.689 130.697 113.399C132.097 112.074 131.847 110.921 130.087 110.208C129.124 109.814 128.225 109.269 127.298 108.79C127.328 108.572 127.358 108.355 127.386 108.134C129.218 107.73 131.047 107.308 132.887 106.92C134.042 106.669 135.247 106.573 136.347 106.174C137.56 105.733 137.703 104.522 136.897 103.511C136.014 102.41 135.178 101.256 134.375 100.086C133.753 99.1775 133.995 98.5965 135.024 98.0376C137.904 96.4764 140.748 94.8409 143.514 93.0815C144.378 92.5308 144.956 92.3876 145.602 93.1641C146.917 94.7418 148.284 96.2837 149.488 97.9412C154.062 104.274 159.288 110.034 164.693 115.651C169.454 120.591 173.979 125.762 178.698 130.74C182.164 134.396 184.362 138.835 186.65 143.213C187.539 144.898 188.187 146.699 188.575 148.565C188.721 149.287 187.951 150.523 187.241 151.021C185.241 152.379 183.162 153.618 181.017 154.733C179.515 155.542 179.05 155.129 178.187 153.687C176.451 150.795 174.509 148.028 172.661 145.206C170.692 142.199 168.241 139.699 165.51 137.329C162.528 134.738 160.009 131.602 157.352 128.653C154.695 125.704 152.126 122.667 149.444 119.729C147.849 117.978 146.177 116.284 144.419 114.696C143.949 114.272 142.802 113.963 142.395 114.239C141.644 114.745 141.419 115.593 141.845 116.744C142.821 119.454 143.454 122.284 144.257 125.054C145.724 130.109 147.206 135.157 148.702 140.198C150.578 146.514 152.552 152.797 154.34 159.144C155.457 163.147 156.244 167.241 157.239 171.278C157.468 172.209 157.418 173.04 156.527 173.382C155.152 173.913 153.688 174.42 152.225 174.588C147.959 175.075 143.674 175.414 139.392 175.758C138.722 175.769 138.053 175.712 137.395 175.59C136.993 175.54 136.539 175.287 136.212 175.405C135.816 175.551 135.533 175.995 135.2 176.311C135.544 176.587 135.882 177.137 136.231 177.137C137.283 177.13 138.332 177.033 139.367 176.848C143.933 176.124 148.485 175.298 153.149 175.851C153.834 175.931 154.582 175.639 155.273 175.43C156.062 175.188 156.532 175.356 156.618 176.223C156.984 179.962 157.351 183.701 157.718 187.44C157.811 188.443 157.737 189.475 157.952 190.447C158.14 191.029 158.517 191.532 159.024 191.873C159.299 192.066 159.849 191.838 160.287 191.799C160.191 191.444 160.102 191.089 160.012 190.736C159.737 189.792 159.324 188.867 159.187 187.903C158.793 184.913 158.507 181.909 158.172 178.91C158.073 178.007 157.836 177.099 157.897 176.207C157.93 175.582 158.172 174.725 158.623 174.417C159.489 173.828 159.42 173.26 159.173 172.434C158.73 170.945 158.414 169.406 158.001 167.919C157.685 166.779 157.25 165.669 156.959 164.524C156.637 163.244 156.384 161.941 156.158 160.639C155.168 154.97 153.213 149.595 151.274 144.209C150.828 142.968 150.586 141.651 150.223 140.377C148.864 135.591 147.497 130.809 146.122 126.029C145.487 123.826 144.78 121.662 144.197 119.456C143.982 118.655 144.01 117.804 143.922 116.959L144.307 116.684C145.459 117.785 146.669 118.845 147.753 120.018C153.215 125.935 158.626 131.902 164.104 137.802C165.532 139.339 167.344 140.556 168.626 142.18C171.269 145.553 173.715 149.088 176.168 152.61C177.857 155.036 177.705 157.814 177.521 160.609C177.43 162.438 177.439 164.271 177.549 166.099C177.628 167.974 179.061 169.403 181.075 169.976C181.718 170.155 182.255 170.694 182.868 171.016C183.822 171.52 184.76 172.143 185.786 172.393C186.697 172.622 187.079 172.974 186.955 173.861C186.479 177.217 185.976 180.568 185.511 183.924C185.071 187.096 184.623 190.257 184.257 193.451C184.053 195.224 183.982 197.03 183.905 198.801C183.85 199.922 183.393 200.257 182.304 199.88C180.97 199.418 180.599 199.721 180.437 201.114C180.316 202.157 180.098 203.19 179.953 204.233C179.799 205.335 179.188 205.481 178.302 205.059C176.853 204.374 175.376 203.743 173.968 202.981C170.942 201.345 167.917 199.756 165.001 197.936C158.653 193.955 152.398 189.819 146.083 185.786C141.355 182.757 136.556 179.847 131.847 176.79C127.284 173.825 122.804 170.733 118.276 167.704C115.831 166.143 113.375 164.662 111.04 162.982C109.354 161.815 107.77 160.506 106.306 159.069C103.583 156.316 101.05 153.384 98.3685 150.592C96.6659 148.818 94.8341 147.172 93.0738 145.454C92.653 145.041 92.2899 144.564 91.6408 143.818L93.4231 143.92C93.3846 143.571 93.4617 143.146 93.3049 143.023C91.2723 141.431 91.6271 139.176 91.7234 137.075ZM182.72 221.985C182.519 222.302 182.223 222.547 181.875 222.687C181.71 222.728 181.256 222.271 181.221 222.004C181.155 221.325 181.165 220.641 181.248 219.964C181.443 217.967 181.683 215.977 181.889 213.98C182.026 212.648 182.12 211.307 182.285 209.977C182.315 209.726 182.585 209.503 183 208.876C183.138 209.649 183.275 210.007 183.253 210.36C183.113 214.008 182.948 217.656 182.791 221.304C182.78 221.544 182.838 221.833 182.72 221.985ZM179.144 235.625C180.101 235.754 181.091 236.316 181.853 236.944C182.249 237.271 182.189 238.158 182.332 238.794C181.757 238.824 181.072 239.069 180.621 238.846C177.51 237.296 174.482 235.581 171.355 234.061C170.015 233.411 168.48 233.172 167.086 232.621C164.06 231.434 160.95 230.418 158.136 228.852C155.936 227.624 153.554 227.084 151.276 226.181C149.351 225.41 147.398 224.611 145.536 223.675C142.266 222.023 139.02 220.33 135.83 218.54C129.251 214.85 122.628 211.233 116.2 207.287C112.707 205.142 109.571 202.411 106.298 199.9C103.476 197.727 100.649 195.555 97.9201 193.269C95.0514 190.863 92.3037 188.313 89.49 185.835C88.5961 185.053 87.6142 184.373 86.7395 183.569C84.0221 181.061 81.3101 178.541 78.6394 175.981C75.1739 172.652 71.6918 169.337 68.3197 165.914C65.3382 162.886 62.486 159.733 59.598 156.616C59.0007 155.984 58.5413 155.235 58.2491 154.416C57.9569 153.597 57.8384 152.726 57.901 151.858C58.1993 143.838 59.156 135.855 60.7615 127.992C60.8248 127.677 60.9093 127.367 61.0145 127.064C61.1572 126.817 61.322 126.584 61.5068 126.367C62.4172 127.868 63.1406 129.19 63.9822 130.426C67.1535 135.06 70.2725 139.738 73.6088 144.256C75.3031 146.558 77.4017 148.56 79.316 150.699C79.5641 150.97 79.7982 151.253 80.0174 151.547C83.2932 156.098 87.2814 160.006 91.2063 163.97C93.3296 166.113 95.3512 168.376 97.6121 170.358C101.045 173.365 104.692 176.124 108.157 179.095C110.446 181.055 112.58 183.192 114.758 185.262C119.049 189.321 123.491 193.206 128.56 196.251C132.075 198.363 135.621 200.434 139.526 201.838C141.265 202.463 142.827 203.575 144.439 204.539C148.586 207.034 152.69 209.616 156.854 212.056C157.941 212.689 159.236 212.989 160.46 213.347C164.126 214.418 167.108 216.772 170.403 218.543C172.642 219.746 174.914 220.902 177.219 221.971C178.341 222.491 178.236 223.287 178.162 224.245C177.923 227.392 177.733 230.545 177.551 233.695C177.505 234.796 177.843 235.449 179.144 235.625ZM178.674 227.516C178.718 226.514 179.037 225.525 179.224 224.531L179.774 224.553C179.878 224.922 179.944 225.3 179.969 225.682C179.881 228.001 179.774 230.322 179.622 232.64C179.609 232.86 179.262 233.059 179.072 233.268C178.951 233.097 178.729 232.929 178.723 232.756C178.687 231.018 178.599 229.259 178.674 227.516ZM182.249 231.646C182.211 232.059 181.727 232.434 181.449 232.825C181.232 232.428 180.871 232.048 180.824 231.632C180.765 230.768 180.755 229.901 180.794 229.036H180.893C180.893 228.078 180.794 227.109 180.937 226.167C181 225.74 181.534 225.385 181.856 225C182.07 225.44 182.466 225.878 182.466 226.321C182.477 228.089 182.409 229.87 182.255 231.638L182.249 231.646ZM62.6263 118.113C63.0691 116.29 63.2974 114.418 63.7044 112.584C63.8667 111.854 64.2958 111.188 64.5296 110.466C64.7221 109.836 64.7909 109.167 64.9917 108.096C66.1964 109.726 67.3516 111.023 68.2014 112.501C69.4969 114.748 70.5834 117.119 71.7578 119.434C74.0129 123.786 76.7994 127.841 80.0532 131.505C81.2524 132.882 82.3333 134.358 83.45 135.8C86.0794 139.19 88.6593 142.623 91.3493 145.963C92.1387 146.946 93.1811 147.753 94.2015 148.516C97.4856 150.963 99.3174 154.689 102.192 157.492C102.775 158.064 103.234 158.794 103.88 159.27C107.228 161.726 110.605 164.136 113.991 166.537C116.86 168.569 119.712 170.628 122.639 172.569C126.561 175.171 130.532 177.696 134.515 180.207C137.48 182.077 140.547 183.787 143.476 185.714C146.793 187.892 149.948 190.318 153.284 192.468C157.655 195.288 161.871 198.358 166.618 200.585C170.785 202.54 174.87 204.69 178.932 206.846C179.446 207.122 180.005 207.975 179.964 208.52C179.714 211.992 179.366 215.454 178.918 218.909C178.685 220.701 178.041 220.897 176.344 220.159C172.562 218.507 169.113 216.304 165.59 214.181C163.612 212.995 161.263 212.455 159.178 211.428C156.645 210.178 154.184 208.771 151.752 207.347C148.452 205.437 145.261 203.358 141.96 201.521C137.172 198.867 132.158 196.593 127.512 193.715C124.212 191.667 121.294 188.955 118.304 186.424C114.052 182.834 109.89 179.117 105.693 175.452C104.832 174.703 103.974 173.946 103.116 173.194C100.332 170.763 97.4113 168.467 94.7956 165.868C91.33 162.426 88.079 158.767 84.7757 155.165C82.0949 152.239 79.4453 149.283 76.8269 146.296C73.265 142.241 69.9067 138.036 67.1728 133.355C66.4164 132.056 65.484 130.861 64.6093 129.633C62.0927 126.114 61.6223 122.259 62.6263 118.113ZM42.6689 171.953C44.245 165.834 45.6945 159.678 47.4878 153.626C48.8822 148.945 50.8433 144.416 52.3506 139.754C53.6323 135.792 54.6637 131.747 55.7446 127.722C57.1151 122.731 59.0821 117.924 61.6031 113.404C61.6895 113.245 61.7938 113.096 61.9139 112.961C61.9634 112.909 62.0789 112.917 62.387 112.854C60.4286 125.795 56.7925 138.413 56.6935 151.599C54.0393 150.834 53.4755 151.164 52.5018 153.802C49.8009 161.129 46.25 168.04 42.1326 174.755C42.3059 173.825 42.4297 172.875 42.6689 171.953ZM56.8503 210.943C55.3651 212.386 54.1411 214.126 52.9171 215.814C50.9918 218.482 51.0441 221.569 51.2669 224.666C51.2999 225.074 51.3576 225.492 51.3714 225.894C51.3714 226.007 51.2586 226.126 51.0963 226.445C50.5463 225.98 50.0539 225.556 49.5561 225.137C47.9938 223.813 46.5003 222.384 44.8501 221.197C43.1998 220.01 41.566 220.773 41.445 222.811C41.335 224.628 41.5468 226.467 41.6375 228.295C41.6623 228.769 41.7585 229.242 41.8603 229.997C40.3448 229.171 39.7342 228.229 39.1951 226.836C37.5036 222.469 38.3947 217.954 37.9849 213.523C37.7649 211.164 39.0328 209.278 40.0505 207.364C42.3224 203.099 44.7263 198.9 47.1109 194.698C47.9003 193.322 48.819 191.995 49.6799 190.645L50.23 190.89C49.5286 192.933 49.0225 195.07 48.0901 197.003C45.5102 202.356 42.7515 207.628 40.0615 212.929C39.8112 213.419 39.4179 213.876 39.3244 214.391C39.2556 214.765 39.5719 215.217 39.7177 215.627C40.0533 215.393 40.5428 215.233 40.6996 214.911C41.4147 213.452 42.0088 211.937 42.6937 210.464C45.2764 204.911 47.9746 199.407 50.4307 193.795C51.5529 191.235 52.2158 188.473 53.1152 185.709C52.2625 186.003 51.4127 186.185 50.6755 186.579C49.4186 187.25 48.6402 188.129 48.2991 189.756C47.9581 191.383 46.6076 192.856 45.7302 194.409C43.8049 197.793 41.9291 201.191 40.0203 204.578C39.6077 205.31 39.1456 206.012 38.7083 206.731L38.2627 206.629C38.1597 206.239 38.1016 205.839 38.0894 205.437C38.623 199.142 39.0879 192.84 39.7562 186.559C40.2623 181.801 42.1436 177.495 44.432 173.31C47.3062 168.045 49.9632 162.665 52.7164 157.34C53.239 156.327 53.7478 155.305 54.3199 154.312C54.5069 153.989 54.87 153.775 55.167 153.51C55.4173 153.86 55.8464 154.185 55.8931 154.559C56.1682 156.814 56.545 159.075 56.5725 161.341C56.6495 167.619 56.5725 173.896 56.5505 180.174C56.5139 180.364 56.4557 180.549 56.3772 180.725C55.9922 180.518 55.7116 180.243 55.4476 180.26C55.079 180.279 54.5674 180.422 54.4051 180.689C54.2429 180.956 54.4657 181.427 54.6307 181.752C54.7407 181.967 55.068 182.066 55.2798 182.239C56.2507 183.032 56.9851 183.891 57.1721 185.268C57.9422 190.981 58.7756 196.689 59.7135 202.378C60.5469 207.427 60.5469 207.353 56.8476 210.943H56.8503ZM187.857 248.549C187.307 248.406 186.677 248.387 186.207 248.103C183.589 246.531 181.017 244.879 178.407 243.29C177.829 242.927 177.202 242.649 176.545 242.464C175.489 242.189 174.65 242.525 174.226 243.624C173.467 245.584 172.741 247.555 171.916 249.488C171.456 250.565 171.027 251.787 170.21 252.536C169.493 253.197 168.285 253.494 167.245 253.591C164.613 253.839 161.962 253.885 159.316 254.007C158.997 254.025 158.678 254.012 158.361 253.968C153.584 253.225 148.798 252.528 144.034 251.699C141.869 251.335 139.734 250.807 137.648 250.122C133.522 248.745 129.484 247.162 125.394 245.716C120.994 244.147 116.593 242.566 112.17 241.104C109.307 240.16 106.378 239.419 103.482 238.582C102.664 238.354 101.906 237.949 101.263 237.396C100.619 236.842 100.104 236.154 99.7547 235.38C97.3618 230.451 95.0789 225.468 92.4825 220.638C91.5831 218.956 90.0621 217.541 88.6318 216.233C86.6048 214.38 81.3981 214.537 79.9294 216.731C79.2153 217.88 78.675 219.128 78.3259 220.434C77.9793 221.583 77.9243 222.816 77.7428 224.014L77.3467 224.138C76.8406 223.425 76.3235 222.714 75.8285 221.993C73.2925 218.309 70.9464 214.473 68.1519 210.998C66.9032 209.446 64.7909 208.551 63.0003 207.482C62.3017 207.067 61.9469 206.678 61.7929 205.85C60.9182 201.128 59.9116 196.428 59.0424 191.703C58.6849 189.748 58.5611 187.752 58.3328 185.775L58.7481 185.565C59.1167 185.841 59.5073 186.069 59.8483 186.361C65.1457 190.791 70.3275 195.367 75.7735 199.608C78.821 201.97 82.2755 203.804 85.5761 205.844C90.4004 208.823 95.1009 212.048 100.118 214.655C106.282 217.857 111.826 221.979 117.756 225.512C120.727 227.279 123.376 229.587 126.321 231.409C132.067 234.959 137.909 238.351 143.726 241.781C146.884 243.646 150.176 245.215 153.765 246.082C154.123 246.168 154.494 246.385 154.824 246.333C155.427 246.236 156.403 246.113 156.51 245.782C156.81 244.849 155.875 244.783 155.226 244.62C153.939 244.295 152.561 244.177 151.375 243.635C147.69 241.949 143.949 240.303 140.461 238.276C135.874 235.622 131.484 232.624 127.02 229.757C122.674 226.968 118.392 224.074 113.986 221.382C109.244 218.479 104.359 215.795 99.5897 212.948C94.9909 210.211 90.4499 207.381 85.8731 204.613C84.1926 203.597 82.4186 202.722 80.7848 201.637C78.4277 200.073 76.109 198.437 73.8646 196.717C71.2132 194.685 68.6159 192.583 66.0726 190.411C63.6412 188.324 61.284 186.149 58.9792 183.922C58.4439 183.366 58.1198 182.64 58.0633 181.87C57.9395 178.255 57.956 174.634 57.9202 171.016C57.8817 167.162 57.8405 163.312 57.7965 159.469C57.7965 158.659 57.7965 157.847 57.7965 156.806C58.2778 157.081 58.5913 157.128 58.6931 157.31C60.5524 160.614 63.688 162.762 66.2321 165.43C71.5983 171.058 77.0744 176.598 82.7129 181.95C85.9557 185.031 89.6495 187.633 93.0573 190.543C94.6471 191.904 95.9288 193.636 97.5571 194.949C101.375 198.002 105.393 200.805 109.192 203.881C114.047 207.831 119.23 211.359 124.685 214.426C127.028 215.74 129.559 216.717 131.93 217.987C134.3 219.256 136.567 220.707 138.896 222.051C140.434 222.934 142.024 223.725 143.553 224.622C147.404 226.891 151.804 227.775 155.883 229.468C157.649 230.203 159.258 231.324 161.038 232.018C163.535 232.99 166.151 233.648 168.665 234.584C171.003 235.454 173.437 236.236 175.541 237.547C178.698 239.515 181.804 241.724 185.396 242.53C187.657 243.037 187.596 244.293 187.844 245.796C187.931 246.199 187.984 246.609 188 247.021C187.989 247.517 187.893 248.032 187.857 248.549ZM188.806 224.234C188.765 225.129 188.776 226.104 187.472 225.985C186.257 225.872 185.858 225.096 186.039 223.981C186.397 220.225 186.746 216.494 187.115 212.766C187.205 211.838 187.841 211.527 188.49 212.185C188.941 212.668 189.2 213.298 189.219 213.958C189.145 217.386 188.955 220.809 188.806 224.234ZM189.169 210.01C189.145 210.217 188.572 210.561 188.344 210.492C188.162 210.433 187.995 210.335 187.856 210.204C187.717 210.073 187.608 209.913 187.538 209.735C187.065 207.824 187.764 206.122 188.713 204.448C189.488 206.276 189.392 208.146 189.169 210.01ZM190.613 213.865C191.364 215.038 190.954 221.671 190.08 222.698C190.204 219.815 189.246 216.894 190.613 213.857V213.865ZM190.594 230.399C190.646 230.074 191.144 229.821 191.436 229.532C191.568 229.887 191.848 230.261 191.804 230.589C191.595 232.114 191.859 233.758 190.704 235.44C190.476 234.788 190.234 234.424 190.248 234.064C190.29 232.834 190.406 231.607 190.594 230.391V230.399ZM197.52 220.657C197.135 223.237 196.761 225.82 196.365 228.397C196.249 229.149 196.274 230.118 195.097 229.928C194.046 229.757 193.105 229.278 193.111 228.031C193.111 227.268 193.441 226.514 193.504 225.746C193.732 222.992 193.897 220.258 194.115 217.519C194.175 216.786 193.974 215.825 195.099 215.699C196.056 215.588 197.506 216.838 197.498 217.747C197.498 218.708 197.39 219.674 197.333 220.63L197.52 220.657ZM193.35 216.332C193.075 219.608 192.8 222.879 192.451 226.148C192.407 226.561 192.016 226.935 191.785 227.329C191.598 226.883 191.235 226.426 191.254 225.993C191.477 222.849 191.763 219.707 192.079 216.566C192.14 215.96 192.401 215.374 192.569 214.779L193.091 214.848C193.193 215.343 193.394 215.847 193.361 216.332H193.35ZM196.07 243.59C195.091 244.794 193.199 244.617 191.73 243.411C189.928 241.936 189.887 241.363 191.488 239.675C191.914 239.195 192.373 238.746 192.863 238.331C193.903 237.505 194.112 236.481 193.782 235.129L192.649 235.776C192.552 234.694 192.319 233.742 192.431 232.833C192.519 232.139 193.045 231.5 193.378 230.837C194.203 231.354 195.097 231.781 195.787 232.434C196.089 232.709 196.062 233.477 196.01 234.003C195.776 236.316 195.754 236.313 198.084 236.456C198.27 237.718 198.188 239.005 197.843 240.232C197.498 241.46 196.898 242.601 196.081 243.579L196.07 243.59ZM197.91 235.575C197.432 235.125 196.994 234.633 196.604 234.105C196.527 233.989 196.997 233.516 197.467 232.849C198.018 233.675 198.46 234.133 198.658 234.686C198.735 234.873 198.188 235.261 197.921 235.564L197.91 235.575ZM199.412 230.421C199.363 230.952 198.625 231.831 198.199 231.836C197.206 231.85 196.942 230.963 196.961 230.03C197.121 229.179 197.349 228.334 197.426 227.472C197.66 224.936 197.831 222.395 198.034 219.856C198.067 219.446 198.034 218.956 198.229 218.656C198.504 218.262 198.999 218.022 199.398 217.714C199.673 218.124 200.223 218.54 200.223 218.939C200.028 222.758 199.783 226.591 199.423 230.41L199.412 230.421ZM200.608 209.817C200.537 211.469 200.592 213.121 200.443 214.757C200.397 215.277 199.874 215.751 199.569 216.246C199.247 215.776 198.65 215.305 198.65 214.834C198.65 213.11 198.851 211.384 198.975 209.658C199.008 209.201 199.035 208.741 199.065 208.281L198.559 208.198C198.337 208.935 198.154 209.683 198.009 210.44C197.875 211.389 197.916 212.367 197.773 213.314C197.668 214.022 197.855 215.01 196.697 215.087C195.779 215.151 194.39 214.035 194.412 213.108C194.456 211.373 194.656 209.644 194.8 207.912C194.833 207.537 194.904 207.166 194.956 206.791L194.461 206.61C194.211 207.16 193.831 207.681 193.735 208.262C193.532 209.479 193.504 210.723 193.339 211.948C193.303 212.224 193.001 212.477 192.822 212.739C192.662 212.496 192.376 212.257 192.368 212.009C192.338 211.098 192.407 210.186 192.426 209.275C192.426 208.821 192.426 208.363 192.426 207.898L191.969 207.821C191.628 208.889 191.288 209.958 190.949 211.026L190.492 210.943C190.459 208.061 189.667 205.123 191.262 202.356C191.419 202.08 192.192 201.876 192.489 202.022C194.285 202.906 196.04 203.881 197.784 204.867C199.698 205.935 200.707 207.548 200.608 209.817Z" fill="#1859BE"/>
<path d="M275.11 181.835C274.431 180.458 273.518 179.023 271.513 178.833C269.1 178.608 267.288 179.527 266.177 181.455C264.796 183.774 263.658 186.229 262.78 188.781C261.528 192.6 260.673 196.549 259.622 200.436C258.841 203.333 258.016 206.219 257.21 209.11L257.516 209.206C257.478 209.388 257.478 209.575 257.516 209.757C257.725 210.206 257.983 210.63 258.225 211.062C258.478 210.649 258.701 210.22 258.893 209.776C259.444 208.245 259.829 206.64 260.5 205.167C262.186 201.469 264.969 198.65 268.075 196.119C270.841 193.861 273.556 191.601 275.11 188.206C276.133 185.989 276.092 183.842 275.11 181.835ZM274.048 184.632C273.537 187.005 272.792 189.398 271.042 191.147C268.429 193.762 265.616 196.18 262.873 198.666C262.692 198.828 262.4 198.867 262.001 199.027C262.001 198.493 261.924 198.088 262.001 197.722C263.102 193.275 264.103 188.798 266.221 184.693C266.75 183.68 267.396 182.733 268.146 181.87C269.348 180.494 270.795 180.116 272.057 180.684C273.262 181.212 274.37 183.134 274.048 184.632Z" fill="#1859BE"/>
<path d="M21.683 215.007C20.7879 213.999 19.9817 212.915 19.2736 211.767C18.6933 210.844 18.366 209.765 17.7719 208.856C16.9 207.521 15.6815 206.378 14.9774 204.977C12.7606 200.544 9.05019 198.622 3.74456 198.14C3.34849 198.457 2.51785 198.966 1.9265 199.657C1.51393 200.15 1.45342 200.929 1.20038 201.568C-0.0620775 204.748 2.42434 207.097 5.11428 207.105C6.44048 207.067 7.76686 207.175 9.06944 207.427C10.4667 207.749 12.0784 208.066 13.0824 208.961C15.0709 210.729 16.8092 212.816 18.4513 214.919C20.0933 217.023 21.0284 217.508 23.5781 216.629C23.9412 216.503 24.2217 216.136 24.5408 215.883C24.1196 215.639 23.6778 215.433 23.2205 215.266C22.7145 215.123 21.9553 215.308 21.683 215.007ZM5.18029 205.492C3.90408 205.362 2.99368 204.861 2.58111 203.641C2.1933 202.496 2.74064 200.497 3.58778 199.833C3.79131 199.674 4.10762 199.47 4.31115 199.522C6.23647 200.007 8.36258 200.158 9.97709 201.152C12.403 202.647 13.847 205.197 14.9912 207.923C12.0289 205.706 8.5331 205.836 5.16929 205.492H5.18029Z" fill="#1859BE"/>
<path d="M60.129 54.8532C63.0939 54.9744 65.4401 52.678 65.0358 49.7842C64.7305 47.5815 64.1309 45.4036 63.6743 43.2146C63.556 42.6639 63.479 42.0802 63.3772 41.4772C65.3878 41.7058 67.1536 41.8875 68.9139 42.1133C70.4377 42.3088 70.8227 43.0191 70.2149 44.3463C70.0784 44.7113 69.9726 45.087 69.8986 45.4697L70.2561 45.6376C70.7524 45.1314 71.212 44.5903 71.6314 44.0186C72.4125 42.7933 72.088 41.8159 70.7072 41.312C69.9426 41.0367 69.101 40.9899 68.3033 40.7999C66.653 40.4034 64.8377 40.5245 63.6275 38.8973C63.3525 38.5476 62.3816 38.6412 61.7627 38.7403C61.6142 38.7624 61.5509 39.6297 61.5482 40.117C61.5482 40.4227 61.7572 40.72 61.8232 41.0312C62.2661 43.1981 62.6951 45.365 63.149 47.6201C62.4063 47.6971 62.002 47.755 61.5977 47.7798C58.7427 47.9697 57.0347 50.6873 58.0854 53.3581C58.4429 54.297 59.0645 54.8009 60.129 54.8532Z" fill="#1859BE"/>
<path d="M48.9098 29.142C50.5601 29.511 52.1608 30.0754 53.8056 30.4609C54.1494 30.5407 54.5895 30.2103 54.9855 30.0699C54.8508 29.8276 54.7573 29.4146 54.573 29.3678C51.2092 28.5418 47.8399 27.7157 44.4513 26.9641C43.9012 26.8457 43.2741 27.1651 42.6827 27.2835L42.636 27.8975C43.1943 28.0905 43.7626 28.2532 44.3385 28.3848C45.8568 28.6574 47.4025 28.8061 48.9098 29.142Z" fill="#1859BE"/>
<path d="M67.6982 16.0799C67.8798 16.3828 68.5564 16.4654 69.0129 16.4957C69.2247 16.4957 69.464 16.1543 69.7501 15.9147C69.2495 15.298 68.7489 14.8134 68.4188 14.2489C67.4424 12.5446 66.5733 10.7796 65.5694 9.09456C65.3603 8.74212 64.7635 8.62373 64.3454 8.39795C64.2876 8.84125 64.0319 9.38917 64.1996 9.71683C65.3081 11.8727 66.4688 13.9984 67.6982 16.0799Z" fill="#1859BE"/>
<path d="M80.7905 5.7519C81.1091 6.69918 81.5551 7.59862 82.1162 8.42545C82.2647 8.66225 82.8093 8.64848 83.1724 8.75035C83.2047 8.38304 83.1918 8.01314 83.1339 7.649C82.5508 5.64452 81.9429 3.65932 81.3433 1.66035L81.9319 1.40429C81.6294 0.91143 81.313 -0.00820492 81.0243 5.52697e-05C79.8526 0.0358494 79.9241 0.994032 80.0698 1.84208C80.2789 3.15545 80.4247 4.48534 80.7905 5.7519Z" fill="#1859BE"/>
<path d="M130.741 55.8417C132.249 55.9215 133.662 54.264 133.715 52.3614C133.748 51.1995 132.917 50.3845 131.643 50.3239C130.37 50.2633 128.855 51.9759 128.794 53.628C128.776 53.9014 128.812 54.1758 128.901 54.4352C128.989 54.6946 129.127 54.934 129.308 55.1397C129.489 55.3454 129.709 55.5133 129.955 55.6338C130.201 55.7542 130.468 55.8249 130.741 55.8417ZM130.541 53.281C130.631 52.879 130.959 52.5321 131.366 51.852C131.748 52.5101 132.15 52.9534 132.064 53.091C131.789 53.5041 131.335 53.7932 130.948 54.1291C130.81 53.8427 130.488 53.5206 130.541 53.281Z" fill="#1859BE"/>
</svg>
