<svg width="408" height="184" viewBox="0 0 408 184" fill="none" xmlns="http://www.w3.org/2000/svg">
<path d="M406.79 172.249C392.66 130.379 403.5 85.8993 399.7 42.8993C398.05 24.1393 390.31 1.89929 368 1.01929C358.81 0.669291 350.59 5.89929 346.27 13.8993C341.95 21.8993 341.64 31.1493 341.32 39.8993C340.44 63.4993 339.923 87.0793 339.77 110.639C339.7 121.459 340.2 132.379 339.62 143.179C339.35 148.269 338.8 156.649 334.11 159.809C327.56 164.199 321.92 154.229 320.67 149.189C318.15 138.979 319.54 127.379 319.57 116.959C319.62 94.0493 319.95 71.1293 319.71 48.2193C319.52 31.0993 315.24 8.61929 295.42 4.21929C273.17 -0.810709 265 24.0093 261.89 40.8993C257.89 62.5193 258.08 84.5093 256.89 106.379C256.478 117.123 255.255 127.82 253.23 138.379C252.35 142.589 251.51 147.039 249.73 150.969C248.68 153.279 246.18 158.569 243.19 159.059C234.05 160.569 236.36 117.059 236.39 112.059C236.57 88.8793 237.71 65.6193 235.53 42.4893C234.09 26.8293 229.86 1.89929 209 2.69929C199.18 3.08929 191.16 10.3493 187.64 19.1493C183.7 29.0093 184.64 40.2693 184.51 50.6793C184.27 74.0993 184.027 97.5226 183.78 120.949C183.68 130.599 184.61 141.129 181.73 150.469C179.89 156.469 174.26 163.839 168.73 156.619C165.99 153.029 165.34 147.899 164.8 143.549C164.03 137.499 163.56 131.399 163.03 125.329C162.023 113.689 161.24 102.023 160.68 90.3293C160.12 78.636 159.787 66.9693 159.68 55.3293C159.59 45.4593 160.12 35.5093 158.41 25.7393C156.89 17.0793 152.41 8.31929 144.65 3.73929C135.65 -1.62071 125.87 3.36929 121.5 12.0593C116.79 21.4193 114.57 32.6393 112.25 42.7893C109.756 53.7934 107.873 64.9271 106.61 76.1393C105.319 87.2521 104.691 98.4319 104.73 109.619C104.73 118.719 105.3 127.819 104.73 136.909C104.24 144.329 102.91 152.519 98.4 158.669C97.3313 160.155 96.0779 161.499 94.67 162.669C94.0941 163.071 93.4928 163.435 92.87 163.759C91.56 162.149 91.32 158.409 91.19 156.759C89.31 134.129 92.34 110.759 92.95 88.1393C93.26 76.6093 93.27 65.0593 92.5 53.5393C91.79 42.9693 91.15 31.4693 87.27 21.5393C83.65 12.2193 77.08 4.27929 67.27 1.12929C62.9317 -0.260756 58.2845 -0.369906 53.8857 0.814932C49.4869 1.99977 45.5232 4.4283 42.47 7.80929C29.47 22.2593 32.67 47.0493 34.3 64.6793C36.39 87.2793 40.66 109.769 40.18 132.539C40 140.619 39.68 151.899 32 156.899C24.9 161.469 20 154.749 18.95 148.039C17.32 137.519 19.68 125.909 20.03 115.319C20.4167 103.713 20.3867 92.106 19.94 80.4993C19.4933 68.8926 18.6233 57.3193 17.33 45.7793C16.26 36.1893 15.77 25.9293 11.38 17.1493C7.38 9.05929 -0.830002 3.42929 -10.11 5.14929C-20.11 6.97929 -26.44 15.7693 -30.22 24.5093C-38.71 44.1393 -36.44 67.5093 -36.66 88.3693L-37.03 123.569C-37.14 133.109 -36.19 143.329 -37.92 152.749C-38.74 157.219 -40.92 164.819 -46.74 160.909C-54.41 155.739 -52.51 142.099 -52.62 134.199C-52.9533 110.893 -53.7467 87.606 -55 64.3393C-55.58 53.5593 -55.75 42.5793 -57.37 31.8993C-58.57 24.0393 -61.24 15.7693 -67.21 10.2093C-70.6247 7.08638 -74.9351 5.11636 -79.5311 4.57797C-84.127 4.03959 -88.776 4.96012 -92.82 7.20929C-102 12.0493 -106.75 21.7893 -108.46 31.6093C-112.48 54.6193 -113 78.7893 -113 102.099C-112.96 124.788 -111.571 147.455 -108.84 169.979C-108.26 174.769 -105.15 178.919 -99.9 178.919C-95.52 178.919 -90.39 174.809 -90.97 169.979C-93.7513 147.085 -95.1405 124.042 -95.13 100.979C-95.1233 89.286 -94.7467 77.5926 -94 65.8993C-93.32 55.2493 -93.13 43.8993 -90.68 33.4993C-89.68 29.0893 -84.06 17.2793 -78.51 24.2093C-74.09 29.7293 -74.41 39.2093 -73.98 45.8093C-72.5333 68.3293 -71.5333 90.8693 -70.98 113.429C-70.69 124.769 -71.1 136.239 -70.28 147.549C-69.54 157.669 -66.77 167.659 -58.59 174.269C-51.43 180.059 -41.59 181.839 -33.31 177.179C-26.4 173.279 -22.52 165.709 -20.91 158.179C-18.91 148.659 -19.42 138.719 -19.31 129.059C-19.19 117.319 -19.0667 105.583 -18.94 93.8493C-18.82 82.7793 -18.78 71.6993 -18.57 60.6293C-18.38 51.1693 -17.98 41.3493 -14.4 32.4493C-13.23 29.5393 -11.09 24.2993 -7.86 22.9993C-6.09 22.2793 -5.16 23.8193 -4.14 26.1593C-0.449997 34.5893 -0.579994 45.4293 0.260002 54.4293C2.38946 77.1945 2.89073 100.083 1.76 122.919C0.860001 141.089 -2.57001 166.829 18.95 174.919C28.15 178.379 38.18 175.269 45.37 168.999C52.84 162.489 56.02 152.789 57.22 143.249C59.98 121.409 56.01 98.9893 53.46 77.3193C52.0005 66.0581 51.1791 54.7233 51 43.3693C51 36.2793 50.46 26.6693 54.94 20.5693C59.42 14.4693 66.62 19.8093 69.31 24.9493C74 33.8993 74.12 45.7993 74.71 55.6393C76.05 78.3793 74.46 101.159 73.6 123.889C73.18 134.969 72.47 146.319 73.32 157.399C73.93 165.399 76.39 174.399 83.51 179.049C101.15 190.499 116.93 166.409 120.42 151.919C124.8 133.689 122.02 114.489 122.86 95.9193C123.878 74.0021 127.511 52.2849 133.68 31.2293C134.46 28.5393 135.27 25.8693 136.15 23.2293C136.15 23.1693 136.76 21.9193 137.25 20.8093C138.23 22.0473 139.071 23.3886 139.76 24.8093C142.76 32.5293 141.76 41.8093 141.76 49.8093C141.833 73.1426 142.807 96.476 144.68 119.809C146.13 137.809 144.6 165.319 163.52 175.009C172.52 179.619 182.82 177.639 189.97 170.649C197.12 163.659 199.86 153.869 200.91 144.239C202.03 133.989 201.58 123.499 201.69 113.239L202.06 78.0993C202.18 66.766 202.297 55.4326 202.41 44.0993C202.47 38.0993 200.73 23.4793 208.41 20.8193C219.08 17.1093 218.82 60.4693 218.92 65.1893C219.38 88.0493 218 110.909 218.8 133.759C219.35 149.489 220.35 176.199 241.95 176.879C262.27 177.509 268.95 152.759 271.62 137.089C275.21 115.749 275.02 94.0893 276.24 72.5793C276.682 62.1872 277.916 51.844 279.93 41.6393C281.03 36.4393 282.71 23.5493 289.12 21.6393C296.26 19.4893 299.89 30.6993 300.87 35.5393C302.65 44.2893 301.87 53.6893 301.87 62.5393C301.823 85.3993 301.773 108.256 301.72 131.109C301.72 149.459 304.55 174.109 326.81 178.109C346.38 181.659 355.59 163.109 357.26 146.769C358.26 136.649 357.61 126.289 357.66 116.129C357.713 104.716 357.85 93.3026 358.07 81.8893C358.29 70.1226 358.6 58.346 359 46.5593C359.25 39.1493 358.19 29.0593 362.07 22.2893C365.62 16.1193 373.07 19.4293 376.55 24.0693C381.96 31.3693 382 42.3193 382.43 50.9693C383.43 72.2093 381.69 93.4493 381.5 114.689C381.31 135.689 382.85 156.949 389.61 176.969C393.22 187.839 410.48 183.189 406.79 172.249Z" fill="#E9EDF2"/>
</svg>
