<svg width="60" height="77" viewBox="0 0 60 77" fill="none" xmlns="http://www.w3.org/2000/svg">
<path d="M31 77L15 54H47L31 77Z" fill="#D13058"/>
<circle cx="30" cy="30" r="29" fill="white" stroke="#AE163C" stroke-width="2"/>
<path d="M17.6811 29.2328C18.0808 30.0781 18.4683 30.2894 19.3659 30.1223C19.9593 30.0117 20.5381 29.8766 21.1414 30.0854C21.8207 30.3312 22.0855 30.7882 21.931 31.4886C21.8503 31.9014 21.6577 32.284 21.3743 32.5943C20.4253 33.5773 20.2659 34.7715 20.4792 36.0346C20.7858 37.8456 21.4602 39.4748 23.0174 40.5929C23.0982 40.6653 23.1901 40.7242 23.2896 40.7673C24.4717 41.1236 24.9523 42.1262 25.4036 43.1263C25.5629 43.5078 25.8232 43.8383 26.1565 44.0822C26.4556 44.3009 26.7328 44.5442 27.0123 44.7875C27.1031 44.8661 27.2085 44.9669 27.1521 45.1045C27.0957 45.2421 26.9706 45.2175 26.8676 45.2126C25.1068 45.1487 23.3264 45.1487 21.9629 43.7382C21.9384 43.7112 21.8869 43.7136 21.7962 43.6866C21.9188 44.0601 22.1983 44.2616 22.3994 44.5147C22.7017 44.9049 23.0251 45.2781 23.3681 45.6328C23.494 45.7785 23.5888 45.9485 23.6466 46.1324C23.7044 46.3162 23.7239 46.51 23.7041 46.7017C23.7041 47.0113 23.5398 47.1514 23.2602 46.9843C22.733 46.6649 22.1616 46.4216 21.6809 46.0284C21.3259 45.775 21.0777 45.3984 20.9844 44.9718C20.9613 44.8009 20.8819 44.6426 20.7588 44.5221C20.2217 44.0306 20.082 43.4065 20.0231 42.7307C20.0208 42.5144 19.9852 42.2997 19.9176 42.0943C19.8294 41.8829 19.7264 41.6642 19.3806 41.8485C18.998 42.0599 18.6915 41.9174 18.5198 41.4406C18.4713 41.27 18.3629 41.1227 18.2147 41.0257C18.0665 40.9286 17.8884 40.8884 17.713 40.9123C17.3745 40.9123 17.0361 40.9 16.6977 40.8656C16.0037 40.7894 15.5892 40.4159 15.5034 39.7304C15.4593 39.3814 15.2336 39.2659 14.9859 39.1504C14.3823 38.9172 13.7956 38.6421 13.2301 38.3272C12.9426 38.1718 12.7174 37.9219 12.5924 37.6195C12.4943 37.3443 12.5262 37.1281 12.8597 37.0593C12.9493 37.037 13.0364 37.0057 13.1197 36.9659C13.5268 36.7914 13.5464 36.7202 13.2325 36.4327C12.9186 36.1451 12.8254 35.7495 12.72 35.3637C12.6145 34.9779 12.5238 34.5233 12.3864 34.1154C12.3045 33.8054 12.1193 33.5328 11.8614 33.3429C11.6036 33.1529 11.2887 33.057 10.969 33.0711C10.4785 33.0711 10.4319 32.9679 10.6551 32.5206C10.8047 32.2159 10.9886 31.9284 11.1161 31.6139C11.2927 31.1839 11.1897 30.9897 10.7679 30.8226C10.4859 30.7121 10.0641 30.685 10.0052 30.3852C9.94634 30.0854 10.4025 30.0314 10.6085 29.8446C10.969 29.5154 11.0793 29.1959 10.8292 28.7782C10.6008 28.3673 10.4897 27.9015 10.5079 27.4316C10.5079 26.9008 10.5815 26.3774 10.2848 25.8613C10.0935 25.5296 10.2308 25.1045 10.3363 24.7285C10.4221 24.4164 10.5276 24.1117 10.6281 23.8046C10.7088 23.6204 10.7439 23.4194 10.7302 23.2187C10.7166 23.018 10.6546 22.8236 10.5496 22.6521C10.3363 22.3277 10.427 21.9714 10.5741 21.6323C10.8733 20.9345 11.4104 20.4184 11.9058 19.8704C12.151 19.6075 12.3963 19.352 12.6415 19.0964C13.0099 18.7231 13.2548 18.2452 13.3429 17.7277C13.6225 16.3163 14.4075 15.056 15.55 14.1842C16.8565 13.1008 17.9816 11.815 18.8827 10.3754C19.6798 9.10992 20.5626 8.78802 22.034 9.12467C22.6645 9.2609 23.3115 9.30312 23.9542 9.24999C25.2172 9.17627 26.4802 9.20084 27.7112 9.58172C28.5524 9.82745 29.1974 10.3189 29.526 11.1593C29.6265 11.405 29.7418 11.4542 30.0165 11.3633C30.6981 11.1576 31.4194 11.1214 32.1181 11.2576C32.1948 11.2617 32.2691 11.2854 32.334 11.3264C33.207 12.0636 34.3326 12.1889 35.3234 12.6337C35.4779 12.7025 35.6348 12.7688 35.7869 12.8426C36.3436 13.1104 36.6256 13.5036 36.5226 14.172C36.4637 14.602 36.2577 15.0984 36.5226 15.4842C36.7874 15.87 37.2877 15.8331 37.6727 16.0149C38.8989 16.5899 40.0687 17.2288 41.0055 18.2265C41.6431 18.9072 41.6578 19.234 41.1281 20.0007C40.6573 20.6789 40.6376 21.0205 41.0938 21.6839C41.3611 22.0796 41.5033 22.3867 41.0227 22.7725C40.542 23.1583 40.6744 23.6227 41.2679 23.893C41.9064 24.2084 42.451 24.6864 42.8472 25.279C42.3249 25.279 42.3396 25.65 42.3298 26.0162C42.342 26.5426 42.4613 27.061 42.6805 27.5397C42.8153 27.8886 42.8055 28.1294 42.3518 28.1786C42.185 28.2096 42.0243 28.2677 41.8761 28.3506C41.2238 28.6553 41.1404 28.8863 41.2949 29.5792C41.724 31.5082 42.2611 33.4372 41.9472 35.4325C41.5548 37.9414 40.927 40.3914 39.6224 42.6103C39.516 42.7889 39.4466 42.9871 39.4184 43.1931C39.3902 43.3992 39.4037 43.6088 39.4581 43.8095C39.6896 44.8327 39.982 45.8412 40.3336 46.8295C40.507 47.2765 40.5999 47.7507 40.6082 48.2302C40.6082 48.5127 40.4954 48.7216 40.206 48.7658C39.9167 48.8101 39.8038 48.616 39.7156 48.3825C39.4899 47.8026 39.5267 47.1981 39.5096 46.5961C39.5081 46.351 39.4336 46.1119 39.2955 45.9096C39.1574 45.7073 38.9621 45.551 38.7346 45.4608C38.2074 45.3109 37.9302 45.6623 37.6875 46.0309C37.121 46.886 36.7997 47.8591 36.3509 48.7732C36.2283 49.0189 36.0934 49.2647 35.988 49.5227C35.3479 51.1003 34.0089 51.6753 32.486 51.98C32.0323 52.0685 31.8729 51.8596 32.0397 51.432C32.1525 51.147 32.2849 50.8668 32.4026 50.5818C32.562 50.1984 32.6479 49.8176 32.3855 49.4342C32.3184 49.3364 32.2889 49.2176 32.3024 49.0998C32.3159 48.9819 32.3716 48.8729 32.459 48.7929C32.871 48.3014 32.925 47.7387 32.8661 47.1367C32.8318 46.8 32.8195 46.4584 32.8073 46.1193C32.8073 45.8859 32.6944 45.795 32.4566 45.8146C30.9508 45.9375 29.8448 45.392 28.9178 44.0405C29.7739 44.3835 30.6564 44.6563 31.5566 44.8563C34.0359 45.3723 35.9953 44.468 37.6286 42.6619C38.0381 42.2098 38.1975 41.6077 38.4084 41.0475C38.6293 40.5057 38.9046 39.9878 39.23 39.5018C40.0638 38.1798 40.6499 36.7668 40.596 35.1573C40.5641 34.1744 40.7946 33.1915 40.596 32.2086C40.4464 31.4001 40.2453 30.6506 39.5758 30.0953C39.2447 29.8201 39.1932 29.0042 39.539 28.6971C39.9755 28.3088 40.0295 27.8493 40.0564 27.3284C40.0664 26.7687 39.8942 26.2209 39.566 25.768C39.5218 25.7041 39.4703 25.6476 39.4213 25.5861C39.2668 25.048 39.3967 24.4779 39.2496 23.9373C39.2671 23.5205 39.1847 23.1055 39.0094 22.7272C38.834 22.3488 38.5708 22.0181 38.2417 21.7626C37.17 20.8681 36.7703 19.7058 36.579 18.4182C36.2994 16.6096 35.2915 15.2851 33.8421 14.2604C32.795 13.5232 31.5933 13.0318 30.5094 12.3757C28.8908 11.3928 27.1987 11.6557 25.5041 11.8277C23.7538 12.0332 22.109 12.7736 20.7931 13.9483C19.4174 15.1229 18.3408 16.5064 17.9435 18.3223C17.6664 19.551 17.8552 20.6789 18.6939 21.6643C18.9434 21.958 19.1705 22.2702 19.3732 22.598C19.7999 23.2959 19.7067 23.6989 19.0348 24.1634C18.6542 24.3974 18.3055 24.6799 17.9974 25.0037C17.9037 25.0863 17.8402 25.1979 17.8171 25.3208C17.794 25.4437 17.8126 25.5709 17.8699 25.682C17.9639 25.8424 18.0046 26.0285 17.9861 26.2136C17.9675 26.3987 17.8908 26.5731 17.7669 26.7116C17.4358 27.1301 17.2622 27.652 17.2764 28.186C17.259 28.3714 17.3039 28.5573 17.404 28.7143C17.4071 28.8163 17.4337 28.9161 17.4818 29.0061C17.5299 29.0961 17.5981 29.1736 17.6811 29.2328Z" fill="#252525"/>
<path d="M17.6811 29.2328C17.5984 29.1726 17.5307 29.0941 17.4835 29.0032C17.4363 28.9124 17.4107 28.8118 17.4089 28.7094C18.6915 28.0729 19.9692 27.4242 21.2616 26.8099C21.6221 26.6379 21.8894 26.4536 21.936 26.0285C21.9703 25.7115 22.218 25.4535 22.2254 25.0677C21.8379 25.3994 21.4897 25.7016 21.139 25.999C21.063 26.0604 20.9747 26.1857 20.8717 26.085C20.8251 26.0408 20.8398 25.9081 20.8717 25.8245C21.0644 25.1514 21.4676 24.558 22.0218 24.1314C22.7146 23.5638 23.4905 23.1063 24.3221 22.775C25.2246 22.399 26.1369 22.5293 27.0467 22.7381C27.0614 22.7364 27.0762 22.7364 27.0909 22.7381C27.2953 22.974 27.5565 23.1537 27.8495 23.2603C28.1426 23.367 28.458 23.397 28.7658 23.3476C28.9694 23.3156 29.0675 23.5933 29.1239 23.78C29.271 24.2715 29.3691 24.7949 29.6806 25.2348C29.7402 25.3182 29.7724 25.4183 29.7724 25.521C29.7724 25.6237 29.7402 25.7238 29.6806 25.8073C29.5628 25.9793 29.3985 25.8073 29.2489 25.8343C29.3814 27.1859 29.5653 28.5546 28.2533 29.4982C28.2018 29.2696 28.3587 29.1222 28.4544 28.9527C29.3789 27.3063 28.9963 25.4657 27.4366 24.7261C26.7473 24.4117 26.0054 24.2292 25.2491 24.188C24.2682 24.1339 23.4761 24.6794 22.8802 25.478C22.8213 25.5591 22.7624 25.6525 22.8311 25.7238C22.9488 25.854 23.0763 25.7238 23.1377 25.655C23.6599 25.2449 24.2824 24.9827 24.9401 24.8957C25.2902 24.8345 25.649 24.8443 25.9953 24.9245C26.3415 25.0047 26.6682 25.1537 26.956 25.3625C27.0541 25.4264 27.2012 25.5174 27.1276 25.6451C27.0541 25.7729 26.9167 25.6451 26.8039 25.6058C26.3135 25.4682 25.823 25.3281 25.3325 25.2397C25.1404 25.2153 24.9453 25.232 24.7602 25.2888C24.575 25.3456 24.404 25.441 24.2584 25.569C24.1946 25.6181 24.1284 25.6599 24.1652 25.7533C24.202 25.8466 24.2805 25.8393 24.3565 25.8245L25.2148 25.6427C26.029 25.4633 26.441 25.7508 26.5023 26.5838C26.5244 26.9131 26.7181 26.8074 26.8849 26.8099C27.0516 26.8123 27.2503 26.7632 27.2944 26.9278C27.3385 27.0925 27.1178 27.1465 26.9879 27.2129C25.8892 27.7682 24.7562 27.9919 23.5546 27.5741C23.4074 27.525 23.2554 27.5102 23.172 27.3554C23.7556 27.5397 24.2952 27.3063 24.9058 27.2178C24.6656 26.9392 24.5334 26.5834 24.533 26.2152C24.0205 26.6133 23.5349 26.9057 23.1793 27.3628C22.9341 27.4684 22.6889 27.5643 22.4436 27.6822C22.1984 27.8002 22.272 27.9869 22.3333 28.1737C22.5273 28.747 22.8984 29.2435 23.3927 29.5916C23.6812 29.7961 23.9902 29.9699 24.3148 30.11C24.43 30.1641 24.636 30.1838 24.56 30.373C24.5085 30.4885 24.3442 30.4393 24.224 30.4C22.8973 29.9675 22.0562 29.0952 21.8379 27.697C21.7815 27.3407 21.654 27.4021 21.421 27.5127C20.2978 28.0508 19.1722 28.5791 18.0441 29.1099C17.9166 29.1615 17.7964 29.1836 17.6811 29.2328ZM25.2663 27.0556C25.2663 27.0556 25.2835 27.0556 25.2933 27.0384C25.232 27.0212 25.2148 26.9082 25.2124 26.864C25.2124 26.5961 25.3938 26.2644 24.896 26.139C24.7954 26.5175 24.8347 26.9868 25.2663 27.0556Z" fill="#D13058"/>
<path d="M39.267 23.9201C39.4141 24.4607 39.2841 25.0308 39.4386 25.5689C39.1934 25.8441 39.1787 26.2152 39.0315 26.5346C38.7932 27.0365 38.4236 27.4642 37.9619 27.7723C37.5003 28.0804 36.964 28.2573 36.41 28.2842C36.3486 28.2749 36.2885 28.2584 36.2309 28.2351C36.616 28.0606 36.9519 27.9205 37.2756 27.7584C38.0298 27.3861 38.6114 26.7364 38.8991 25.9449C38.9908 25.7313 39.0287 25.4984 39.0095 25.2667C38.9776 25.0013 38.904 24.7457 38.5313 24.7875C38.2566 24.817 38.0874 24.6351 37.9329 24.4336C37.0329 23.2541 36.4369 23.1042 35.0538 23.6252C34.7424 23.7431 34.3647 23.6596 34.0483 23.8439C34.0047 23.8652 33.9545 23.8683 33.9086 23.8527C33.8626 23.8371 33.8247 23.8039 33.8031 23.7603C33.7344 23.6301 33.8399 23.5637 33.9282 23.5146C34.218 23.3095 34.5339 23.1442 34.8674 23.0231L35.6228 22.7602C34.8404 22.3007 33.6167 22.8192 33.1557 23.7603C32.8001 23.9078 32.6848 24.3231 32.3415 24.5344C32.4223 23.776 32.7654 23.0698 33.3115 22.5383C33.8575 22.0069 34.572 21.6838 35.3309 21.6249C35.6182 21.6163 35.9015 21.5555 36.1672 21.4456C36.2358 21.5832 36.3781 21.5684 36.4909 21.5832C37.8152 21.7576 38.6759 22.5022 39.1419 23.7382C39.1775 23.8028 39.2194 23.8637 39.267 23.9201Z" fill="#D13058"/>
<path d="M27.4292 36.4843C28.0864 36.4499 28.6382 36.1968 29.1998 35.9929C30.0262 35.7004 30.838 35.3785 31.6521 35.0714C31.8333 34.9846 32.0326 34.9425 32.2333 34.9485C32.9114 35.0043 33.5915 34.8671 34.1952 34.5529C34.9309 34.2015 35.7083 34.1745 36.4833 34.0614C37.067 33.9828 37.68 33.9779 38.043 33.3463C38.1828 33.1006 38.5335 33.1178 38.8081 33.1154C38.9087 33.1154 38.997 33.1276 39.0166 33.2431C39.0362 33.3586 39.0019 33.4495 38.8964 33.4594C38.6732 33.4815 38.6046 33.6633 38.4918 33.8009C38.1803 34.2124 37.7245 34.4899 37.2165 34.5774C36.2528 34.7622 35.3037 35.0168 34.3767 35.3392C32.8342 35.811 31.2132 35.9511 29.6731 36.4401C29.0861 36.6255 28.4849 36.7619 27.8755 36.848C27.7257 36.88 27.5699 36.868 27.4267 36.8136C27.2722 36.7497 27.0123 36.7276 27.0343 36.5556C27.0687 36.3393 27.3188 36.5212 27.4292 36.4843Z" fill="#D13058"/>
<path d="M35.5221 29.9209C35.4368 30.0964 35.4009 30.2918 35.4182 30.4862C35.4355 30.6806 35.5053 30.8666 35.6202 31.0242C35.6865 31.1024 35.7229 31.2017 35.7229 31.3044C35.7229 31.407 35.6865 31.5063 35.6202 31.5845C35.3875 31.8703 35.2253 32.2071 35.1468 32.5674C34.7299 33.9435 33.4743 34.2335 32.4493 33.2014C32.0814 32.8063 31.67 32.4543 31.2231 32.1521C30.9776 31.96 30.6669 31.8718 30.3574 31.9064C30.3245 31.9163 30.2899 31.9192 30.2559 31.9148C30.2218 31.9105 30.189 31.899 30.1597 31.8812C30.1303 31.8634 30.105 31.8395 30.0854 31.8113C30.0658 31.783 30.0524 31.751 30.0459 31.7172C30.0332 31.6798 30.029 31.6401 30.0336 31.601C30.0381 31.5618 30.0513 31.5241 30.0722 31.4907C30.0931 31.4573 30.1212 31.4289 30.1544 31.4078C30.1876 31.3866 30.2251 31.3731 30.2642 31.3682C30.9426 31.2535 31.6395 31.3888 32.2261 31.7491C32.2817 31.7794 32.3235 31.8301 32.3427 31.8905C32.3619 31.951 32.357 32.0166 32.3291 32.0735C32.1378 32.4495 32.3978 32.4347 32.6185 32.3979C33.4891 32.243 34.2027 31.8204 34.5362 30.98C34.7256 30.5187 35.076 30.1423 35.5221 29.9209Z" fill="#D13058"/>
<path d="M25.1509 36.6538C25.0118 36.5815 24.8969 36.4698 24.8206 36.3326C24.7443 36.1954 24.7099 36.0388 24.7218 35.8822C24.7413 35.2009 24.9447 34.5377 25.3103 33.963C26.0736 32.6933 27.0086 31.5355 28.0889 30.5228C28.2507 30.3705 28.4592 30.1075 28.6701 30.2574C28.881 30.4073 28.7191 30.6875 28.6137 30.8767C28.2436 31.6178 27.8224 32.3321 27.3531 33.0145C26.5851 34.0903 25.8959 35.2203 25.2907 36.3958L25.1509 36.6538Z" fill="#040404"/>
<path d="M37.6703 24.6425C37.739 24.9816 37.4006 25.4092 36.8537 25.478C36.1531 25.5717 35.4447 25.5931 34.7398 25.5419C34.6481 25.5453 34.5572 25.5244 34.4762 25.4812C34.3952 25.4381 34.3271 25.3742 34.2787 25.2961C34.6784 25.1143 35.1272 25.1438 35.5294 24.9128C35.4228 24.7852 35.3455 24.6355 35.3031 24.4746C35.2607 24.3136 35.2543 24.1452 35.2842 23.9815C34.3964 24.3132 33.9526 25.2396 33.0427 25.4362C33.0432 25.3656 33.062 25.2963 33.0973 25.2351C33.1325 25.174 33.183 25.123 33.2438 25.0873C34.0948 24.4557 34.8477 23.6129 36.0199 23.6129C36.5275 23.6129 37.1038 23.549 37.4055 24.1338C37.4839 24.269 37.6041 24.3059 37.6703 24.6425ZM35.5073 24.1019C35.5073 24.5442 35.5883 24.6671 35.9978 24.8735C36.1033 24.4484 35.782 24.296 35.5073 24.1019Z" fill="#D13058"/>
<path d="M39.7671 33.8058C39.6028 33.7001 39.6224 33.56 39.6126 33.4495C39.5145 32.3584 38.8769 31.6188 38.0505 30.9922C37.5537 30.6282 37.0362 30.2934 36.5006 29.9896C36.3019 29.8741 36.1058 29.7438 36.2137 29.4981C36.3216 29.2524 36.5545 29.3286 36.736 29.3998C38.2442 29.997 39.387 30.9922 39.9927 32.5304C40.0774 32.743 40.1011 32.975 40.0613 33.2003C40.0214 33.4256 39.9195 33.6353 39.7671 33.8058Z" fill="#040404"/>
<path d="M31.6178 30.8029C30.5878 30.7685 29.9992 30.1714 30.1684 29.1393C30.2762 28.4132 30.2837 27.6756 30.1905 26.9474C30.1684 26.7238 30.0532 26.3675 30.3426 26.2987C30.6319 26.2299 30.73 26.5936 30.8159 26.827C31.0611 27.5249 31.2892 28.1908 30.8428 28.9427C30.4799 29.5521 31.0047 30.4319 31.6816 30.5351C31.8066 30.5547 31.9783 30.4785 32.0396 30.6579C32.0739 30.7587 31.9219 30.8127 31.6178 30.8029Z" fill="#D13058"/>
<path d="M24.4863 29.1418C24.0095 29.1576 23.5342 29.0817 23.086 28.9182C22.9952 28.8814 22.8554 28.8322 22.8873 28.7044C22.9192 28.5766 23.0614 28.6209 23.1595 28.643C24.0289 28.8645 24.9442 28.8243 25.7909 28.5275C26.2761 28.3353 26.7242 28.0601 27.1152 27.7141C27.2844 27.5765 27.5198 27.3234 27.6989 27.552C27.8779 27.7805 27.64 28.0238 27.4389 28.1982C26.5904 28.9379 25.5776 29.1639 24.4863 29.1418Z" fill="#D13058"/>
<path d="M36.2307 35.6857C34.8819 36.8455 31.6473 37.7129 30.7914 37.0544C32.7459 37.1478 34.5043 36.4695 36.2307 35.6857Z" fill="#040404"/>
<path d="M38.2931 25.4412C38.2685 26.144 38.0478 26.4609 37.4519 26.6698C36.6341 27.0083 35.7212 27.0363 34.8843 26.7484C34.7828 26.7268 34.6869 26.6844 34.6025 26.6239C34.5181 26.5635 34.4471 26.4862 34.3938 26.3971C34.4842 26.3589 34.5814 26.3392 34.6795 26.3392C34.7776 26.3392 34.8748 26.3589 34.9652 26.3971C35.7358 26.5563 36.5359 26.4906 37.2704 26.2078C37.6922 26.0653 37.9424 25.7066 38.2931 25.4412Z" fill="#D13058"/>
<path d="M29.798 30.1076C29.0623 30.8448 29.1089 31.4689 29.9844 32.1693C30.0506 32.2233 30.2297 32.2258 30.1414 32.388C30.0899 32.4936 29.9893 32.4838 29.8961 32.4691C29.1334 32.3315 28.6185 31.3141 28.9544 30.6138C29.0263 30.453 29.1458 30.3182 29.2967 30.2277C29.4476 30.1371 29.6226 30.0952 29.798 30.1076Z" fill="#040404"/>
<path d="M31.6938 24.0233C31.7596 24.0905 31.809 24.1721 31.8379 24.2616C31.8669 24.3512 31.8746 24.4463 31.8606 24.5394C31.5807 24.4522 31.2835 24.4372 30.9963 24.4956C30.7091 24.554 30.4413 24.684 30.2175 24.8735C30.1145 24.9497 29.9723 25.0775 29.8594 24.9178C29.8335 24.8833 29.816 24.8431 29.8084 24.8005C29.8008 24.758 29.8033 24.7142 29.8157 24.6728C29.8281 24.6314 29.8501 24.5936 29.8799 24.5622C29.9096 24.5309 29.9463 24.5071 29.987 24.4927C30.4047 24.2582 30.8682 24.1173 31.3456 24.0798C31.4633 24.0602 31.5982 24.1241 31.6938 24.0233Z" fill="#D13058"/>
<path d="M27.0345 35.9437C27.07 35.943 27.1055 35.9472 27.14 35.956C27.2724 36.01 27.5004 35.9854 27.4955 36.1624C27.4906 36.3393 27.2773 36.3172 27.1522 36.3123C26.7623 36.2926 26.6029 36.5801 26.3969 36.8185C26.3478 36.875 26.316 36.9978 26.1909 36.9413C26.0658 36.8848 26.0879 36.7693 26.1075 36.6686C26.1582 36.4609 26.2773 36.2765 26.4455 36.1449C26.6137 36.0134 26.8212 35.9425 27.0345 35.9437Z" fill="#D13058"/>
<path d="M36.5863 20.8559C36.4588 20.5807 36.0958 20.6101 35.7917 20.6323C35.7007 20.6452 35.6106 20.6641 35.522 20.6888C35.1787 20.7674 34.8378 20.878 34.4895 20.9222C34.1521 20.9573 33.8264 21.0655 33.535 21.2395C33.2437 21.4135 32.9936 21.6491 32.8023 21.9297C32.6674 22.114 32.4811 22.2615 32.3413 22.4212C31.9602 22.8646 31.733 23.4199 31.6938 24.0037C31.7597 24.0708 31.809 24.1524 31.838 24.242C31.8669 24.3316 31.8747 24.4266 31.8606 24.5197C32.1449 24.8607 32.3749 25.2436 32.5424 25.655C32.5472 25.7145 32.565 25.7723 32.5947 25.8241C32.6244 25.876 32.6651 25.9206 32.714 25.9548C32.8366 26.606 32.974 27.2645 33.3639 27.8125C33.7538 28.3605 34.1953 28.8298 34.416 29.4712C34.4871 29.6776 34.7201 29.6727 34.7299 29.4908C34.747 29.2033 34.9432 29.223 35.1836 29.1517C35.0143 28.992 34.8966 28.879 34.7765 28.7708C34.5933 28.6536 34.4281 28.5104 34.286 28.3457C34.0353 27.8855 33.7029 27.4749 33.3051 27.1343C33.2606 27.1035 33.2249 27.0618 33.2013 27.0132C33.1776 26.9645 33.1669 26.9106 33.1702 26.8566C33.1922 26.4954 32.9985 26.2103 32.8342 25.9155C32.8192 25.8523 32.7891 25.7937 32.7463 25.7449C32.7036 25.696 32.6495 25.6584 32.589 25.6353C32.5722 25.5372 32.5813 25.4365 32.6153 25.343C32.6492 25.2495 32.7069 25.1664 32.7827 25.1021C33.2903 24.7433 33.5675 24.3403 33.1334 23.7432C32.7778 23.8906 32.6625 24.3059 32.3192 24.5173C32.4 23.7588 32.7432 23.0526 33.2892 22.5212C33.8352 21.9898 34.5497 21.6666 35.3086 21.6078C35.5959 21.5992 35.8793 21.5384 36.1449 21.4284C36.3435 21.2589 36.7187 21.1336 36.5863 20.8559Z" fill="#040404"/>
</svg>
