<svg width="60" height="60" viewBox="0 0 60 60" fill="none" xmlns="http://www.w3.org/2000/svg">
<path fill-rule="evenodd" clip-rule="evenodd" d="M36.7732 7.62766C38.8194 8.47512 40.6084 9.83683 41.9645 11.579C44.9732 15.423 46.3902 21.1701 45.9073 25.9736C45.3577 31.2189 43.0479 36.3884 39.7247 40.4912L39.6476 40.5854C37.9933 42.6055 36.257 44.7256 34.3236 46.4877C33.7688 46.9968 33.171 47.4775 32.571 47.9598C31.8172 48.5658 31.0602 49.1744 30.3809 49.8457C30.5334 49.8804 30.6954 49.9183 30.8511 49.9593C30.8767 49.9666 30.9004 49.9792 30.9207 49.9963C30.9411 50.0134 30.9575 50.0346 30.9689 50.0584C30.9803 50.0823 30.9865 50.1084 30.987 50.1348C30.9875 50.1612 30.9823 50.1875 30.9718 50.2118C31.563 50.2565 32.1516 50.3313 32.7351 50.4359C32.7742 50.4463 32.8088 50.4693 32.8334 50.5013C32.858 50.5332 32.8714 50.5723 32.8714 50.6126C32.8714 50.6528 32.858 50.692 32.8334 50.7239C32.8088 50.7559 32.7742 50.7789 32.7351 50.7893H32.6906C32.6885 50.8131 32.6796 50.8359 32.665 50.8549C32.6504 50.8739 32.6306 50.8884 32.608 50.8966L31.9154 51.2122C32.6388 51.1347 33.3697 51.2525 34.0314 51.5531C34.0593 51.5713 34.0816 51.5969 34.0956 51.6271C34.1096 51.6573 34.1147 51.6908 34.1104 51.7238C34.1061 51.7567 34.0925 51.7878 34.0712 51.8134C34.0499 51.8391 34.0218 51.8582 33.9901 51.8687C30.2729 53.2447 25.9298 53.8822 22.1173 52.4999C21.9171 52.4336 21.9966 52.118 22.2062 52.1843C24.786 53.0017 27.2356 52.6104 29.6279 51.7835C28.1696 51.9949 26.7558 52.0991 25.7741 51.1523C24.9354 51.1586 24.0998 51.1807 23.261 51.2533C23.0736 51.2533 23.0704 50.9976 23.2197 50.9377C23.8782 50.6783 24.5744 50.5259 25.2817 50.4864C25.2738 50.456 25.2739 50.4241 25.282 50.3938C25.2902 50.3635 25.306 50.3357 25.328 50.3132C25.35 50.2907 25.3775 50.2742 25.4077 50.2653C25.438 50.2564 25.4701 50.2553 25.5009 50.2623C25.9457 50.357 26.4 50.439 26.8638 50.5084C27.3009 50.5377 27.7403 50.5783 28.1781 50.6187C28.259 50.6261 28.3398 50.6336 28.4206 50.641C28.1792 50.5305 27.9441 50.4106 27.709 50.2844C27.1966 50.2207 26.6893 50.1226 26.1903 49.9909C26.148 49.9773 26.1118 49.9494 26.0879 49.9121C26.0641 49.8748 26.0541 49.8304 26.0598 49.7866C26.0654 49.7427 26.0864 49.7023 26.1189 49.6721C26.1514 49.642 26.1936 49.6241 26.238 49.6216H26.5938L26.5716 49.59C26.3047 49.407 26.041 49.2145 25.7836 49.0093C24.4966 47.9695 23.3154 46.8067 22.2571 45.5377C22.239 45.5236 22.2248 45.5051 22.2158 45.4841C21.6121 44.7803 21.0434 44.0355 20.5033 43.2749C20.2364 42.8961 19.9791 42.5174 19.7249 42.1355C19.7027 42.1161 19.6862 42.091 19.6773 42.0629C17.7667 39.209 16.2844 36.0939 15.277 32.8158C15.2442 32.7957 15.2193 32.7649 15.2066 32.7287C15.1939 32.6925 15.1941 32.6531 15.2071 32.617C14.7893 31.193 14.4771 29.7405 14.2731 28.2712C14.0925 26.9533 14.0033 25.6246 14.0062 24.2946C13.9979 24.2646 13.9979 24.233 14.0062 24.2031C14.0001 21.5565 14.4791 18.931 15.42 16.455L15.3946 16.4771V16.4519L15.4549 16.4045C16.0599 14.8643 16.9023 13.4269 17.9521 12.1439C21.161 8.26517 26.3333 4.96082 31.55 6.30529C33.3387 6.30529 35.2037 6.9712 36.7732 7.62766ZM25.4437 50.7799C25.2404 50.7956 25.0243 50.8177 24.8083 50.8493C25.026 50.84 25.2528 50.8368 25.4709 50.8337L25.485 50.8335L25.4437 50.7799ZM27.7884 49.4575C28.7193 49.1766 29.6152 48.8862 30.527 48.5454C30.621 48.4694 30.713 48.3971 30.8041 48.3256C30.8795 48.2664 30.9543 48.2077 31.029 48.1477C32.5773 45.4177 34.3916 42.7914 36.1912 40.1864C36.9027 39.1565 37.6118 38.13 38.3014 37.1017C40.376 34.0277 42.4824 31.0137 44.735 28.0818C44.7943 27.7788 44.8451 27.4769 44.8875 27.176C45.0219 26.2161 45.0888 25.248 45.0876 24.2788C43.8849 27.5934 41.637 30.3574 39.4027 33.1045C38.5501 34.1528 37.6995 35.1986 36.9098 36.2717C35.2863 38.4872 33.5707 40.5638 31.7629 42.6373C30.0219 44.6383 28.3158 46.6802 27.1371 49.0567L27.3976 49.2271L27.7884 49.4575ZM39.1343 32.9427C41.4271 30.1403 43.749 27.3022 45.0844 23.979C45.0781 23.5214 45.0622 23.0574 45.0272 22.5966C43.814 24.6239 42.4337 26.5447 41.0542 28.4643C40.8767 28.7112 40.6992 28.9582 40.5221 29.2053C39.4899 30.6359 38.5164 32.0969 37.5431 33.5577C36.9167 34.4977 36.2904 35.4377 35.6485 36.3695C34.2191 38.46 32.6119 40.425 30.8447 42.2428C30.5795 42.5125 30.3077 42.7828 30.0336 43.0553C28.4886 44.5913 26.8723 46.1983 25.9711 48.1604C26.2538 48.3971 26.5461 48.6243 26.848 48.8389C28.3098 45.8846 30.5324 43.347 32.7405 40.8261C34.007 39.3803 35.2687 37.9399 36.3792 36.4295C37.2449 35.2522 38.1871 34.1005 39.1343 32.9427ZM27.0375 37.4215C25.1385 39.35 23.2403 41.2777 21.6693 43.4895C22.004 43.9481 22.3492 44.3879 22.705 44.8087C23.6809 43.6224 24.73 42.5025 25.7797 41.3821C26.6847 40.416 27.5901 39.4496 28.4492 38.4398C28.7539 38.0856 29.0563 37.7254 29.3596 37.364C30.6914 35.7772 32.0428 34.167 33.7041 32.9357C32.769 33.1775 31.8103 33.3183 30.8447 33.3555C29.6457 34.7727 28.3414 36.0973 27.0375 37.4215ZM23.6518 30.8054C26.3682 32.4971 30.0568 32.7527 33.1354 32.0678C35.9757 31.4335 38.5523 29.9912 39.9376 27.3464C40.5744 26.1639 40.9451 24.858 41.0241 23.5192C41.1031 22.1804 40.8884 20.8405 40.3951 19.5921C39.3434 17.0736 37.3736 14.7382 34.8669 13.561C32.5286 12.4658 29.9742 12.1597 27.4135 12.1313C25.5072 12.4122 23.6899 12.996 22.3301 14.5109C19.8997 17.2125 18.9243 20.4348 19.8774 23.979L19.879 23.9847C20.5458 26.4735 21.3153 29.3453 23.6518 30.8054ZM19.2579 39.8411C19.5311 40.3061 19.815 40.7658 20.1094 41.2203L20.0998 41.2077C20.1122 41.2265 20.1246 41.2443 20.1367 41.2617C20.1712 41.3113 20.2034 41.3576 20.2269 41.416C20.9156 40.7334 21.6094 40.0539 22.3037 39.3739C24.3542 37.3656 26.4092 35.3529 28.3507 33.245C27.5831 33.1633 26.8234 33.0197 26.0791 32.8158C25.2361 33.8467 24.1953 34.729 23.1539 35.6119C21.6637 36.8751 20.1724 38.1394 19.2579 39.8411ZM21.6136 34.3365C20.3576 35.5794 19.101 36.8229 18.489 38.4619L18.4795 38.4493C18.6553 38.7817 18.8364 39.1131 19.0228 39.4435C20.0098 37.7145 21.5676 36.4599 23.1236 35.2067C24.087 34.4308 25.0497 33.6555 25.8758 32.7685C25.1575 32.5593 24.4649 32.2713 23.8107 31.91C23.1837 32.7829 22.3988 33.5596 21.6136 34.3365ZM17.5372 36.5277C17.7646 37.0356 18.0067 37.5373 18.2635 38.0327C19.0014 36.3855 20.329 35.1666 21.6526 33.9513C22.3807 33.2828 23.1076 32.6154 23.7344 31.8785C23.2833 31.6202 22.8578 31.3201 22.4636 30.9822C22.2782 31.1465 22.0893 31.3121 21.8984 31.4794C20.2346 32.9378 18.4212 34.5272 17.5372 36.5277ZM21.1483 29.5399C19.5311 31.0421 17.9267 32.5823 16.6559 34.3938C16.8656 34.984 17.1229 35.5868 17.3834 36.1801C18.4541 33.9962 20.5033 32.3677 22.4255 30.9538C22.0533 30.6333 21.7129 30.2782 21.4088 29.8933C21.3198 29.7797 21.2309 29.6598 21.1483 29.5399ZM15.9698 32.275C16.5761 31.5004 17.2732 30.8117 17.9698 30.1234C18.733 29.3694 19.4957 28.6159 20.138 27.7504C20.4073 28.3408 20.7262 28.9078 21.0911 29.4452C19.4612 30.8591 17.8473 32.3235 16.5479 34.0435C16.3374 33.4602 16.1447 32.8707 15.9698 32.275ZM15.1023 28.2743L15.1309 28.4952C15.1976 28.9118 15.277 29.3253 15.3564 29.7387C15.7546 29.3068 16.1905 28.9107 16.659 28.5552C17.318 27.9654 17.9992 27.4025 18.679 26.8408C18.9596 26.6089 19.24 26.3773 19.5184 26.144C19.3008 25.4851 19.1236 24.8138 18.9879 24.1336C17.9362 25.699 16.6559 27.2328 15.1023 28.2743ZM17.0724 18.6914C16.4572 19.2518 15.8367 19.817 15.1849 20.3148C14.9969 21.3661 14.8833 22.4291 14.8449 23.4961C16.369 22.1582 17.7528 20.6704 18.9751 19.0556C19.4833 16.8735 20.6894 14.9136 22.4128 13.4694C23.7263 12.411 25.3381 11.7836 27.0259 11.6737C27.0404 11.5979 27.0824 11.5301 27.1439 11.483C27.2053 11.4359 27.282 11.4128 27.3595 11.418C27.9822 11.4212 28.5954 11.4338 29.2308 11.4717H29.2562L29.755 11.5096C29.8778 11.405 30.0071 11.2757 30.1247 11.1581C30.2412 11.0416 30.3463 10.9365 30.4222 10.8784C30.9941 10.446 31.5786 10.0357 32.1886 9.65697C32.9409 9.18966 33.7074 8.7473 34.4749 8.30445C34.7285 8.15811 34.9822 8.01172 35.2355 7.86436C34.408 7.52783 33.5589 7.24632 32.6938 7.0217C32.1607 7.4623 31.6539 7.929 31.1467 8.39599C30.5386 8.95593 29.9301 9.51629 29.2753 10.0325C29.1795 10.1077 29.0771 10.1911 28.9692 10.279C28.2433 10.8706 27.2676 11.6658 26.3714 11.5064C26.3626 11.5023 26.3552 11.4959 26.35 11.4878C26.3448 11.4797 26.3421 11.4702 26.3421 11.4606C26.3421 11.451 26.3448 11.4416 26.35 11.4335C26.3552 11.4254 26.3626 11.4189 26.3714 11.4149C27.9769 10.5816 29.2591 9.45267 30.5644 8.30333C31.0983 7.83328 31.636 7.35981 32.2014 6.90177C31.8995 6.82918 31.6168 6.76606 31.2991 6.70926C30.3543 7.37481 29.4075 8.03642 28.461 8.69778C24.1204 11.7308 19.7874 14.7585 15.7027 18.1372C15.5375 18.68 15.3956 19.2302 15.277 19.7878C15.772 19.2902 16.3352 18.8426 16.8888 18.4025C17.2376 18.1252 17.5827 17.8509 17.9045 17.5691C17.9728 17.5101 18.0412 17.4512 18.1096 17.3923C19.3684 16.3075 20.6149 15.2332 21.6757 13.946C21.6947 13.9334 21.6947 13.9618 21.6947 13.9618C20.6419 15.3572 19.438 16.6336 18.1046 17.7679C17.7592 18.0658 17.4166 18.3778 17.0724 18.6914ZM18.6987 21.937C18.6575 21.0689 18.729 20.1991 18.9116 19.3491C17.7341 21.0171 16.3651 22.5434 14.8322 23.8969C14.8174 24.6586 14.8354 25.4192 14.8862 26.1787C15.9377 25.3778 16.7665 24.3434 17.5936 23.3111C17.9561 22.8587 18.3183 22.4067 18.6987 21.9749C18.7003 21.9623 18.7003 21.9496 18.6987 21.937ZM17.7408 23.4204C16.8856 24.533 16.0279 25.6489 14.8989 26.5038C14.9371 26.9835 14.9911 27.4506 15.0546 27.9177C16.5446 26.8104 17.8596 25.4882 18.9561 23.9948C18.8385 23.3984 18.7568 22.7956 18.7114 22.1895C18.3789 22.5902 18.06 23.0051 17.7408 23.4204ZM19.0321 26.7526C18.3557 27.3591 17.6807 27.9642 17.0276 28.5931V28.6025C16.7292 28.8886 16.445 29.1898 16.1626 29.489C15.9278 29.7378 15.6943 29.9852 15.4549 30.2216C15.5672 30.7602 15.6932 31.2862 15.833 31.7996C16.5851 30.9112 17.4452 30.1214 18.3074 29.3295C18.9095 28.7766 19.5126 28.2227 20.0808 27.6336C20.0833 27.6325 20.086 27.6319 20.0887 27.6319C20.0915 27.6319 20.0942 27.6325 20.0967 27.6336C19.887 27.195 19.7249 26.7373 19.5693 26.2702C19.3904 26.4314 19.2112 26.5921 19.0321 26.7526ZM41.3916 16.1776C41.8273 15.6091 42.2633 15.0401 42.8001 14.5993C42.6872 14.3803 42.5675 14.1636 42.4448 13.9415C42.4225 13.9011 42.4 13.8606 42.3776 13.8198C41.7693 14.2771 41.2922 14.852 40.8162 15.4257C40.4743 15.8378 40.1329 16.2492 39.7438 16.616C39.9534 16.8842 40.1472 17.1588 40.3315 17.4397C40.7159 17.0592 41.0536 16.6185 41.3916 16.1776ZM42.8649 17.7175C43.1383 17.3457 43.4119 16.9739 43.7024 16.6128C43.4762 16.0303 43.2206 15.4594 42.9367 14.9023C42.8512 14.9938 42.7652 15.0849 42.6792 15.176C42.3502 15.5249 42.0209 15.8739 41.7135 16.2467C41.325 16.7401 40.9002 17.2043 40.4427 17.6354C40.6688 17.9978 40.8735 18.373 41.0559 18.7589C41.5398 17.7665 42.1837 16.8593 42.9621 16.0732C43.067 15.969 43.229 16.13 43.1273 16.2373C42.3369 17.0193 41.6533 17.9011 41.094 18.8599C41.1989 19.0903 41.3005 19.3239 41.3863 19.5606C41.9345 18.9822 42.3996 18.3499 42.8649 17.7175ZM43.0071 20.4934C42.668 20.9872 42.3294 21.4802 41.9391 21.9339C42.0001 22.501 42.0086 23.0726 41.9645 23.6413C41.9195 24.1277 41.842 24.6105 41.7326 25.0867C42.3544 24.2696 42.7855 23.3369 43.217 22.4035C43.6321 21.5055 44.0475 20.6068 44.6333 19.8099C44.5602 19.4438 44.4744 19.0808 44.3791 18.7179C43.8537 19.2608 43.43 19.8777 43.0071 20.4934ZM44.2684 18.5239C44.287 18.5189 44.3068 18.5194 44.3251 18.5254C44.1885 18.0015 44.0233 17.4839 43.8422 16.9726C43.127 17.9575 42.3265 18.8783 41.4498 19.7247C41.6811 20.3884 41.8388 21.0752 41.9201 21.7729C42.2043 21.3873 42.4649 20.9817 42.7256 20.576C43.1818 19.8662 43.638 19.1563 44.2203 18.5538C44.233 18.5394 44.2497 18.529 44.2684 18.5239ZM44.7254 20.2927C43.9661 22.0854 43.0034 24.1052 41.6468 25.5096C41.0636 27.6924 39.7506 29.6133 37.9233 30.9569C35.0883 34.1874 32.4459 37.5824 29.8065 40.9735C28.1836 43.0586 26.5618 45.1423 24.8972 47.1852C25.2319 47.5134 25.5771 47.829 25.933 48.132C26.759 46.1437 28.3158 44.5215 29.8185 42.9877C31.8982 40.9192 33.7866 38.6694 35.461 36.2653C36.0482 35.4044 36.6277 34.5386 37.2071 33.673C38.3267 32.0002 39.4461 30.3277 40.6206 28.6909C40.7837 28.4617 40.9472 28.2325 41.1108 28.0033C42.4608 26.1114 43.816 24.2123 44.9891 22.2053C44.9319 21.5552 44.843 20.924 44.7254 20.2927ZM40.8398 15.0695C41.2519 14.5208 41.7372 14.0303 42.2822 13.6115H42.2505C42.0757 13.3274 41.8978 13.0465 41.6945 12.7751C41.6596 12.725 41.6223 12.6761 41.5848 12.6268C41.5609 12.5955 41.5369 12.564 41.5134 12.5321C41.4647 12.5794 41.4152 12.6261 41.3658 12.6727C41.267 12.766 41.1681 12.8593 41.0749 12.9582C40.9333 13.111 40.7952 13.2682 40.6573 13.4253C40.5077 13.5957 40.3582 13.766 40.2044 13.9302C39.7229 14.4821 39.1325 14.93 38.4697 15.2463C38.9197 15.6563 39.3392 16.0982 39.7247 16.5686C40.0615 16.0442 40.4341 15.5433 40.8398 15.0695ZM34.6064 10.427C35.4102 9.86212 36.2077 9.29403 36.9574 8.66283C36.5211 8.43139 36.0721 8.21573 35.6104 8.01585C35.1346 8.30416 34.6588 8.58401 34.185 8.86268C32.7606 9.70047 31.3546 10.5275 30.0219 11.5411C30.7703 11.6083 31.5132 11.7253 32.2458 11.8914C32.3051 11.9041 32.3644 11.9195 32.4238 11.9349C32.4534 11.9426 32.4831 11.9503 32.5127 11.9577L32.7383 11.7841C32.696 11.8185 32.655 11.8551 32.6136 11.8919C32.5866 11.9161 32.5594 11.9403 32.5318 11.964C33.6338 12.2508 34.6949 12.675 35.6898 13.2264C36.4992 12.7934 37.1638 12.2075 37.8314 11.619C38.2828 11.2211 38.7356 10.822 39.2354 10.4681C39.3085 10.4176 39.3879 10.528 39.3307 10.588C38.2952 11.6755 37.0772 12.5757 35.7311 13.2485C36.6604 13.7659 37.5261 14.3886 38.3109 15.1043C39.0745 14.7084 39.7365 14.1437 40.2457 13.4537C40.5517 13.0164 40.9054 12.6142 41.3005 12.2544C40.9952 11.8646 40.6663 11.4936 40.3156 11.1435C40.3236 11.1659 40.3236 11.1904 40.3156 11.2129C40.1177 11.6894 39.5812 12.1014 39.1223 12.4538C39.0067 12.5426 38.8961 12.6276 38.797 12.7088C38.4172 13.0203 38.0313 13.3241 37.6456 13.6278C37.4764 13.761 37.3072 13.8943 37.1385 14.0281C37.0528 14.0975 36.9257 13.9776 37.0115 13.9018C37.1774 13.7601 37.3441 13.6195 37.5107 13.4789C37.9342 13.1215 38.3571 12.7647 38.7652 12.3932C38.9326 12.2408 39.0949 12.0634 39.2588 11.8843C39.5428 11.5739 39.8316 11.2584 40.1599 11.0582C40.1783 11.0448 40.2007 11.0381 40.2235 11.0393C39.6835 10.5112 39.1001 10.0287 38.4793 9.59701C38.4788 9.61519 38.4739 9.633 38.4651 9.64892C38.4562 9.66485 38.4437 9.67843 38.4284 9.68853C37.2082 10.6839 35.9356 11.6141 34.6159 12.4753C34.5111 12.5479 34.4031 12.3743 34.5111 12.3017C35.0568 11.9421 35.5641 11.506 36.0726 11.0688C36.7688 10.4703 37.4672 9.86987 38.2696 9.4613C37.8841 9.1983 37.487 8.95423 37.0782 8.72911C36.4061 9.26594 35.6795 9.73453 34.9516 10.204C34.8365 10.2782 34.7214 10.3525 34.6064 10.427ZM27.6633 7.17022C27.9571 7.00623 28.2491 6.84326 28.5382 6.68085C28.6494 6.62089 28.7765 6.76922 28.678 6.84812C27.571 7.84713 26.2365 8.54791 24.8999 9.24974C23.7199 9.86937 22.5384 10.4898 21.5105 11.317C20.6509 12.0106 19.8249 12.7394 18.9995 13.4677C18.2812 14.1014 17.5634 14.7347 16.8243 15.3441C16.3986 16.1937 16.0427 17.0761 15.7599 17.9825C19.4317 14.6117 23.5589 11.7659 27.6788 8.92516C28.7778 8.16737 29.8763 7.40993 30.9655 6.64298C30.6986 6.59564 30.4317 6.55145 30.1648 6.51674C30.1577 6.51479 30.1511 6.5112 30.1456 6.50627C30.1401 6.50134 30.1358 6.4952 30.1331 6.48833C27.9282 6.53535 25.7689 7.12064 23.8456 8.19258C24.2618 7.98744 24.6939 7.80124 25.1165 7.62766C25.2149 7.58978 25.2658 7.73812 25.1863 7.79177C24.4961 8.24835 23.7723 8.61993 23.0538 8.98876C22.3072 9.372 21.5664 9.75229 20.875 10.2219C19.8269 11.1155 18.8913 12.1318 18.0887 13.2485C17.6551 13.859 17.2655 14.4992 16.9227 15.1642C17.4555 14.6844 17.9749 14.1885 18.4944 13.6925C19.5331 12.7006 20.5722 11.7083 21.7201 10.8436C23.5395 9.47164 25.6445 8.29686 27.6633 7.17022ZM20.9397 41.1071C20.7551 41.2889 20.5704 41.4707 20.3858 41.6527C20.7289 42.1608 21.0847 42.6784 21.4501 43.1865C23.3105 40.6204 25.575 38.4122 27.8412 36.2025C28.8025 35.265 29.7642 34.3273 30.6954 33.3618C30.3205 33.3871 29.9424 33.3807 29.5644 33.3618C29.1863 33.3429 28.8082 33.3145 28.4302 33.2734C26.0909 36.036 23.5192 38.5677 20.9397 41.1071ZM22.8437 44.9917C23.795 43.8411 24.8148 42.7578 25.8351 41.6739C26.6876 40.7682 27.5405 39.8622 28.3539 38.9164C28.7819 38.4188 29.2002 37.906 29.6199 37.3915C30.9545 35.7555 32.3034 34.102 34.0218 32.8632C35.1275 32.5547 36.1834 32.0913 37.1576 31.4871C34.282 34.7226 31.5999 38.1167 28.9179 41.5106C27.4899 43.3175 26.062 45.1245 24.6049 46.9074C23.9845 46.3 23.3966 45.6605 22.8437 44.9917ZM25.9743 50.7672H25.898L25.9647 50.8461H26.4191L25.9743 50.7672ZM26.3557 51.1523C27.3557 51.8011 28.7689 51.6126 30.1933 51.4227C30.4022 51.3948 30.6113 51.3669 30.8193 51.3416C31.0449 51.2501 31.2736 51.1554 31.4992 51.0576C30.1355 51.173 28.7657 51.1648 27.3963 51.1565C27.0494 51.1544 26.7025 51.1524 26.3557 51.1523ZM26.0791 52.9102C28.5924 52.9741 31.0953 52.5661 33.4563 51.7077V51.6951C32.6841 51.4801 31.8735 51.438 31.083 51.572C29.492 52.2648 27.8052 52.7159 26.0791 52.9102ZM29.5485 50.7609C30.2016 50.7676 30.8545 50.7296 31.5024 50.6473V50.6347C30.9273 50.5716 30.3491 50.5337 29.7677 50.5116C29.7489 50.5327 29.7299 50.5538 29.7109 50.5749C29.6559 50.636 29.6004 50.6976 29.5485 50.7609ZM31.9281 47.4187C32.4333 47.0179 32.9384 46.6139 33.4086 46.1879L33.4214 46.1752C35.1102 44.5808 36.6956 42.8815 38.1679 41.0877C38.5147 40.5226 38.8796 39.9647 39.2444 39.4069C39.7821 38.5847 40.3197 37.7629 40.7985 36.9186C41.7199 35.2744 42.6476 33.6206 43.6262 32.0047C44.0729 30.8164 44.4224 29.5942 44.6714 28.3501C42.3839 31.5692 40.1758 34.8451 37.9995 38.1337C37.2671 39.2404 36.556 40.3744 35.843 41.5113C34.5858 43.516 33.3229 45.5297 31.9281 47.4187ZM43.0735 33.3492C42.698 34.0158 42.3293 34.6873 41.9603 35.3595C41.5752 36.0609 41.1896 36.7632 40.7954 37.4615L40.4777 38.0422C41.483 36.5584 42.3518 34.9877 43.0735 33.3492ZM34.606 10.4276C33.9602 10.8396 33.3406 11.2907 32.7506 11.7784C33.3479 11.3113 33.977 10.8694 34.606 10.4276Z" fill="black"/>
</svg>
