<svg width="60" height="60" viewBox="0 0 60 60" fill="none" xmlns="http://www.w3.org/2000/svg">
<path fill-rule="evenodd" clip-rule="evenodd" d="M47.9157 35.1876C47.7256 32.6156 47.8351 30.1445 47.9503 27.5639C48.0527 26.0903 48.0064 24.6101 47.812 23.1457C47.7803 22.9384 47.7457 22.731 47.7112 22.5236C48.1088 21.3716 47.9993 19.7241 47.6334 18.6642C47.5533 18.4277 47.4366 18.2052 47.2876 18.0047C47.1844 17.6751 47.0115 17.3716 46.7806 17.1147C46.7806 17.037 46.7805 16.9563 46.7633 16.8757C46.4953 16.4499 46.1142 16.1069 45.6627 15.8849C44.9769 15.5398 44.184 15.4196 43.4224 15.3041C43.2241 15.274 43.0279 15.2443 42.8362 15.2109C41.4236 14.9653 40.0282 14.6296 38.6585 14.2058C38.0823 14.0157 32.0318 12.1638 29.8364 12.1666C28.4131 11.749 26.8256 12.1753 25.4426 12.7657C24.2586 13.2694 23.1659 13.928 22.0746 14.5857C20.7758 15.3686 19.4789 16.1503 18.0322 16.6683C17.9268 16.7061 17.8178 16.7449 17.7059 16.7847L17.7058 16.7848L17.7055 16.7849C14.8328 17.8077 9.98585 19.5334 11.1866 23.4309C11.1866 23.7477 11.1866 24.0674 11.2125 24.3871C11.2125 24.5204 11.2232 24.6537 11.2339 24.787C11.2399 24.8611 11.2458 24.9351 11.2499 25.0092C11.111 26.8357 11.1855 28.6722 11.4718 30.4815C11.4746 30.4995 11.4831 30.5162 11.4961 30.5292C11.509 30.5421 11.5257 30.5506 11.5438 30.5535C11.532 31.6784 11.4776 32.82 11.4229 33.967C11.291 36.7314 11.1577 39.5272 11.6159 42.1979C12.0941 44.9916 14.9926 46.1177 17.3523 46.9847C18.5473 47.4195 19.7783 47.6082 21.0127 47.7974L21.0128 47.7974L21.0128 47.7974L21.0129 47.7975L21.0129 47.7975L21.013 47.7975L21.013 47.7975L21.013 47.7975L21.0131 47.7975L21.0131 47.7975L21.0132 47.7975L21.0132 47.7975L21.0133 47.7976C21.8471 47.9253 22.6824 48.0534 23.5093 48.2577C25.0017 48.6258 26.6327 49.3524 28.1418 50.0247L28.1428 50.0251L28.1452 50.0262C28.4296 50.1529 28.7096 50.2776 28.9836 50.3976C30.3896 52.0624 34.0371 49.8418 35.2732 49.0468C36.1101 48.509 36.9308 47.9403 37.7519 47.3713L37.7522 47.3712C38.3951 46.9256 39.0384 46.4799 39.69 46.0486C41.7207 44.7553 43.8321 43.5932 46.0113 42.5694C46.0716 42.5384 46.1224 42.4916 46.1582 42.434C48.1664 41.0401 48.0944 37.5781 47.9157 35.1876ZM47.2243 38.5113C47.1292 40.0176 46.6307 41.0833 45.6771 41.8407C44.1213 42.1959 42.6586 43.094 41.2984 43.9292L41.1011 44.0502L41.0124 44.1045C39.4624 45.055 37.872 46.04 36.4026 47.1258C35.4798 47.8458 34.5117 48.5058 33.5041 49.1016C33.4719 49.0882 33.4379 49.0795 33.4033 49.0756C32.9913 49.0504 32.5912 48.9272 32.2364 48.7164C31.8816 48.5055 31.5823 48.2129 31.3634 47.8631C31.3824 47.3084 31.3467 46.7556 31.3158 46.2771L31.3158 46.277C31.3092 46.1742 31.3027 46.0748 31.2971 45.9795C31.199 44.2906 31.2754 42.6165 31.3519 40.9403V40.9403V40.9403V40.9403V40.9403V40.9403V40.9402V40.9402C31.4102 39.6638 31.4685 38.3862 31.4498 37.1C31.4338 35.9775 31.3258 34.8551 31.2177 33.7326C31.1317 32.839 31.0457 31.9453 31.0061 31.0517C30.9275 29.8856 30.9478 28.715 31.0666 27.5524C31.068 27.5312 31.068 27.5101 31.0666 27.489C31.1245 27.4768 31.1787 27.4512 31.2247 27.4141C31.2707 27.377 31.3073 27.3296 31.3315 27.2756C31.3557 27.2217 31.3667 27.1628 31.3638 27.1038C31.3608 27.0447 31.3439 26.9872 31.3144 26.936C31.6263 26.4195 32.0346 25.9427 32.4365 25.4732L32.4365 25.4732L32.4365 25.4732L32.4365 25.4732L32.4365 25.4732L32.4365 25.4731L32.4365 25.4731L32.4366 25.4731L32.4366 25.4731L32.4366 25.4731L32.4366 25.4731L32.4366 25.4731L32.4367 25.473C32.6286 25.2487 32.8192 25.0262 32.997 24.8018L33.3341 24.6578C33.3856 24.6347 33.4291 24.597 33.4593 24.5494C33.4895 24.5018 33.5051 24.4463 33.5041 24.39C35.5699 23.2005 37.7913 22.3739 40.0617 21.5761C41.2141 21.1642 42.3666 20.7264 43.4931 20.2166C43.5851 20.175 43.6822 20.1324 43.7826 20.0883C44.6257 19.7185 45.7015 19.2466 45.9306 18.3561C45.9358 18.3348 45.9361 18.3127 45.9316 18.2913C45.9271 18.2699 45.9179 18.2498 45.9047 18.2324C45.8914 18.215 45.8745 18.2008 45.855 18.1908C45.8356 18.1808 45.8142 18.1753 45.7923 18.1746C45.1133 18.1384 44.4441 18.5543 43.8114 18.9476C43.5394 19.1166 43.2741 19.2815 43.0177 19.4044C41.5488 20.0585 40.0466 20.6353 38.5174 21.1325C36.44 21.8497 34.2878 22.6561 32.5533 24.0501C31.3629 24.1526 30.1877 24.3883 29.0498 24.7529C28.8635 24.6936 28.6862 24.6093 28.5226 24.5023C28.4749 24.4649 28.416 24.4446 28.3555 24.4446C28.2949 24.4446 28.236 24.4649 28.1884 24.5023C27.7013 24.3642 27.2144 24.2245 26.7273 24.0848L26.7265 24.0845L26.7264 24.0845C24.5626 23.4638 22.3951 22.8421 20.1989 22.3508C19.4335 22.1787 18.639 21.8884 17.8302 21.593C16.2031 20.9986 14.5184 20.3831 12.898 20.6659C12.7885 20.6861 12.8173 20.8272 12.898 20.8589C13.5244 21.1218 14.1887 21.3001 14.8538 21.4786C15.391 21.6227 15.9288 21.7671 16.4476 21.9562C16.6632 22.0349 16.8789 22.1141 17.0949 22.1934L17.0954 22.1936L17.0955 22.1936L17.0955 22.1936C18.0424 22.5413 18.9944 22.8909 19.9655 23.2005C21.6097 23.7071 23.2867 24.1391 24.9625 24.5708L24.9625 24.5708C26.0587 24.8531 27.1544 25.1354 28.2402 25.4383C28.2806 25.4495 28.3222 25.4553 28.3641 25.4556L28.4333 25.5305C28.4545 25.5701 28.4865 25.603 28.5254 25.6255C28.9281 26.0326 29.3025 26.4666 29.6462 26.9245C29.9053 27.2828 30.1003 27.6833 30.2225 28.1082C30.236 28.1573 30.2456 28.2074 30.2513 28.258C30.0432 30.2826 30.2359 32.3661 30.4228 34.3873L30.4443 34.6202C30.6339 36.8339 30.5487 39.0025 30.4621 41.2074L30.4621 41.2074L30.462 41.208C30.446 41.6162 30.4299 42.0257 30.4155 42.4369C30.4021 43.7285 30.4607 45.0199 30.5912 46.305C30.5978 46.3957 30.6059 46.495 30.6146 46.6008L30.6146 46.6009C30.7013 47.6575 30.8425 49.3782 30.015 50.0117C29.9652 50.051 29.9282 50.1041 29.9084 50.1643C29.7557 50.1643 29.6001 50.1413 29.4445 50.1183C29.4277 50.1009 29.4083 50.0863 29.3869 50.0751C28.5872 49.6727 27.7574 49.3378 26.9297 49.0038L26.9296 49.0038L26.9296 49.0038L26.9296 49.0038L26.9295 49.0038L26.9295 49.0038L26.9295 49.0038L26.9294 49.0037L26.9294 49.0037L26.9294 49.0037L26.9293 49.0037L26.9293 49.0037L26.9293 49.0037C26.4003 48.7902 25.8722 48.5771 25.3533 48.347C23.8108 47.6694 22.2402 47.4206 20.6119 47.1626H20.6118L20.6107 47.1624C20.3568 47.1222 20.1014 47.0817 19.8445 47.0394C16.995 46.5613 12.9153 45.1212 12.2439 42.0164C11.9258 40.571 12.0028 39.0107 12.077 37.5075L12.077 37.5075C12.0915 37.2135 12.1059 36.9217 12.1172 36.6334C12.1771 35.097 12.1738 33.5537 12.1704 32.0128C12.1694 31.5549 12.1684 31.0971 12.169 30.6399C12.169 29.5108 12.1229 28.3934 12.0365 27.273C12.0365 26.9302 12.0365 26.5904 12.0221 26.2448C11.9962 24.989 12.0221 23.7362 12.0653 22.4833C12.2699 21.2276 12.5666 20.2195 13.8862 19.3151C14.9401 18.5997 16.189 18.1915 17.4126 17.7916C17.8047 17.6634 18.1942 17.5361 18.5739 17.3999C20.1242 16.8462 21.519 16.0009 22.918 15.1532C23.2219 14.969 23.5261 14.7847 23.832 14.6032C25.7105 13.503 27.4421 12.8118 29.4388 12.8636C30.1232 13.1296 30.9226 13.1879 31.6801 13.2432C31.9398 13.2621 32.1946 13.2807 32.4381 13.3072C33.9394 13.4744 35.4582 13.9608 36.9388 14.435C37.4472 14.5978 37.9511 14.7591 38.4482 14.9056C40.355 15.4348 42.2892 15.8598 44.2422 16.1787C44.4683 16.2175 44.6908 16.2743 44.9078 16.3486C45.1617 16.6939 45.4632 17.0092 45.7634 17.3231C45.9639 17.5327 46.1638 17.7417 46.3484 17.9586C46.3478 17.9653 46.3478 17.9721 46.3484 17.9788C46.3954 18.196 46.4518 18.4127 46.5083 18.6295C46.7183 19.4359 46.9285 20.2431 46.6538 21.0807C46.6304 21.1457 46.6312 21.217 46.6561 21.2815C46.681 21.3461 46.7282 21.3995 46.7892 21.432V21.7201C46.8352 22.176 46.8943 22.624 46.9532 23.0698L46.9532 23.07L46.9532 23.07C47.075 23.9926 47.1954 24.9054 47.1954 25.8588C47.1954 26.8989 47.1296 27.9378 47.0638 28.9765C46.9751 30.3769 46.8864 31.7766 46.9592 33.1773C46.9898 33.566 47.0247 33.953 47.0595 34.3391C47.1854 35.735 47.31 37.1169 47.2243 38.5113ZM40.388 32.285C40.0998 31.7377 39.4141 30.9486 38.714 31.2798C37.1697 32.0142 38.034 35.1593 39.4919 35.1392C39.5316 35.1724 39.5804 35.1926 39.6319 35.1973C39.6834 35.2019 39.7351 35.1907 39.78 35.1651H39.8722C40.653 35.0384 40.8144 34.5257 40.6761 33.9151C40.7823 33.3548 40.6799 32.775 40.388 32.285ZM38.446 33.0482V33.0655V33.0828C38.4427 33.0715 38.4408 33.0599 38.4403 33.0482H38.446ZM34.0256 29.9405C33.974 29.9333 33.9259 29.9101 33.888 29.8743L33.8477 29.8483C33.7511 29.8331 33.6589 29.7977 33.5768 29.7447C33.4774 29.6749 33.3931 29.5858 33.3291 29.4826C33.1136 29.2739 32.9465 29.0206 32.8395 28.7404C32.7325 28.4603 32.6882 28.1601 32.7096 27.861C32.7232 27.6429 32.7832 27.4301 32.8855 27.2369C32.9879 27.0437 33.1302 26.8745 33.3031 26.7407C33.4123 26.6401 33.5447 26.568 33.6884 26.5308C33.8321 26.4936 33.9829 26.4925 34.1271 26.5275C34.3329 26.5817 34.5243 26.6801 34.6881 26.8159C34.8518 26.9517 34.9839 27.1217 35.075 27.3138C35.1067 27.3743 35.1356 27.4348 35.1644 27.501C35.1775 27.5087 35.19 27.5173 35.2018 27.5269C35.3169 27.6467 35.3972 27.7954 35.4343 27.9572C35.4713 28.119 35.4637 28.2879 35.4121 28.4457C35.4505 28.681 35.4277 28.9221 35.3459 29.1461C35.2642 29.37 35.1263 29.5692 34.9454 29.7245C34.8225 29.8127 34.6802 29.87 34.5305 29.8915C34.4947 29.9177 34.4525 29.9337 34.4084 29.9377C34.3642 29.9418 34.3198 29.9338 34.2798 29.9146H34.1905H34.1761C34.1299 29.9387 34.0773 29.9477 34.0256 29.9405ZM34.2827 28.8662C34.1505 28.7389 34.037 28.5934 33.9456 28.4342V28.4371C33.9312 28.6041 34.0494 28.7539 34.2395 28.8835L34.2827 28.8662ZM43.5572 26.3778C43.6469 26.452 43.7433 26.5176 43.8453 26.5736C43.8763 26.5881 43.9115 26.5908 43.9444 26.5813C43.9773 26.5717 44.0055 26.5506 44.024 26.5218C44.192 26.5777 44.3683 26.605 44.5455 26.6024C44.6464 26.6009 44.7427 26.56 44.8137 26.4884C44.8848 26.4168 44.925 26.3202 44.9258 26.2194V25.6779L44.9459 25.6578C45.2039 25.3153 45.3332 24.8931 45.3111 24.465C45.2889 24.0369 45.1168 23.6302 44.8249 23.3162C44.739 23.2251 44.6422 23.1448 44.5368 23.0771C44.5185 23.05 44.4947 23.0269 44.4669 23.0096C44.4391 22.9922 44.4079 22.9809 44.3755 22.9763C44.2503 22.9077 44.1152 22.8591 43.975 22.8323C43.9527 22.8178 43.9273 22.8084 43.9009 22.805C43.8745 22.8015 43.8476 22.8039 43.8223 22.8122C43.5636 22.7891 43.3047 22.8541 43.0876 22.9965C42.2549 23.0368 42.1195 23.898 42.3327 24.6324C42.4398 24.9938 42.6105 25.3333 42.8369 25.6347C42.8887 25.7572 42.9513 25.8748 43.0242 25.9861C43.1479 26.1775 43.3376 26.3169 43.5572 26.3778ZM35.6714 42.7428C35.7533 42.925 35.804 43.1197 35.8212 43.3188C35.8972 43.4599 35.9525 43.6112 35.9855 43.7681C36.0322 43.9437 36.0367 44.1279 35.9987 44.3056C35.9606 44.4833 35.8811 44.6495 35.7665 44.7905C35.7346 44.9711 35.6784 45.1464 35.5994 45.3118C35.5612 45.3784 35.502 45.4303 35.4311 45.4595C35.3601 45.4887 35.2815 45.4935 35.2075 45.4731C34.2423 45.2254 33.6978 44.419 33.8908 43.4974C33.8406 42.9704 33.9136 42.4389 34.104 41.945C34.2193 41.68 34.5708 41.7577 34.7062 41.945C34.7873 41.9421 34.8665 41.9698 34.9281 42.0227C35.02 42.1066 35.1057 42.1971 35.1845 42.2935C35.2935 42.3284 35.3935 42.3867 35.4776 42.4643C35.5617 42.5419 35.6278 42.637 35.6714 42.7428ZM44.7673 37.2186C44.5498 37.1665 44.3208 37.1964 44.124 37.3027C43.9273 37.409 43.7767 37.5842 43.7013 37.7947C43.0674 38.0452 42.981 38.7509 43.2259 39.3557C43.3065 40.1391 43.9577 40.9052 44.7385 40.3782C44.8278 40.3915 44.9189 40.3863 45.0061 40.363C45.0933 40.3398 45.1748 40.2988 45.2456 40.2428C45.3314 40.1763 45.3881 40.0793 45.404 39.9721C45.5731 39.7865 45.6693 39.5461 45.6749 39.2952C45.6746 38.9792 45.5804 38.6704 45.404 38.4081C45.3724 37.8494 45.1908 37.3684 44.7673 37.2186ZM15.5061 27.1381C15.3641 27.3053 15.1934 27.4457 15.0019 27.5528C14.92 27.5958 14.8245 27.6048 14.7361 27.5778C14.6476 27.5508 14.5734 27.4901 14.5294 27.4088C14.0079 26.7234 14.0223 25.9457 14.2759 25.1796C14.2968 25.0307 14.352 24.8888 14.4372 24.7649C14.4574 24.6727 14.4804 24.569 14.5035 24.4769C14.5173 24.4274 14.5422 24.3818 14.5763 24.3434C14.6105 24.305 14.6529 24.275 14.7005 24.2555C14.748 24.2361 14.7994 24.2278 14.8506 24.2312C14.9018 24.2346 14.9516 24.2497 14.9962 24.2752C15.0384 24.3019 15.0771 24.3302 15.1165 24.359L15.1165 24.359L15.1517 24.3847C15.4037 24.3257 15.6686 24.367 15.8907 24.4997C16.1127 24.6325 16.2745 24.8463 16.3417 25.0961C16.5203 25.7326 16.3734 26.7781 15.7337 27.1381C15.6986 27.1565 15.6596 27.1661 15.6199 27.1661C15.5803 27.1661 15.5412 27.1565 15.5061 27.1381ZM27.5004 30.4791C27.6877 30.4083 27.8546 30.2924 27.9862 30.1417C28.1179 29.991 28.2103 29.8101 28.2553 29.6151C28.2726 29.592 28.2873 29.569 28.302 29.5459C28.3094 29.5344 28.3167 29.5229 28.3244 29.5114C28.5076 29.1086 28.5293 28.6509 28.3849 28.2326C28.3849 27.3887 27.9095 26.5823 26.9011 26.7925C25.7256 27.0517 25.6968 28.8086 26.4373 29.569C26.5583 30.1277 26.8723 30.721 27.5004 30.4791ZM26.8464 46.5618C26.5455 46.3943 26.2918 46.1536 26.1088 45.8619C25.9844 45.7851 25.8767 45.6841 25.792 45.5649C25.7074 45.4456 25.6476 45.3106 25.6162 45.1678C25.498 44.7243 25.4087 44.1799 25.7602 43.817C25.7994 43.7769 25.8452 43.7438 25.8956 43.7191C25.9685 43.5522 26.0656 43.3969 26.1837 43.2583C26.2039 43.1978 26.227 43.1431 26.25 43.0912C26.2563 43.0756 26.2656 43.0615 26.2776 43.0496C26.2895 43.0377 26.3037 43.0284 26.3193 43.0222C26.335 43.016 26.3517 43.0131 26.3685 43.0136C26.3853 43.014 26.4019 43.0179 26.4171 43.025C26.5164 42.9435 26.6235 42.8721 26.7369 42.8119C26.8056 42.7728 26.8851 42.757 26.9636 42.7669C27.042 42.7767 27.1151 42.8117 27.172 42.8666C27.3666 43.0811 27.5243 43.3264 27.6387 43.5924C27.7631 43.7292 27.8521 43.8943 27.898 44.0734C27.9408 44.237 27.9631 44.4054 27.9643 44.5745C27.9672 44.6177 27.9672 44.661 27.9643 44.7041C27.9579 45.0626 27.8253 45.4073 27.5898 45.6776C27.5551 45.9424 27.4711 46.1984 27.342 46.4322C27.2933 46.5149 27.2138 46.575 27.121 46.5993C27.0281 46.6236 26.9294 46.6101 26.8464 46.5618ZM14.6331 42.9587C14.698 43.0472 14.7703 43.1301 14.8492 43.2064C14.9323 43.2889 15.0447 43.3352 15.1618 43.3352C15.2789 43.3352 15.3913 43.2889 15.4744 43.2064C16.186 43.0422 16.186 41.4121 16.1255 40.9282C16.1036 40.7433 16.0437 40.5649 15.9498 40.404C15.8819 40.1794 15.7777 39.9673 15.6415 39.7762C15.5977 39.7136 15.5407 39.6615 15.4744 39.6235C15.3779 39.5194 15.2618 39.4353 15.1327 39.3761C15.0037 39.317 14.8642 39.2839 14.7223 39.2788C14.5804 39.2737 14.4388 39.2967 14.3059 39.3465C14.1729 39.3963 14.051 39.4718 13.9474 39.5688C13.2501 40.1448 13.4144 41.4899 13.7226 42.2243C13.7906 42.4195 13.9119 42.5918 14.0728 42.7216C14.2337 42.8515 14.4278 42.9336 14.6331 42.9587ZM29.9264 14.9234C29.8042 14.9877 29.6782 15.0445 29.549 15.0934C28.99 15.8883 28.1487 16.3837 27.1519 16.0611C26.9609 16.0397 26.7738 15.9922 26.5958 15.92C26.5155 15.8946 26.4477 15.8399 26.4061 15.7667C26.3644 15.6935 26.3519 15.6074 26.3711 15.5254C26.3754 15.5102 26.3818 15.4954 26.388 15.4809C26.3984 15.4569 26.4085 15.4335 26.4085 15.4102C26.3405 15.3038 26.3064 15.1792 26.3106 15.053C26.3106 14.6873 26.8234 14.4281 27.1115 14.3042C27.5851 14.1119 28.1031 14.056 28.6068 14.1429C28.8892 14.0728 29.1812 14.0494 29.4712 14.0738C29.67 14.0911 29.889 14.2812 29.7997 14.5029H29.8717C29.9152 14.5151 29.9542 14.5398 29.9838 14.574C30.0134 14.6082 30.0323 14.6503 30.0381 14.6951C30.044 14.7399 30.0365 14.7855 30.0166 14.8261C29.9968 14.8667 29.9654 14.9005 29.9264 14.9234ZM32.2054 21.0322C32.2399 20.9964 32.2619 20.9505 32.2681 20.9012C32.2744 20.8518 32.2645 20.8018 32.2399 20.7586C31.6285 19.6603 30.4073 20.3671 29.5003 20.892L29.5002 20.892C29.3131 21.0003 29.1394 21.1009 28.9871 21.1762C28.9332 21.2097 28.8918 21.26 28.8694 21.3194C28.847 21.3787 28.8448 21.4438 28.8632 21.5046C28.9637 21.8438 29.1759 22.1391 29.4654 22.3427C29.5481 22.4573 29.6664 22.5415 29.8018 22.5821C29.9372 22.6227 30.0823 22.6175 30.2145 22.5673C30.7065 22.5535 31.1733 22.3466 31.5139 21.9913C31.7975 21.8935 32.0576 21.7375 32.2774 21.5334C32.3239 21.4845 32.3533 21.4218 32.3611 21.3548C32.3689 21.2878 32.3547 21.2201 32.3206 21.1618C32.2855 21.1158 32.247 21.0725 32.2054 21.0322ZM30.7907 21.3375C30.6553 21.375 30.5026 21.4095 30.3729 21.4354H30.3268C30.3932 21.3824 30.4646 21.3361 30.5401 21.2972H30.8051C30.8009 21.3108 30.7961 21.3243 30.7907 21.3375ZM30.0964 19.2984C29.8557 19.5261 29.5565 19.6827 29.2321 19.7506C29.185 19.7599 29.1365 19.7591 29.0898 19.7481C29.0431 19.7372 28.9993 19.7164 28.9612 19.6872C28.3937 19.8975 27.875 19.5922 27.4486 19.2005C27.4026 19.1457 27.375 19.0778 27.3698 19.0064C27.3647 18.9351 27.3822 18.8639 27.4198 18.803V18.78C27.3918 18.7385 27.3786 18.6888 27.3824 18.6389C27.385 18.3641 27.4857 18.0994 27.6664 17.8924C27.847 17.6853 28.0958 17.5497 28.3677 17.5098C28.4728 17.4021 28.6036 17.3231 28.7479 17.2802C28.8921 17.2374 29.0449 17.2322 29.1917 17.265C29.2239 17.275 29.2548 17.2885 29.2839 17.3054C29.3787 17.2801 29.4749 17.2609 29.5721 17.2478C30.3212 17.1585 31.2172 17.6798 31.1855 18.5265C31.1653 19.045 30.6928 19.2523 30.0964 19.2984Z" fill="black"/>
</svg>
