<svg width="18" height="24" viewBox="0 0 18 24" fill="none" xmlns="http://www.w3.org/2000/svg">
<path d="M9 0C4.03737 0 0 3.89916 0 8.69185C0 14.6397 8.05412 23.3716 8.39703 23.7404C8.71912 24.0868 9.28146 24.0862 9.60297 23.7404C9.94588 23.3716 18 14.6397 18 8.69185C17.9999 3.89916 13.9626 0 9 0ZM9 13.065C6.50318 13.065 4.47192 11.1032 4.47192 8.69185C4.47192 6.28051 6.50323 4.31879 9 4.31879C11.4968 4.31879 13.528 6.28055 13.528 8.6919C13.528 11.1032 11.4968 13.065 9 13.065Z" fill="#BBBBBB"/>
</svg>
