<svg width="801" height="295" viewBox="0 0 801 295" fill="none" xmlns="http://www.w3.org/2000/svg">
<path d="M382.002 6.24658V34.5101C382.002 36.1668 381.344 37.7556 380.173 38.9271C379.001 40.0985 377.412 40.7567 375.756 40.7567C374.099 40.7567 372.51 40.0985 371.339 38.9271C370.167 37.7556 369.509 36.1668 369.509 34.5101V6.24658C369.509 4.58988 370.167 3.00104 371.339 1.82958C372.51 0.65812 374.099 0 375.756 0C377.412 0 379.001 0.65812 380.173 1.82958C381.344 3.00104 382.002 4.58988 382.002 6.24658Z" fill="#FBFBFB"/>
<path d="M484.428 7.53202C486.85 18.6731 485.618 30.298 480.915 40.6841C477.493 48.4154 466.72 41.68 470.124 34.003C473.29 26.7826 474.082 18.7441 472.388 11.0446C470.631 2.73392 482.617 -0.796751 484.428 7.53202Z" fill="#FBFBFB"/>
<path d="M758.372 16.2954C755.228 23.4989 754.375 31.4948 755.928 39.1995C757.557 47.5464 745.517 51.0771 743.887 42.7302C741.611 31.5781 742.877 19.9932 747.509 9.59617C750.967 1.81058 761.74 8.60034 758.372 16.2954Z" fill="#FBFBFB"/>
<path d="M797.029 39.2359C797.517 42.7666 796.286 46.3878 792.665 47.3836C789.696 48.2165 785.477 46.3334 784.988 42.7666C783.475 32.9054 784.944 22.8171 789.207 13.7969C792.737 6.15618 803.601 12.8735 799.98 20.478C797.218 26.3184 796.194 32.8296 797.029 39.2359Z" fill="#FBFBFB"/>
<path d="M717.996 42.7123C720.141 32.1083 719.314 21.1178 715.606 10.9543C712.673 3.1144 700.596 6.53643 703.565 14.4669C706.666 22.3233 707.506 30.8905 705.991 39.1997C704.38 47.5285 716.421 51.0954 717.996 42.7123Z" fill="#FBFBFB"/>
<path d="M666.013 17.1644V44.9933C666.059 45.8407 665.932 46.6885 665.639 47.485C665.346 48.2815 664.894 49.01 664.31 49.626C663.726 50.242 663.023 50.7326 662.244 51.0679C661.464 51.4032 660.624 51.5761 659.776 51.5761C658.927 51.5761 658.087 51.4032 657.308 51.0679C656.528 50.7326 655.825 50.242 655.241 49.626C654.658 49.01 654.206 48.2815 653.913 47.485C653.62 46.6885 653.493 45.8407 653.538 44.9933V17.1644C653.493 16.317 653.62 15.4692 653.913 14.6727C654.206 13.8762 654.658 13.1477 655.241 12.5317C655.825 11.9157 656.528 11.4251 657.308 11.0898C658.087 10.7545 658.927 10.5816 659.776 10.5816C660.624 10.5816 661.464 10.7545 662.244 11.0898C663.023 11.4251 663.726 11.9157 664.31 12.5317C664.894 13.1477 665.346 13.8762 665.639 14.6727C665.932 15.4692 666.059 16.317 666.013 17.1644Z" fill="#FBFBFB"/>
<path d="M624.804 37.0449V13.1811C624.85 12.3337 624.722 11.4859 624.429 10.6894C624.136 9.89292 623.684 9.16444 623.101 8.54844C622.517 7.93244 621.814 7.44183 621.034 7.10655C620.255 6.77127 619.415 6.59836 618.566 6.59836C617.718 6.59836 616.878 6.77127 616.098 7.10655C615.319 7.44183 614.616 7.93244 614.032 8.54844C613.448 9.16444 612.996 9.89292 612.704 10.6894C612.411 11.4859 612.283 12.3337 612.329 13.1811V37.0449C612.283 37.8922 612.411 38.7401 612.704 39.5366C612.996 40.3331 613.448 41.0615 614.032 41.6775C614.616 42.2935 615.319 42.7841 616.098 43.1194C616.878 43.4547 617.718 43.6276 618.566 43.6276C619.415 43.6276 620.255 43.4547 621.034 43.1194C621.814 42.7841 622.517 42.2935 623.101 41.6775C623.684 41.0615 624.136 40.3331 624.429 39.5366C624.722 38.7401 624.85 37.8922 624.804 37.0449Z" fill="#FBFBFB"/>
<path d="M575.447 15.1728L571.699 31.0699C569.744 39.3444 557.703 35.8137 559.659 27.4487L563.407 11.5516C565.362 3.3677 577.403 6.89837 575.447 15.1728Z" fill="#FBFBFB"/>
<path d="M523.03 34.7637C526.346 32.2251 529.036 28.9591 530.891 25.2173C532.746 21.4755 533.718 17.3577 533.731 13.1813C533.731 4.65336 521.31 4.65336 521.238 13.1813C521.273 15.0982 520.888 16.9997 520.109 18.7515C519.33 20.5034 518.176 22.0631 516.729 23.3207C515.325 24.304 514.323 25.7625 513.911 27.4266C513.498 29.0907 513.702 30.848 514.484 32.3737C516.041 35.2163 520.314 36.9183 523.03 34.7637Z" fill="#FBFBFB"/>
<path d="M436.646 34.9446L440.394 11.0989C441.734 2.75207 429.693 -0.832921 428.354 7.56827L424.533 31.4139C423.266 39.7608 435.288 43.2915 436.646 34.9446Z" fill="#FBFBFB"/>
<path d="M793.001 119.566C792.19 121.08 790.833 122.228 789.207 122.777C785.767 123.791 782.598 121.51 781.53 118.142C780.278 114.302 780.035 110.205 780.825 106.245C781.615 102.284 783.41 98.5935 786.038 95.5274C791.398 89.136 800.197 98.533 794.874 104.852C793.799 106.215 793.111 107.842 792.881 109.562C792.652 111.282 792.89 113.033 793.57 114.629C794.015 116.288 793.811 118.053 793.001 119.566Z" fill="#FBFBFB"/>
<path d="M748.052 130.2C749.912 119.043 748.503 107.586 743.996 97.2112C740.701 89.4437 729.928 96.1792 733.132 103.91C736.166 111.089 737.132 118.972 735.921 126.67C734.708 135.035 746.748 138.62 748.052 130.2Z" fill="#FBFBFB"/>
<path d="M699.745 100.615V120.532C699.745 122.188 699.087 123.777 697.915 124.949C696.744 126.12 695.155 126.778 693.498 126.778C691.841 126.778 690.253 126.12 689.081 124.949C687.91 123.777 687.252 122.188 687.252 120.532V100.615C687.252 98.9585 687.91 97.3696 689.081 96.1982C690.253 95.0267 691.841 94.3686 693.498 94.3686C695.155 94.3686 696.744 95.0267 697.915 96.1982C699.087 97.3696 699.745 98.9585 699.745 100.615Z" fill="#FBFBFB"/>
<path d="M654.788 116.567V92.7029C654.788 91.0462 654.129 89.4573 652.958 88.2859C651.787 87.1144 650.198 86.4563 648.541 86.4563C646.884 86.4563 645.295 87.1144 644.124 88.2859C642.953 89.4573 642.294 91.0462 642.294 92.7029V116.567C642.294 118.223 642.953 119.812 644.124 120.984C645.295 122.155 646.884 122.813 648.541 122.813C650.198 122.813 651.787 122.155 652.958 120.984C654.129 119.812 654.788 118.223 654.788 116.567Z" fill="#FBFBFB"/>
<path d="M620.822 114.193C621.268 116.756 622.255 119.195 623.718 121.347C628.262 128.39 617.435 135.053 612.926 128.118C610.617 124.418 609.086 120.286 608.427 115.975C607.767 111.663 607.992 107.263 609.088 103.041C611.134 94.7126 623.265 98.2252 621.128 106.482C620.48 109.001 620.375 111.63 620.822 114.193Z" fill="#FBFBFB"/>
<path d="M578.127 122.234C580.255 111.625 579.409 100.634 575.682 90.4757C572.731 82.6539 560.654 86.0578 563.642 93.9883C566.743 101.844 567.589 110.41 566.086 118.721C564.511 127.05 576.552 130.599 578.127 122.234Z" fill="#FBFBFB"/>
<path d="M530.238 109.157C530.823 113.513 530.52 117.943 529.349 122.179C527.122 130.381 515.063 126.869 517.309 118.649C518.036 116.117 518.222 113.461 517.854 110.853C517.486 108.244 516.572 105.743 515.172 103.512C510.827 96.3058 521.636 89.5885 525.945 96.8309C528.193 100.608 529.653 104.801 530.238 109.157Z" fill="#FBFBFB"/>
<path d="M481.277 134.618L476.606 103.041C475.375 94.6402 463.334 98.2071 464.566 106.572L469.237 138.221C470.486 146.496 482.509 142.983 481.277 134.618Z" fill="#FBFBFB"/>
<path d="M420.713 102.933L425.457 134.564C426.706 142.875 414.665 146.496 413.416 138.095L408.672 106.445C407.423 98.0984 419.463 94.5315 420.713 102.933Z" fill="#FBFBFB"/>
<path d="M799.618 202.027C799.276 193.691 797.815 185.439 795.272 177.493C792.792 169.454 780.787 172.913 783.322 181.006C785.528 187.811 786.807 194.881 787.125 202.027C787.487 210.537 799.98 210.573 799.618 202.027Z" fill="#FBFBFB"/>
<path d="M752.669 179.087C753.487 187.371 752.937 195.733 751.039 203.838C749.156 212.148 737.116 208.6 738.999 200.325C740.566 193.36 740.963 186.182 740.176 179.087C740.136 177.389 740.765 175.743 741.926 174.504C743.088 173.265 744.689 172.531 746.386 172.46C750.007 172.496 752.289 175.465 752.669 179.087Z" fill="#FBFBFB"/>
<path d="M702.932 203.91C704.707 196.991 705.192 189.803 704.362 182.708C703.927 179.087 701.809 176.081 698.115 176.081C695.092 176.081 691.434 179.141 691.869 182.708C692.666 188.636 692.341 194.662 690.909 200.47C688.845 208.636 700.886 212.148 702.932 203.91Z" fill="#FBFBFB"/>
<path d="M654.498 179.087L651.854 202.136C651.456 205.666 649.32 208.799 645.626 208.781C643.922 208.719 642.312 207.989 641.143 206.749C639.974 205.509 639.34 203.858 639.379 202.154L642.005 179.087C642.403 175.538 644.63 172.46 648.251 172.46C649.953 172.526 651.561 173.257 652.729 174.497C653.897 175.736 654.532 177.384 654.498 179.087Z" fill="#FBFBFB"/>
<path d="M602.914 205.576V182.599C602.959 181.752 602.832 180.904 602.539 180.108C602.246 179.311 601.794 178.583 601.211 177.967C600.627 177.351 599.924 176.86 599.144 176.525C598.365 176.189 597.525 176.017 596.676 176.017C595.828 176.017 594.988 176.189 594.208 176.525C593.429 176.86 592.726 177.351 592.142 177.967C591.558 178.583 591.106 179.311 590.813 180.108C590.521 180.904 590.393 181.752 590.439 182.599V205.576C590.393 206.423 590.521 207.271 590.813 208.068C591.106 208.864 591.558 209.592 592.142 210.209C592.726 210.825 593.429 211.315 594.208 211.65C594.988 211.986 595.828 212.159 596.676 212.159C597.525 212.159 598.365 211.986 599.144 211.65C599.924 211.315 600.627 210.825 601.211 210.209C601.794 209.592 602.246 208.864 602.539 208.068C602.832 207.271 602.959 206.423 602.914 205.576Z" fill="#FBFBFB"/>
<path d="M569.617 184.374V198.514C569.617 200.171 568.959 201.76 567.787 202.931C566.616 204.103 565.027 204.761 563.37 204.761C561.714 204.761 560.125 204.103 558.953 202.931C557.782 201.76 557.124 200.171 557.124 198.514V184.374C557.124 182.717 557.782 181.128 558.953 179.957C560.125 178.785 561.714 178.127 563.37 178.127C565.027 178.127 566.616 178.785 567.787 179.957C568.959 181.128 569.617 182.717 569.617 184.374Z" fill="#FBFBFB"/>
<path d="M520.296 212.329C522.474 208.662 523.857 204.579 524.356 200.343C524.855 196.108 524.459 191.814 523.193 187.741C520.658 179.702 508.6 183.143 511.152 191.363C511.964 193.73 512.238 196.248 511.957 198.734C511.675 201.221 510.843 203.613 509.523 205.739C505.196 212.855 515.987 219.518 520.296 212.329Z" fill="#FBFBFB"/>
<path d="M482.798 193.209C481.471 199 480.99 204.952 481.368 210.881C481.857 219.409 469.364 219.355 468.947 210.79C468.533 203.673 469.143 196.533 470.758 189.588C472.695 181.386 484.736 184.917 482.798 193.209Z" fill="#FBFBFB"/>
<path d="M433.152 212.547C431.304 205.031 431.106 197.205 432.572 189.606C434.184 181.277 422.143 177.729 420.532 186.094C418.55 196.012 418.747 206.243 421.111 216.077C423.139 224.352 435.18 220.839 433.152 212.547Z" fill="#FBFBFB"/>
<path d="M337.081 34.5102C337.314 27.2769 336.083 20.0712 333.46 13.3261C332.156 10.0127 329.314 7.65892 325.765 8.69096C322.832 9.54195 320.098 13.5253 321.419 16.8387C323.656 22.4534 324.71 28.4694 324.516 34.5102C324.334 43.0381 336.828 43.0381 337.081 34.5102Z" fill="#FBFBFB"/>
<path d="M283.741 11.5516C284.354 19.8401 283.744 28.1737 281.93 36.2845C280.12 44.6132 268.079 41.0644 269.908 32.7719C271.403 25.8038 271.854 18.6524 271.248 11.5516C270.56 3.02369 283.071 3.11422 283.741 11.5516Z" fill="#FBFBFB"/>
<path d="M235.452 27.5211C237.391 21.2109 237.861 14.5409 236.828 8.02095C236.63 7.21186 236.272 6.45046 235.776 5.78128C235.28 5.11211 234.655 4.5486 233.939 4.12373C233.222 3.69887 232.428 3.42117 231.603 3.3069C230.778 3.19263 229.938 3.24408 229.133 3.45823C225.512 4.49027 224.281 8.05716 224.788 11.6059C225.268 15.8029 224.798 20.0544 223.411 24.0448C222.961 25.7009 223.161 27.4663 223.968 28.9805C224.776 30.4947 226.131 31.6436 227.757 32.1925C228.569 32.3974 229.414 32.4388 230.242 32.3143C231.071 32.1898 231.866 31.9018 232.582 31.4671C233.298 31.0324 233.921 30.4597 234.413 29.7823C234.906 29.1049 235.259 28.3363 235.452 27.5211Z" fill="#FBFBFB"/>
<path d="M188.811 16.7844C189.275 25.6647 188.637 34.5684 186.91 43.2916C185.335 51.7109 173.312 48.144 174.869 39.7609C176.302 32.1916 176.788 24.4736 176.318 16.7844C175.847 8.25642 188.322 8.31073 188.811 16.7844Z" fill="#FBFBFB"/>
<path d="M141.282 41.3541C144.417 34.0985 144.848 25.9595 142.496 18.4137C139.888 10.3928 127.83 13.8329 130.455 22.0349C131.939 26.1293 131.939 30.6148 130.455 34.7091C129.151 38.0044 129.532 41.8067 132.7 43.7622C135.362 45.3555 139.961 44.6675 141.282 41.3541Z" fill="#FBFBFB"/>
<path d="M97.5566 22.2702L93.9354 36.3386C91.8532 44.5768 79.8127 41.0642 81.8949 32.8079L85.4979 18.649C87.5801 10.5013 99.6207 14.0138 97.5566 22.2702Z" fill="#FBFBFB"/>
<path d="M55.623 34.51V18.6129C55.6687 17.7655 55.5412 16.9177 55.2484 16.1212C54.9555 15.3247 54.5035 14.5962 53.9198 13.9802C53.3361 13.3642 52.633 12.8736 51.8534 12.5383C51.0739 12.2031 50.2341 12.0302 49.3855 12.0302C48.5369 12.0302 47.6971 12.2031 46.9175 12.5383C46.138 12.8736 45.4349 13.3642 44.8512 13.9802C44.2675 14.5962 43.8154 15.3247 43.5226 16.1212C43.2298 16.9177 43.1023 17.7655 43.148 18.6129V34.51C43.1023 35.3574 43.2298 36.2052 43.5226 37.0017C43.8154 37.7982 44.2675 38.5267 44.8512 39.1427C45.4349 39.7587 46.138 40.2493 46.9175 40.5846C47.6971 40.9198 48.5369 41.0928 49.3855 41.0928C50.2341 41.0928 51.0738 40.9198 51.8534 40.5846C52.633 40.2493 53.3361 39.7587 53.9198 39.1427C54.5035 38.5267 54.9555 37.7982 55.2484 37.0017C55.5412 36.2052 55.6687 35.3574 55.623 34.51Z" fill="#FBFBFB"/>
<path d="M19.23 14.9557C20.8987 21.9296 21.3458 29.1399 20.5517 36.2665C20.1172 39.8334 18.0169 42.8933 14.3052 42.8933C12.6018 42.8319 10.9912 42.102 9.82202 40.8617C8.6529 39.6214 8.01936 37.9705 8.05855 36.2665C8.81285 30.3286 8.51867 24.3044 7.18945 18.4683C5.2521 10.1757 17.2927 6.68128 19.23 14.9557Z" fill="#FBFBFB"/>
<path d="M15.0112 247.057C11.39 248.07 10.1588 251.692 10.6476 255.222C11.4811 261.626 10.4436 268.135 7.66016 273.962C4.03895 281.585 14.9026 288.302 18.5238 280.661C22.7789 271.639 24.2417 261.551 22.7244 251.692C22.145 248.125 17.9806 246.224 15.0112 247.057Z" fill="#FBFBFB"/>
<path d="M49.3041 278.163C52.439 270.951 53.292 262.952 51.7484 255.241C50.137 246.912 62.1775 243.381 63.7889 251.728C66.0359 262.884 64.7381 274.463 60.0772 284.844C56.6914 292.648 45.9364 285.84 49.3041 278.163Z" fill="#FBFBFB"/>
<path d="M89.6986 251.728C87.5559 262.341 88.3957 273.34 92.1248 283.504C95.058 291.326 107.135 287.922 104.165 279.973C101.093 272.115 100.277 263.555 101.812 255.259C103.296 246.93 91.2738 243.363 89.6986 251.728Z" fill="#FBFBFB"/>
<path d="M141.645 277.294V249.465C141.645 248.644 141.806 247.832 142.12 247.074C142.434 246.316 142.894 245.628 143.474 245.048C144.054 244.468 144.743 244.008 145.501 243.694C146.259 243.38 147.071 243.218 147.891 243.218C148.712 243.218 149.524 243.38 150.282 243.694C151.04 244.008 151.728 244.468 152.308 245.048C152.888 245.628 153.349 246.316 153.662 247.074C153.976 247.832 154.138 248.644 154.138 249.465V277.294C154.138 278.114 153.976 278.926 153.662 279.684C153.349 280.442 152.888 281.131 152.308 281.711C151.728 282.291 151.04 282.751 150.282 283.065C149.524 283.379 148.712 283.54 147.891 283.54C147.071 283.54 146.259 283.379 145.501 283.065C144.743 282.751 144.054 282.291 143.474 281.711C142.894 281.131 142.434 280.442 142.12 279.684C141.806 278.926 141.645 278.114 141.645 277.294Z" fill="#FBFBFB"/>
<path d="M182.872 257.413V281.259C182.872 282.079 183.034 282.892 183.348 283.649C183.662 284.407 184.122 285.096 184.702 285.676C185.282 286.256 185.97 286.716 186.728 287.03C187.486 287.344 188.298 287.505 189.119 287.505C189.939 287.505 190.751 287.344 191.509 287.03C192.267 286.716 192.956 286.256 193.536 285.676C194.116 285.096 194.576 284.407 194.89 283.649C195.204 282.892 195.365 282.079 195.365 281.259V257.413C195.365 256.593 195.204 255.781 194.89 255.023C194.576 254.265 194.116 253.576 193.536 252.996C192.956 252.416 192.267 251.956 191.509 251.642C190.751 251.328 189.939 251.167 189.119 251.167C188.298 251.167 187.486 251.328 186.728 251.642C185.97 251.956 185.282 252.416 184.702 252.996C184.122 253.576 183.662 254.265 183.348 255.023C183.034 255.781 182.872 256.593 182.872 257.413Z" fill="#FBFBFB"/>
<path d="M232.229 279.285L235.977 263.388C237.951 255.132 249.991 258.626 248.036 266.901L244.27 282.816C242.314 291.09 230.274 287.56 232.229 279.285Z" fill="#FBFBFB"/>
<path d="M284.682 259.695C281.364 262.227 278.675 265.489 276.822 269.229C274.97 272.969 274.004 277.085 274 281.259C273.909 289.787 286.402 289.805 286.493 281.259C286.455 279.344 286.839 277.445 287.618 275.695C288.397 273.946 289.553 272.39 291.001 271.138C292.409 270.157 293.411 268.697 293.821 267.031C294.231 265.365 294.02 263.607 293.228 262.085C291.635 259.242 287.38 257.54 284.682 259.695Z" fill="#FBFBFB"/>
<path d="M323.248 286.926C320.823 275.784 322.061 264.156 326.779 253.774C330.201 246.079 340.956 252.778 337.552 260.455C334.388 267.669 333.596 275.702 335.289 283.395C337.045 291.724 325.059 295.237 323.248 286.926Z" fill="#FBFBFB"/>
<path d="M371.048 259.514L367.228 283.359C365.906 291.706 377.928 295.291 379.286 286.872L383.089 263.026C384.428 254.698 372.388 251.113 371.048 259.514Z" fill="#FBFBFB"/>
<path d="M425.692 288.212L425.692 259.948C425.646 259.101 425.774 258.253 426.067 257.456C426.359 256.66 426.812 255.932 427.395 255.316C427.979 254.699 428.682 254.209 429.462 253.874C430.241 253.538 431.081 253.365 431.93 253.365C432.778 253.365 433.618 253.538 434.397 253.874C435.177 254.209 435.88 254.699 436.464 255.316C437.048 255.932 437.5 256.66 437.792 257.456C438.085 258.253 438.213 259.101 438.167 259.948V288.212C438.213 289.059 438.085 289.907 437.792 290.703C437.5 291.5 437.048 292.228 436.464 292.844C435.88 293.46 435.177 293.951 434.397 294.286C433.618 294.622 432.778 294.794 431.93 294.794C431.081 294.794 430.241 294.622 429.462 294.286C428.682 293.951 427.979 293.46 427.395 292.844C426.812 292.228 426.359 291.5 426.067 290.703C425.774 289.907 425.646 289.059 425.692 288.212Z" fill="#FBFBFB"/>
<path d="M470.613 259.93C470.371 267.17 471.603 274.383 474.234 281.132C475.52 284.427 478.362 286.799 481.911 285.767C484.844 284.898 487.578 280.933 486.275 277.602C484.006 271.995 482.933 265.976 483.124 259.93C483.342 251.402 470.866 251.511 470.613 259.93Z" fill="#FBFBFB"/>
<path d="M523.935 282.907C523.313 274.612 523.923 266.271 525.746 258.156C527.575 249.845 539.615 253.321 537.768 261.686C536.264 268.653 535.813 275.806 536.428 282.907C537.098 291.417 524.605 291.344 523.935 282.907Z" fill="#FBFBFB"/>
<path d="M572.242 266.937C570.295 273.239 569.824 279.905 570.866 286.419C571.054 287.234 571.404 288.003 571.895 288.68C572.386 289.357 573.008 289.929 573.724 290.361C574.44 290.793 575.235 291.077 576.063 291.196C576.891 291.316 577.734 291.267 578.543 291.054C582.164 290.004 583.396 286.455 582.907 282.906C582.407 278.704 582.878 274.442 584.283 270.45C584.727 268.791 584.524 267.026 583.713 265.512C582.902 263.999 581.546 262.851 579.919 262.302C579.111 262.099 578.27 262.058 577.446 262.182C576.621 262.305 575.83 262.591 575.116 263.022C574.402 263.452 573.781 264.02 573.288 264.692C572.795 265.364 572.439 266.127 572.242 266.937Z" fill="#FBFBFB"/>
<path d="M618.92 277.601C618.425 268.731 619.034 259.833 620.73 251.112C622.342 242.747 634.382 246.314 632.843 254.625C631.411 262.194 630.925 269.912 631.395 277.601C631.883 286.147 619.39 286.093 618.92 277.601Z" fill="#FBFBFB"/>
<path d="M666.394 253.104C663.276 260.364 662.846 268.496 665.181 276.044C667.788 284.047 679.865 280.607 677.221 272.423C675.749 268.327 675.749 263.846 677.221 259.749C678.543 256.454 678.144 252.651 674.976 250.696C672.332 249.103 667.733 249.791 666.394 253.104Z" fill="#FBFBFB"/>
<path d="M710.174 272.188L713.795 258.12C715.823 249.863 727.864 253.321 725.836 261.723L722.214 275.809C720.132 283.957 708.092 280.444 710.174 272.188Z" fill="#FBFBFB"/>
<path d="M752.053 259.948V275.845C752.053 277.502 752.711 279.091 753.883 280.262C755.054 281.434 756.643 282.092 758.3 282.092C759.956 282.092 761.545 281.434 762.717 280.262C763.888 279.091 764.546 277.502 764.546 275.845V259.948C764.546 258.291 763.888 256.703 762.717 255.531C761.545 254.36 759.956 253.702 758.3 253.702C756.643 253.702 755.054 254.36 753.883 255.531C752.711 256.703 752.053 258.291 752.053 259.948Z" fill="#FBFBFB"/>
<path d="M787.613 279.503C785.832 272.547 785.359 265.321 786.219 258.192C786.762 254.625 788.989 251.511 792.846 251.475C796.105 251.475 799.907 254.48 799.473 258.101C798.664 264.034 798.977 270.065 800.396 275.882C802.442 284.265 789.659 287.777 787.613 279.503Z" fill="#FBFBFB"/>
<path d="M381.93 121.51C383.934 115.83 384.42 109.727 383.342 103.802C383.152 102.988 382.8 102.221 382.309 101.545C381.817 100.869 381.196 100.299 380.48 99.8666C379.765 99.4347 378.97 99.1503 378.143 99.0301C377.316 98.9099 376.474 98.9563 375.665 99.1667C372.134 100.199 370.758 103.784 371.302 107.314C371.764 110.932 371.277 114.607 369.889 117.979C369.439 119.64 369.641 121.41 370.452 122.927C371.263 124.445 372.622 125.596 374.253 126.145C377.802 127.177 380.644 124.859 381.93 121.51Z" fill="#FBFBFB"/>
<path d="M333.713 103.784V123.211C333.713 124.032 333.552 124.844 333.238 125.602C332.924 126.36 332.464 127.048 331.884 127.628C331.304 128.209 330.615 128.669 329.857 128.983C329.099 129.296 328.287 129.458 327.467 129.458C326.647 129.458 325.834 129.296 325.076 128.983C324.319 128.669 323.63 128.209 323.05 127.628C322.47 127.048 322.01 126.36 321.696 125.602C321.382 124.844 321.22 124.032 321.22 123.211V103.784C321.22 102.963 321.382 102.151 321.696 101.393C322.01 100.635 322.47 99.9468 323.05 99.3667C323.63 98.7867 324.319 98.3266 325.076 98.0126C325.834 97.6987 326.647 97.5371 327.467 97.5371C328.287 97.5371 329.099 97.6987 329.857 98.0126C330.615 98.3266 331.304 98.7867 331.884 99.3667C332.464 99.9468 332.924 100.635 333.238 101.393C333.552 102.151 333.713 102.963 333.713 103.784Z" fill="#FBFBFB"/>
<path d="M292.794 123.302L294.46 107.206C294.499 105.502 293.865 103.851 292.696 102.61C291.527 101.37 289.916 100.64 288.213 100.579C284.592 100.579 282.329 103.621 281.966 107.206L280.319 123.302C280.279 124.994 280.903 126.634 282.056 127.873C283.21 129.111 284.802 129.849 286.493 129.929C290.241 129.929 292.432 126.869 292.794 123.302Z" fill="#FBFBFB"/>
<path d="M237.009 105.558C237.874 112.682 237.395 119.904 235.597 126.851C233.515 135.089 221.474 131.576 223.556 123.32C224.997 117.514 225.323 111.486 224.516 105.558C224.063 101.991 227.739 98.9313 230.762 98.9313C234.456 98.9313 236.556 101.937 237.009 105.558Z" fill="#FBFBFB"/>
<path d="M185.914 126.072C187.541 125.523 188.897 124.375 189.708 122.862C190.518 121.348 190.722 119.583 190.278 117.924L186.91 105.558C186.715 104.747 186.361 103.982 185.868 103.309C185.376 102.636 184.754 102.067 184.04 101.636C183.326 101.205 182.533 100.92 181.708 100.797C180.883 100.675 180.042 100.718 179.233 100.923C177.609 101.476 176.255 102.624 175.445 104.137C174.635 105.649 174.429 107.412 174.869 109.071L178.201 121.437C178.398 122.251 178.754 123.017 179.25 123.692C179.745 124.367 180.37 124.937 181.088 125.368C181.806 125.799 182.602 126.083 183.43 126.204C184.259 126.325 185.103 126.28 185.914 126.072Z" fill="#FBFBFB"/>
<path d="M140.558 114.376V128.516C140.558 130.173 139.9 131.762 138.729 132.934C137.557 134.105 135.969 134.763 134.312 134.763C132.655 134.763 131.066 134.105 129.895 132.934C128.723 131.762 128.065 130.173 128.065 128.516V114.376C128.065 112.719 128.723 111.13 129.895 109.959C131.066 108.787 132.655 108.129 134.312 108.129C135.969 108.129 137.557 108.787 138.729 109.959C139.9 111.13 140.558 112.719 140.558 114.376Z" fill="#FBFBFB"/>
<path d="M90.2961 132.011C93.0347 124.077 94.2629 115.7 93.9173 107.314C93.5914 98.8044 81.0982 98.7682 81.4241 107.314C81.7361 114.506 80.6667 121.691 78.2737 128.48C75.4492 136.501 87.5078 139.941 90.2961 132.011Z" fill="#FBFBFB"/>
<path d="M50.5533 121.437C51.0422 124.986 49.8291 128.535 46.2079 129.585C43.2385 130.436 39.0017 128.498 38.4404 124.95C37.4296 117.835 37.7674 110.593 39.4362 103.603C41.446 95.3463 53.4865 98.8589 51.4768 107.133C50.2925 111.804 49.9794 116.653 50.5533 121.437Z" fill="#FBFBFB"/>
<path d="M14.1784 121.437L12.4945 101.991C12.1867 98.3699 9.85103 95.3643 6.24794 95.3643C4.54617 95.4304 2.93832 96.1617 1.77016 97.4009C0.602008 98.6402 -0.0331541 100.288 0.00133453 101.991L1.68524 121.437C1.99304 125.058 4.32868 128.064 7.93178 128.064C9.63354 127.998 11.2414 127.266 12.4096 126.027C13.5777 124.788 14.2129 123.14 14.1784 121.437Z" fill="#FBFBFB"/>
<path d="M383.668 186.148V207.35C383.668 209.007 383.01 210.596 381.838 211.767C380.667 212.939 379.078 213.597 377.421 213.597C375.765 213.597 374.176 212.939 373.004 211.767C371.833 210.596 371.175 209.007 371.175 207.35V186.148C371.175 184.491 371.833 182.902 373.004 181.731C374.176 180.56 375.765 179.901 377.421 179.901C379.078 179.901 380.667 180.56 381.838 181.731C383.01 182.902 383.668 184.491 383.668 186.148Z" fill="#FBFBFB"/>
<path d="M340.376 205.594V191.453C340.376 189.796 339.718 188.208 338.547 187.036C337.375 185.865 335.787 185.207 334.13 185.207C332.473 185.207 330.884 185.865 329.713 187.036C328.541 188.208 327.883 189.796 327.883 191.453V205.594C327.883 207.251 328.541 208.84 329.713 210.011C330.884 211.182 332.473 211.841 334.13 211.841C335.787 211.841 337.375 211.182 338.547 210.011C339.718 208.84 340.376 207.251 340.376 205.594Z" fill="#FBFBFB"/>
<path d="M290.422 194.984V212.655C290.422 213.476 290.26 214.288 289.946 215.046C289.633 215.804 289.172 216.492 288.592 217.072C288.012 217.652 287.324 218.112 286.566 218.426C285.808 218.74 284.996 218.902 284.175 218.902C283.355 218.902 282.543 218.74 281.785 218.426C281.027 218.112 280.338 217.652 279.758 217.072C279.178 216.492 278.718 215.804 278.404 215.046C278.09 214.288 277.929 213.476 277.929 212.655L277.929 194.984C277.929 194.163 278.09 193.351 278.404 192.593C278.718 191.835 279.178 191.147 279.758 190.567C280.338 189.987 281.027 189.527 281.785 189.213C282.543 188.899 283.355 188.737 284.175 188.737C284.996 188.737 285.808 188.899 286.566 189.213C287.324 189.527 288.012 189.987 288.592 190.567C289.172 191.147 289.633 191.835 289.946 192.593C290.26 193.351 290.422 194.163 290.422 194.984Z" fill="#FBFBFB"/>
<path d="M232.175 212.764C233.972 205.817 234.452 198.595 233.587 191.471C233.134 187.85 231.034 184.844 227.341 184.844C224.317 184.844 220.641 187.904 221.094 191.471C221.901 197.399 221.575 203.427 220.134 209.233C218.143 217.489 230.183 221.002 232.175 212.764Z" fill="#FBFBFB"/>
<path d="M188.521 189.715C189.656 195.642 189.2 201.765 187.199 207.459C185.95 210.808 183.053 213.126 179.504 212.094C177.877 211.541 176.522 210.389 175.714 208.872C174.907 207.355 174.708 205.587 175.159 203.928C176.552 200.551 177.009 196.86 176.481 193.246C176.057 191.585 176.27 189.827 177.078 188.316C177.885 186.805 179.229 185.65 180.844 185.08C181.653 184.869 182.496 184.823 183.323 184.943C184.149 185.063 184.944 185.348 185.659 185.78C186.375 186.212 186.996 186.782 187.488 187.458C187.979 188.134 188.331 188.901 188.521 189.715Z" fill="#FBFBFB"/>
<path d="M138.024 209.125V196.758C138.024 195.938 137.862 195.126 137.548 194.368C137.234 193.61 136.774 192.921 136.194 192.341C135.614 191.761 134.925 191.301 134.167 190.987C133.41 190.673 132.597 190.512 131.777 190.512C130.957 190.512 130.144 190.673 129.386 190.987C128.629 191.301 127.94 191.761 127.36 192.341C126.78 192.921 126.32 193.61 126.006 194.368C125.692 195.126 125.53 195.938 125.53 196.758V209.125C125.53 209.945 125.692 210.757 126.006 211.515C126.32 212.273 126.78 212.961 127.36 213.542C127.94 214.122 128.629 214.582 129.386 214.896C130.144 215.21 130.957 215.371 131.777 215.371C132.597 215.371 133.41 215.21 134.167 214.896C134.925 214.582 135.614 214.122 136.194 213.542C136.774 212.961 137.234 212.273 137.548 211.515C137.862 210.757 138.024 209.945 138.024 209.125Z" fill="#FBFBFB"/>
<path d="M97.2669 189.679V203.819C97.2669 204.64 97.1053 205.452 96.7914 206.21C96.4775 206.968 96.0174 207.656 95.4373 208.236C94.8573 208.816 94.1686 209.277 93.4108 209.59C92.6529 209.904 91.8406 210.066 91.0203 210.066C90.2 210.066 89.3877 209.904 88.6299 209.59C87.872 209.277 87.1834 208.816 86.6033 208.236C86.0233 207.656 85.5632 206.968 85.2492 206.21C84.9353 205.452 84.7737 204.64 84.7737 203.819V189.679C84.7737 188.858 84.9353 188.046 85.2493 187.288C85.5632 186.53 86.0233 185.842 86.6033 185.262C87.1834 184.682 87.872 184.221 88.6299 183.908C89.3877 183.594 90.2 183.432 91.0203 183.432C91.8406 183.432 92.6529 183.594 93.4108 183.908C94.1686 184.221 94.8573 184.682 95.4373 185.262C96.0174 185.842 96.4775 186.53 96.7914 187.288C97.1053 188.046 97.2669 188.858 97.2669 189.679Z" fill="#FBFBFB"/>
<path d="M52.2735 207.35L53.9392 191.453C53.9784 189.749 53.3449 188.098 52.1758 186.858C51.0066 185.618 49.396 184.888 47.6926 184.826C44.0714 184.826 41.8263 187.886 41.4461 191.453L39.7803 207.35C39.7411 209.054 40.3747 210.705 41.5438 211.945C42.713 213.186 44.3235 213.915 46.0269 213.977C49.7205 213.977 51.8933 210.935 52.2735 207.35Z" fill="#FBFBFB"/>
<path d="M17.1116 200.289C17.5823 203.856 16.3692 207.405 12.748 208.455C9.79675 209.306 5.54185 207.368 5.07109 203.82L3.40531 191.453C2.91645 187.886 4.14767 184.337 7.76887 183.305C10.7202 182.491 14.9751 184.301 15.4458 187.922L17.1116 200.289Z" fill="#FBFBFB"/>
</svg>
