<svg width="16" height="16" viewBox="0 0 16 16" fill="none" xmlns="http://www.w3.org/2000/svg">
<path fill-rule="evenodd" clip-rule="evenodd" d="M1.42876 2H14.5714C14.9583 2 15.2932 2.13354 15.576 2.40048C15.8585 2.66776 16.0001 2.98866 16.0001 3.36368C16.0001 3.81255 15.8541 4.24154 15.5629 4.6505C15.2711 5.05947 14.9081 5.40904 14.4737 5.69872C13.029 6.65582 11.9389 7.3784 11.1986 7.86933C10.7918 8.13896 10.4893 8.33974 10.2951 8.46871C10.2663 8.48803 10.2213 8.51856 10.1616 8.55949C10.0972 8.60344 10.0158 8.65945 9.91557 8.72869C9.72211 8.86226 9.56141 8.97018 9.43342 9.05264C9.30519 9.13494 9.15054 9.22727 8.96904 9.32959C8.78737 9.43194 8.6163 9.50861 8.45563 9.55971C8.29488 9.61079 8.14606 9.63641 8.00921 9.63641H8.00032H7.99143C7.85455 9.63641 7.70576 9.61079 7.54504 9.55971C7.38434 9.50861 7.21312 9.43177 7.0316 9.32959C6.84993 9.22727 6.69507 9.13513 6.56725 9.05264C6.43926 8.97018 6.27856 8.86223 6.08513 8.72869C5.98467 8.65945 5.90325 8.60347 5.83891 8.55935L5.83244 8.55494C5.77593 8.51637 5.73314 8.48717 5.70557 8.46871C5.45633 8.30139 5.15446 8.09978 4.80442 7.86697C4.39375 7.59357 3.91587 7.27675 3.36635 6.91325C2.34839 6.24006 1.73825 5.83517 1.53592 5.69872C1.16686 5.46012 0.818591 5.13209 0.491297 4.71447C0.164003 4.29669 0.000283779 3.90891 0.000283779 3.55102C0.000283779 3.10794 0.123654 2.73849 0.370802 2.44307C0.617747 2.14779 0.970255 2 1.42876 2ZM0 5.8693C0.261876 6.14778 0.562677 6.39501 0.901881 6.61087C2.16623 7.43102 3.1961 8.10627 3.99541 8.63893L0 12.4527V5.8693ZM15.5075 13.6628C15.2426 13.8866 14.931 14 14.5713 14H1.42863C1.06901 14 0.757166 13.8866 0.492269 13.6628L5.02619 9.33447C5.1396 9.4122 5.24449 9.48482 5.33908 9.551C5.67848 9.78961 5.95366 9.97575 6.16505 10.1091C6.37624 10.2429 6.65749 10.3791 7.00878 10.5183C7.36006 10.6576 7.68736 10.727 7.99101 10.727H7.9999H8.00879C8.3124 10.727 8.6397 10.6576 8.99102 10.5183C9.3421 10.3791 9.62335 10.2429 9.83474 10.1091C10.0462 9.97575 10.3215 9.78958 10.6607 9.551C10.7603 9.48227 10.8657 9.40998 10.9745 9.33564L15.5075 13.6628ZM15.1072 6.61087C13.891 7.39658 12.8574 8.07299 12.0062 8.64045L16 12.4529V5.8693C15.7439 6.14218 15.4464 6.38924 15.1072 6.61087Z" fill="#D13058"/>
</svg>
