<svg width="57" height="58" viewBox="0 0 57 58" fill="none" xmlns="http://www.w3.org/2000/svg">
<path fill-rule="evenodd" clip-rule="evenodd" d="M28.5599 0C43.516 0 55.7673 11.4558 57.0004 26.0539H47.2948C46.1015 16.8257 38.1461 9.66581 28.5599 9.66581C18.1383 9.66581 9.66581 18.0985 9.66581 28.5201C9.66581 38.9815 18.1383 47.4142 28.5599 47.4142C37.6688 47.4142 45.2662 40.9703 47.0562 32.3785H56.8811C54.9718 46.3402 43.0387 57.08 28.5599 57.08C12.8082 57.08 0 44.3116 0 28.5201C0 12.7684 12.8082 0 28.5599 0Z" fill="#511D1F"/>
<path d="M28.7179 22.713C28.6383 22.7528 28.5986 22.9914 28.5986 22.9914C28.5986 22.9914 28.1212 23.5085 28.4395 23.9063C28.7577 24.3041 29.1952 23.8665 29.4737 23.9063C29.7521 23.9461 30.1499 24.1848 30.5079 23.9859C30.8659 23.787 31.025 23.5483 30.7863 23.429C30.5079 23.3097 29.8317 23.2699 29.8317 23.071C29.8317 22.8721 29.9112 22.4346 29.8317 22.4346C29.7521 22.4346 29.1555 22.6335 29.2748 22.8323C29.7919 22.9517 29.4737 23.1506 29.3543 23.1903C29.235 23.2301 28.9566 23.1903 29.0361 23.0312C29.1157 22.8721 28.7975 22.6732 28.7179 22.713Z" fill="#511D1F"/>
<path d="M32.1795 22.2749C32.0999 22.1555 31.7022 21.9169 31.7022 21.9169C31.4635 21.7975 31.4237 22.1555 31.3044 22.5533C31.1851 22.9511 32.0999 23.3091 32.2988 23.5079C32.4977 23.7068 32.3784 23.9853 32.5375 24.1444C32.6966 24.3433 33.2932 24.383 33.4523 24.2239C33.6115 24.0648 33.4523 23.9057 33.4523 23.9057C33.4523 23.9057 33.2137 23.5875 33.0148 23.3488C32.8159 23.1102 33.0148 23.0704 32.8159 22.9113C32.6568 22.7522 32.5375 22.9511 32.1795 22.7522C31.8215 22.5533 32.259 22.3942 32.1795 22.2749Z" fill="#511D1F"/>
<path d="M44.2346 29.4756C44.0755 29.3165 43.9562 28.7596 43.638 28.5607C43.2004 28.2823 42.8026 27.5265 42.564 26.8901C42.2855 26.2537 41.848 26.0548 41.848 26.0548C41.848 26.0548 41.4104 25.4581 40.9331 25.7763C40.4558 26.0946 40.0183 26.1741 39.9785 26.6117C39.9387 27.0492 40.2967 28.3221 39.9785 28.3618C39.8989 28.3618 39.5012 28.2027 39.342 27.9641C38.9443 27.2481 38.6261 25.7763 38.3078 25.6968C37.9101 25.5775 37.7907 25.8559 37.6714 25.8559C37.5521 25.8559 37.2736 25.5377 37.0748 25.657C36.8361 25.7763 36.3588 26.4526 35.9212 26.4128C35.4439 26.373 35.245 26.0946 35.0859 26.4128C34.9268 26.731 34.1313 26.5321 33.9324 26.2537C33.7335 25.9752 33.3357 26.0548 33.5744 26.4526C33.813 26.8503 34.2506 27.6856 34.8075 27.447C35.3643 27.2083 35.6826 26.8901 36.1201 27.2879C36.5179 27.6459 36.3985 28.4016 35.8417 28.9983C35.245 29.5949 34.529 30.5894 34.3301 30.7087C34.1313 30.828 33.7733 31.0269 33.5346 30.2711C33.2959 29.5154 32.3413 29.2767 32.3015 28.9585C32.2617 28.6801 30.9889 27.5265 30.79 27.447C30.5911 27.3674 30.2331 27.7254 30.79 28.521C31.3469 29.3165 31.4264 30.47 32.2617 30.7087C33.0971 30.9473 33.1368 31.3849 33.3755 31.5042C33.6142 31.6236 34.6881 31.544 34.8075 31.3451C34.9268 31.1065 35.6826 30.9076 35.4041 31.5838C35.1257 32.26 34.9666 33.1351 33.8926 34.4875C32.8186 35.8399 32.8584 35.8797 32.938 36.5559C33.0175 37.2321 32.8982 37.9083 32.3413 38.3061C31.7446 38.7039 31.5458 38.6641 31.4264 39.1414C31.3071 39.6585 29.358 41.1303 27.9658 41.0109C26.5736 40.8916 26.2952 40.0165 26.0565 39.579C25.8576 39.1812 25.3405 38.9425 25.7781 38.1868C26.2156 37.431 25.1814 36.4366 25.1814 36.4366C25.1814 36.4366 24.5052 35.6808 24.545 34.8853C24.5848 34.1295 24.0279 33.8113 23.7892 33.9306C23.5506 34.05 23.6301 33.5329 22.9937 33.334C22.3573 33.1351 20.806 34.2488 19.6127 33.2146C18.4193 32.2202 17.8625 30.828 18.1011 29.8734C18.3398 28.9187 18.4193 28.521 18.4193 28.521C18.4193 28.521 18.7773 27.6856 19.8513 26.9697C20.9253 26.2537 21.0446 25.4979 21.522 25.4581C21.9595 25.4184 22.3175 25.6172 22.3175 25.6172C22.3175 25.6172 22.5164 25.6968 23.2324 25.4581C23.9484 25.2592 24.8632 25.1399 24.9428 25.5377C25.0621 25.9354 24.7041 26.2537 25.2212 26.4923C25.7383 26.6912 26.6532 27.5663 26.9714 27.2083C27.2896 26.8503 27.1703 26.4128 27.5681 26.4923C28.0056 26.5719 29.0398 27.0492 29.358 26.9697C29.6762 26.8901 30.4718 26.9697 30.5513 26.0548C30.5911 25.1399 30.7104 25.0206 29.9945 25.1399C29.2785 25.2592 28.6023 25.4581 28.4829 24.941C28.3636 24.4239 27.6078 24.225 27.5681 24.4637C27.5283 24.7024 27.9658 24.941 27.6874 24.9808C27.4089 25.0206 27.3692 24.5035 26.9316 24.1853C26.4941 23.8273 26.0963 23.0715 25.7383 23.1113C25.3803 23.1511 25.7383 23.8671 25.977 24.0659C26.2156 24.2648 26.693 24.5433 26.693 24.5433L26.5736 24.6626L26.2554 24.5433C26.2554 24.5433 26.4941 24.7421 26.4941 24.9012C26.4941 25.0604 26.1759 25.3786 26.1759 25.3786C26.1759 25.3786 26.0168 25.3786 26.0963 25.0206C26.2156 24.7024 24.7041 23.5886 24.3859 23.5886C24.0677 23.5886 24.0279 23.5091 23.8688 23.8273C23.7097 24.1455 23.0733 24.3841 23.0733 24.3841C23.0733 24.3841 22.9141 25.2592 22.1982 24.9808C21.4822 24.7024 21.4424 23.4295 22.0788 23.3102C22.6755 23.2306 22.9539 23.6682 23.1528 23.3897C23.3915 23.1113 23.6301 22.9919 23.3915 22.7135C23.1528 22.4351 23.471 22.1169 23.9881 21.918C24.5052 21.7191 24.5052 21.2815 25.2212 21.1622C25.9372 21.0429 26.5339 21.2815 26.7725 21.0429C26.9714 20.8042 27.1305 20.2473 27.0112 19.7302C26.8918 19.2131 26.5339 19.1336 26.4941 19.3722C26.4941 19.6109 26.6134 20.4462 26.2554 20.486C25.8974 20.486 25.8974 19.9291 25.6588 20.0087C25.4201 20.0882 24.8632 19.6109 25.3008 19.2529C25.7383 18.8949 26.2156 18.338 26.6532 17.9403C27.0907 17.5425 27.926 17.8209 27.926 18.1392C27.926 18.4574 27.5681 18.6563 27.8863 18.6563C28.2443 18.6563 28.5227 17.8607 28.7216 17.8209C28.9205 17.7812 29.4376 17.463 29.358 17.0652C29.3182 16.6674 28.7614 16.4685 29.0796 16.2299C29.3978 15.9912 30.0342 16.3094 30.3127 16.1105C30.5911 15.9117 30.8695 15.0365 30.4718 14.7581C30.074 14.4797 29.5967 14.2808 29.6762 14.0421C29.7558 13.8035 29.9945 14.241 30.3524 14.1615C30.7104 14.0819 31.6651 14.5195 32.3015 15.1161C32.938 15.7128 33.7733 15.3945 33.7733 15.3945C33.7733 15.3945 34.8472 14.9172 35.603 15.2354C36.3588 15.5139 37.6316 16.7867 37.7907 16.3492C37.9499 15.9912 36.9554 15.315 36.9156 15.0366C34.529 13.6046 31.7049 12.7295 28.6818 12.7295C25.8974 12.7295 23.3119 13.4455 21.0446 14.6786C21.0446 14.6786 21.0446 14.6786 21.0844 14.6786C21.6811 14.4399 22.755 14.3206 23.3915 14.0023C24.0677 13.6841 25.3803 13.525 25.3008 13.6841C25.2212 13.8432 24.903 14.2012 24.3461 14.2808C23.7892 14.3603 23.4312 14.8377 23.4312 14.8377C23.4312 14.8377 22.6755 15.1957 22.4368 15.3548C22.1982 15.5139 22.4766 16.1503 22.0788 16.031C21.6811 15.9116 21.4822 15.7923 20.4878 15.7525C19.4933 15.7525 18.7773 16.8265 18.7773 17.0652C18.7773 17.3038 19.4933 17.0652 19.8115 16.8663C20.1298 16.6674 20.9253 16.4685 21.0446 16.5879C21.164 16.7072 20.6866 17.0652 20.4082 17.1447C20.1298 17.2243 20.2491 17.3436 20.2491 17.3436C20.2491 17.3436 20.6071 17.5425 20.3286 17.6618C20.0104 17.7812 19.8911 18.0994 19.4536 18.4176C19.0558 18.7358 18.7376 18.8551 18.5387 18.2983C18.3398 17.7414 17.8227 18.0596 17.7431 18.1392C17.7034 18.2187 18.1011 18.2983 18.1011 18.4574C18.1011 18.6165 17.6238 18.8551 17.2658 18.6165C16.9078 18.3778 16.5498 18.4176 16.5498 18.4176C14.203 21.202 12.8108 24.7421 12.8108 28.6403C12.8108 37.3912 19.9309 44.5113 28.6818 44.5113C37.1145 44.5113 43.996 37.9481 44.5131 29.6347C44.3539 29.5552 44.2744 29.5154 44.2346 29.4756ZM21.4026 17.8209C21.4026 17.8209 22.3175 17.0254 22.8346 17.0652C23.3517 17.105 23.8688 16.6276 24.1075 16.2696C24.3461 15.9116 25.2212 15.8321 25.5792 15.9117C25.9372 15.9912 25.5792 16.3094 25.5792 16.3094C25.5792 16.3094 24.5052 17.0652 24.3063 17.3834C24.1075 17.7016 23.5108 17.6618 22.7153 17.7016C21.9197 17.7812 21.3628 18.2187 21.3628 18.2187C21.0049 18.0994 21.4026 17.8209 21.4026 17.8209Z" fill="#511D1F"/>
</svg>
