<svg width="24" height="15" viewBox="0 0 24 15" fill="none" xmlns="http://www.w3.org/2000/svg">
<path d="M12.1449 15C14.7692 15 14.5468 13.395 14.6468 12.17C14.6428 11.698 14.6388 11.244 14.6548 10.968C14.8748 11.03 15.3938 11.293 16.4658 12.335C18.1208 14.005 18.5438 15 19.8808 15H22.3418C23.1217 15 23.5277 14.677 23.7307 14.406C23.9267 14.144 24.1187 13.684 23.9087 12.968C23.3597 11.244 20.1578 8.267 19.9588 7.953C19.9888 7.895 20.0368 7.818 20.0618 7.778H20.0598C20.6918 6.943 23.1037 3.329 23.4587 1.883C23.4597 1.881 23.4607 1.878 23.4607 1.875C23.6527 1.215 23.4767 0.787 23.2947 0.545C23.0207 0.183 22.5848 0 21.9958 0H19.5348C18.7108 0 18.0858 0.415 17.7698 1.172C17.2408 2.517 15.7548 5.283 14.6408 6.262C14.6068 4.875 14.6298 3.816 14.6478 3.029C14.6838 1.494 14.7998 0 13.2069 0H9.3389C8.34091 0 7.38592 1.09 8.41991 2.384C9.3239 3.518 8.7449 4.15 8.9399 7.296C8.17991 6.481 6.82793 4.28 5.87194 1.467C5.60394 0.706 5.19794 0.000999928 4.05496 0.000999928H1.59398C0.595993 0.000999928 0 0.545 0 1.456C0 3.502 4.52895 15 12.1449 15ZM4.05496 1.501C4.27195 1.501 4.29395 1.501 4.45495 1.958C5.43394 4.841 7.62992 9.107 9.2339 9.107C10.4389 9.107 10.4389 7.872 10.4389 7.407L10.4379 3.705C10.3719 2.48 9.92589 1.87 9.63289 1.5L13.1409 1.504C13.1429 1.521 13.1209 5.599 13.1509 6.587C13.1509 7.99 14.2648 8.794 16.0038 7.034C17.8388 4.963 19.1078 1.867 19.1588 1.741C19.2338 1.561 19.2988 1.5 19.5348 1.5H21.9958H22.0058C22.0048 1.503 22.0048 1.506 22.0038 1.509C21.7788 2.559 19.5578 5.905 18.8148 6.944C18.8028 6.96 18.7918 6.977 18.7808 6.994C18.4538 7.528 18.1878 8.118 18.8258 8.948H18.8268C18.8848 9.018 19.0358 9.182 19.2558 9.41C19.9398 10.116 22.2858 12.53 22.4938 13.49C22.3558 13.512 22.2058 13.496 19.8808 13.501C19.3858 13.501 18.9988 12.761 17.5218 11.271C16.1938 9.979 15.3318 9.451 14.5468 9.451C13.0229 9.451 13.1339 10.688 13.1479 12.184C13.1529 13.806 13.1429 13.293 13.1539 13.395C13.0649 13.43 12.8099 13.5 12.1449 13.5C5.79994 13.5 1.66798 3.429 1.50898 1.504C1.56398 1.499 2.32097 1.502 4.05496 1.501Z" fill="#252525" fill-opacity="0.3"/>
</svg>
